<svg width="27" height="32" viewBox="0 0 27 32" fill="none" xmlns="http://www.w3.org/2000/svg">
<path d="M21.7186 17.0139C21.7344 15.7882 22.0597 14.5863 22.6643 13.5199C23.2688 12.4535 24.133 11.5571 25.1766 10.9139C24.5146 9.96593 23.6406 9.18546 22.6239 8.63462C21.6073 8.08378 20.4762 7.77778 19.3206 7.74094C16.8566 7.48194 14.4676 9.21794 13.2116 9.21794C11.9316 9.21794 9.99755 7.76694 7.91155 7.80994C6.56429 7.85403 5.25144 8.24651 4.10105 8.94912C2.95066 9.65173 2.00199 10.6405 1.34755 11.8189C-1.49045 16.7399 0.626552 23.9729 3.34755 27.9509C4.70755 29.8989 6.29755 32.0749 8.37755 31.9979C10.4136 31.9129 11.1776 30.6979 13.6306 30.6979C16.0646 30.6979 16.7786 31.9979 18.9006 31.9489C21.0846 31.9129 22.4606 29.9919 23.7736 28.0259C24.7509 26.6377 25.5028 25.1038 26.0016 23.4809C24.7318 22.9424 23.6485 22.0422 22.8868 20.8925C22.125 19.7427 21.7184 18.3942 21.7176 17.0149L21.7186 17.0139Z" fill="white"/>
<path d="M17.7106 5.12602C18.904 3.6957 19.4927 1.85646 19.3516 -0.000976562C17.5306 0.190504 15.8486 1.06097 14.6406 2.43702C14.05 3.10921 13.5976 3.89122 13.3093 4.73834C13.0211 5.58546 12.9026 6.48108 12.9606 7.37402C13.8715 7.38333 14.7726 7.18586 15.596 6.79647C16.4195 6.40708 17.1439 5.83593 17.7146 5.12602H17.7106Z" fill="white"/>
</svg>
