<svg width="190" height="32" viewBox="0 0 190 32" fill="none" xmlns="http://www.w3.org/2000/svg">
<path d="M8.379 0.999973L0 31.896H6.808L11.783 13.552L16.758 31.896H23.566L15.187 0.995972L8.379 0.999973Z" fill="white"/>
<path d="M124.5 1L116.121 31.9H122.929L127.904 13.556L132.879 31.9H139.687L131.308 1H124.5Z" fill="white"/>
<path d="M41.8917 1L36.9177 19.343L31.9437 1H25.1357L33.5137 31.894H40.3217L48.6997 1H41.8917Z" fill="white"/>
<path d="M66.7648 1L61.7908 19.343L56.8168 1H50.0088L58.3868 31.894H65.1948L73.5728 1H66.7648Z" fill="white"/>
<path d="M85.7491 8.986L82.3491 0.999996H75.5381L82.3461 16.967V31.896H89.1541V16.967L95.9621 0.994995H89.1541L85.7491 8.986Z" fill="white"/>
<path d="M104.994 22.612V1H98.1855V22.612C98.189 25.074 99.1685 27.4342 100.909 29.1751C102.65 30.916 105.011 31.8956 107.473 31.899H114.073V25.091H107.473C106.815 25.0902 106.185 24.8288 105.721 24.364C105.256 23.8993 104.994 23.2692 104.994 22.612Z" fill="white"/>
<path d="M154.872 1H150.639C148.117 1.00291 145.699 2.00611 143.915 3.78951C142.132 5.57291 141.129 7.99089 141.126 10.513V31.896H147.934V10.513C147.935 9.79557 148.22 9.10775 148.727 8.60045C149.235 8.09315 149.923 7.80779 150.64 7.807H154.873C155.59 7.80779 156.278 8.09315 156.786 8.60045C157.293 9.10775 157.578 9.79557 157.579 10.513V31.896H164.387V10.513C164.384 7.99054 163.381 5.57226 161.597 3.7888C159.813 2.00534 157.394 1.00238 154.872 1Z" fill="white"/>
<path d="M179.831 1H166.087V31.9H179.831C182.527 31.8971 185.112 30.8245 187.019 28.9176C188.925 27.0108 189.998 24.4254 190 21.729V11.167C189.996 8.47133 188.924 5.88717 187.017 3.98123C185.111 2.07529 182.527 1.00317 179.831 1ZM183.192 21.729C183.191 22.6201 182.836 23.4743 182.206 24.1044C181.576 24.7345 180.722 25.0889 179.831 25.09H172.894V7.808H179.831C180.722 7.80906 181.576 8.16351 182.206 8.79359C182.836 9.42367 183.191 10.2779 183.192 11.169V21.729Z" fill="white"/>
</svg>
