<svg width="29" height="34" viewBox="0 0 29 34" fill="none" xmlns="http://www.w3.org/2000/svg">
<path d="M0.57952 1.49408C0.172587 1.98245 -0.0330214 2.6075 0.00451965 3.24208V30.7561C-0.0337349 31.3907 0.171958 32.0161 0.57952 32.5041L0.671519 32.5941L16.0965 17.1811V16.8181L0.671519 1.40308L0.57952 1.49408Z" fill="url(#paint0_linear)"/>
<path d="M21.2171 22.3251L16.0771 17.1811V16.8171L21.2201 11.6741L21.3361 11.7411L27.4281 15.2021C29.1671 16.1911 29.1671 17.8081 27.4281 18.7961L21.3361 22.2571L21.2171 22.3251Z" fill="url(#paint1_linear)"/>
<path d="M21.3551 22.2461L16.0961 16.9861L0.579102 32.5041C0.933812 32.8168 1.38672 32.9955 1.85938 33.0094C2.33203 33.0233 2.79465 32.8714 3.1671 32.5801L21.3551 22.2461Z" fill="url(#paint2_linear)"/>
<path d="M21.3551 11.752L3.1671 1.41801C2.79465 1.12667 2.33203 0.974786 1.85938 0.988667C1.38672 1.00255 0.933812 1.18132 0.579102 1.49401L16.0961 17.011L21.3551 11.752Z" fill="url(#paint3_linear)"/>
<path opacity="0.2" d="M21.2442 22.1299L3.16722 32.3979C2.80881 32.672 2.37076 32.8216 1.91957 32.8242C1.46837 32.8267 1.02868 32.6819 0.667219 32.4119L0.574219 32.5039L0.666218 32.5949C1.02768 32.8649 1.46737 33.0097 1.91857 33.0072C2.36976 33.0046 2.80781 32.855 3.16622 32.5809L21.3552 22.2459L21.2442 22.1299Z" fill="black"/>
<path opacity="0.12" d="M0.57952 32.322C0.172345 31.8334 -0.0332798 31.2079 0.00451965 30.573V30.76C-0.0337349 31.3947 0.171958 32.02 0.57952 32.508L0.672521 32.416L0.57952 32.322Z" fill="black"/>
<path opacity="0.12" d="M27.4268 18.6131L21.2188 22.1401L21.3348 22.2561L27.4268 18.7961C27.7845 18.6395 28.0937 18.39 28.3223 18.0734C28.5509 17.7569 28.6906 17.3849 28.7267 16.9961C28.6506 17.3481 28.4935 17.6775 28.2679 17.9582C28.0422 18.2389 27.7542 18.4631 27.4268 18.6131Z" fill="black"/>
<path opacity="0.25" d="M3.1658 1.60012L27.4318 15.3951C27.7592 15.5449 28.0471 15.7689 28.2728 16.0495C28.4985 16.33 28.6556 16.6592 28.7318 17.0111C28.696 16.6222 28.5565 16.25 28.3279 15.9334C28.0992 15.6168 27.7897 15.3673 27.4318 15.2111L3.1698 1.41112C1.4308 0.422117 0.00879745 1.24412 0.00879745 3.23612V3.41912C0.00479745 1.43312 1.4318 0.612116 3.1658 1.60012Z" fill="white"/>
<defs>
<linearGradient id="paint0_linear" x1="14.7283" y1="207.7" x2="-9.96799" y2="201.132" gradientUnits="userSpaceOnUse">
<stop stop-color="#00A0FF"/>
<stop offset="0.007" stop-color="#00A1FF"/>
<stop offset="0.26" stop-color="#00BEFF"/>
<stop offset="0.512" stop-color="#00D2FF"/>
<stop offset="0.76" stop-color="#00DFFF"/>
<stop offset="1" stop-color="#00E3FF"/>
</linearGradient>
<linearGradient id="paint1_linear" x1="29.6942" y1="193.785" x2="-0.437949" y2="193.785" gradientUnits="userSpaceOnUse">
<stop stop-color="#FFE000"/>
<stop offset="0.409" stop-color="#FFBD00"/>
<stop offset="0.775" stop-color="#FFA500"/>
<stop offset="1" stop-color="#FF9C00"/>
</linearGradient>
<linearGradient id="paint2_linear" x1="18.488" y1="191.057" x2="-1.34917" y2="157.657" gradientUnits="userSpaceOnUse">
<stop stop-color="#FF3A44"/>
<stop offset="1" stop-color="#C31162"/>
</linearGradient>
<linearGradient id="paint3_linear" x1="-3.32679" y1="218.631" x2="5.53795" y2="203.721" gradientUnits="userSpaceOnUse">
<stop stop-color="#32A071"/>
<stop offset="0.068" stop-color="#2DA771"/>
<stop offset="0.476" stop-color="#15CF74"/>
<stop offset="0.801" stop-color="#06E775"/>
<stop offset="1" stop-color="#00F076"/>
</linearGradient>
</defs>
</svg>
