<svg width="450" height="2933" viewBox="0 0 450 2933" fill="none" xmlns="http://www.w3.org/2000/svg">
<path d="M299.5 347L448.456 433V605L299.5 691L150.544 605V433L299.5 347Z" fill="#1F1D1D" stroke="#333333" stroke-width="2"/>
<path d="M298.213 397.999C310.268 397.999 319.713 392.508 319.713 385.499V374.999H319.671C319.23 368.233 309.977 362.999 298.213 362.999C286.449 362.999 277.195 368.233 276.755 374.999H276.713V385.499C276.713 392.505 286.157 397.999 298.213 397.999ZM298.213 364.999C308.783 364.999 317.713 369.808 317.713 375.499C317.713 381.19 308.783 385.999 298.213 385.999C287.643 385.999 278.713 381.191 278.713 375.499C278.713 369.807 287.642 364.999 298.213 364.999ZM278.713 380.821C282.094 385.094 289.454 387.999 298.213 387.999C306.972 387.999 314.331 385.099 317.713 380.821V385.499C317.713 391.191 308.783 395.999 298.213 395.999C287.643 395.999 278.713 391.191 278.713 385.499V380.821Z" fill="#333333"/>
<path d="M217.213 444.999C229.268 444.999 238.713 439.508 238.713 432.499V421.999H238.671C238.23 415.233 228.977 409.999 217.213 409.999C205.449 409.999 196.195 415.233 195.755 421.999H195.713V432.499C195.713 439.505 205.157 444.999 217.213 444.999ZM217.213 411.999C227.783 411.999 236.713 416.808 236.713 422.499C236.713 428.19 227.783 432.999 217.213 432.999C206.643 432.999 197.713 428.191 197.713 422.499C197.713 416.807 206.642 411.999 217.213 411.999ZM217.213 434.999C225.971 434.999 233.331 432.099 236.713 427.821V432.499C236.713 438.191 227.783 442.999 217.213 442.999C206.643 442.999 197.713 438.191 197.713 432.499V427.821C201.094 432.091 208.454 434.999 217.213 434.999Z" fill="#333333"/>
<path d="M164.61 594.423C169.077 603.214 176.027 608.783 181.829 608.783C182.931 608.786 184.022 608.563 185.034 608.128L185.048 608.155L185.485 607.933H185.494H185.5L194.409 603.406C200.657 600.232 201.274 589.325 195.809 578.576C190.344 567.827 181.173 561.896 174.926 565.076L166.013 569.604L165.569 569.829L165.588 569.866C159.757 573.315 159.283 583.934 164.61 594.423ZM175.838 566.847C180.907 564.268 189.238 570.052 194.031 579.476C198.824 588.9 198.577 599.038 193.503 601.616L189.332 603.735C191.61 598.785 190.866 590.907 186.899 583.099C182.932 575.291 177.009 570.045 171.668 568.965L175.838 566.847ZM166.919 571.378C171.988 568.805 180.319 574.584 185.111 584.007C189.903 593.43 189.657 603.562 184.588 606.145L184.577 606.15C179.505 608.721 171.177 602.939 166.388 593.519C161.599 584.099 161.847 573.958 166.919 571.378V571.378Z" fill="#333333"/>
<path d="M262.829 562.783C263.931 562.786 265.021 562.563 266.034 562.128L266.048 562.155L266.485 561.933H266.494H266.5L275.409 557.406C281.657 554.232 282.274 543.325 276.809 532.576C271.344 521.827 262.175 515.897 255.926 519.076L247.013 523.604L246.569 523.829L246.588 523.866C240.756 527.324 240.281 537.943 245.609 548.432C250.077 557.214 257.027 562.783 262.829 562.783ZM256.838 520.847C261.91 518.267 270.243 524.052 275.031 533.476C279.819 542.9 279.577 553.038 274.503 555.616L270.332 557.735C272.61 552.785 271.866 544.907 267.899 537.099C263.932 529.291 258.008 524.046 252.668 522.965L256.838 520.847ZM247.919 525.378C252.989 522.804 261.319 528.584 266.111 538.007C270.903 547.43 270.657 557.562 265.588 560.145H265.577C260.502 562.716 252.177 556.933 247.388 547.514C242.599 538.095 242.847 527.958 247.919 525.378V525.378Z" fill="#333333"/>
<path d="M320.452 649.951L329.31 655.588L329.33 655.557C330.557 656.224 331.933 656.568 333.33 656.557C335.67 656.479 337.955 655.826 339.984 654.657C344.491 652.043 348.27 648.342 350.978 643.891C357.294 633.964 357.845 623.349 352.378 619.345L352.4 619.31L351.979 619.042L343.543 613.675C337.628 609.915 327.929 614.932 321.455 625.104C318.57 629.442 316.818 634.433 316.36 639.623C316.083 644.431 317.542 648.099 320.452 649.951ZM349.29 642.817C346.767 646.981 343.243 650.447 339.037 652.899C335.458 654.821 332.237 655.083 329.963 653.636C325.163 650.581 325.897 640.465 331.572 631.548C336.106 624.422 342.672 619.828 347.572 619.828C348.744 619.802 349.899 620.115 350.898 620.728V620.728C355.701 623.785 354.963 633.899 349.29 642.817V642.817ZM318.35 639.732C318.789 634.884 320.434 630.224 323.135 626.175C328.809 617.259 337.657 612.303 342.462 615.36L346.41 617.872C340.988 618.431 334.586 623.081 329.884 630.472C325.182 637.863 323.684 645.63 325.473 650.777L321.526 648.266C319.253 646.817 318.125 643.788 318.35 639.732V639.732Z" fill="#333333"/>
<path d="M401.452 507.951L410.31 513.588L410.33 513.557C411.557 514.224 412.933 514.569 414.33 514.557C416.67 514.479 418.955 513.826 420.984 512.657C425.491 510.043 429.27 506.342 431.978 501.891C438.294 491.964 438.845 481.349 433.378 477.345L433.4 477.31L432.979 477.042L424.543 471.675C418.628 467.914 408.929 472.931 402.455 483.104C399.57 487.442 397.818 492.434 397.36 497.623C397.083 502.431 398.542 506.099 401.452 507.951ZM430.29 500.817C427.767 504.981 424.243 508.447 420.037 510.899C416.458 512.822 413.237 513.084 410.963 511.636C406.163 508.581 406.897 498.466 412.572 489.548C417.106 482.422 423.672 477.828 428.572 477.828C429.744 477.802 430.899 478.115 431.898 478.728V478.728C436.701 481.785 435.963 491.899 430.29 500.817V500.817ZM399.35 497.732C399.789 492.884 401.434 488.224 404.135 484.175C409.809 475.259 418.655 470.303 423.462 473.36L427.409 475.872C421.987 476.431 415.587 481.081 410.884 488.472C406.181 495.863 404.684 503.63 406.473 508.777L402.526 506.266C400.253 504.817 399.125 501.788 399.35 497.732V497.732Z" fill="#333333"/>
<path d="M298.213 491.999C310.268 491.999 319.713 486.508 319.713 479.499V468.999H319.671C319.23 462.233 309.977 456.999 298.213 456.999C286.449 456.999 277.195 462.233 276.755 468.999H276.713V479.499C276.713 486.505 286.157 491.999 298.213 491.999ZM298.213 458.999C308.783 458.999 317.713 463.808 317.713 469.499C317.713 475.19 308.783 479.999 298.213 479.999C287.643 479.999 278.713 475.191 278.713 469.499C278.713 463.807 287.642 458.999 298.213 458.999ZM278.713 474.821C282.094 479.094 289.454 481.999 298.213 481.999C306.972 481.999 314.331 479.099 317.713 474.821V479.499C317.713 485.191 308.783 489.999 298.213 489.999C287.643 489.999 278.713 485.191 278.713 479.499V474.821Z" fill="#333333"/>
<path d="M380.213 444.999C392.268 444.999 401.713 439.508 401.713 432.499V421.999H401.671C401.23 415.233 391.977 409.999 380.213 409.999C368.449 409.999 359.195 415.233 358.755 421.999H358.713V432.499C358.713 439.505 368.157 444.999 380.213 444.999ZM380.213 411.999C390.783 411.999 399.713 416.808 399.713 422.499C399.713 428.19 390.783 432.999 380.213 432.999C369.643 432.999 360.713 428.191 360.713 422.499C360.713 416.807 369.642 411.999 380.213 411.999ZM360.713 427.821C364.094 432.094 371.454 434.999 380.213 434.999C388.972 434.999 396.331 432.099 399.713 427.821V432.499C399.713 438.191 390.783 442.999 380.213 442.999C369.643 442.999 360.713 438.191 360.713 432.499V427.821Z" fill="#333333"/>
<path d="M298.213 443.999C310.268 443.999 319.713 438.508 319.713 431.499C319.713 424.49 310.268 418.999 298.213 418.999C286.158 418.999 276.713 424.49 276.713 431.499C276.713 438.508 286.157 443.999 298.213 443.999ZM298.213 441.999C290.597 441.999 283.853 439.499 280.666 435.973C283.949 432.322 290.697 429.999 298.213 429.999C305.647 429.999 312.466 432.339 315.754 435.978C312.566 439.499 305.824 441.999 298.213 441.999ZM298.213 420.999C308.783 420.999 317.713 425.808 317.713 431.499C317.697 432.489 317.434 433.459 316.947 434.321C313.164 430.405 306.1 427.999 298.213 427.999C290.371 427.999 283.238 430.448 279.48 434.325C278.992 433.462 278.728 432.49 278.713 431.499C278.713 425.805 287.642 420.999 298.213 420.999Z" fill="#333333"/>
<path d="M189.383 511.467C190.681 511.478 191.962 511.175 193.117 510.582C199.339 507.355 199.864 496.443 194.317 485.741C192.013 481.069 188.575 477.049 184.317 474.048C180.292 471.405 176.388 470.824 173.325 472.411C170.263 473.999 168.489 477.525 168.331 482.34C168.332 487.55 169.638 492.677 172.131 497.252C176.636 505.966 183.59 511.467 189.383 511.467ZM192.538 486.667C196.045 493.428 196.929 500.567 195.268 505.017C190.516 503.785 185.346 498.864 181.886 492.192C178.454 485.575 177.393 478.422 179.131 473.829C180.585 474.237 181.964 474.879 183.213 475.729C187.183 478.539 190.387 482.298 192.533 486.662L192.538 486.667ZM174.238 474.191C175.1 473.752 176.056 473.529 177.024 473.54C177.051 473.54 177.079 473.54 177.105 473.54C175.358 478.702 176.471 486.095 180.105 493.109C183.717 500.071 189.175 505.275 194.346 506.825C193.804 507.656 193.064 508.337 192.191 508.808C187.141 511.424 178.758 505.715 173.891 496.332C171.557 492.061 170.329 487.274 170.319 482.406C170.452 478.345 171.842 475.426 174.234 474.186L174.238 474.191Z" fill="#333333"/>
<path d="M265.305 615.048C261.28 612.405 257.376 611.823 254.313 613.411C251.251 614.999 249.477 618.525 249.319 623.34C249.319 628.55 250.626 633.677 253.119 638.252C257.639 646.966 264.593 652.467 270.381 652.467C271.679 652.478 272.96 652.175 274.115 651.582C280.337 648.355 280.862 637.443 275.315 626.741C273.008 622.068 269.567 618.048 265.305 615.048V615.048ZM273.191 649.807C268.141 652.424 259.757 646.714 254.891 637.331C252.557 633.06 251.329 628.273 251.319 623.405C251.452 619.345 252.842 616.426 255.234 615.186C256.096 614.747 257.052 614.524 258.02 614.535C258.047 614.535 258.075 614.535 258.101 614.535C256.354 619.697 257.467 627.09 261.101 634.104C264.713 641.066 270.171 646.27 275.342 647.82C274.802 648.652 274.063 649.335 273.191 649.807V649.807ZM276.263 646.007C271.511 644.775 266.341 639.854 262.881 633.182C259.449 626.565 258.388 619.412 260.126 614.819C261.58 615.227 262.959 615.869 264.208 616.719C268.181 619.531 271.386 623.293 273.533 627.661C277.04 634.423 277.924 641.561 276.263 646.012V646.007Z" fill="#333333"/>
<path d="M320.798 556.717C322.125 557.534 323.658 557.956 325.217 557.933C330.86 557.933 337.823 553.087 342.805 545.133C345.659 540.775 347.376 535.771 347.798 530.578C348.03 525.766 346.548 522.108 343.626 520.278C340.704 518.448 336.766 518.711 332.537 521.02C328.049 523.666 324.295 527.394 321.619 531.864C318.764 536.222 317.048 541.227 316.627 546.419C316.394 551.227 317.876 554.885 320.798 556.717ZM345.798 530.48C345.394 535.331 343.782 540.003 341.109 544.07C335.5 553.027 326.684 558.045 321.86 555.022C321.024 554.485 320.334 553.749 319.852 552.879C325.185 551.761 330.985 547.048 335.177 540.354C339.345 533.702 341.055 526.347 339.757 521.104C340.748 521.157 341.71 521.455 342.557 521.971C344.847 523.399 345.996 526.423 345.799 530.48H345.798ZM318.624 546.512C319.028 541.662 320.64 536.99 323.313 532.922C325.807 528.742 329.307 525.253 333.495 522.773C334.81 522.028 336.239 521.503 337.724 521.22C339.092 525.941 337.481 532.909 333.482 539.293C329.528 545.605 323.912 550.148 319.076 550.993C318.682 549.534 318.529 548.02 318.625 546.512H318.624Z" fill="#333333"/>
<path d="M425.626 566.275C422.703 564.446 418.766 564.709 414.537 567.017C410.049 569.663 406.295 573.391 403.619 577.861C400.764 582.219 399.048 587.223 398.627 592.416C398.394 597.227 399.876 600.885 402.798 602.716C404.125 603.533 405.658 603.955 407.217 603.932C412.86 603.932 419.823 599.085 424.805 591.132C427.659 586.774 429.376 581.77 429.798 576.577C430.03 571.765 428.548 568.107 425.626 566.275ZM400.626 592.512C401.03 587.662 402.642 582.99 405.315 578.922C407.809 574.742 411.309 571.253 415.497 568.773C416.812 568.028 418.241 567.503 419.726 567.22C421.094 571.941 419.483 578.909 415.484 585.293C411.53 591.605 405.914 596.148 401.078 596.993C400.683 595.534 400.53 594.02 400.625 592.512H400.626ZM427.8 576.48C427.396 581.33 425.784 586.003 423.111 590.07C417.501 599.027 408.684 604.045 403.862 601.022C403.026 600.485 402.336 599.748 401.854 598.879C407.187 597.761 412.987 593.048 417.179 586.354C421.347 579.702 423.057 572.347 421.759 567.104C422.75 567.157 423.712 567.455 424.559 567.971C426.847 569.399 427.996 572.423 427.799 576.48H427.8Z" fill="#333333"/>
<path d="M150 433.5L300 515.5M300 515.5V691M300 515.5L448 433.5" stroke="#333333" stroke-width="2"/>
<path d="M299.5 175L448.456 261V433L299.5 519L150.544 433V261L299.5 175Z" fill="#1F1D1D" stroke="#38421E" stroke-width="2"/>
<path d="M298.213 225.999C310.268 225.999 319.713 220.508 319.713 213.499V202.999H319.671C319.23 196.233 309.977 190.999 298.213 190.999C286.449 190.999 277.195 196.233 276.755 202.999H276.713V213.499C276.713 220.505 286.157 225.999 298.213 225.999ZM298.213 192.999C308.783 192.999 317.713 197.808 317.713 203.499C317.713 209.19 308.783 213.999 298.213 213.999C287.643 213.999 278.713 209.191 278.713 203.499C278.713 197.807 287.642 192.999 298.213 192.999ZM278.713 208.821C282.094 213.094 289.454 215.999 298.213 215.999C306.972 215.999 314.331 213.099 317.713 208.821V213.499C317.713 219.191 308.783 223.999 298.213 223.999C287.643 223.999 278.713 219.191 278.713 213.499V208.821Z" fill="#38421E"/>
<path d="M217.213 272.999C229.268 272.999 238.713 267.508 238.713 260.499V249.999H238.671C238.23 243.233 228.977 237.999 217.213 237.999C205.449 237.999 196.195 243.233 195.755 249.999H195.713V260.499C195.713 267.505 205.157 272.999 217.213 272.999ZM217.213 239.999C227.783 239.999 236.713 244.808 236.713 250.499C236.713 256.19 227.783 260.999 217.213 260.999C206.643 260.999 197.713 256.191 197.713 250.499C197.713 244.807 206.642 239.999 217.213 239.999ZM217.213 262.999C225.971 262.999 233.331 260.099 236.713 255.821V260.499C236.713 266.191 227.783 270.999 217.213 270.999C206.643 270.999 197.713 266.191 197.713 260.499V255.821C201.094 260.091 208.454 262.999 217.213 262.999Z" fill="#38421E"/>
<path d="M164.61 422.423C169.077 431.214 176.027 436.783 181.829 436.783C182.931 436.786 184.022 436.563 185.034 436.128L185.048 436.155L185.485 435.933H185.494H185.5L194.409 431.406C200.657 428.232 201.274 417.325 195.809 406.576C190.344 395.827 181.173 389.896 174.926 393.076L166.013 397.604L165.569 397.829L165.588 397.866C159.757 401.315 159.283 411.934 164.61 422.423ZM175.838 394.847C180.907 392.268 189.238 398.052 194.031 407.476C198.824 416.9 198.577 427.038 193.503 429.616L189.332 431.735C191.61 426.785 190.866 418.907 186.899 411.099C182.932 403.291 177.009 398.045 171.668 396.965L175.838 394.847ZM166.919 399.378C171.988 396.805 180.319 402.584 185.111 412.007C189.903 421.43 189.657 431.562 184.588 434.145L184.577 434.15C179.505 436.721 171.177 430.939 166.388 421.519C161.599 412.099 161.847 401.958 166.919 399.378V399.378Z" fill="#38421E"/>
<path d="M262.829 390.783C263.931 390.786 265.021 390.563 266.034 390.128L266.048 390.155L266.485 389.933H266.494H266.5L275.409 385.406C281.657 382.232 282.274 371.325 276.809 360.576C271.344 349.827 262.175 343.897 255.926 347.076L247.013 351.604L246.569 351.829L246.588 351.866C240.756 355.324 240.281 365.943 245.609 376.432C250.077 385.214 257.027 390.783 262.829 390.783ZM256.838 348.847C261.91 346.267 270.243 352.052 275.031 361.476C279.819 370.9 279.577 381.038 274.503 383.616L270.332 385.735C272.61 380.785 271.866 372.907 267.899 365.099C263.932 357.291 258.008 352.046 252.668 350.965L256.838 348.847ZM247.919 353.378C252.989 350.804 261.319 356.584 266.111 366.007C270.903 375.43 270.657 385.562 265.588 388.145H265.577C260.502 390.716 252.177 384.933 247.388 375.514C242.599 366.095 242.847 355.958 247.919 353.378V353.378Z" fill="#38421E"/>
<path d="M320.452 477.951L329.31 483.588L329.33 483.557C330.557 484.224 331.933 484.568 333.33 484.557C335.67 484.479 337.955 483.826 339.984 482.657C344.491 480.043 348.27 476.342 350.978 471.891C357.294 461.964 357.845 451.349 352.378 447.345L352.4 447.31L351.979 447.042L343.543 441.675C337.628 437.915 327.929 442.932 321.455 453.104C318.57 457.442 316.818 462.433 316.36 467.623C316.083 472.431 317.542 476.099 320.452 477.951ZM349.29 470.817C346.767 474.981 343.243 478.447 339.037 480.899C335.458 482.821 332.237 483.083 329.963 481.636C325.163 478.581 325.897 468.465 331.572 459.548C336.106 452.422 342.672 447.828 347.572 447.828C348.744 447.802 349.899 448.115 350.898 448.728V448.728C355.701 451.785 354.963 461.899 349.29 470.817V470.817ZM318.35 467.732C318.789 462.884 320.434 458.224 323.135 454.175C328.809 445.259 337.657 440.303 342.462 443.36L346.41 445.872C340.988 446.431 334.586 451.081 329.884 458.472C325.182 465.863 323.684 473.63 325.473 478.777L321.526 476.266C319.253 474.817 318.125 471.788 318.35 467.732V467.732Z" fill="#38421E"/>
<path d="M401.452 335.951L410.31 341.588L410.33 341.557C411.557 342.224 412.933 342.569 414.33 342.557C416.67 342.479 418.955 341.826 420.984 340.657C425.491 338.043 429.27 334.342 431.978 329.891C438.294 319.964 438.845 309.349 433.378 305.345L433.4 305.31L432.979 305.042L424.543 299.675C418.628 295.914 408.929 300.931 402.455 311.104C399.57 315.442 397.818 320.434 397.36 325.623C397.083 330.431 398.542 334.099 401.452 335.951ZM430.29 328.817C427.767 332.981 424.243 336.447 420.037 338.899C416.458 340.822 413.237 341.084 410.963 339.636C406.163 336.581 406.897 326.466 412.572 317.548C417.106 310.422 423.672 305.828 428.572 305.828C429.744 305.802 430.899 306.115 431.898 306.728V306.728C436.701 309.785 435.963 319.899 430.29 328.817V328.817ZM399.35 325.732C399.789 320.884 401.434 316.224 404.135 312.175C409.809 303.259 418.655 298.303 423.462 301.36L427.409 303.872C421.987 304.431 415.587 309.081 410.884 316.472C406.181 323.863 404.684 331.63 406.473 336.777L402.526 334.266C400.253 332.817 399.125 329.788 399.35 325.732V325.732Z" fill="#38421E"/>
<path d="M298.213 319.999C310.268 319.999 319.713 314.508 319.713 307.499V296.999H319.671C319.23 290.233 309.977 284.999 298.213 284.999C286.449 284.999 277.195 290.233 276.755 296.999H276.713V307.499C276.713 314.505 286.157 319.999 298.213 319.999ZM298.213 286.999C308.783 286.999 317.713 291.808 317.713 297.499C317.713 303.19 308.783 307.999 298.213 307.999C287.643 307.999 278.713 303.191 278.713 297.499C278.713 291.807 287.642 286.999 298.213 286.999ZM278.713 302.821C282.094 307.094 289.454 309.999 298.213 309.999C306.972 309.999 314.331 307.099 317.713 302.821V307.499C317.713 313.191 308.783 317.999 298.213 317.999C287.643 317.999 278.713 313.191 278.713 307.499V302.821Z" fill="#38421E"/>
<path d="M380.213 272.999C392.268 272.999 401.713 267.508 401.713 260.499V249.999H401.671C401.23 243.233 391.977 237.999 380.213 237.999C368.449 237.999 359.195 243.233 358.755 249.999H358.713V260.499C358.713 267.505 368.157 272.999 380.213 272.999ZM380.213 239.999C390.783 239.999 399.713 244.808 399.713 250.499C399.713 256.19 390.783 260.999 380.213 260.999C369.643 260.999 360.713 256.191 360.713 250.499C360.713 244.807 369.642 239.999 380.213 239.999ZM360.713 255.821C364.094 260.094 371.454 262.999 380.213 262.999C388.972 262.999 396.331 260.099 399.713 255.821V260.499C399.713 266.191 390.783 270.999 380.213 270.999C369.643 270.999 360.713 266.191 360.713 260.499V255.821Z" fill="#38421E"/>
<path d="M298.213 271.999C310.268 271.999 319.713 266.508 319.713 259.499C319.713 252.49 310.268 246.999 298.213 246.999C286.158 246.999 276.713 252.49 276.713 259.499C276.713 266.508 286.157 271.999 298.213 271.999ZM298.213 269.999C290.597 269.999 283.853 267.499 280.666 263.973C283.949 260.322 290.697 257.999 298.213 257.999C305.647 257.999 312.466 260.339 315.754 263.978C312.566 267.499 305.824 269.999 298.213 269.999ZM298.213 248.999C308.783 248.999 317.713 253.808 317.713 259.499C317.697 260.489 317.434 261.459 316.947 262.321C313.164 258.405 306.1 255.999 298.213 255.999C290.371 255.999 283.238 258.448 279.48 262.325C278.992 261.462 278.728 260.49 278.713 259.499C278.713 253.805 287.642 248.999 298.213 248.999Z" fill="#38421E"/>
<path d="M189.383 339.467C190.681 339.478 191.962 339.174 193.117 338.582C199.339 335.355 199.864 324.443 194.317 313.741C192.013 309.069 188.575 305.049 184.317 302.048C180.292 299.405 176.388 298.824 173.325 300.411C170.263 301.999 168.489 305.525 168.331 310.34C168.332 315.55 169.638 320.677 172.131 325.252C176.636 333.966 183.59 339.467 189.383 339.467ZM192.538 314.667C196.045 321.428 196.929 328.567 195.268 333.017C190.516 331.785 185.346 326.864 181.886 320.192C178.454 313.575 177.393 306.422 179.131 301.829C180.585 302.237 181.964 302.879 183.213 303.729C187.183 306.539 190.387 310.297 192.533 314.662L192.538 314.667ZM174.238 302.191C175.1 301.752 176.056 301.529 177.024 301.54C177.051 301.54 177.079 301.54 177.105 301.54C175.358 306.702 176.471 314.095 180.105 321.109C183.717 328.071 189.175 333.275 194.346 334.825C193.804 335.655 193.064 336.337 192.191 336.808C187.141 339.424 178.758 333.715 173.891 324.332C171.557 320.061 170.329 315.273 170.319 310.406C170.452 306.345 171.842 303.426 174.234 302.186L174.238 302.191Z" fill="#38421E"/>
<path d="M265.305 443.048C261.28 440.405 257.376 439.823 254.313 441.411C251.251 442.999 249.477 446.525 249.319 451.34C249.319 456.55 250.626 461.677 253.119 466.252C257.639 474.966 264.593 480.467 270.381 480.467C271.679 480.478 272.96 480.175 274.115 479.582C280.337 476.355 280.862 465.443 275.315 454.741C273.008 450.068 269.567 446.048 265.305 443.048V443.048ZM273.191 477.807C268.141 480.424 259.757 474.714 254.891 465.331C252.557 461.06 251.329 456.273 251.319 451.405C251.452 447.345 252.842 444.426 255.234 443.186C256.096 442.747 257.052 442.524 258.02 442.535C258.047 442.535 258.075 442.535 258.101 442.535C256.354 447.697 257.467 455.09 261.101 462.104C264.713 469.066 270.171 474.27 275.342 475.82C274.802 476.652 274.063 477.335 273.191 477.807V477.807ZM276.263 474.007C271.511 472.775 266.341 467.854 262.881 461.182C259.449 454.565 258.388 447.412 260.126 442.819C261.58 443.227 262.959 443.869 264.208 444.719C268.181 447.531 271.386 451.293 273.533 455.661C277.04 462.423 277.924 469.561 276.263 474.012V474.007Z" fill="#38421E"/>
<path d="M320.798 384.717C322.125 385.534 323.658 385.956 325.217 385.933C330.86 385.933 337.823 381.087 342.805 373.133C345.659 368.775 347.376 363.771 347.798 358.578C348.03 353.766 346.548 350.108 343.626 348.278C340.704 346.448 336.766 346.711 332.537 349.02C328.049 351.666 324.295 355.394 321.619 359.864C318.764 364.222 317.048 369.226 316.627 374.419C316.394 379.227 317.876 382.885 320.798 384.717ZM345.798 358.48C345.394 363.33 343.782 368.002 341.109 372.07C335.5 381.027 326.684 386.045 321.86 383.022C321.024 382.485 320.334 381.748 319.852 380.879C325.185 379.761 330.985 375.048 335.177 368.354C339.345 361.702 341.055 354.347 339.757 349.104C340.748 349.157 341.71 349.455 342.557 349.971C344.847 351.399 345.996 354.423 345.799 358.48H345.798ZM318.624 374.512C319.028 369.662 320.64 364.99 323.313 360.922C325.807 356.742 329.307 353.253 333.495 350.773C334.81 350.028 336.239 349.503 337.724 349.22C339.092 353.941 337.481 360.909 333.482 367.293C329.528 373.605 323.912 378.148 319.076 378.993C318.682 377.534 318.529 376.02 318.625 374.512H318.624Z" fill="#38421E"/>
<path d="M425.626 394.275C422.703 392.446 418.766 392.709 414.537 395.017C410.049 397.663 406.295 401.391 403.619 405.861C400.764 410.219 399.048 415.223 398.627 420.416C398.394 425.227 399.876 428.885 402.798 430.716C404.125 431.533 405.658 431.955 407.217 431.932C412.86 431.932 419.823 427.085 424.805 419.132C427.659 414.774 429.376 409.77 429.798 404.577C430.03 399.765 428.548 396.107 425.626 394.275ZM400.626 420.512C401.03 415.662 402.642 410.99 405.315 406.922C407.809 402.742 411.309 399.253 415.497 396.773C416.812 396.028 418.241 395.503 419.726 395.22C421.094 399.941 419.483 406.909 415.484 413.293C411.53 419.605 405.914 424.148 401.078 424.993C400.683 423.534 400.53 422.02 400.625 420.512H400.626ZM427.8 404.48C427.396 409.33 425.784 414.003 423.111 418.07C417.501 427.027 408.684 432.045 403.862 429.022C403.026 428.485 402.336 427.748 401.854 426.879C407.187 425.761 412.987 421.048 417.179 414.354C421.347 407.702 423.057 400.347 421.759 395.104C422.75 395.157 423.712 395.455 424.559 395.971C426.847 397.399 427.996 400.423 427.799 404.48H427.8Z" fill="#38421E"/>
<path d="M150 261.5L300 343.5M300 343.5V519M300 343.5L448 261.5" stroke="#38421E" stroke-width="2"/>
<path d="M299.5 2L448.456 88V260L299.5 346L150.544 260V88L299.5 2Z" fill="#1F1D1D" stroke="#333333" stroke-width="2"/>
<path d="M298.213 52.999C310.268 52.999 319.713 47.508 319.713 40.499V29.999H319.671C319.23 23.233 309.977 17.999 298.213 17.999C286.449 17.999 277.195 23.233 276.755 29.999H276.713V40.499C276.713 47.505 286.157 52.999 298.213 52.999ZM298.213 19.999C308.783 19.999 317.713 24.808 317.713 30.499C317.713 36.19 308.783 40.999 298.213 40.999C287.643 40.999 278.713 36.191 278.713 30.499C278.713 24.807 287.642 19.999 298.213 19.999ZM278.713 35.821C282.094 40.094 289.454 42.999 298.213 42.999C306.972 42.999 314.331 40.099 317.713 35.821V40.499C317.713 46.191 308.783 50.999 298.213 50.999C287.643 50.999 278.713 46.191 278.713 40.499V35.821Z" fill="#333333"/>
<path d="M217.213 99.999C229.268 99.999 238.713 94.508 238.713 87.499V76.999H238.671C238.23 70.233 228.977 64.999 217.213 64.999C205.449 64.999 196.195 70.233 195.755 76.999H195.713V87.499C195.713 94.505 205.157 99.999 217.213 99.999ZM217.213 66.999C227.783 66.999 236.713 71.808 236.713 77.499C236.713 83.19 227.783 87.999 217.213 87.999C206.643 87.999 197.713 83.191 197.713 77.499C197.713 71.807 206.642 66.999 217.213 66.999ZM217.213 89.999C225.971 89.999 233.331 87.099 236.713 82.821V87.499C236.713 93.191 227.783 97.999 217.213 97.999C206.643 97.999 197.713 93.191 197.713 87.499V82.821C201.094 87.091 208.454 89.999 217.213 89.999Z" fill="#333333"/>
<path d="M164.61 249.423C169.077 258.214 176.027 263.783 181.829 263.783C182.931 263.786 184.022 263.563 185.034 263.128L185.048 263.155L185.485 262.933H185.494H185.5L194.409 258.406C200.657 255.232 201.274 244.325 195.809 233.576C190.344 222.827 181.173 216.896 174.926 220.076L166.013 224.604L165.569 224.829L165.588 224.866C159.757 228.315 159.283 238.934 164.61 249.423ZM175.838 221.847C180.907 219.268 189.238 225.052 194.031 234.476C198.824 243.9 198.577 254.038 193.503 256.616L189.332 258.735C191.61 253.785 190.866 245.907 186.899 238.099C182.932 230.291 177.009 225.045 171.668 223.965L175.838 221.847ZM166.919 226.378C171.988 223.805 180.319 229.584 185.111 239.007C189.903 248.43 189.657 258.562 184.588 261.145L184.577 261.15C179.505 263.721 171.177 257.939 166.388 248.519C161.599 239.099 161.847 228.958 166.919 226.378V226.378Z" fill="#333333"/>
<path d="M262.829 217.783C263.931 217.786 265.021 217.563 266.034 217.128L266.048 217.155L266.485 216.933H266.494H266.5L275.409 212.406C281.657 209.232 282.274 198.325 276.809 187.576C271.344 176.827 262.175 170.897 255.926 174.076L247.013 178.604L246.569 178.829L246.588 178.866C240.756 182.324 240.281 192.943 245.609 203.432C250.077 212.214 257.027 217.783 262.829 217.783ZM256.838 175.847C261.91 173.267 270.243 179.052 275.031 188.476C279.819 197.9 279.577 208.038 274.503 210.616L270.332 212.735C272.61 207.785 271.866 199.907 267.899 192.099C263.932 184.291 258.008 179.046 252.668 177.965L256.838 175.847ZM247.919 180.378C252.989 177.804 261.319 183.584 266.111 193.007C270.903 202.43 270.657 212.562 265.588 215.145H265.577C260.502 217.716 252.177 211.933 247.388 202.514C242.599 193.095 242.847 182.958 247.919 180.378V180.378Z" fill="#333333"/>
<path d="M320.452 304.951L329.31 310.588L329.33 310.557C330.557 311.224 331.933 311.568 333.33 311.557C335.67 311.479 337.955 310.826 339.984 309.657C344.491 307.043 348.27 303.342 350.978 298.891C357.294 288.964 357.845 278.349 352.378 274.345L352.4 274.31L351.979 274.042L343.543 268.675C337.628 264.915 327.929 269.932 321.455 280.104C318.57 284.442 316.818 289.433 316.36 294.623C316.083 299.431 317.542 303.099 320.452 304.951ZM349.29 297.817C346.767 301.981 343.243 305.447 339.037 307.899C335.458 309.821 332.237 310.083 329.963 308.636C325.163 305.581 325.897 295.465 331.572 286.548C336.106 279.422 342.672 274.828 347.572 274.828C348.744 274.802 349.899 275.115 350.898 275.728V275.728C355.701 278.785 354.963 288.899 349.29 297.817V297.817ZM318.35 294.732C318.789 289.884 320.434 285.224 323.135 281.175C328.809 272.259 337.657 267.303 342.462 270.36L346.41 272.872C340.988 273.431 334.586 278.081 329.884 285.472C325.182 292.863 323.684 300.63 325.473 305.777L321.526 303.266C319.253 301.817 318.125 298.788 318.35 294.732V294.732Z" fill="#333333"/>
<path d="M401.452 162.951L410.31 168.588L410.33 168.557C411.557 169.224 412.933 169.569 414.33 169.557C416.67 169.479 418.955 168.826 420.984 167.657C425.491 165.043 429.27 161.342 431.978 156.891C438.294 146.964 438.845 136.349 433.378 132.345L433.4 132.31L432.979 132.042L424.543 126.675C418.628 122.914 408.929 127.931 402.455 138.104C399.57 142.442 397.818 147.434 397.36 152.623C397.083 157.431 398.542 161.099 401.452 162.951ZM430.29 155.817C427.767 159.981 424.243 163.447 420.037 165.899C416.458 167.822 413.237 168.084 410.963 166.636C406.163 163.581 406.897 153.466 412.572 144.548C417.106 137.422 423.672 132.828 428.572 132.828C429.744 132.802 430.899 133.115 431.898 133.728V133.728C436.701 136.785 435.963 146.899 430.29 155.817V155.817ZM399.35 152.732C399.789 147.884 401.434 143.224 404.135 139.175C409.809 130.259 418.655 125.303 423.462 128.36L427.409 130.872C421.987 131.431 415.587 136.081 410.884 143.472C406.181 150.863 404.684 158.63 406.473 163.777L402.526 161.266C400.253 159.817 399.125 156.788 399.35 152.732V152.732Z" fill="#333333"/>
<path d="M298.213 146.999C310.268 146.999 319.713 141.508 319.713 134.499V123.999H319.671C319.23 117.233 309.977 111.999 298.213 111.999C286.449 111.999 277.195 117.233 276.755 123.999H276.713V134.499C276.713 141.505 286.157 146.999 298.213 146.999ZM298.213 113.999C308.783 113.999 317.713 118.808 317.713 124.499C317.713 130.19 308.783 134.999 298.213 134.999C287.643 134.999 278.713 130.191 278.713 124.499C278.713 118.807 287.642 113.999 298.213 113.999ZM278.713 129.821C282.094 134.094 289.454 136.999 298.213 136.999C306.972 136.999 314.331 134.099 317.713 129.821V134.499C317.713 140.191 308.783 144.999 298.213 144.999C287.643 144.999 278.713 140.191 278.713 134.499V129.821Z" fill="#333333"/>
<path d="M380.213 99.999C392.268 99.999 401.713 94.508 401.713 87.499V76.999H401.671C401.23 70.233 391.977 64.999 380.213 64.999C368.449 64.999 359.195 70.233 358.755 76.999H358.713V87.499C358.713 94.505 368.157 99.999 380.213 99.999ZM380.213 66.999C390.783 66.999 399.713 71.808 399.713 77.499C399.713 83.19 390.783 87.999 380.213 87.999C369.643 87.999 360.713 83.191 360.713 77.499C360.713 71.807 369.642 66.999 380.213 66.999ZM360.713 82.821C364.094 87.094 371.454 89.999 380.213 89.999C388.972 89.999 396.331 87.099 399.713 82.821V87.499C399.713 93.191 390.783 97.999 380.213 97.999C369.643 97.999 360.713 93.191 360.713 87.499V82.821Z" fill="#333333"/>
<path d="M298.213 98.999C310.268 98.999 319.713 93.508 319.713 86.499C319.713 79.49 310.268 73.999 298.213 73.999C286.158 73.999 276.713 79.49 276.713 86.499C276.713 93.508 286.157 98.999 298.213 98.999ZM298.213 96.999C290.597 96.999 283.853 94.499 280.666 90.973C283.949 87.322 290.697 84.999 298.213 84.999C305.647 84.999 312.466 87.339 315.754 90.978C312.566 94.499 305.824 96.999 298.213 96.999ZM298.213 75.999C308.783 75.999 317.713 80.808 317.713 86.499C317.697 87.4889 317.434 88.4591 316.947 89.321C313.164 85.405 306.1 82.999 298.213 82.999C290.371 82.999 283.238 85.448 279.48 89.325C278.992 88.462 278.728 87.4903 278.713 86.499C278.713 80.805 287.642 75.999 298.213 75.999Z" fill="#333333"/>
<path d="M189.383 166.467C190.681 166.478 191.962 166.174 193.117 165.582C199.339 162.355 199.864 151.443 194.317 140.741C192.013 136.069 188.575 132.049 184.317 129.048C180.292 126.405 176.388 125.824 173.325 127.411C170.263 128.999 168.489 132.525 168.331 137.34C168.332 142.55 169.638 147.677 172.131 152.252C176.636 160.966 183.59 166.467 189.383 166.467ZM192.538 141.667C196.045 148.428 196.929 155.567 195.268 160.017C190.516 158.785 185.346 153.864 181.886 147.192C178.454 140.575 177.393 133.422 179.131 128.829C180.585 129.237 181.964 129.879 183.213 130.729C187.183 133.539 190.387 137.297 192.533 141.662L192.538 141.667ZM174.238 129.191C175.1 128.752 176.056 128.529 177.024 128.54C177.051 128.54 177.079 128.54 177.105 128.54C175.358 133.702 176.471 141.095 180.105 148.109C183.717 155.071 189.175 160.275 194.346 161.825C193.804 162.655 193.064 163.337 192.191 163.808C187.141 166.424 178.758 160.715 173.891 151.332C171.557 147.061 170.329 142.273 170.319 137.406C170.452 133.345 171.842 130.426 174.234 129.186L174.238 129.191Z" fill="#333333"/>
<path d="M265.305 270.048C261.28 267.405 257.376 266.823 254.313 268.411C251.251 269.999 249.477 273.525 249.319 278.34C249.319 283.55 250.626 288.677 253.119 293.252C257.639 301.966 264.593 307.467 270.381 307.467C271.679 307.478 272.96 307.174 274.115 306.582C280.337 303.355 280.862 292.443 275.315 281.741C273.008 277.068 269.567 273.048 265.305 270.048V270.048ZM273.191 304.807C268.141 307.424 259.757 301.714 254.891 292.331C252.557 288.06 251.329 283.272 251.319 278.405C251.452 274.345 252.842 271.426 255.234 270.186C256.096 269.747 257.052 269.524 258.02 269.535C258.047 269.535 258.075 269.535 258.101 269.535C256.354 274.697 257.467 282.09 261.101 289.104C264.713 296.066 270.171 301.27 275.342 302.82C274.802 303.651 274.063 304.334 273.191 304.807V304.807ZM276.263 301.007C271.511 299.775 266.341 294.854 262.881 288.182C259.449 281.565 258.388 274.412 260.126 269.819C261.58 270.227 262.959 270.869 264.208 271.719C268.181 274.531 271.386 278.292 273.533 282.661C277.04 289.423 277.924 296.561 276.263 301.012V301.007Z" fill="#333333"/>
<path d="M320.798 211.717C322.125 212.534 323.658 212.956 325.217 212.933C330.86 212.933 337.823 208.087 342.805 200.133C345.659 195.775 347.376 190.771 347.798 185.578C348.03 180.766 346.548 177.108 343.626 175.278C340.704 173.448 336.766 173.711 332.537 176.02C328.049 178.666 324.295 182.394 321.619 186.864C318.764 191.222 317.048 196.226 316.627 201.419C316.394 206.227 317.876 209.885 320.798 211.717ZM345.798 185.48C345.394 190.33 343.782 195.002 341.109 199.07C335.5 208.027 326.684 213.045 321.86 210.022C321.024 209.485 320.334 208.748 319.852 207.879C325.185 206.761 330.985 202.048 335.177 195.354C339.345 188.702 341.055 181.347 339.757 176.104C340.748 176.157 341.71 176.455 342.557 176.971C344.847 178.399 345.996 181.423 345.799 185.48H345.798ZM318.624 201.512C319.028 196.662 320.64 191.99 323.313 187.922C325.807 183.742 329.307 180.253 333.495 177.773C334.81 177.028 336.239 176.503 337.724 176.22C339.092 180.941 337.481 187.909 333.482 194.293C329.528 200.605 323.912 205.148 319.076 205.993C318.682 204.534 318.529 203.02 318.625 201.512H318.624Z" fill="#333333"/>
<path d="M425.626 221.275C422.703 219.446 418.766 219.709 414.537 222.017C410.049 224.663 406.295 228.391 403.619 232.861C400.764 237.219 399.048 242.223 398.627 247.416C398.394 252.227 399.876 255.885 402.798 257.716C404.125 258.533 405.658 258.955 407.217 258.932C412.86 258.932 419.823 254.085 424.805 246.132C427.659 241.774 429.376 236.77 429.798 231.577C430.03 226.765 428.548 223.107 425.626 221.275ZM400.626 247.512C401.03 242.662 402.642 237.99 405.315 233.922C407.809 229.742 411.309 226.253 415.497 223.773C416.812 223.028 418.241 222.503 419.726 222.22C421.094 226.941 419.483 233.909 415.484 240.293C411.53 246.605 405.914 251.148 401.078 251.993C400.683 250.534 400.53 249.02 400.625 247.512H400.626ZM427.8 231.48C427.396 236.33 425.784 241.003 423.111 245.07C417.501 254.027 408.684 259.045 403.862 256.022C403.026 255.485 402.336 254.748 401.854 253.879C407.187 252.761 412.987 248.048 417.179 241.354C421.347 234.702 423.057 227.347 421.759 222.104C422.75 222.157 423.712 222.455 424.559 222.971C426.847 224.399 427.996 227.423 427.799 231.48H427.8Z" fill="#333333"/>
<path d="M150 88.5L300 170.5M300 170.5V346M300 170.5L448 88.5" stroke="#333333" stroke-width="2"/>
<path d="M150.5 1718L299.456 1804V1976L150.5 2062L1.54362 1976V1804L150.5 1718Z" fill="#1F1D1D" stroke="#333333" stroke-width="2"/>
<path d="M149.213 1769C161.268 1769 170.713 1763.51 170.713 1756.5V1746H170.671C170.23 1739.23 160.977 1734 149.213 1734C137.449 1734 128.195 1739.23 127.755 1746H127.713V1756.5C127.713 1763.51 137.157 1769 149.213 1769ZM149.213 1736C159.783 1736 168.713 1740.81 168.713 1746.5C168.713 1752.19 159.783 1757 149.213 1757C138.643 1757 129.713 1752.19 129.713 1746.5C129.713 1740.81 138.642 1736 149.213 1736ZM129.713 1751.82C133.094 1756.09 140.454 1759 149.213 1759C157.972 1759 165.331 1756.1 168.713 1751.82V1756.5C168.713 1762.19 159.783 1767 149.213 1767C138.643 1767 129.713 1762.19 129.713 1756.5V1751.82Z" fill="#333333"/>
<path d="M68.2129 1816C80.2679 1816 89.7129 1810.51 89.7129 1803.5V1793H89.6709C89.2299 1786.23 79.9769 1781 68.2129 1781C56.4489 1781 47.1949 1786.23 46.7549 1793H46.7129V1803.5C46.7129 1810.51 56.1569 1816 68.2129 1816ZM68.2129 1783C78.7829 1783 87.7129 1787.81 87.7129 1793.5C87.7129 1799.19 78.7829 1804 68.2129 1804C57.6429 1804 48.7129 1799.19 48.7129 1793.5C48.7129 1787.81 57.6419 1783 68.2129 1783ZM68.2129 1806C76.9709 1806 84.3309 1803.1 87.7129 1798.82V1803.5C87.7129 1809.19 78.7829 1814 68.2129 1814C57.6429 1814 48.7129 1809.19 48.7129 1803.5V1798.82C52.0939 1803.09 59.4539 1806 68.2129 1806Z" fill="#333333"/>
<path d="M15.6099 1965.42C20.0769 1974.21 27.0269 1979.78 32.8289 1979.78C33.9307 1979.79 35.0216 1979.56 36.034 1979.13L36.0479 1979.16L36.4849 1978.93H36.4939H36.4999L45.409 1974.41C51.657 1971.23 52.2739 1960.33 46.8089 1949.58C41.3439 1938.83 32.1729 1932.9 25.9259 1936.08L17.013 1940.6L16.5689 1940.83L16.5879 1940.87C10.7569 1944.32 10.2829 1954.93 15.6099 1965.42ZM26.8379 1937.85C31.9069 1935.27 40.2379 1941.05 45.0309 1950.48C49.8239 1959.9 49.577 1970.04 44.503 1972.62L40.332 1974.74C42.61 1969.79 41.866 1961.91 37.899 1954.1C33.932 1946.29 28.0089 1941.05 22.6679 1939.97L26.8379 1937.85ZM17.919 1942.38C22.988 1939.81 31.3189 1945.58 36.1109 1955.01C40.9029 1964.43 40.6569 1974.56 35.5879 1977.15L35.577 1977.15C30.505 1979.72 22.177 1973.94 17.388 1964.52C12.599 1955.1 12.847 1944.96 17.919 1942.38V1942.38Z" fill="#333333"/>
<path d="M113.829 1933.78C114.931 1933.79 116.021 1933.56 117.034 1933.13L117.048 1933.16L117.485 1932.93H117.494H117.5L126.409 1928.41C132.657 1925.23 133.274 1914.33 127.809 1903.58C122.344 1892.83 113.175 1886.9 106.926 1890.08L98.0128 1894.6L97.5687 1894.83L97.5878 1894.87C91.7558 1898.32 91.2808 1908.94 96.6088 1919.43C101.077 1928.21 108.027 1933.78 113.829 1933.78ZM107.838 1891.85C112.91 1889.27 121.243 1895.05 126.031 1904.48C130.819 1913.9 130.577 1924.04 125.503 1926.62L121.332 1928.74C123.61 1923.79 122.866 1915.91 118.899 1908.1C114.932 1900.29 109.008 1895.05 103.668 1893.97L107.838 1891.85ZM98.9188 1896.38C103.989 1893.8 112.319 1899.58 117.111 1909.01C121.903 1918.43 121.657 1928.56 116.588 1931.15H116.577C111.502 1933.72 103.177 1927.93 98.3878 1918.51C93.5988 1909.1 93.8468 1898.96 98.9188 1896.38V1896.38Z" fill="#333333"/>
<path d="M171.452 2020.95L180.31 2026.59L180.33 2026.56C181.557 2027.22 182.933 2027.57 184.33 2027.56C186.67 2027.48 188.955 2026.83 190.984 2025.66C195.491 2023.04 199.27 2019.34 201.978 2014.89C208.294 2004.96 208.845 1994.35 203.378 1990.34L203.4 1990.31L202.979 1990.04L194.543 1984.67C188.628 1980.91 178.929 1985.93 172.455 1996.1C169.57 2000.44 167.818 2005.43 167.36 2010.62C167.083 2015.43 168.542 2019.1 171.452 2020.95ZM200.29 2013.82C197.767 2017.98 194.243 2021.45 190.037 2023.9C186.458 2025.82 183.237 2026.08 180.963 2024.64C176.163 2021.58 176.897 2011.46 182.572 2002.55C187.106 1995.42 193.672 1990.83 198.572 1990.83C199.744 1990.8 200.899 1991.11 201.898 1991.73V1991.73C206.701 1994.78 205.963 2004.9 200.29 2013.82V2013.82ZM169.35 2010.73C169.789 2005.88 171.434 2001.22 174.135 1997.17C179.809 1988.26 188.657 1983.3 193.462 1986.36L197.41 1988.87C191.988 1989.43 185.586 1994.08 180.884 2001.47C176.182 2008.86 174.684 2016.63 176.473 2021.78L172.526 2019.27C170.253 2017.82 169.125 2014.79 169.35 2010.73V2010.73Z" fill="#333333"/>
<path d="M252.452 1878.95L261.31 1884.59L261.33 1884.56C262.557 1885.22 263.933 1885.57 265.33 1885.56C267.67 1885.48 269.955 1884.83 271.984 1883.66C276.491 1881.04 280.27 1877.34 282.978 1872.89C289.294 1862.96 289.845 1852.35 284.378 1848.34L284.4 1848.31L283.979 1848.04L275.543 1842.67C269.628 1838.91 259.929 1843.93 253.455 1854.1C250.57 1858.44 248.818 1863.43 248.36 1868.62C248.083 1873.43 249.542 1877.1 252.452 1878.95ZM281.29 1871.82C278.767 1875.98 275.243 1879.45 271.037 1881.9C267.458 1883.82 264.237 1884.08 261.963 1882.64C257.163 1879.58 257.897 1869.47 263.572 1860.55C268.106 1853.42 274.672 1848.83 279.572 1848.83C280.744 1848.8 281.899 1849.11 282.898 1849.73V1849.73C287.701 1852.78 286.963 1862.9 281.29 1871.82V1871.82ZM250.35 1868.73C250.789 1863.88 252.434 1859.22 255.135 1855.17C260.809 1846.26 269.655 1841.3 274.462 1844.36L278.409 1846.87C272.987 1847.43 266.587 1852.08 261.884 1859.47C257.181 1866.86 255.684 1874.63 257.473 1879.78L253.526 1877.27C251.253 1875.82 250.125 1872.79 250.35 1868.73V1868.73Z" fill="#333333"/>
<path d="M149.213 1863C161.268 1863 170.713 1857.51 170.713 1850.5V1840H170.671C170.23 1833.23 160.977 1828 149.213 1828C137.449 1828 128.195 1833.23 127.755 1840H127.713V1850.5C127.713 1857.51 137.157 1863 149.213 1863ZM149.213 1830C159.783 1830 168.713 1834.81 168.713 1840.5C168.713 1846.19 159.783 1851 149.213 1851C138.643 1851 129.713 1846.19 129.713 1840.5C129.713 1834.81 138.642 1830 149.213 1830ZM129.713 1845.82C133.094 1850.09 140.454 1853 149.213 1853C157.972 1853 165.331 1850.1 168.713 1845.82V1850.5C168.713 1856.19 159.783 1861 149.213 1861C138.643 1861 129.713 1856.19 129.713 1850.5V1845.82Z" fill="#333333"/>
<path d="M231.213 1816C243.268 1816 252.713 1810.51 252.713 1803.5V1793H252.671C252.23 1786.23 242.977 1781 231.213 1781C219.449 1781 210.195 1786.23 209.755 1793H209.713V1803.5C209.713 1810.51 219.157 1816 231.213 1816ZM231.213 1783C241.783 1783 250.713 1787.81 250.713 1793.5C250.713 1799.19 241.783 1804 231.213 1804C220.643 1804 211.713 1799.19 211.713 1793.5C211.713 1787.81 220.642 1783 231.213 1783ZM211.713 1798.82C215.094 1803.09 222.454 1806 231.213 1806C239.972 1806 247.331 1803.1 250.713 1798.82V1803.5C250.713 1809.19 241.783 1814 231.213 1814C220.643 1814 211.713 1809.19 211.713 1803.5V1798.82Z" fill="#333333"/>
<path d="M149.213 1815C161.268 1815 170.713 1809.51 170.713 1802.5C170.713 1795.49 161.268 1790 149.213 1790C137.158 1790 127.713 1795.49 127.713 1802.5C127.713 1809.51 137.157 1815 149.213 1815ZM149.213 1813C141.597 1813 134.853 1810.5 131.666 1806.97C134.949 1803.32 141.697 1801 149.213 1801C156.647 1801 163.466 1803.34 166.754 1806.98C163.566 1810.5 156.824 1813 149.213 1813ZM149.213 1792C159.783 1792 168.713 1796.81 168.713 1802.5C168.697 1803.49 168.434 1804.46 167.947 1805.32C164.164 1801.41 157.1 1799 149.213 1799C141.371 1799 134.238 1801.45 130.48 1805.33C129.992 1804.46 129.728 1803.49 129.713 1802.5C129.713 1796.81 138.642 1792 149.213 1792Z" fill="#333333"/>
<path d="M40.3831 1882.47C41.681 1882.48 42.9622 1882.17 44.1171 1881.58C50.3391 1878.36 50.864 1867.44 45.317 1856.74C43.0131 1852.07 39.575 1848.05 35.317 1845.05C31.292 1842.41 27.388 1841.82 24.325 1843.41C21.263 1845 19.4891 1848.53 19.3311 1853.34C19.3316 1858.55 20.638 1863.68 23.131 1868.25C27.636 1876.97 34.5901 1882.47 40.3831 1882.47ZM43.538 1857.67C47.045 1864.43 47.9291 1871.57 46.2681 1876.02C41.5161 1874.79 36.346 1869.86 32.886 1863.19C29.454 1856.58 28.393 1849.42 30.131 1844.83C31.5855 1845.24 32.9641 1845.88 34.213 1846.73C38.1829 1849.54 41.3867 1853.3 43.533 1857.66L43.538 1857.67ZM25.238 1845.19C26.1004 1844.75 27.0564 1844.53 28.024 1844.54C28.051 1844.54 28.079 1844.54 28.105 1844.54C26.358 1849.7 27.471 1857.1 31.105 1864.11C34.717 1871.07 40.1749 1876.28 45.3459 1877.83C44.8044 1878.66 44.0636 1879.34 43.191 1879.81C38.141 1882.42 29.758 1876.72 24.891 1867.33C22.5569 1863.06 21.3289 1858.27 21.319 1853.41C21.452 1849.35 22.842 1846.43 25.234 1845.19L25.238 1845.19Z" fill="#333333"/>
<path d="M116.305 1986.05C112.28 1983.41 108.376 1982.82 105.313 1984.41C102.251 1986 100.477 1989.53 100.319 1994.34C100.319 1999.55 101.626 2004.68 104.119 2009.25C108.639 2017.97 115.593 2023.47 121.381 2023.47C122.679 2023.48 123.96 2023.17 125.115 2022.58C131.337 2019.36 131.862 2008.44 126.315 1997.74C124.008 1993.07 120.567 1989.05 116.305 1986.05V1986.05ZM124.191 2020.81C119.141 2023.42 110.757 2017.71 105.891 2008.33C103.557 2004.06 102.329 1999.27 102.319 1994.41C102.452 1990.35 103.842 1987.43 106.234 1986.19C107.096 1985.75 108.052 1985.52 109.02 1985.54C109.047 1985.54 109.075 1985.54 109.101 1985.54C107.354 1990.7 108.467 1998.09 112.101 2005.1C115.713 2012.07 121.171 2017.27 126.342 2018.82C125.802 2019.65 125.063 2020.33 124.191 2020.81V2020.81ZM127.263 2017.01C122.511 2015.78 117.341 2010.85 113.881 2004.18C110.449 1997.57 109.388 1990.41 111.126 1985.82C112.58 1986.23 113.959 1986.87 115.208 1987.72C119.181 1990.53 122.386 1994.29 124.533 1998.66C128.04 2005.42 128.924 2012.56 127.263 2017.01V2017.01Z" fill="#333333"/>
<path d="M171.798 1927.72C173.125 1928.53 174.658 1928.96 176.217 1928.93C181.86 1928.93 188.823 1924.09 193.805 1916.13C196.659 1911.77 198.376 1906.77 198.798 1901.58C199.03 1896.77 197.548 1893.11 194.626 1891.28C191.704 1889.45 187.766 1889.71 183.537 1892.02C179.049 1894.67 175.295 1898.39 172.619 1902.86C169.764 1907.22 168.048 1912.23 167.627 1917.42C167.394 1922.23 168.876 1925.89 171.798 1927.72ZM196.798 1901.48C196.394 1906.33 194.782 1911 192.109 1915.07C186.5 1924.03 177.684 1929.05 172.86 1926.02C172.024 1925.48 171.334 1924.75 170.852 1923.88C176.185 1922.76 181.985 1918.05 186.177 1911.35C190.345 1904.7 192.055 1897.35 190.757 1892.1C191.748 1892.16 192.71 1892.46 193.557 1892.97C195.847 1894.4 196.996 1897.42 196.799 1901.48H196.798ZM169.624 1917.51C170.028 1912.66 171.64 1907.99 174.313 1903.92C176.807 1899.74 180.307 1896.25 184.495 1893.77C185.81 1893.03 187.239 1892.5 188.724 1892.22C190.092 1896.94 188.481 1903.91 184.482 1910.29C180.528 1916.61 174.912 1921.15 170.076 1921.99C169.682 1920.53 169.529 1919.02 169.625 1917.51H169.624Z" fill="#333333"/>
<path d="M276.626 1937.28C273.703 1935.45 269.766 1935.71 265.537 1938.02C261.049 1940.66 257.295 1944.39 254.619 1948.86C251.764 1953.22 250.048 1958.22 249.627 1963.42C249.394 1968.23 250.876 1971.89 253.798 1973.72C255.125 1974.53 256.658 1974.95 258.217 1974.93C263.86 1974.93 270.823 1970.09 275.805 1962.13C278.659 1957.77 280.376 1952.77 280.798 1947.58C281.03 1942.77 279.548 1939.11 276.626 1937.28ZM251.626 1963.51C252.03 1958.66 253.642 1953.99 256.315 1949.92C258.809 1945.74 262.309 1942.25 266.497 1939.77C267.812 1939.03 269.241 1938.5 270.726 1938.22C272.094 1942.94 270.483 1949.91 266.484 1956.29C262.53 1962.61 256.914 1967.15 252.078 1967.99C251.683 1966.53 251.53 1965.02 251.625 1963.51H251.626ZM278.8 1947.48C278.396 1952.33 276.784 1957 274.111 1961.07C268.501 1970.03 259.684 1975.05 254.862 1972.02C254.026 1971.48 253.336 1970.75 252.854 1969.88C258.187 1968.76 263.987 1964.05 268.179 1957.35C272.347 1950.7 274.057 1943.35 272.759 1938.1C273.75 1938.16 274.712 1938.45 275.559 1938.97C277.847 1940.4 278.996 1943.42 278.799 1947.48H278.8Z" fill="#333333"/>
<path d="M1 1804.5L151 1886.5M151 1886.5V2062M151 1886.5L299 1804.5" stroke="#333333" stroke-width="2"/>
<path d="M150.5 1546L299.456 1632V1804L150.5 1890L1.54362 1804V1632L150.5 1546Z" fill="#1F1D1D" stroke="#38421E" stroke-width="2"/>
<path d="M149.213 1597C161.268 1597 170.713 1591.51 170.713 1584.5V1574H170.671C170.23 1567.23 160.977 1562 149.213 1562C137.449 1562 128.195 1567.23 127.755 1574H127.713V1584.5C127.713 1591.51 137.157 1597 149.213 1597ZM149.213 1564C159.783 1564 168.713 1568.81 168.713 1574.5C168.713 1580.19 159.783 1585 149.213 1585C138.643 1585 129.713 1580.19 129.713 1574.5C129.713 1568.81 138.642 1564 149.213 1564ZM129.713 1579.82C133.094 1584.09 140.454 1587 149.213 1587C157.972 1587 165.331 1584.1 168.713 1579.82V1584.5C168.713 1590.19 159.783 1595 149.213 1595C138.643 1595 129.713 1590.19 129.713 1584.5V1579.82Z" fill="#38421E"/>
<path d="M68.2129 1644C80.2679 1644 89.7129 1638.51 89.7129 1631.5V1621H89.6709C89.2299 1614.23 79.9769 1609 68.2129 1609C56.4489 1609 47.1949 1614.23 46.7549 1621H46.7129V1631.5C46.7129 1638.51 56.1569 1644 68.2129 1644ZM68.2129 1611C78.7829 1611 87.7129 1615.81 87.7129 1621.5C87.7129 1627.19 78.7829 1632 68.2129 1632C57.6429 1632 48.7129 1627.19 48.7129 1621.5C48.7129 1615.81 57.6419 1611 68.2129 1611ZM68.2129 1634C76.9709 1634 84.3309 1631.1 87.7129 1626.82V1631.5C87.7129 1637.19 78.7829 1642 68.2129 1642C57.6429 1642 48.7129 1637.19 48.7129 1631.5V1626.82C52.0939 1631.09 59.4539 1634 68.2129 1634Z" fill="#38421E"/>
<path d="M15.6099 1793.42C20.0769 1802.21 27.0269 1807.78 32.8289 1807.78C33.9307 1807.79 35.0216 1807.56 36.034 1807.13L36.0479 1807.16L36.4849 1806.93H36.4939H36.4999L45.409 1802.41C51.657 1799.23 52.2739 1788.33 46.8089 1777.58C41.3439 1766.83 32.1729 1760.9 25.9259 1764.08L17.013 1768.6L16.5689 1768.83L16.5879 1768.87C10.7569 1772.32 10.2829 1782.93 15.6099 1793.42ZM26.8379 1765.85C31.9069 1763.27 40.2379 1769.05 45.0309 1778.48C49.8239 1787.9 49.577 1798.04 44.503 1800.62L40.332 1802.74C42.61 1797.79 41.866 1789.91 37.899 1782.1C33.932 1774.29 28.0089 1769.05 22.6679 1767.97L26.8379 1765.85ZM17.919 1770.38C22.988 1767.81 31.3189 1773.58 36.1109 1783.01C40.9029 1792.43 40.6569 1802.56 35.5879 1805.15L35.577 1805.15C30.505 1807.72 22.177 1801.94 17.388 1792.52C12.599 1783.1 12.847 1772.96 17.919 1770.38V1770.38Z" fill="#38421E"/>
<path d="M113.829 1761.78C114.931 1761.79 116.021 1761.56 117.034 1761.13L117.048 1761.16L117.485 1760.93H117.494H117.5L126.409 1756.41C132.657 1753.23 133.274 1742.33 127.809 1731.58C122.344 1720.83 113.175 1714.9 106.926 1718.08L98.0128 1722.6L97.5687 1722.83L97.5878 1722.87C91.7558 1726.32 91.2808 1736.94 96.6088 1747.43C101.077 1756.21 108.027 1761.78 113.829 1761.78ZM107.838 1719.85C112.91 1717.27 121.243 1723.05 126.031 1732.48C130.819 1741.9 130.577 1752.04 125.503 1754.62L121.332 1756.74C123.61 1751.79 122.866 1743.91 118.899 1736.1C114.932 1728.29 109.008 1723.05 103.668 1721.97L107.838 1719.85ZM98.9188 1724.38C103.989 1721.8 112.319 1727.58 117.111 1737.01C121.903 1746.43 121.657 1756.56 116.588 1759.15H116.577C111.502 1761.72 103.177 1755.93 98.3878 1746.51C93.5988 1737.1 93.8468 1726.96 98.9188 1724.38V1724.38Z" fill="#38421E"/>
<path d="M171.452 1848.95L180.31 1854.59L180.33 1854.56C181.557 1855.22 182.933 1855.57 184.33 1855.56C186.67 1855.48 188.955 1854.83 190.984 1853.66C195.491 1851.04 199.27 1847.34 201.978 1842.89C208.294 1832.96 208.845 1822.35 203.378 1818.34L203.4 1818.31L202.979 1818.04L194.543 1812.67C188.628 1808.91 178.929 1813.93 172.455 1824.1C169.57 1828.44 167.818 1833.43 167.36 1838.62C167.083 1843.43 168.542 1847.1 171.452 1848.95ZM200.29 1841.82C197.767 1845.98 194.243 1849.45 190.037 1851.9C186.458 1853.82 183.237 1854.08 180.963 1852.64C176.163 1849.58 176.897 1839.46 182.572 1830.55C187.106 1823.42 193.672 1818.83 198.572 1818.83C199.744 1818.8 200.899 1819.11 201.898 1819.73V1819.73C206.701 1822.78 205.963 1832.9 200.29 1841.82V1841.82ZM169.35 1838.73C169.789 1833.88 171.434 1829.22 174.135 1825.17C179.809 1816.26 188.657 1811.3 193.462 1814.36L197.41 1816.87C191.988 1817.43 185.586 1822.08 180.884 1829.47C176.182 1836.86 174.684 1844.63 176.473 1849.78L172.526 1847.27C170.253 1845.82 169.125 1842.79 169.35 1838.73V1838.73Z" fill="#38421E"/>
<path d="M252.452 1706.95L261.31 1712.59L261.33 1712.56C262.557 1713.22 263.933 1713.57 265.33 1713.56C267.67 1713.48 269.955 1712.83 271.984 1711.66C276.491 1709.04 280.27 1705.34 282.978 1700.89C289.294 1690.96 289.845 1680.35 284.378 1676.34L284.4 1676.31L283.979 1676.04L275.543 1670.67C269.628 1666.91 259.929 1671.93 253.455 1682.1C250.57 1686.44 248.818 1691.43 248.36 1696.62C248.083 1701.43 249.542 1705.1 252.452 1706.95ZM281.29 1699.82C278.767 1703.98 275.243 1707.45 271.037 1709.9C267.458 1711.82 264.237 1712.08 261.963 1710.64C257.163 1707.58 257.897 1697.47 263.572 1688.55C268.106 1681.42 274.672 1676.83 279.572 1676.83C280.744 1676.8 281.899 1677.11 282.898 1677.73V1677.73C287.701 1680.78 286.963 1690.9 281.29 1699.82V1699.82ZM250.35 1696.73C250.789 1691.88 252.434 1687.22 255.135 1683.17C260.809 1674.26 269.655 1669.3 274.462 1672.36L278.409 1674.87C272.987 1675.43 266.587 1680.08 261.884 1687.47C257.181 1694.86 255.684 1702.63 257.473 1707.78L253.526 1705.27C251.253 1703.82 250.125 1700.79 250.35 1696.73V1696.73Z" fill="#38421E"/>
<path d="M149.213 1691C161.268 1691 170.713 1685.51 170.713 1678.5V1668H170.671C170.23 1661.23 160.977 1656 149.213 1656C137.449 1656 128.195 1661.23 127.755 1668H127.713V1678.5C127.713 1685.51 137.157 1691 149.213 1691ZM149.213 1658C159.783 1658 168.713 1662.81 168.713 1668.5C168.713 1674.19 159.783 1679 149.213 1679C138.643 1679 129.713 1674.19 129.713 1668.5C129.713 1662.81 138.642 1658 149.213 1658ZM129.713 1673.82C133.094 1678.09 140.454 1681 149.213 1681C157.972 1681 165.331 1678.1 168.713 1673.82V1678.5C168.713 1684.19 159.783 1689 149.213 1689C138.643 1689 129.713 1684.19 129.713 1678.5V1673.82Z" fill="#38421E"/>
<path d="M231.213 1644C243.268 1644 252.713 1638.51 252.713 1631.5V1621H252.671C252.23 1614.23 242.977 1609 231.213 1609C219.449 1609 210.195 1614.23 209.755 1621H209.713V1631.5C209.713 1638.51 219.157 1644 231.213 1644ZM231.213 1611C241.783 1611 250.713 1615.81 250.713 1621.5C250.713 1627.19 241.783 1632 231.213 1632C220.643 1632 211.713 1627.19 211.713 1621.5C211.713 1615.81 220.642 1611 231.213 1611ZM211.713 1626.82C215.094 1631.09 222.454 1634 231.213 1634C239.972 1634 247.331 1631.1 250.713 1626.82V1631.5C250.713 1637.19 241.783 1642 231.213 1642C220.643 1642 211.713 1637.19 211.713 1631.5V1626.82Z" fill="#38421E"/>
<path d="M149.213 1643C161.268 1643 170.713 1637.51 170.713 1630.5C170.713 1623.49 161.268 1618 149.213 1618C137.158 1618 127.713 1623.49 127.713 1630.5C127.713 1637.51 137.157 1643 149.213 1643ZM149.213 1641C141.597 1641 134.853 1638.5 131.666 1634.97C134.949 1631.32 141.697 1629 149.213 1629C156.647 1629 163.466 1631.34 166.754 1634.98C163.566 1638.5 156.824 1641 149.213 1641ZM149.213 1620C159.783 1620 168.713 1624.81 168.713 1630.5C168.697 1631.49 168.434 1632.46 167.947 1633.32C164.164 1629.41 157.1 1627 149.213 1627C141.371 1627 134.238 1629.45 130.48 1633.33C129.992 1632.46 129.728 1631.49 129.713 1630.5C129.713 1624.81 138.642 1620 149.213 1620Z" fill="#38421E"/>
<path d="M40.3831 1710.47C41.681 1710.48 42.9622 1710.17 44.1171 1709.58C50.3391 1706.36 50.864 1695.44 45.317 1684.74C43.0131 1680.07 39.575 1676.05 35.317 1673.05C31.292 1670.41 27.388 1669.82 24.325 1671.41C21.263 1673 19.4891 1676.53 19.3311 1681.34C19.3316 1686.55 20.638 1691.68 23.131 1696.25C27.636 1704.97 34.5901 1710.47 40.3831 1710.47ZM43.538 1685.67C47.045 1692.43 47.9291 1699.57 46.2681 1704.02C41.5161 1702.79 36.346 1697.86 32.886 1691.19C29.454 1684.58 28.393 1677.42 30.131 1672.83C31.5855 1673.24 32.9641 1673.88 34.213 1674.73C38.1829 1677.54 41.3867 1681.3 43.533 1685.66L43.538 1685.67ZM25.238 1673.19C26.1004 1672.75 27.0564 1672.53 28.024 1672.54C28.051 1672.54 28.079 1672.54 28.105 1672.54C26.358 1677.7 27.471 1685.1 31.105 1692.11C34.717 1699.07 40.1749 1704.28 45.3459 1705.83C44.8044 1706.66 44.0636 1707.34 43.191 1707.81C38.141 1710.42 29.758 1704.72 24.891 1695.33C22.5569 1691.06 21.3289 1686.27 21.319 1681.41C21.452 1677.35 22.842 1674.43 25.234 1673.19L25.238 1673.19Z" fill="#38421E"/>
<path d="M116.305 1814.05C112.28 1811.41 108.376 1810.82 105.313 1812.41C102.251 1814 100.477 1817.53 100.319 1822.34C100.319 1827.55 101.626 1832.68 104.119 1837.25C108.639 1845.97 115.593 1851.47 121.381 1851.47C122.679 1851.48 123.96 1851.17 125.115 1850.58C131.337 1847.36 131.862 1836.44 126.315 1825.74C124.008 1821.07 120.567 1817.05 116.305 1814.05V1814.05ZM124.191 1848.81C119.141 1851.42 110.757 1845.71 105.891 1836.33C103.557 1832.06 102.329 1827.27 102.319 1822.41C102.452 1818.35 103.842 1815.43 106.234 1814.19C107.096 1813.75 108.052 1813.52 109.02 1813.54C109.047 1813.54 109.075 1813.54 109.101 1813.54C107.354 1818.7 108.467 1826.09 112.101 1833.1C115.713 1840.07 121.171 1845.27 126.342 1846.82C125.802 1847.65 125.063 1848.33 124.191 1848.81V1848.81ZM127.263 1845.01C122.511 1843.78 117.341 1838.85 113.881 1832.18C110.449 1825.57 109.388 1818.41 111.126 1813.82C112.58 1814.23 113.959 1814.87 115.208 1815.72C119.181 1818.53 122.386 1822.29 124.533 1826.66C128.04 1833.42 128.924 1840.56 127.263 1845.01V1845.01Z" fill="#38421E"/>
<path d="M171.798 1755.72C173.125 1756.53 174.658 1756.96 176.217 1756.93C181.86 1756.93 188.823 1752.09 193.805 1744.13C196.659 1739.77 198.376 1734.77 198.798 1729.58C199.03 1724.77 197.548 1721.11 194.626 1719.28C191.704 1717.45 187.766 1717.71 183.537 1720.02C179.049 1722.67 175.295 1726.39 172.619 1730.86C169.764 1735.22 168.048 1740.23 167.627 1745.42C167.394 1750.23 168.876 1753.89 171.798 1755.72ZM196.798 1729.48C196.394 1734.33 194.782 1739 192.109 1743.07C186.5 1752.03 177.684 1757.05 172.86 1754.02C172.024 1753.48 171.334 1752.75 170.852 1751.88C176.185 1750.76 181.985 1746.05 186.177 1739.35C190.345 1732.7 192.055 1725.35 190.757 1720.1C191.748 1720.16 192.71 1720.46 193.557 1720.97C195.847 1722.4 196.996 1725.42 196.799 1729.48H196.798ZM169.624 1745.51C170.028 1740.66 171.64 1735.99 174.313 1731.92C176.807 1727.74 180.307 1724.25 184.495 1721.77C185.81 1721.03 187.239 1720.5 188.724 1720.22C190.092 1724.94 188.481 1731.91 184.482 1738.29C180.528 1744.61 174.912 1749.15 170.076 1749.99C169.682 1748.53 169.529 1747.02 169.625 1745.51H169.624Z" fill="#38421E"/>
<path d="M276.626 1765.28C273.703 1763.45 269.766 1763.71 265.537 1766.02C261.049 1768.66 257.295 1772.39 254.619 1776.86C251.764 1781.22 250.048 1786.22 249.627 1791.42C249.394 1796.23 250.876 1799.89 253.798 1801.72C255.125 1802.53 256.658 1802.95 258.217 1802.93C263.86 1802.93 270.823 1798.09 275.805 1790.13C278.659 1785.77 280.376 1780.77 280.798 1775.58C281.03 1770.77 279.548 1767.11 276.626 1765.28ZM251.626 1791.51C252.03 1786.66 253.642 1781.99 256.315 1777.92C258.809 1773.74 262.309 1770.25 266.497 1767.77C267.812 1767.03 269.241 1766.5 270.726 1766.22C272.094 1770.94 270.483 1777.91 266.484 1784.29C262.53 1790.61 256.914 1795.15 252.078 1795.99C251.683 1794.53 251.53 1793.02 251.625 1791.51H251.626ZM278.8 1775.48C278.396 1780.33 276.784 1785 274.111 1789.07C268.501 1798.03 259.684 1803.05 254.862 1800.02C254.026 1799.48 253.336 1798.75 252.854 1797.88C258.187 1796.76 263.987 1792.05 268.179 1785.35C272.347 1778.7 274.057 1771.35 272.759 1766.1C273.75 1766.16 274.712 1766.45 275.559 1766.97C277.847 1768.4 278.996 1771.42 278.799 1775.48H278.8Z" fill="#38421E"/>
<path d="M1 1632.5L151 1714.5M151 1714.5V1890M151 1714.5L299 1632.5" stroke="#38421E" stroke-width="2"/>
<path d="M150.5 1373L299.456 1459V1631L150.5 1717L1.54362 1631V1459L150.5 1373Z" fill="#1F1D1D" stroke="#333333" stroke-width="2"/>
<path d="M149.213 1424C161.268 1424 170.713 1418.51 170.713 1411.5V1401H170.671C170.23 1394.23 160.977 1389 149.213 1389C137.449 1389 128.195 1394.23 127.755 1401H127.713V1411.5C127.713 1418.51 137.157 1424 149.213 1424ZM149.213 1391C159.783 1391 168.713 1395.81 168.713 1401.5C168.713 1407.19 159.783 1412 149.213 1412C138.643 1412 129.713 1407.19 129.713 1401.5C129.713 1395.81 138.642 1391 149.213 1391ZM129.713 1406.82C133.094 1411.09 140.454 1414 149.213 1414C157.972 1414 165.331 1411.1 168.713 1406.82V1411.5C168.713 1417.19 159.783 1422 149.213 1422C138.643 1422 129.713 1417.19 129.713 1411.5V1406.82Z" fill="#333333"/>
<path d="M68.2129 1471C80.2679 1471 89.7129 1465.51 89.7129 1458.5V1448H89.6709C89.2299 1441.23 79.9769 1436 68.2129 1436C56.4489 1436 47.1949 1441.23 46.7549 1448H46.7129V1458.5C46.7129 1465.51 56.1569 1471 68.2129 1471ZM68.2129 1438C78.7829 1438 87.7129 1442.81 87.7129 1448.5C87.7129 1454.19 78.7829 1459 68.2129 1459C57.6429 1459 48.7129 1454.19 48.7129 1448.5C48.7129 1442.81 57.6419 1438 68.2129 1438ZM68.2129 1461C76.9709 1461 84.3309 1458.1 87.7129 1453.82V1458.5C87.7129 1464.19 78.7829 1469 68.2129 1469C57.6429 1469 48.7129 1464.19 48.7129 1458.5V1453.82C52.0939 1458.09 59.4539 1461 68.2129 1461Z" fill="#333333"/>
<path d="M15.6099 1620.42C20.0769 1629.21 27.0269 1634.78 32.8289 1634.78C33.9307 1634.79 35.0216 1634.56 36.034 1634.13L36.0479 1634.16L36.4849 1633.93H36.4939H36.4999L45.409 1629.41C51.657 1626.23 52.2739 1615.33 46.8089 1604.58C41.3439 1593.83 32.1729 1587.9 25.9259 1591.08L17.013 1595.6L16.5689 1595.83L16.5879 1595.87C10.7569 1599.32 10.2829 1609.93 15.6099 1620.42ZM26.8379 1592.85C31.9069 1590.27 40.2379 1596.05 45.0309 1605.48C49.8239 1614.9 49.577 1625.04 44.503 1627.62L40.332 1629.74C42.61 1624.79 41.866 1616.91 37.899 1609.1C33.932 1601.29 28.0089 1596.05 22.6679 1594.97L26.8379 1592.85ZM17.919 1597.38C22.988 1594.81 31.3189 1600.58 36.1109 1610.01C40.9029 1619.43 40.6569 1629.56 35.5879 1632.15L35.577 1632.15C30.505 1634.72 22.177 1628.94 17.388 1619.52C12.599 1610.1 12.847 1599.96 17.919 1597.38V1597.38Z" fill="#333333"/>
<path d="M113.829 1588.78C114.931 1588.79 116.021 1588.56 117.034 1588.13L117.048 1588.16L117.485 1587.93H117.494H117.5L126.409 1583.41C132.657 1580.23 133.274 1569.33 127.809 1558.58C122.344 1547.83 113.175 1541.9 106.926 1545.08L98.0128 1549.6L97.5687 1549.83L97.5878 1549.87C91.7558 1553.32 91.2808 1563.94 96.6088 1574.43C101.077 1583.21 108.027 1588.78 113.829 1588.78ZM107.838 1546.85C112.91 1544.27 121.243 1550.05 126.031 1559.48C130.819 1568.9 130.577 1579.04 125.503 1581.62L121.332 1583.74C123.61 1578.79 122.866 1570.91 118.899 1563.1C114.932 1555.29 109.008 1550.05 103.668 1548.97L107.838 1546.85ZM98.9188 1551.38C103.989 1548.8 112.319 1554.58 117.111 1564.01C121.903 1573.43 121.657 1583.56 116.588 1586.15H116.577C111.502 1588.72 103.177 1582.93 98.3878 1573.51C93.5988 1564.1 93.8468 1553.96 98.9188 1551.38V1551.38Z" fill="#333333"/>
<path d="M171.452 1675.95L180.31 1681.59L180.33 1681.56C181.557 1682.22 182.933 1682.57 184.33 1682.56C186.67 1682.48 188.955 1681.83 190.984 1680.66C195.491 1678.04 199.27 1674.34 201.978 1669.89C208.294 1659.96 208.845 1649.35 203.378 1645.34L203.4 1645.31L202.979 1645.04L194.543 1639.67C188.628 1635.91 178.929 1640.93 172.455 1651.1C169.57 1655.44 167.818 1660.43 167.36 1665.62C167.083 1670.43 168.542 1674.1 171.452 1675.95ZM200.29 1668.82C197.767 1672.98 194.243 1676.45 190.037 1678.9C186.458 1680.82 183.237 1681.08 180.963 1679.64C176.163 1676.58 176.897 1666.46 182.572 1657.55C187.106 1650.42 193.672 1645.83 198.572 1645.83C199.744 1645.8 200.899 1646.11 201.898 1646.73V1646.73C206.701 1649.78 205.963 1659.9 200.29 1668.82V1668.82ZM169.35 1665.73C169.789 1660.88 171.434 1656.22 174.135 1652.17C179.809 1643.26 188.657 1638.3 193.462 1641.36L197.41 1643.87C191.988 1644.43 185.586 1649.08 180.884 1656.47C176.182 1663.86 174.684 1671.63 176.473 1676.78L172.526 1674.27C170.253 1672.82 169.125 1669.79 169.35 1665.73V1665.73Z" fill="#333333"/>
<path d="M252.452 1533.95L261.31 1539.59L261.33 1539.56C262.557 1540.22 263.933 1540.57 265.33 1540.56C267.67 1540.48 269.955 1539.83 271.984 1538.66C276.491 1536.04 280.27 1532.34 282.978 1527.89C289.294 1517.96 289.845 1507.35 284.378 1503.34L284.4 1503.31L283.979 1503.04L275.543 1497.67C269.628 1493.91 259.929 1498.93 253.455 1509.1C250.57 1513.44 248.818 1518.43 248.36 1523.62C248.083 1528.43 249.542 1532.1 252.452 1533.95ZM281.29 1526.82C278.767 1530.98 275.243 1534.45 271.037 1536.9C267.458 1538.82 264.237 1539.08 261.963 1537.64C257.163 1534.58 257.897 1524.47 263.572 1515.55C268.106 1508.42 274.672 1503.83 279.572 1503.83C280.744 1503.8 281.899 1504.11 282.898 1504.73V1504.73C287.701 1507.78 286.963 1517.9 281.29 1526.82V1526.82ZM250.35 1523.73C250.789 1518.88 252.434 1514.22 255.135 1510.17C260.809 1501.26 269.655 1496.3 274.462 1499.36L278.409 1501.87C272.987 1502.43 266.587 1507.08 261.884 1514.47C257.181 1521.86 255.684 1529.63 257.473 1534.78L253.526 1532.27C251.253 1530.82 250.125 1527.79 250.35 1523.73V1523.73Z" fill="#333333"/>
<path d="M149.213 1518C161.268 1518 170.713 1512.51 170.713 1505.5V1495H170.671C170.23 1488.23 160.977 1483 149.213 1483C137.449 1483 128.195 1488.23 127.755 1495H127.713V1505.5C127.713 1512.51 137.157 1518 149.213 1518ZM149.213 1485C159.783 1485 168.713 1489.81 168.713 1495.5C168.713 1501.19 159.783 1506 149.213 1506C138.643 1506 129.713 1501.19 129.713 1495.5C129.713 1489.81 138.642 1485 149.213 1485ZM129.713 1500.82C133.094 1505.09 140.454 1508 149.213 1508C157.972 1508 165.331 1505.1 168.713 1500.82V1505.5C168.713 1511.19 159.783 1516 149.213 1516C138.643 1516 129.713 1511.19 129.713 1505.5V1500.82Z" fill="#333333"/>
<path d="M231.213 1471C243.268 1471 252.713 1465.51 252.713 1458.5V1448H252.671C252.23 1441.23 242.977 1436 231.213 1436C219.449 1436 210.195 1441.23 209.755 1448H209.713V1458.5C209.713 1465.51 219.157 1471 231.213 1471ZM231.213 1438C241.783 1438 250.713 1442.81 250.713 1448.5C250.713 1454.19 241.783 1459 231.213 1459C220.643 1459 211.713 1454.19 211.713 1448.5C211.713 1442.81 220.642 1438 231.213 1438ZM211.713 1453.82C215.094 1458.09 222.454 1461 231.213 1461C239.972 1461 247.331 1458.1 250.713 1453.82V1458.5C250.713 1464.19 241.783 1469 231.213 1469C220.643 1469 211.713 1464.19 211.713 1458.5V1453.82Z" fill="#333333"/>
<path d="M149.213 1470C161.268 1470 170.713 1464.51 170.713 1457.5C170.713 1450.49 161.268 1445 149.213 1445C137.158 1445 127.713 1450.49 127.713 1457.5C127.713 1464.51 137.157 1470 149.213 1470ZM149.213 1468C141.597 1468 134.853 1465.5 131.666 1461.97C134.949 1458.32 141.697 1456 149.213 1456C156.647 1456 163.466 1458.34 166.754 1461.98C163.566 1465.5 156.824 1468 149.213 1468ZM149.213 1447C159.783 1447 168.713 1451.81 168.713 1457.5C168.697 1458.49 168.434 1459.46 167.947 1460.32C164.164 1456.41 157.1 1454 149.213 1454C141.371 1454 134.238 1456.45 130.48 1460.33C129.992 1459.46 129.728 1458.49 129.713 1457.5C129.713 1451.81 138.642 1447 149.213 1447Z" fill="#333333"/>
<path d="M40.3831 1537.47C41.681 1537.48 42.9622 1537.17 44.1171 1536.58C50.3391 1533.36 50.864 1522.44 45.317 1511.74C43.0131 1507.07 39.575 1503.05 35.317 1500.05C31.292 1497.41 27.388 1496.82 24.325 1498.41C21.263 1500 19.4891 1503.53 19.3311 1508.34C19.3316 1513.55 20.638 1518.68 23.131 1523.25C27.636 1531.97 34.5901 1537.47 40.3831 1537.47ZM43.538 1512.67C47.045 1519.43 47.9291 1526.57 46.2681 1531.02C41.5161 1529.79 36.346 1524.86 32.886 1518.19C29.454 1511.58 28.393 1504.42 30.131 1499.83C31.5855 1500.24 32.9641 1500.88 34.213 1501.73C38.1829 1504.54 41.3867 1508.3 43.533 1512.66L43.538 1512.67ZM25.238 1500.19C26.1004 1499.75 27.0564 1499.53 28.024 1499.54C28.051 1499.54 28.079 1499.54 28.105 1499.54C26.358 1504.7 27.471 1512.1 31.105 1519.11C34.717 1526.07 40.1749 1531.28 45.3459 1532.83C44.8044 1533.66 44.0636 1534.34 43.191 1534.81C38.141 1537.42 29.758 1531.72 24.891 1522.33C22.5569 1518.06 21.3289 1513.27 21.319 1508.41C21.452 1504.35 22.842 1501.43 25.234 1500.19L25.238 1500.19Z" fill="#333333"/>
<path d="M116.305 1641.05C112.28 1638.41 108.376 1637.82 105.313 1639.41C102.251 1641 100.477 1644.53 100.319 1649.34C100.319 1654.55 101.626 1659.68 104.119 1664.25C108.639 1672.97 115.593 1678.47 121.381 1678.47C122.679 1678.48 123.96 1678.17 125.115 1677.58C131.337 1674.36 131.862 1663.44 126.315 1652.74C124.008 1648.07 120.567 1644.05 116.305 1641.05V1641.05ZM124.191 1675.81C119.141 1678.42 110.757 1672.71 105.891 1663.33C103.557 1659.06 102.329 1654.27 102.319 1649.41C102.452 1645.35 103.842 1642.43 106.234 1641.19C107.096 1640.75 108.052 1640.52 109.02 1640.54C109.047 1640.54 109.075 1640.54 109.101 1640.54C107.354 1645.7 108.467 1653.09 112.101 1660.1C115.713 1667.07 121.171 1672.27 126.342 1673.82C125.802 1674.65 125.063 1675.33 124.191 1675.81V1675.81ZM127.263 1672.01C122.511 1670.78 117.341 1665.85 113.881 1659.18C110.449 1652.57 109.388 1645.41 111.126 1640.82C112.58 1641.23 113.959 1641.87 115.208 1642.72C119.181 1645.53 122.386 1649.29 124.533 1653.66C128.04 1660.42 128.924 1667.56 127.263 1672.01V1672.01Z" fill="#333333"/>
<path d="M171.798 1582.72C173.125 1583.53 174.658 1583.96 176.217 1583.93C181.86 1583.93 188.823 1579.09 193.805 1571.13C196.659 1566.77 198.376 1561.77 198.798 1556.58C199.03 1551.77 197.548 1548.11 194.626 1546.28C191.704 1544.45 187.766 1544.71 183.537 1547.02C179.049 1549.67 175.295 1553.39 172.619 1557.86C169.764 1562.22 168.048 1567.23 167.627 1572.42C167.394 1577.23 168.876 1580.89 171.798 1582.72ZM196.798 1556.48C196.394 1561.33 194.782 1566 192.109 1570.07C186.5 1579.03 177.684 1584.05 172.86 1581.02C172.024 1580.48 171.334 1579.75 170.852 1578.88C176.185 1577.76 181.985 1573.05 186.177 1566.35C190.345 1559.7 192.055 1552.35 190.757 1547.1C191.748 1547.16 192.71 1547.46 193.557 1547.97C195.847 1549.4 196.996 1552.42 196.799 1556.48H196.798ZM169.624 1572.51C170.028 1567.66 171.64 1562.99 174.313 1558.92C176.807 1554.74 180.307 1551.25 184.495 1548.77C185.81 1548.03 187.239 1547.5 188.724 1547.22C190.092 1551.94 188.481 1558.91 184.482 1565.29C180.528 1571.61 174.912 1576.15 170.076 1576.99C169.682 1575.53 169.529 1574.02 169.625 1572.51H169.624Z" fill="#333333"/>
<path d="M276.626 1592.28C273.703 1590.45 269.766 1590.71 265.537 1593.02C261.049 1595.66 257.295 1599.39 254.619 1603.86C251.764 1608.22 250.048 1613.22 249.627 1618.42C249.394 1623.23 250.876 1626.89 253.798 1628.72C255.125 1629.53 256.658 1629.95 258.217 1629.93C263.86 1629.93 270.823 1625.09 275.805 1617.13C278.659 1612.77 280.376 1607.77 280.798 1602.58C281.03 1597.77 279.548 1594.11 276.626 1592.28ZM251.626 1618.51C252.03 1613.66 253.642 1608.99 256.315 1604.92C258.809 1600.74 262.309 1597.25 266.497 1594.77C267.812 1594.03 269.241 1593.5 270.726 1593.22C272.094 1597.94 270.483 1604.91 266.484 1611.29C262.53 1617.61 256.914 1622.15 252.078 1622.99C251.683 1621.53 251.53 1620.02 251.625 1618.51H251.626ZM278.8 1602.48C278.396 1607.33 276.784 1612 274.111 1616.07C268.501 1625.03 259.684 1630.05 254.862 1627.02C254.026 1626.48 253.336 1625.75 252.854 1624.88C258.187 1623.76 263.987 1619.05 268.179 1612.35C272.347 1605.7 274.057 1598.35 272.759 1593.1C273.75 1593.16 274.712 1593.45 275.559 1593.97C277.847 1595.4 278.996 1598.42 278.799 1602.48H278.8Z" fill="#333333"/>
<path d="M1 1459.5L151 1541.5M151 1541.5V1717M151 1541.5L299 1459.5" stroke="#333333" stroke-width="2"/>
</svg>
