<svg width="298" height="287" viewBox="0 0 298 287" fill="none" xmlns="http://www.w3.org/2000/svg">
<path d="M197.556 2L296.302 59.0112V173.034L197.556 230.045L98.8093 173.034V59.0112L197.556 2Z" fill="#1F1D1D" stroke="#333333" stroke-width="2"/>
<path d="M196.702 35.8084C204.694 35.8084 210.955 32.1683 210.955 27.5219V20.5613H210.927C210.635 16.0759 204.501 12.6062 196.702 12.6062C188.903 12.6062 182.769 16.0759 182.477 20.5613H182.449V27.5219C182.449 32.1664 188.71 35.8084 196.702 35.8084ZM196.702 13.932C203.709 13.932 209.629 17.12 209.629 20.8927C209.629 24.6654 203.709 27.8534 196.702 27.8534C189.695 27.8534 183.775 24.6661 183.775 20.8927C183.775 17.1194 189.694 13.932 196.702 13.932ZM183.775 24.4208C186.016 27.2534 190.896 29.1792 196.702 29.1792C202.509 29.1792 207.387 27.2568 209.629 24.4208V27.5219C209.629 31.2953 203.709 34.4826 196.702 34.4826C189.695 34.4826 183.775 31.2953 183.775 27.5219V24.4208Z" fill="#333333"/>
<path d="M143.006 66.9657C150.997 66.9657 157.259 63.3256 157.259 58.6792V51.7185H157.231C156.938 47.2332 150.804 43.7634 143.006 43.7634C135.207 43.7634 129.072 47.2332 128.781 51.7185H128.753V58.6792C128.753 63.3236 135.014 66.9657 143.006 66.9657ZM143.006 45.0893C150.013 45.0893 155.933 48.2773 155.933 52.0499C155.933 55.8226 150.013 59.0106 143.006 59.0106C135.999 59.0106 130.079 55.8233 130.079 52.0499C130.079 48.2766 135.998 45.0893 143.006 45.0893ZM143.006 60.3365C148.812 60.3365 153.691 58.414 155.933 55.578V58.6792C155.933 62.4525 150.013 65.6398 143.006 65.6398C135.999 65.6398 130.079 62.4525 130.079 58.6792V55.578C132.32 58.4087 137.199 60.3365 143.006 60.3365Z" fill="#333333"/>
<path d="M108.134 166.022C111.096 171.85 115.703 175.542 119.549 175.542C120.28 175.544 121.003 175.396 121.674 175.108L121.683 175.125L121.973 174.978H121.979H121.983L127.889 171.977C132.031 169.873 132.44 162.643 128.817 155.517C125.194 148.391 119.114 144.459 114.973 146.567L109.064 149.569L108.77 149.718L108.783 149.743C104.917 152.029 104.603 159.069 108.134 166.022ZM115.578 147.742C118.938 146.032 124.461 149.866 127.638 156.114C130.815 162.361 130.652 169.082 127.288 170.791L124.523 172.195C126.033 168.914 125.54 163.691 122.91 158.515C120.28 153.339 116.354 149.862 112.813 149.146L115.578 147.742ZM109.665 150.745C113.025 149.04 118.548 152.871 121.725 159.117C124.901 165.364 124.738 172.081 121.378 173.793L121.371 173.796C118.008 175.501 112.488 171.668 109.313 165.423C106.138 159.178 106.303 152.456 109.665 150.745V150.745Z" fill="#333333"/>
<path d="M173.245 145.047C173.976 145.049 174.699 144.901 175.37 144.613L175.379 144.631L175.669 144.484H175.675H175.679L181.585 141.483C185.727 139.379 186.136 132.148 182.513 125.022C178.89 117.897 172.812 113.965 168.669 116.073L162.761 119.075L162.466 119.224L162.479 119.248C158.613 121.541 158.298 128.58 161.83 135.534C164.792 141.355 169.399 145.047 173.245 145.047ZM169.274 117.247C172.636 115.537 178.16 119.372 181.334 125.619C184.508 131.866 184.348 138.587 180.984 140.296L178.219 141.701C179.729 138.419 179.236 133.197 176.606 128.021C173.976 122.845 170.049 119.368 166.509 118.651L169.274 117.247ZM163.361 120.251C166.722 118.544 172.244 122.376 175.421 128.623C178.598 134.869 178.435 141.586 175.074 143.298H175.067C171.703 145.003 166.184 141.169 163.009 134.925C159.834 128.681 159.999 121.961 163.361 120.251V120.251Z" fill="#333333"/>
<path d="M211.445 202.833L217.317 206.57L217.33 206.549C218.143 206.992 219.056 207.22 219.982 207.212C221.533 207.16 223.048 206.728 224.393 205.953C227.38 204.22 229.886 201.766 231.681 198.815C235.868 192.235 236.233 185.198 232.609 182.543L232.624 182.52L232.345 182.343L226.752 178.785C222.831 176.292 216.401 179.618 212.11 186.361C210.197 189.237 209.036 192.546 208.732 195.986C208.548 199.173 209.516 201.605 211.445 202.833ZM230.562 198.104C228.89 200.864 226.553 203.161 223.765 204.787C221.393 206.061 219.257 206.235 217.75 205.276C214.568 203.25 215.054 196.544 218.816 190.633C221.822 185.909 226.175 182.864 229.423 182.864C230.2 182.846 230.966 183.054 231.628 183.46V183.46C234.812 185.487 234.323 192.192 230.562 198.104V198.104ZM210.051 196.058C210.342 192.845 211.433 189.755 213.223 187.071C216.985 181.161 222.85 177.875 226.036 179.902L228.653 181.567C225.059 181.938 220.814 185.02 217.697 189.92C214.58 194.819 213.587 199.968 214.773 203.38L212.157 201.716C210.65 200.755 209.902 198.747 210.051 196.058V196.058Z" fill="#333333"/>
<path d="M265.142 108.698L271.014 112.435L271.027 112.414C271.841 112.857 272.753 113.085 273.679 113.077C275.23 113.025 276.745 112.593 278.09 111.818C281.078 110.085 283.583 107.631 285.378 104.681C289.565 98.0998 289.931 91.0629 286.306 88.4085L286.321 88.3853L286.042 88.2077L280.449 84.6498C276.528 82.1565 270.099 85.4824 265.807 92.2263C263.894 95.1018 262.733 98.411 262.429 101.851C262.246 105.039 263.213 107.47 265.142 108.698ZM284.259 103.969C282.587 106.729 280.25 109.027 277.462 110.652C275.09 111.927 272.955 112.101 271.447 111.141C268.265 109.116 268.752 102.41 272.514 96.4982C275.519 91.7742 279.872 88.7287 283.12 88.7287C283.897 88.7116 284.663 88.9187 285.325 89.3253V89.3253C288.509 91.3519 288.02 98.0567 284.259 103.969V103.969ZM263.749 101.923C264.039 98.71 265.13 95.6204 266.921 92.9363C270.682 87.0257 276.546 83.7402 279.733 85.7668L282.349 87.432C278.755 87.8026 274.512 90.8852 271.395 95.7848C268.277 100.684 267.285 105.833 268.471 109.245L265.854 107.581C264.347 106.62 263.599 104.612 263.749 101.923V101.923Z" fill="#333333"/>
<path d="M196.702 98.1231C204.694 98.1231 210.955 94.483 210.955 89.8366V82.876H210.927C210.635 78.3906 204.501 74.9209 196.702 74.9209C188.903 74.9209 182.769 78.3906 182.477 82.876H182.449V89.8366C182.449 94.4811 188.71 98.1231 196.702 98.1231ZM196.702 76.2467C203.709 76.2467 209.629 79.4347 209.629 83.2074C209.629 86.9801 203.709 90.1681 196.702 90.1681C189.695 90.1681 183.775 86.9808 183.775 83.2074C183.775 79.4341 189.694 76.2467 196.702 76.2467ZM183.775 86.7355C186.016 89.5681 190.896 91.4939 196.702 91.4939C202.509 91.4939 207.387 89.5715 209.629 86.7355V89.8366C209.629 93.61 203.709 96.7973 196.702 96.7973C189.695 96.7973 183.775 93.61 183.775 89.8366V86.7355Z" fill="#333333"/>
<path d="M251.062 66.9657C259.054 66.9657 265.315 63.3256 265.315 58.6792V51.7185H265.287C264.995 47.2332 258.861 43.7634 251.062 43.7634C243.264 43.7634 237.129 47.2332 236.837 51.7185H236.81V58.6792C236.81 63.3236 243.07 66.9657 251.062 66.9657ZM251.062 45.0893C258.069 45.0893 263.989 48.2773 263.989 52.0499C263.989 55.8226 258.069 59.0106 251.062 59.0106C244.055 59.0106 238.135 55.8233 238.135 52.0499C238.135 48.2766 244.055 45.0893 251.062 45.0893ZM238.135 55.578C240.377 58.4107 245.256 60.3365 251.062 60.3365C256.869 60.3365 261.747 58.414 263.989 55.578V58.6792C263.989 62.4525 258.069 65.6398 251.062 65.6398C244.055 65.6398 238.135 62.4525 238.135 58.6792V55.578Z" fill="#333333"/>
<path d="M196.702 66.3028C204.694 66.3028 210.955 62.6627 210.955 58.0163C210.955 53.3698 204.694 49.7297 196.702 49.7297C188.711 49.7297 182.449 53.3698 182.449 58.0163C182.449 62.6627 188.71 66.3028 196.702 66.3028ZM196.702 64.9769C191.653 64.9769 187.182 63.3196 185.07 60.9822C187.246 58.5618 191.72 57.0219 196.702 57.0219C201.63 57.0219 206.151 58.5731 208.33 60.9855C206.217 63.3196 201.748 64.9769 196.702 64.9769ZM196.702 51.0556C203.709 51.0556 209.629 54.2436 209.629 58.0163C209.619 58.6725 209.444 59.3156 209.121 59.887C206.613 57.291 201.93 55.696 196.702 55.696C191.503 55.696 186.775 57.3195 184.284 59.8897C183.96 59.3175 183.785 58.6734 183.775 58.0163C183.775 54.2416 189.694 51.0556 196.702 51.0556Z" fill="#333333"/>
<path d="M124.556 111.029C125.417 111.036 126.266 110.835 127.032 110.442C131.156 108.303 131.504 101.069 127.827 93.9745C126.3 90.8773 124.021 88.2123 121.198 86.2229C118.53 84.4708 115.942 84.0857 113.911 85.1377C111.881 86.1904 110.705 88.5279 110.601 91.7199C110.601 95.1738 111.467 98.5725 113.12 101.605C116.106 107.382 120.716 111.029 124.556 111.029ZM126.648 94.5883C128.973 99.0703 129.559 103.803 128.458 106.753C125.308 105.936 121.88 102.674 119.586 98.251C117.311 93.8644 116.608 89.1225 117.76 86.0777C118.724 86.3484 119.638 86.7738 120.466 87.3373C123.098 89.2001 125.222 91.6916 126.645 94.585L126.648 94.5883ZM114.516 86.3177C115.088 86.0267 115.722 85.8786 116.363 85.8862C116.381 85.8862 116.4 85.8862 116.417 85.8862C115.259 89.3082 115.997 94.2091 118.406 98.8589C120.8 103.474 124.418 106.924 127.846 107.951C127.487 108.502 126.996 108.954 126.418 109.266C123.07 111 117.513 107.216 114.286 100.995C112.739 98.164 111.925 94.9903 111.918 91.7636C112.007 89.0715 112.928 87.1364 114.514 86.3144L114.516 86.3177Z" fill="#333333"/>
<path d="M174.888 179.695C172.219 177.943 169.631 177.557 167.601 178.61C165.571 179.662 164.395 182 164.29 185.192C164.29 188.646 165.157 192.044 166.809 195.077C169.806 200.854 174.416 204.501 178.252 204.501C179.113 204.508 179.962 204.307 180.728 203.914C184.853 201.775 185.201 194.541 181.523 187.446C179.994 184.349 177.713 181.683 174.888 179.695V179.695ZM180.115 202.737C176.768 204.472 171.21 200.687 167.984 194.467C166.437 191.635 165.622 188.462 165.616 185.235C165.704 182.543 166.626 180.608 168.211 179.786C168.783 179.495 169.417 179.347 170.058 179.355C170.076 179.355 170.095 179.355 170.112 179.355C168.954 182.777 169.692 187.678 172.101 192.328C174.495 196.943 178.113 200.393 181.541 201.42C181.183 201.971 180.693 202.424 180.115 202.737V202.737ZM182.152 200.218C179.002 199.402 175.574 196.139 173.281 191.716C171.005 187.33 170.302 182.588 171.454 179.543C172.418 179.814 173.332 180.239 174.16 180.803C176.794 182.667 178.919 185.16 180.342 188.056C182.667 192.539 183.253 197.271 182.152 200.222V200.218Z" fill="#333333"/>
<path d="M211.674 141.026C212.554 141.568 213.571 141.847 214.604 141.832C218.345 141.832 222.961 138.62 226.263 133.347C228.156 130.458 229.293 127.14 229.573 123.698C229.727 120.508 228.745 118.083 226.808 116.87C224.871 115.657 222.26 115.831 219.456 117.362C216.481 119.116 213.993 121.587 212.219 124.551C210.326 127.44 209.189 130.757 208.909 134.199C208.755 137.387 209.737 139.812 211.674 141.026ZM228.247 123.633C227.98 126.849 226.911 129.946 225.139 132.642C221.421 138.58 215.576 141.906 212.378 139.902C211.824 139.546 211.367 139.058 211.047 138.482C214.583 137.741 218.428 134.616 221.207 130.179C223.97 125.769 225.103 120.893 224.243 117.418C224.899 117.453 225.537 117.65 226.099 117.992C227.617 118.939 228.379 120.944 228.248 123.633H228.247ZM210.233 134.261C210.501 131.046 211.57 127.948 213.342 125.252C214.995 122.481 217.315 120.168 220.092 118.524C220.964 118.03 221.911 117.682 222.895 117.494C223.802 120.624 222.734 125.243 220.083 129.475C217.462 133.66 213.739 136.671 210.533 137.232C210.272 136.264 210.171 135.261 210.234 134.261H210.233Z" fill="#333333"/>
<path d="M281.167 147.362C279.229 146.15 276.619 146.324 273.816 147.854C270.84 149.608 268.352 152.079 266.578 155.043C264.686 157.932 263.548 161.249 263.269 164.692C263.114 167.881 264.097 170.306 266.034 171.52C266.914 172.061 267.93 172.341 268.963 172.326C272.704 172.326 277.32 169.113 280.623 163.84C282.515 160.951 283.653 157.634 283.933 154.192C284.086 151.002 283.104 148.577 281.167 147.362ZM264.594 164.755C264.862 161.54 265.931 158.443 267.702 155.746C269.356 152.975 271.676 150.662 274.452 149.018C275.324 148.524 276.271 148.176 277.256 147.989C278.163 151.118 277.095 155.737 274.444 159.97C271.822 164.154 268.099 167.166 264.894 167.726C264.632 166.759 264.53 165.755 264.593 164.755H264.594ZM282.608 154.127C282.34 157.343 281.272 160.44 279.5 163.136C275.781 169.074 269.936 172.401 266.739 170.397C266.185 170.041 265.727 169.552 265.408 168.976C268.943 168.235 272.788 165.111 275.567 160.673C278.33 156.263 279.464 151.387 278.603 147.912C279.26 147.947 279.898 148.144 280.46 148.486C281.976 149.433 282.738 151.438 282.607 154.127H282.608Z" fill="#333333"/>
<path d="M98.4492 59.3428L197.887 113.702M197.887 113.702V230.045M197.887 113.702L296 59.3428" stroke="#333333" stroke-width="2"/>
<path d="M100.106 57.6853L198.853 114.697V228.719L100.106 285.73L1.3601 228.719V114.697L100.106 57.6853Z" fill="#1F1D1D" stroke="#38421E" stroke-width="2"/>
<path d="M99.2528 91.4938C107.244 91.4938 113.506 87.8537 113.506 83.2072V76.2466H113.478C113.185 71.7612 107.051 68.2915 99.2528 68.2915C91.4542 68.2915 85.3195 71.7612 85.0278 76.2466H85V83.2072C85 87.8517 91.2606 91.4938 99.2528 91.4938ZM99.2528 69.6173C106.26 69.6173 112.18 72.8053 112.18 76.578C112.18 80.3507 106.26 83.5387 99.2528 83.5387C92.2457 83.5387 86.3258 80.3514 86.3258 76.578C86.3258 72.8047 92.2451 69.6173 99.2528 69.6173ZM86.3258 80.1061C88.5672 82.9387 93.4463 84.8645 99.2528 84.8645C105.059 84.8645 109.938 82.9421 112.18 80.1061V83.2072C112.18 86.9806 106.26 90.1679 99.2528 90.1679C92.2457 90.1679 86.3258 86.9806 86.3258 83.2072V80.1061Z" fill="#38421E"/>
<path d="M45.5565 122.651C53.548 122.651 59.8093 119.011 59.8093 114.364V107.404H59.7815C59.4891 102.918 53.3551 99.4487 45.5565 99.4487C37.7579 99.4487 31.6232 102.918 31.3315 107.404H31.3037V114.364C31.3037 119.009 37.5643 122.651 45.5565 122.651ZM45.5565 100.775C52.5636 100.775 58.4835 103.963 58.4835 107.735C58.4835 111.508 52.5636 114.696 45.5565 114.696C38.5494 114.696 32.6296 111.509 32.6296 107.735C32.6296 103.962 38.5488 100.775 45.5565 100.775ZM45.5565 116.022C51.3624 116.022 56.2415 114.099 58.4835 111.263V114.364C58.4835 118.138 52.5636 121.325 45.5565 121.325C38.5494 121.325 32.6296 118.138 32.6296 114.364V111.263C34.8709 114.094 39.75 116.022 45.5565 116.022Z" fill="#38421E"/>
<path d="M10.685 221.707C13.6463 227.535 18.2536 231.227 22.0999 231.227C22.8303 231.229 23.5534 231.081 24.2246 230.793L24.2338 230.811L24.5235 230.663H24.5295H24.5335L30.4395 227.662C34.5814 225.558 34.9904 218.328 31.3675 211.202C27.7446 204.076 21.665 200.144 17.5237 202.253L11.6151 205.254L11.3207 205.403L11.3334 205.428C7.46788 207.714 7.15364 214.754 10.685 221.707ZM18.1283 203.427C21.4887 201.717 27.0115 205.551 30.1888 211.799C33.3662 218.046 33.2025 224.767 29.8388 226.476L27.0738 227.88C28.5839 224.599 28.0907 219.376 25.4609 214.2C22.8311 209.024 18.9046 205.547 15.3639 204.831L18.1283 203.427ZM12.2158 206.43C15.5761 204.725 21.0988 208.556 24.2756 214.802C27.4523 221.049 27.2892 227.766 23.9289 229.478L23.9216 229.481C20.5593 231.186 15.0385 227.353 11.8637 221.108C8.68901 214.863 8.85342 208.141 12.2158 206.43V206.43Z" fill="#38421E"/>
<path d="M75.796 200.732C76.5265 200.734 77.2496 200.587 77.9207 200.298L77.93 200.316L78.2197 200.169H78.2256H78.2296L84.1356 197.168C88.2775 195.064 88.6865 187.833 85.0636 180.708C81.4408 173.582 75.3625 169.651 71.2199 171.758L65.3113 174.76L65.0169 174.909L65.0295 174.934C61.1634 177.226 60.8485 184.265 64.3805 191.219C67.3425 197.041 71.9497 200.732 75.796 200.732ZM71.8245 172.932C75.1868 171.222 80.7109 175.057 83.885 181.304C87.0591 187.552 86.8987 194.272 83.535 195.981L80.7699 197.386C82.2801 194.105 81.7869 188.882 79.1571 183.706C76.5273 178.53 72.6001 175.053 69.0601 174.336L71.8245 172.932ZM65.9119 175.936C69.2729 174.23 74.795 178.061 77.9717 184.308C81.1484 190.555 80.9854 197.271 77.625 198.984H77.6178C74.2534 200.688 68.7346 196.854 65.5599 190.61C62.3852 184.366 62.5496 177.646 65.9119 175.936V175.936Z" fill="#38421E"/>
<path d="M113.996 258.518L119.868 262.255L119.881 262.234C120.694 262.677 121.607 262.905 122.533 262.897C124.084 262.846 125.599 262.413 126.944 261.638C129.931 259.905 132.437 257.451 134.232 254.501C138.419 247.92 138.784 240.883 135.16 238.229L135.175 238.206L134.895 238.028L129.303 234.47C125.382 231.977 118.952 235.303 114.66 242.046C112.748 244.922 111.586 248.231 111.283 251.671C111.099 254.859 112.066 257.29 113.996 258.518ZM133.113 253.789C131.441 256.549 129.104 258.847 126.316 260.472C123.943 261.747 121.808 261.92 120.301 260.961C117.119 258.936 117.605 252.23 121.367 246.318C124.373 241.594 128.726 238.549 131.974 238.549C132.751 238.532 133.516 238.739 134.179 239.146V239.146C137.363 241.172 136.874 247.877 133.113 253.789V253.789ZM112.602 251.744C112.893 248.53 113.983 245.441 115.774 242.756C119.536 236.846 125.401 233.56 128.586 235.587L131.204 237.252C127.609 237.623 123.365 240.705 120.248 245.605C117.131 250.505 116.138 255.654 117.324 259.066L114.707 257.401C113.201 256.441 112.453 254.433 112.602 251.744V251.744Z" fill="#38421E"/>
<path d="M167.693 164.383L173.565 168.12L173.578 168.1C174.391 168.542 175.304 168.77 176.23 168.762C177.781 168.711 179.296 168.278 180.641 167.503C183.629 165.77 186.134 163.317 187.929 160.366C192.116 153.785 192.481 146.748 188.857 144.094L188.872 144.071L188.593 143.893L183 140.335C179.079 137.842 172.649 141.168 168.358 147.912C166.445 150.787 165.284 154.096 164.98 157.537C164.796 160.724 165.764 163.155 167.693 164.383ZM186.81 159.654C185.138 162.414 182.801 164.712 180.013 166.337C177.641 167.612 175.505 167.786 173.998 166.826C170.816 164.801 171.302 158.095 175.064 152.183C178.07 147.459 182.423 144.414 185.671 144.414C186.448 144.397 187.214 144.604 187.876 145.011V145.011C191.06 147.037 190.571 153.742 186.81 159.654V159.654ZM166.299 157.609C166.59 154.395 167.681 151.306 169.471 148.622C173.233 142.711 179.097 139.426 182.284 141.452L184.9 143.117C181.306 143.488 177.063 146.57 173.945 151.47C170.828 156.37 169.835 161.519 171.021 164.931L168.405 163.266C166.898 162.306 166.15 160.298 166.299 157.609V157.609Z" fill="#38421E"/>
<path d="M99.2528 153.808C107.244 153.808 113.506 150.168 113.506 145.522V138.561H113.478C113.185 134.076 107.051 130.606 99.2528 130.606C91.4542 130.606 85.3195 134.076 85.0278 138.561H85V145.522C85 150.166 91.2606 153.808 99.2528 153.808ZM99.2528 131.932C106.26 131.932 112.18 135.12 112.18 138.893C112.18 142.665 106.26 145.853 99.2528 145.853C92.2457 145.853 86.3258 142.666 86.3258 138.893C86.3258 135.119 92.2451 131.932 99.2528 131.932ZM86.3258 142.421C88.5672 145.253 93.4463 147.179 99.2528 147.179C105.059 147.179 109.938 145.257 112.18 142.421V145.522C112.18 149.295 106.26 152.483 99.2528 152.483C92.2457 152.483 86.3258 149.295 86.3258 145.522V142.421Z" fill="#38421E"/>
<path d="M153.613 122.651C161.605 122.651 167.866 119.011 167.866 114.364V107.404H167.838C167.546 102.918 161.412 99.4487 153.613 99.4487C145.815 99.4487 139.68 102.918 139.388 107.404H139.36V114.364C139.36 119.009 145.621 122.651 153.613 122.651ZM153.613 100.775C160.62 100.775 166.54 103.963 166.54 107.735C166.54 111.508 160.62 114.696 153.613 114.696C146.606 114.696 140.686 111.509 140.686 107.735C140.686 103.962 146.605 100.775 153.613 100.775ZM140.686 111.263C142.928 114.096 147.807 116.022 153.613 116.022C159.42 116.022 164.298 114.099 166.54 111.263V114.364C166.54 118.138 160.62 121.325 153.613 121.325C146.606 121.325 140.686 118.138 140.686 114.364V111.263Z" fill="#38421E"/>
<path d="M99.2528 121.988C107.244 121.988 113.506 118.348 113.506 113.702C113.506 109.055 107.244 105.415 99.2528 105.415C91.2613 105.415 85 109.055 85 113.702C85 118.348 91.2606 121.988 99.2528 121.988ZM99.2528 120.662C94.204 120.662 89.7333 119.005 87.6205 116.667C89.7969 114.247 94.2703 112.707 99.2528 112.707C104.181 112.707 108.701 114.258 110.881 116.671C108.768 119.005 104.298 120.662 99.2528 120.662ZM99.2528 106.741C106.26 106.741 112.18 109.929 112.18 113.702C112.169 114.358 111.995 115.001 111.672 115.572C109.164 112.976 104.481 111.381 99.2528 111.381C94.0542 111.381 89.3255 113.005 86.8343 115.575C86.5108 115.003 86.336 114.359 86.3258 113.702C86.3258 109.927 92.2451 106.741 99.2528 106.741Z" fill="#38421E"/>
<path d="M27.1072 166.714C27.9676 166.721 28.817 166.52 29.5825 166.127C33.7072 163.988 34.0552 156.754 30.378 149.66C28.8507 146.563 26.5715 143.898 23.7488 141.908C21.0805 140.156 18.4925 139.771 16.4619 140.823C14.4321 141.876 13.2561 144.213 13.1514 147.405C13.1517 150.859 14.0178 154.258 15.6704 157.291C18.6569 163.067 23.2669 166.714 27.1072 166.714ZM29.1986 150.274C31.5235 154.756 32.1096 159.488 31.0085 162.438C27.8583 161.622 24.4309 158.359 22.1372 153.936C19.8621 149.55 19.1587 144.808 20.3109 141.763C21.2751 142.034 22.189 142.459 23.0169 143.023C25.6486 144.885 27.7725 147.377 29.1953 150.27L29.1986 150.274ZM17.0672 142.003C17.6389 141.712 18.2727 141.564 18.9141 141.571C18.932 141.571 18.9506 141.571 18.9678 141.571C17.8097 144.993 18.5475 149.894 20.9566 154.544C23.351 159.159 26.9692 162.609 30.3972 163.637C30.0382 164.187 29.5471 164.639 28.9687 164.951C25.6209 166.686 20.0636 162.901 16.8372 156.681C15.2899 153.849 14.4758 150.676 14.4692 147.449C14.5574 144.757 15.4789 142.822 17.0646 142L17.0672 142.003Z" fill="#38421E"/>
<path d="M77.4383 235.38C74.7701 233.628 72.182 233.242 70.1515 234.295C68.1216 235.348 66.9456 237.685 66.8408 240.877C66.8412 244.331 67.7073 247.73 69.36 250.763C72.3564 256.539 76.9663 260.186 80.8033 260.186C81.6637 260.193 82.5131 259.992 83.2786 259.599C87.4033 257.46 87.7514 250.226 84.0742 243.132C82.545 240.034 80.2635 237.369 77.4383 235.38V235.38ZM82.6661 258.423C79.3184 260.158 73.7604 256.372 70.5346 250.152C68.9873 247.321 68.1733 244.147 68.1667 240.92C68.2548 238.229 69.1763 236.294 70.762 235.472C71.3337 235.181 71.9675 235.033 72.6089 235.04C72.6268 235.04 72.6453 235.04 72.6626 235.04C71.5045 238.462 72.2423 243.363 74.6513 248.013C77.0458 252.628 80.6641 256.078 84.0921 257.105C83.7341 257.657 83.2439 258.109 82.6661 258.423V258.423ZM84.7026 255.904C81.5524 255.087 78.1251 251.825 75.8314 247.402C73.5562 243.015 72.8529 238.273 74.005 235.228C74.9692 235.499 75.8832 235.924 76.7111 236.488C79.3448 238.352 81.4699 240.846 82.8928 243.742C85.2177 248.224 85.8038 252.956 84.7026 255.907V255.904Z" fill="#38421E"/>
<path d="M114.225 196.711C115.105 197.253 116.121 197.532 117.155 197.517C120.896 197.517 125.511 194.305 128.814 189.032C130.706 186.143 131.844 182.825 132.124 179.383C132.278 176.193 131.295 173.768 129.358 172.555C127.421 171.342 124.811 171.516 122.007 173.047C119.032 174.801 116.543 177.272 114.769 180.236C112.877 183.125 111.739 186.442 111.46 189.884C111.306 193.072 112.288 195.497 114.225 196.711ZM130.798 179.318C130.53 182.534 129.462 185.631 127.69 188.327C123.971 194.265 118.127 197.592 114.929 195.588C114.375 195.231 113.917 194.743 113.598 194.167C117.133 193.426 120.978 190.301 123.757 185.864C126.52 181.454 127.654 176.578 126.794 173.103C127.45 173.138 128.088 173.335 128.65 173.677C130.168 174.624 130.929 176.629 130.799 179.318H130.798ZM112.784 189.946C113.052 186.731 114.121 183.634 115.892 180.937C117.546 178.166 119.866 175.853 122.642 174.209C123.514 173.715 124.461 173.367 125.446 173.179C126.353 176.309 125.285 180.928 122.634 185.16C120.013 189.345 116.29 192.356 113.084 192.917C112.822 191.949 112.721 190.946 112.785 189.946H112.784Z" fill="#38421E"/>
<path d="M183.718 203.047C181.78 201.835 179.17 202.009 176.367 203.539C173.391 205.293 170.903 207.765 169.129 210.728C167.237 213.617 166.099 216.935 165.82 220.377C165.665 223.566 166.648 225.991 168.585 227.205C169.465 227.747 170.481 228.026 171.514 228.011C175.255 228.011 179.871 224.798 183.174 219.526C185.066 216.636 186.204 213.319 186.483 209.877C186.637 206.687 185.655 204.262 183.718 203.047ZM167.145 220.44C167.413 217.225 168.481 214.128 170.253 211.431C171.906 208.66 174.227 206.348 177.003 204.703C177.875 204.209 178.822 203.862 179.806 203.674C180.713 206.804 179.645 211.423 176.994 215.655C174.373 219.839 170.65 222.851 167.444 223.411C167.183 222.444 167.081 221.44 167.144 220.44H167.145ZM185.159 209.813C184.891 213.028 183.822 216.125 182.05 218.822C178.331 224.759 172.487 228.086 169.29 226.082C168.736 225.726 168.278 225.238 167.959 224.661C171.494 223.92 175.339 220.796 178.118 216.358C180.881 211.948 182.015 207.073 181.154 203.597C181.811 203.632 182.449 203.83 183.01 204.172C184.527 205.118 185.289 207.123 185.158 209.813H185.159Z" fill="#38421E"/>
<path d="M1 115.028L100.438 169.388M100.438 169.388V285.73M100.438 169.388L198.551 115.028" stroke="#38421E" stroke-width="2"/>
</svg>
