<svg width="263" height="693" viewBox="0 0 263 693" fill="none" xmlns="http://www.w3.org/2000/svg">
<path d="M150.5 347L299.456 433V605L150.5 691L1.54362 605V433L150.5 347Z" fill="#1F1D1D" stroke="#333333" stroke-width="2"/>
<path d="M149.213 397.999C161.268 397.999 170.713 392.508 170.713 385.499V374.999H170.671C170.23 368.233 160.977 362.999 149.213 362.999C137.449 362.999 128.195 368.233 127.755 374.999H127.713V385.499C127.713 392.505 137.157 397.999 149.213 397.999ZM149.213 364.999C159.783 364.999 168.713 369.808 168.713 375.499C168.713 381.19 159.783 385.999 149.213 385.999C138.643 385.999 129.713 381.191 129.713 375.499C129.713 369.807 138.642 364.999 149.213 364.999ZM129.713 380.821C133.094 385.094 140.454 387.999 149.213 387.999C157.972 387.999 165.331 385.099 168.713 380.821V385.499C168.713 391.191 159.783 395.999 149.213 395.999C138.643 395.999 129.713 391.191 129.713 385.499V380.821Z" fill="#333333"/>
<path d="M68.2129 444.999C80.2679 444.999 89.7129 439.508 89.7129 432.499V421.999H89.6709C89.2299 415.233 79.9769 409.999 68.2129 409.999C56.4489 409.999 47.1949 415.233 46.7549 421.999H46.7129V432.499C46.7129 439.505 56.1569 444.999 68.2129 444.999ZM68.2129 411.999C78.7829 411.999 87.7129 416.808 87.7129 422.499C87.7129 428.19 78.7829 432.999 68.2129 432.999C57.6429 432.999 48.7129 428.191 48.7129 422.499C48.7129 416.807 57.6419 411.999 68.2129 411.999ZM68.2129 434.999C76.9709 434.999 84.3309 432.099 87.7129 427.821V432.499C87.7129 438.191 78.7829 442.999 68.2129 442.999C57.6429 442.999 48.7129 438.191 48.7129 432.499V427.821C52.0939 432.091 59.4539 434.999 68.2129 434.999Z" fill="#333333"/>
<path d="M15.6094 594.423C20.0764 603.214 27.0264 608.783 32.8284 608.783C33.9303 608.786 35.0211 608.563 36.0335 608.128L36.0474 608.155L36.4844 607.933H36.4935H36.4994L45.4085 603.406C51.6565 600.232 52.2734 589.325 46.8084 578.576C41.3434 567.827 32.1725 561.896 25.9255 565.076L17.0125 569.604L16.5684 569.829L16.5874 569.866C10.7564 573.315 10.2824 583.934 15.6094 594.423ZM26.8374 566.847C31.9064 564.268 40.2374 570.052 45.0304 579.476C49.8234 588.9 49.5765 599.038 44.5025 601.616L40.3315 603.735C42.6095 598.785 41.8655 590.907 37.8985 583.099C33.9315 575.291 28.0084 570.045 22.6674 568.965L26.8374 566.847ZM17.9185 571.378C22.9875 568.805 31.3184 574.584 36.1104 584.007C40.9024 593.43 40.6564 603.562 35.5874 606.145L35.5765 606.15C30.5045 608.721 22.1765 602.939 17.3875 593.519C12.5985 584.099 12.8465 573.958 17.9185 571.378Z" fill="#333333"/>
<path d="M113.829 562.783C114.931 562.786 116.021 562.563 117.034 562.128L117.048 562.155L117.485 561.933H117.494H117.5L126.409 557.406C132.657 554.232 133.274 543.325 127.809 532.576C122.344 521.827 113.175 515.897 106.926 519.076L98.0128 523.604L97.5687 523.829L97.5878 523.866C91.7558 527.324 91.2808 537.943 96.6088 548.432C101.077 557.214 108.027 562.783 113.829 562.783ZM107.838 520.847C112.91 518.267 121.243 524.052 126.031 533.476C130.819 542.9 130.577 553.038 125.503 555.616L121.332 557.735C123.61 552.785 122.866 544.907 118.899 537.099C114.932 529.291 109.008 524.046 103.668 522.965L107.838 520.847ZM98.9188 525.378C103.989 522.804 112.319 528.584 117.111 538.007C121.903 547.43 121.657 557.562 116.588 560.145H116.577C111.502 562.716 103.177 556.933 98.3878 547.514C93.5988 538.095 93.8468 527.958 98.9188 525.378Z" fill="#333333"/>
<path d="M171.452 649.951L180.31 655.588L180.329 655.557C181.556 656.224 182.933 656.568 184.329 656.557C186.67 656.479 188.955 655.826 190.983 654.657C195.49 652.043 199.27 648.342 201.978 643.891C208.294 633.964 208.845 623.349 203.378 619.345L203.4 619.31L202.978 619.042L194.542 613.675C188.627 609.915 178.928 614.932 172.454 625.104C169.569 629.442 167.817 634.433 167.359 639.623C167.082 644.431 168.542 648.099 171.452 649.951ZM200.29 642.817C197.767 646.981 194.242 650.447 190.036 652.899C186.457 654.821 183.236 655.083 180.962 653.636C176.162 650.581 176.897 640.465 182.572 631.548C187.106 624.422 193.672 619.828 198.572 619.828C199.744 619.802 200.898 620.115 201.897 620.728C206.7 623.785 205.963 633.899 200.29 642.817ZM169.349 639.732C169.788 634.884 171.433 630.224 174.134 626.175C179.808 617.259 188.657 612.303 193.462 615.36L197.41 617.872C191.988 618.431 185.586 623.081 180.884 630.472C176.182 637.863 174.684 645.63 176.473 650.777L172.525 648.266C170.252 646.817 169.124 643.788 169.349 639.732Z" fill="#333333"/>
<path d="M252.452 507.951L261.31 513.588L261.329 513.557C262.556 514.224 263.933 514.569 265.329 514.557C267.67 514.479 269.955 513.826 271.983 512.657C276.49 510.043 280.27 506.342 282.978 501.891C289.294 491.964 289.845 481.349 284.378 477.345L284.4 477.31L283.978 477.042L275.542 471.675C269.627 467.914 259.928 472.931 253.454 483.104C250.569 487.442 248.817 492.434 248.359 497.623C248.082 502.431 249.542 506.099 252.452 507.951ZM281.29 500.817C278.767 504.981 275.242 508.447 271.036 510.899C267.457 512.822 264.236 513.084 261.962 511.636C257.162 508.581 257.897 498.466 263.572 489.548C268.106 482.422 274.672 477.828 279.572 477.828C280.744 477.802 281.898 478.115 282.897 478.728C287.7 481.785 286.963 491.899 281.29 500.817ZM250.349 497.732C250.788 492.884 252.433 488.224 255.134 484.175C260.808 475.259 269.655 470.303 274.462 473.36L278.409 475.872C272.987 476.431 266.587 481.081 261.884 488.472C257.181 495.863 255.684 503.63 257.473 508.777L253.525 506.266C251.252 504.817 250.124 501.788 250.349 497.732Z" fill="#333333"/>
<path d="M149.213 491.999C161.268 491.999 170.713 486.508 170.713 479.499V468.999H170.671C170.23 462.233 160.977 456.999 149.213 456.999C137.449 456.999 128.195 462.233 127.755 468.999H127.713V479.499C127.713 486.505 137.157 491.999 149.213 491.999ZM149.213 458.999C159.783 458.999 168.713 463.808 168.713 469.499C168.713 475.19 159.783 479.999 149.213 479.999C138.643 479.999 129.713 475.191 129.713 469.499C129.713 463.807 138.642 458.999 149.213 458.999ZM129.713 474.821C133.094 479.094 140.454 481.999 149.213 481.999C157.972 481.999 165.331 479.099 168.713 474.821V479.499C168.713 485.191 159.783 489.999 149.213 489.999C138.643 489.999 129.713 485.191 129.713 479.499V474.821Z" fill="#333333"/>
<path d="M231.213 444.999C243.268 444.999 252.713 439.508 252.713 432.499V421.999H252.671C252.23 415.233 242.977 409.999 231.213 409.999C219.449 409.999 210.195 415.233 209.755 421.999H209.713V432.499C209.713 439.505 219.157 444.999 231.213 444.999ZM231.213 411.999C241.783 411.999 250.713 416.808 250.713 422.499C250.713 428.19 241.783 432.999 231.213 432.999C220.643 432.999 211.713 428.191 211.713 422.499C211.713 416.807 220.642 411.999 231.213 411.999ZM211.713 427.821C215.094 432.094 222.454 434.999 231.213 434.999C239.972 434.999 247.331 432.099 250.713 427.821V432.499C250.713 438.191 241.783 442.999 231.213 442.999C220.643 442.999 211.713 438.191 211.713 432.499V427.821Z" fill="#333333"/>
<path d="M149.213 443.999C161.268 443.999 170.713 438.508 170.713 431.499C170.713 424.49 161.268 418.999 149.213 418.999C137.158 418.999 127.713 424.49 127.713 431.499C127.713 438.508 137.157 443.999 149.213 443.999ZM149.213 441.999C141.597 441.999 134.853 439.499 131.666 435.973C134.949 432.322 141.697 429.999 149.213 429.999C156.647 429.999 163.466 432.339 166.754 435.978C163.566 439.499 156.824 441.999 149.213 441.999ZM149.213 420.999C159.783 420.999 168.713 425.808 168.713 431.499C168.697 432.489 168.434 433.459 167.947 434.321C164.164 430.405 157.1 427.999 149.213 427.999C141.371 427.999 134.238 430.448 130.48 434.325C129.992 433.462 129.728 432.49 129.713 431.499C129.713 425.805 138.642 420.999 149.213 420.999Z" fill="#333333"/>
<path d="M40.3821 511.467C41.68 511.478 42.9613 511.174 44.1161 510.582C50.3381 507.355 50.863 496.443 45.316 485.741C43.0121 481.069 39.574 477.049 35.316 474.048C31.291 471.405 27.387 470.824 24.324 472.411C21.262 473.999 19.4881 477.525 19.3301 482.34C19.3306 487.55 20.637 492.677 23.13 497.252C27.635 505.966 34.5891 511.467 40.3821 511.467ZM43.537 486.667C47.044 493.428 47.9281 500.567 46.2671 505.017C41.5151 503.785 36.345 498.864 32.885 492.192C29.453 485.575 28.392 478.422 30.13 473.829C31.5845 474.237 32.9631 474.879 34.212 475.729C38.1819 478.539 41.3858 482.297 43.532 486.662L43.537 486.667ZM25.2371 474.191C26.0995 473.752 27.0554 473.529 28.0231 473.54C28.0501 473.54 28.078 473.54 28.104 473.54C26.357 478.702 27.47 486.095 31.104 493.109C34.716 500.071 40.174 505.275 45.345 506.825C44.8034 507.655 44.0626 508.337 43.1901 508.808C38.1401 511.424 29.757 505.715 24.89 496.332C22.5559 492.061 21.3279 487.273 21.318 482.406C21.451 478.345 22.841 475.426 25.233 474.186L25.2371 474.191Z" fill="#333333"/>
<path d="M116.304 615.048C112.279 612.405 108.375 611.823 105.312 613.411C102.25 614.999 100.476 618.525 100.318 623.34C100.319 628.55 101.625 633.677 104.118 638.252C108.638 646.966 115.592 652.467 121.38 652.467C122.678 652.478 123.96 652.174 125.114 651.582C131.336 648.355 131.861 637.443 126.314 626.741C124.008 622.068 120.566 618.048 116.304 615.048ZM124.19 649.807C119.14 652.424 110.756 646.714 105.89 637.331C103.556 633.06 102.328 628.272 102.318 623.405C102.451 619.345 103.841 616.426 106.233 615.186C107.096 614.747 108.052 614.524 109.019 614.535C109.046 614.535 109.074 614.535 109.1 614.535C107.353 619.697 108.466 627.09 112.1 634.104C115.712 641.066 121.17 646.27 126.341 647.82C125.801 648.651 125.062 649.334 124.19 649.807ZM127.262 646.007C122.51 644.775 117.34 639.854 113.88 633.182C110.448 626.565 109.387 619.412 111.125 614.819C112.58 615.227 113.959 615.869 115.207 616.719C119.18 619.531 122.386 623.292 124.532 627.661C128.039 634.423 128.923 641.561 127.262 646.012V646.007Z" fill="#333333"/>
<path d="M171.797 556.717C173.125 557.534 174.658 557.956 176.216 557.933C181.859 557.933 188.822 553.087 193.804 545.133C196.659 540.775 198.375 535.771 198.797 530.578C199.029 525.766 197.547 522.108 194.625 520.278C191.703 518.448 187.765 518.711 183.536 521.02C179.048 523.666 175.294 527.394 172.618 531.864C169.764 536.222 168.048 541.226 167.626 546.419C167.393 551.227 168.875 554.885 171.797 556.717ZM196.797 530.48C196.393 535.33 194.781 540.002 192.108 544.07C186.499 553.027 177.683 558.045 172.859 555.022C172.023 554.485 171.333 553.748 170.851 552.879C176.184 551.761 181.984 547.048 186.176 540.354C190.344 533.702 192.054 526.347 190.756 521.104C191.747 521.157 192.709 521.455 193.556 521.971C195.846 523.399 196.995 526.423 196.798 530.48H196.797ZM169.623 546.512C170.028 541.662 171.64 536.99 174.312 532.922C176.806 528.742 180.307 525.253 184.494 522.773C185.81 522.028 187.238 521.503 188.723 521.22C190.091 525.941 188.48 532.909 184.481 539.293C180.527 545.605 174.911 550.148 170.075 550.993C169.681 549.534 169.529 548.02 169.624 546.512H169.623Z" fill="#333333"/>
<path d="M276.625 566.275C273.702 564.446 269.765 564.709 265.536 567.017C261.048 569.663 257.294 573.391 254.618 577.861C251.764 582.219 250.048 587.223 249.626 592.416C249.393 597.227 250.875 600.885 253.797 602.716C255.125 603.533 256.658 603.955 258.216 603.932C263.859 603.932 270.822 599.085 275.804 591.132C278.659 586.774 280.375 581.77 280.797 576.577C281.029 571.765 279.547 568.107 276.625 566.275ZM251.625 592.512C252.03 587.662 253.642 582.99 256.314 578.922C258.808 574.742 262.308 571.253 266.496 568.773C267.812 568.028 269.24 567.503 270.725 567.22C272.093 571.941 270.482 578.909 266.483 585.293C262.529 591.605 256.913 596.148 252.077 596.993C251.683 595.534 251.53 594.02 251.624 592.512H251.625ZM278.799 576.48C278.396 581.33 276.783 586.003 274.11 590.07C268.5 599.027 259.683 604.045 254.861 601.022C254.025 600.485 253.335 599.748 252.853 598.879C258.186 597.761 263.986 593.048 268.178 586.354C272.346 579.702 274.056 572.347 272.758 567.104C273.749 567.157 274.711 567.455 275.558 567.971C277.846 569.399 278.995 572.423 278.798 576.48H278.799Z" fill="#333333"/>
<path d="M1 433.5L151 515.5M151 515.5V691M151 515.5L299 433.5" stroke="#333333" stroke-width="2"/>
<path d="M150.5 175L299.456 261V433L150.5 519L1.54362 433V261L150.5 175Z" fill="#1F1D1D" stroke="#38421E" stroke-width="2"/>
<path d="M149.213 225.999C161.268 225.999 170.713 220.508 170.713 213.499V202.999H170.671C170.23 196.233 160.977 190.999 149.213 190.999C137.449 190.999 128.195 196.233 127.755 202.999H127.713V213.499C127.713 220.505 137.157 225.999 149.213 225.999ZM149.213 192.999C159.783 192.999 168.713 197.808 168.713 203.499C168.713 209.19 159.783 213.999 149.213 213.999C138.643 213.999 129.713 209.191 129.713 203.499C129.713 197.807 138.642 192.999 149.213 192.999ZM129.713 208.821C133.094 213.094 140.454 215.999 149.213 215.999C157.972 215.999 165.331 213.099 168.713 208.821V213.499C168.713 219.191 159.783 223.999 149.213 223.999C138.643 223.999 129.713 219.191 129.713 213.499V208.821Z" fill="#38421E"/>
<path d="M68.2129 272.999C80.2679 272.999 89.7129 267.508 89.7129 260.499V249.999H89.6709C89.2299 243.233 79.9769 237.999 68.2129 237.999C56.4489 237.999 47.1949 243.233 46.7549 249.999H46.7129V260.499C46.7129 267.505 56.1569 272.999 68.2129 272.999ZM68.2129 239.999C78.7829 239.999 87.7129 244.808 87.7129 250.499C87.7129 256.19 78.7829 260.999 68.2129 260.999C57.6429 260.999 48.7129 256.191 48.7129 250.499C48.7129 244.807 57.6419 239.999 68.2129 239.999ZM68.2129 262.999C76.9709 262.999 84.3309 260.099 87.7129 255.821V260.499C87.7129 266.191 78.7829 270.999 68.2129 270.999C57.6429 270.999 48.7129 266.191 48.7129 260.499V255.821C52.0939 260.091 59.4539 262.999 68.2129 262.999Z" fill="#38421E"/>
<path d="M15.6094 422.423C20.0764 431.214 27.0264 436.783 32.8284 436.783C33.9303 436.786 35.0211 436.563 36.0335 436.128L36.0474 436.155L36.4844 435.933H36.4935H36.4994L45.4085 431.406C51.6565 428.232 52.2734 417.325 46.8084 406.576C41.3434 395.827 32.1725 389.896 25.9255 393.076L17.0125 397.604L16.5684 397.829L16.5874 397.866C10.7564 401.315 10.2824 411.934 15.6094 422.423ZM26.8374 394.847C31.9064 392.268 40.2374 398.052 45.0304 407.476C49.8234 416.9 49.5765 427.038 44.5025 429.616L40.3315 431.735C42.6095 426.785 41.8655 418.907 37.8985 411.099C33.9315 403.291 28.0084 398.045 22.6674 396.965L26.8374 394.847ZM17.9185 399.378C22.9875 396.805 31.3184 402.584 36.1104 412.007C40.9024 421.43 40.6564 431.562 35.5874 434.145L35.5765 434.15C30.5045 436.721 22.1765 430.939 17.3875 421.519C12.5985 412.099 12.8465 401.958 17.9185 399.378Z" fill="#38421E"/>
<path d="M113.829 390.783C114.931 390.786 116.021 390.563 117.034 390.128L117.048 390.155L117.485 389.933H117.494H117.5L126.409 385.406C132.657 382.232 133.274 371.325 127.809 360.576C122.344 349.827 113.175 343.897 106.926 347.076L98.0128 351.604L97.5687 351.829L97.5878 351.866C91.7558 355.324 91.2808 365.943 96.6088 376.432C101.077 385.214 108.027 390.783 113.829 390.783ZM107.838 348.847C112.91 346.267 121.243 352.052 126.031 361.476C130.819 370.9 130.577 381.038 125.503 383.616L121.332 385.735C123.61 380.785 122.866 372.907 118.899 365.099C114.932 357.291 109.008 352.046 103.668 350.965L107.838 348.847ZM98.9188 353.378C103.989 350.804 112.319 356.584 117.111 366.007C121.903 375.43 121.657 385.562 116.588 388.145H116.577C111.502 390.716 103.177 384.933 98.3878 375.514C93.5988 366.095 93.8468 355.958 98.9188 353.378Z" fill="#38421E"/>
<path d="M171.452 477.951L180.31 483.588L180.329 483.557C181.556 484.224 182.933 484.568 184.329 484.557C186.67 484.479 188.955 483.826 190.983 482.657C195.49 480.043 199.27 476.342 201.978 471.891C208.294 461.964 208.845 451.349 203.378 447.345L203.4 447.31L202.978 447.042L194.542 441.675C188.627 437.915 178.928 442.932 172.454 453.104C169.569 457.442 167.817 462.433 167.359 467.623C167.082 472.431 168.542 476.099 171.452 477.951ZM200.29 470.817C197.767 474.981 194.242 478.447 190.036 480.899C186.457 482.821 183.236 483.083 180.962 481.636C176.162 478.581 176.897 468.465 182.572 459.548C187.106 452.422 193.672 447.828 198.572 447.828C199.744 447.802 200.898 448.115 201.897 448.728C206.7 451.785 205.963 461.899 200.29 470.817ZM169.349 467.732C169.788 462.884 171.433 458.224 174.134 454.175C179.808 445.259 188.657 440.303 193.462 443.36L197.41 445.872C191.988 446.431 185.586 451.081 180.884 458.472C176.182 465.863 174.684 473.63 176.473 478.777L172.525 476.266C170.252 474.817 169.124 471.788 169.349 467.732Z" fill="#38421E"/>
<path d="M252.452 335.951L261.31 341.588L261.329 341.557C262.556 342.224 263.933 342.569 265.329 342.557C267.67 342.479 269.955 341.826 271.983 340.657C276.49 338.043 280.27 334.342 282.978 329.891C289.294 319.964 289.845 309.349 284.378 305.345L284.4 305.31L283.978 305.042L275.542 299.675C269.627 295.914 259.928 300.931 253.454 311.104C250.569 315.442 248.817 320.434 248.359 325.623C248.082 330.431 249.542 334.099 252.452 335.951ZM281.29 328.817C278.767 332.981 275.242 336.447 271.036 338.899C267.457 340.822 264.236 341.084 261.962 339.636C257.162 336.581 257.897 326.466 263.572 317.548C268.106 310.422 274.672 305.828 279.572 305.828C280.744 305.802 281.898 306.115 282.897 306.728C287.7 309.785 286.963 319.899 281.29 328.817ZM250.349 325.732C250.788 320.884 252.433 316.224 255.134 312.175C260.808 303.259 269.655 298.303 274.462 301.36L278.409 303.872C272.987 304.431 266.587 309.081 261.884 316.472C257.181 323.863 255.684 331.63 257.473 336.777L253.525 334.266C251.252 332.817 250.124 329.788 250.349 325.732Z" fill="#38421E"/>
<path d="M149.213 319.999C161.268 319.999 170.713 314.508 170.713 307.499V296.999H170.671C170.23 290.233 160.977 284.999 149.213 284.999C137.449 284.999 128.195 290.233 127.755 296.999H127.713V307.499C127.713 314.505 137.157 319.999 149.213 319.999ZM149.213 286.999C159.783 286.999 168.713 291.808 168.713 297.499C168.713 303.19 159.783 307.999 149.213 307.999C138.643 307.999 129.713 303.191 129.713 297.499C129.713 291.807 138.642 286.999 149.213 286.999ZM129.713 302.821C133.094 307.094 140.454 309.999 149.213 309.999C157.972 309.999 165.331 307.099 168.713 302.821V307.499C168.713 313.191 159.783 317.999 149.213 317.999C138.643 317.999 129.713 313.191 129.713 307.499V302.821Z" fill="#38421E"/>
<path d="M231.213 272.999C243.268 272.999 252.713 267.508 252.713 260.499V249.999H252.671C252.23 243.233 242.977 237.999 231.213 237.999C219.449 237.999 210.195 243.233 209.755 249.999H209.713V260.499C209.713 267.505 219.157 272.999 231.213 272.999ZM231.213 239.999C241.783 239.999 250.713 244.808 250.713 250.499C250.713 256.19 241.783 260.999 231.213 260.999C220.643 260.999 211.713 256.191 211.713 250.499C211.713 244.807 220.642 239.999 231.213 239.999ZM211.713 255.821C215.094 260.094 222.454 262.999 231.213 262.999C239.972 262.999 247.331 260.099 250.713 255.821V260.499C250.713 266.191 241.783 270.999 231.213 270.999C220.643 270.999 211.713 266.191 211.713 260.499V255.821Z" fill="#38421E"/>
<path d="M149.213 271.999C161.268 271.999 170.713 266.508 170.713 259.499C170.713 252.49 161.268 246.999 149.213 246.999C137.158 246.999 127.713 252.49 127.713 259.499C127.713 266.508 137.157 271.999 149.213 271.999ZM149.213 269.999C141.597 269.999 134.853 267.499 131.666 263.973C134.949 260.322 141.697 257.999 149.213 257.999C156.647 257.999 163.466 260.339 166.754 263.978C163.566 267.499 156.824 269.999 149.213 269.999ZM149.213 248.999C159.783 248.999 168.713 253.808 168.713 259.499C168.697 260.489 168.434 261.459 167.947 262.321C164.164 258.405 157.1 255.999 149.213 255.999C141.371 255.999 134.238 258.448 130.48 262.325C129.992 261.462 129.728 260.49 129.713 259.499C129.713 253.805 138.642 248.999 149.213 248.999Z" fill="#38421E"/>
<path d="M40.3821 339.467C41.68 339.478 42.9613 339.174 44.1161 338.582C50.3381 335.355 50.863 324.443 45.316 313.741C43.0121 309.069 39.574 305.049 35.316 302.048C31.291 299.405 27.387 298.824 24.324 300.411C21.262 301.999 19.4881 305.525 19.3301 310.34C19.3306 315.55 20.637 320.677 23.13 325.252C27.635 333.966 34.5891 339.467 40.3821 339.467ZM43.537 314.667C47.044 321.428 47.9281 328.567 46.2671 333.017C41.5151 331.785 36.345 326.864 32.885 320.192C29.453 313.575 28.392 306.422 30.13 301.829C31.5845 302.237 32.9631 302.879 34.212 303.729C38.1819 306.539 41.3858 310.297 43.532 314.662L43.537 314.667ZM25.2371 302.191C26.0995 301.752 27.0554 301.529 28.0231 301.54C28.0501 301.54 28.078 301.54 28.104 301.54C26.357 306.702 27.47 314.095 31.104 321.109C34.716 328.071 40.174 333.275 45.345 334.825C44.8034 335.655 44.0626 336.337 43.1901 336.808C38.1401 339.424 29.757 333.715 24.89 324.332C22.5559 320.061 21.3279 315.273 21.318 310.406C21.451 306.345 22.841 303.426 25.233 302.186L25.2371 302.191Z" fill="#38421E"/>
<path d="M116.304 443.048C112.279 440.405 108.375 439.823 105.312 441.411C102.25 442.999 100.476 446.525 100.318 451.34C100.319 456.55 101.625 461.677 104.118 466.252C108.638 474.966 115.592 480.467 121.38 480.467C122.678 480.478 123.96 480.174 125.114 479.582C131.336 476.355 131.861 465.443 126.314 454.741C124.008 450.068 120.566 446.048 116.304 443.048ZM124.19 477.807C119.14 480.424 110.756 474.714 105.89 465.331C103.556 461.06 102.328 456.272 102.318 451.405C102.451 447.345 103.841 444.426 106.233 443.186C107.096 442.747 108.052 442.524 109.019 442.535C109.046 442.535 109.074 442.535 109.1 442.535C107.353 447.697 108.466 455.09 112.1 462.104C115.712 469.066 121.17 474.27 126.341 475.82C125.801 476.651 125.062 477.334 124.19 477.807ZM127.262 474.007C122.51 472.775 117.34 467.854 113.88 461.182C110.448 454.565 109.387 447.412 111.125 442.819C112.58 443.227 113.959 443.869 115.207 444.719C119.18 447.531 122.386 451.292 124.532 455.661C128.039 462.423 128.923 469.561 127.262 474.012V474.007Z" fill="#38421E"/>
<path d="M171.797 384.717C173.125 385.534 174.658 385.956 176.216 385.933C181.859 385.933 188.822 381.087 193.804 373.133C196.659 368.775 198.375 363.771 198.797 358.578C199.029 353.766 197.547 350.108 194.625 348.278C191.703 346.448 187.765 346.711 183.536 349.02C179.048 351.666 175.294 355.394 172.618 359.864C169.764 364.222 168.048 369.226 167.626 374.419C167.393 379.227 168.875 382.885 171.797 384.717ZM196.797 358.48C196.393 363.33 194.781 368.002 192.108 372.07C186.499 381.027 177.683 386.045 172.859 383.022C172.023 382.485 171.333 381.748 170.851 380.879C176.184 379.761 181.984 375.048 186.176 368.354C190.344 361.702 192.054 354.347 190.756 349.104C191.747 349.157 192.709 349.455 193.556 349.971C195.846 351.399 196.995 354.423 196.798 358.48H196.797ZM169.623 374.512C170.028 369.662 171.64 364.99 174.312 360.922C176.806 356.742 180.307 353.253 184.494 350.773C185.81 350.028 187.238 349.503 188.723 349.22C190.091 353.941 188.48 360.909 184.481 367.293C180.527 373.605 174.911 378.148 170.075 378.993C169.681 377.534 169.529 376.02 169.624 374.512H169.623Z" fill="#38421E"/>
<path d="M276.625 394.275C273.702 392.446 269.765 392.709 265.536 395.017C261.048 397.663 257.294 401.391 254.618 405.861C251.764 410.219 250.048 415.223 249.626 420.416C249.393 425.227 250.875 428.885 253.797 430.716C255.125 431.533 256.658 431.955 258.216 431.932C263.859 431.932 270.822 427.085 275.804 419.132C278.659 414.774 280.375 409.77 280.797 404.577C281.029 399.765 279.547 396.107 276.625 394.275ZM251.625 420.512C252.03 415.662 253.642 410.99 256.314 406.922C258.808 402.742 262.308 399.253 266.496 396.773C267.812 396.028 269.24 395.503 270.725 395.22C272.093 399.941 270.482 406.909 266.483 413.293C262.529 419.605 256.913 424.148 252.077 424.993C251.683 423.534 251.53 422.02 251.624 420.512H251.625ZM278.799 404.48C278.396 409.33 276.783 414.003 274.11 418.07C268.5 427.027 259.683 432.045 254.861 429.022C254.025 428.485 253.335 427.748 252.853 426.879C258.186 425.761 263.986 421.048 268.178 414.354C272.346 407.702 274.056 400.347 272.758 395.104C273.749 395.157 274.711 395.455 275.558 395.971C277.846 397.399 278.995 400.423 278.798 404.48H278.799Z" fill="#38421E"/>
<path d="M1 261.5L151 343.5M151 343.5V519M151 343.5L299 261.5" stroke="#38421E" stroke-width="2"/>
<path d="M150.5 2L299.456 88V260L150.5 346L1.54362 260V88L150.5 2Z" fill="#1F1D1D" stroke="#333333" stroke-width="2"/>
<path d="M149.213 52.999C161.268 52.999 170.713 47.508 170.713 40.499V29.999H170.671C170.23 23.233 160.977 17.999 149.213 17.999C137.449 17.999 128.195 23.233 127.755 29.999H127.713V40.499C127.713 47.505 137.157 52.999 149.213 52.999ZM149.213 19.999C159.783 19.999 168.713 24.808 168.713 30.499C168.713 36.19 159.783 40.999 149.213 40.999C138.643 40.999 129.713 36.191 129.713 30.499C129.713 24.807 138.642 19.999 149.213 19.999ZM129.713 35.821C133.094 40.094 140.454 42.999 149.213 42.999C157.972 42.999 165.331 40.099 168.713 35.821V40.499C168.713 46.191 159.783 50.999 149.213 50.999C138.643 50.999 129.713 46.191 129.713 40.499V35.821Z" fill="#333333"/>
<path d="M68.2129 99.999C80.2679 99.999 89.7129 94.508 89.7129 87.499V76.999H89.6709C89.2299 70.233 79.9769 64.999 68.2129 64.999C56.4489 64.999 47.1949 70.233 46.7549 76.999H46.7129V87.499C46.7129 94.505 56.1569 99.999 68.2129 99.999ZM68.2129 66.999C78.7829 66.999 87.7129 71.808 87.7129 77.499C87.7129 83.19 78.7829 87.999 68.2129 87.999C57.6429 87.999 48.7129 83.191 48.7129 77.499C48.7129 71.807 57.6419 66.999 68.2129 66.999ZM68.2129 89.999C76.9709 89.999 84.3309 87.099 87.7129 82.821V87.499C87.7129 93.191 78.7829 97.999 68.2129 97.999C57.6429 97.999 48.7129 93.191 48.7129 87.499V82.821C52.0939 87.091 59.4539 89.999 68.2129 89.999Z" fill="#333333"/>
<path d="M15.6094 249.423C20.0764 258.214 27.0264 263.783 32.8284 263.783C33.9303 263.786 35.0211 263.563 36.0335 263.128L36.0474 263.155L36.4844 262.933H36.4935H36.4994L45.4085 258.406C51.6565 255.232 52.2734 244.325 46.8084 233.576C41.3434 222.827 32.1725 216.896 25.9255 220.076L17.0125 224.604L16.5684 224.829L16.5874 224.866C10.7564 228.315 10.2824 238.934 15.6094 249.423ZM26.8374 221.847C31.9064 219.268 40.2374 225.052 45.0304 234.476C49.8234 243.9 49.5765 254.038 44.5025 256.616L40.3315 258.735C42.6095 253.785 41.8655 245.907 37.8985 238.099C33.9315 230.291 28.0084 225.045 22.6674 223.965L26.8374 221.847ZM17.9185 226.378C22.9875 223.805 31.3184 229.584 36.1104 239.007C40.9024 248.43 40.6564 258.562 35.5874 261.145L35.5765 261.15C30.5045 263.721 22.1765 257.939 17.3875 248.519C12.5985 239.099 12.8465 228.958 17.9185 226.378Z" fill="#333333"/>
<path d="M113.829 217.783C114.931 217.786 116.021 217.563 117.034 217.128L117.048 217.155L117.485 216.933H117.494H117.5L126.409 212.406C132.657 209.232 133.274 198.325 127.809 187.576C122.344 176.827 113.175 170.897 106.926 174.076L98.0128 178.604L97.5687 178.829L97.5878 178.866C91.7558 182.324 91.2808 192.943 96.6088 203.432C101.077 212.214 108.027 217.783 113.829 217.783ZM107.838 175.847C112.91 173.267 121.243 179.052 126.031 188.476C130.819 197.9 130.577 208.038 125.503 210.616L121.332 212.735C123.61 207.785 122.866 199.907 118.899 192.099C114.932 184.291 109.008 179.046 103.668 177.965L107.838 175.847ZM98.9188 180.378C103.989 177.804 112.319 183.584 117.111 193.007C121.903 202.43 121.657 212.562 116.588 215.145H116.577C111.502 217.716 103.177 211.933 98.3878 202.514C93.5988 193.095 93.8468 182.958 98.9188 180.378Z" fill="#333333"/>
<path d="M171.452 304.951L180.31 310.588L180.329 310.557C181.556 311.224 182.933 311.568 184.329 311.557C186.67 311.479 188.955 310.826 190.983 309.657C195.49 307.043 199.27 303.342 201.978 298.891C208.294 288.964 208.845 278.349 203.378 274.345L203.4 274.31L202.978 274.042L194.542 268.675C188.627 264.915 178.928 269.932 172.454 280.104C169.569 284.442 167.817 289.433 167.359 294.623C167.082 299.431 168.542 303.099 171.452 304.951ZM200.29 297.817C197.767 301.981 194.242 305.447 190.036 307.899C186.457 309.821 183.236 310.083 180.962 308.636C176.162 305.581 176.897 295.465 182.572 286.548C187.106 279.422 193.672 274.828 198.572 274.828C199.744 274.802 200.898 275.115 201.897 275.728C206.7 278.785 205.963 288.899 200.29 297.817ZM169.349 294.732C169.788 289.884 171.433 285.224 174.134 281.175C179.808 272.259 188.657 267.303 193.462 270.36L197.41 272.872C191.988 273.431 185.586 278.081 180.884 285.472C176.182 292.863 174.684 300.63 176.473 305.777L172.525 303.266C170.252 301.817 169.124 298.788 169.349 294.732Z" fill="#333333"/>
<path d="M252.452 162.951L261.31 168.588L261.329 168.557C262.556 169.224 263.933 169.569 265.329 169.557C267.67 169.479 269.955 168.826 271.983 167.657C276.49 165.043 280.27 161.342 282.978 156.891C289.294 146.964 289.845 136.349 284.378 132.345L284.4 132.31L283.978 132.042L275.542 126.675C269.627 122.914 259.928 127.931 253.454 138.104C250.569 142.442 248.817 147.434 248.359 152.623C248.082 157.431 249.542 161.099 252.452 162.951ZM281.29 155.817C278.767 159.981 275.242 163.447 271.036 165.899C267.457 167.822 264.236 168.084 261.962 166.636C257.162 163.581 257.897 153.466 263.572 144.548C268.106 137.422 274.672 132.828 279.572 132.828C280.744 132.802 281.898 133.115 282.897 133.728C287.7 136.785 286.963 146.899 281.29 155.817ZM250.349 152.732C250.788 147.884 252.433 143.224 255.134 139.175C260.808 130.259 269.655 125.303 274.462 128.36L278.409 130.872C272.987 131.431 266.587 136.081 261.884 143.472C257.181 150.863 255.684 158.63 257.473 163.777L253.525 161.266C251.252 159.817 250.124 156.788 250.349 152.732Z" fill="#333333"/>
<path d="M149.213 146.999C161.268 146.999 170.713 141.508 170.713 134.499V123.999H170.671C170.23 117.233 160.977 111.999 149.213 111.999C137.449 111.999 128.195 117.233 127.755 123.999H127.713V134.499C127.713 141.505 137.157 146.999 149.213 146.999ZM149.213 113.999C159.783 113.999 168.713 118.808 168.713 124.499C168.713 130.19 159.783 134.999 149.213 134.999C138.643 134.999 129.713 130.191 129.713 124.499C129.713 118.807 138.642 113.999 149.213 113.999ZM129.713 129.821C133.094 134.094 140.454 136.999 149.213 136.999C157.972 136.999 165.331 134.099 168.713 129.821V134.499C168.713 140.191 159.783 144.999 149.213 144.999C138.643 144.999 129.713 140.191 129.713 134.499V129.821Z" fill="#333333"/>
<path d="M231.213 99.999C243.268 99.999 252.713 94.508 252.713 87.499V76.999H252.671C252.23 70.233 242.977 64.999 231.213 64.999C219.449 64.999 210.195 70.233 209.755 76.999H209.713V87.499C209.713 94.505 219.157 99.999 231.213 99.999ZM231.213 66.999C241.783 66.999 250.713 71.808 250.713 77.499C250.713 83.19 241.783 87.999 231.213 87.999C220.643 87.999 211.713 83.191 211.713 77.499C211.713 71.807 220.642 66.999 231.213 66.999ZM211.713 82.821C215.094 87.094 222.454 89.999 231.213 89.999C239.972 89.999 247.331 87.099 250.713 82.821V87.499C250.713 93.191 241.783 97.999 231.213 97.999C220.643 97.999 211.713 93.191 211.713 87.499V82.821Z" fill="#333333"/>
<path d="M149.213 98.999C161.268 98.999 170.713 93.508 170.713 86.499C170.713 79.49 161.268 73.999 149.213 73.999C137.158 73.999 127.713 79.49 127.713 86.499C127.713 93.508 137.157 98.999 149.213 98.999ZM149.213 96.999C141.597 96.999 134.853 94.499 131.666 90.973C134.949 87.322 141.697 84.999 149.213 84.999C156.647 84.999 163.466 87.339 166.754 90.978C163.566 94.499 156.824 96.999 149.213 96.999ZM149.213 75.999C159.783 75.999 168.713 80.808 168.713 86.499C168.697 87.4889 168.434 88.4591 167.947 89.321C164.164 85.405 157.1 82.999 149.213 82.999C141.371 82.999 134.238 85.448 130.48 89.325C129.992 88.462 129.728 87.4903 129.713 86.499C129.713 80.805 138.642 75.999 149.213 75.999Z" fill="#333333"/>
<path d="M40.3821 166.467C41.68 166.478 42.9613 166.174 44.1161 165.582C50.3381 162.355 50.863 151.443 45.316 140.741C43.0121 136.069 39.574 132.049 35.316 129.048C31.291 126.405 27.387 125.824 24.324 127.411C21.262 128.999 19.4881 132.525 19.3301 137.34C19.3306 142.55 20.637 147.677 23.13 152.252C27.635 160.966 34.5891 166.467 40.3821 166.467ZM43.537 141.667C47.044 148.428 47.9281 155.567 46.2671 160.017C41.5151 158.785 36.345 153.864 32.885 147.192C29.453 140.575 28.392 133.422 30.13 128.829C31.5845 129.237 32.9631 129.879 34.212 130.729C38.1819 133.539 41.3858 137.297 43.532 141.662L43.537 141.667ZM25.2371 129.191C26.0995 128.752 27.0554 128.529 28.0231 128.54C28.0501 128.54 28.078 128.54 28.104 128.54C26.357 133.702 27.47 141.095 31.104 148.109C34.716 155.071 40.174 160.275 45.345 161.825C44.8034 162.655 44.0626 163.337 43.1901 163.808C38.1401 166.424 29.757 160.715 24.89 151.332C22.5559 147.061 21.3279 142.273 21.318 137.406C21.451 133.345 22.841 130.426 25.233 129.186L25.2371 129.191Z" fill="#333333"/>
<path d="M116.304 270.048C112.279 267.405 108.375 266.823 105.312 268.411C102.25 269.999 100.476 273.525 100.318 278.34C100.319 283.55 101.625 288.677 104.118 293.252C108.638 301.966 115.592 307.467 121.38 307.467C122.678 307.478 123.96 307.174 125.114 306.582C131.336 303.355 131.861 292.443 126.314 281.741C124.008 277.068 120.566 273.048 116.304 270.048ZM124.19 304.807C119.14 307.424 110.756 301.714 105.89 292.331C103.556 288.06 102.328 283.272 102.318 278.405C102.451 274.345 103.841 271.426 106.233 270.186C107.096 269.747 108.052 269.524 109.019 269.535C109.046 269.535 109.074 269.535 109.1 269.535C107.353 274.697 108.466 282.09 112.1 289.104C115.712 296.066 121.17 301.27 126.341 302.82C125.801 303.651 125.062 304.334 124.19 304.807ZM127.262 301.007C122.51 299.775 117.34 294.854 113.88 288.182C110.448 281.565 109.387 274.412 111.125 269.819C112.58 270.227 113.959 270.869 115.207 271.719C119.18 274.531 122.386 278.292 124.532 282.661C128.039 289.423 128.923 296.561 127.262 301.012V301.007Z" fill="#333333"/>
<path d="M171.797 211.717C173.125 212.534 174.658 212.956 176.216 212.933C181.859 212.933 188.822 208.087 193.804 200.133C196.659 195.775 198.375 190.771 198.797 185.578C199.029 180.766 197.547 177.108 194.625 175.278C191.703 173.448 187.765 173.711 183.536 176.02C179.048 178.666 175.294 182.394 172.618 186.864C169.764 191.222 168.048 196.226 167.626 201.419C167.393 206.227 168.875 209.885 171.797 211.717ZM196.797 185.48C196.393 190.33 194.781 195.002 192.108 199.07C186.499 208.027 177.683 213.045 172.859 210.022C172.023 209.485 171.333 208.748 170.851 207.879C176.184 206.761 181.984 202.048 186.176 195.354C190.344 188.702 192.054 181.347 190.756 176.104C191.747 176.157 192.709 176.455 193.556 176.971C195.846 178.399 196.995 181.423 196.798 185.48H196.797ZM169.623 201.512C170.028 196.662 171.64 191.99 174.312 187.922C176.806 183.742 180.307 180.253 184.494 177.773C185.81 177.028 187.238 176.503 188.723 176.22C190.091 180.941 188.48 187.909 184.481 194.293C180.527 200.605 174.911 205.148 170.075 205.993C169.681 204.534 169.529 203.02 169.624 201.512H169.623Z" fill="#333333"/>
<path d="M276.625 221.275C273.702 219.446 269.765 219.709 265.536 222.017C261.048 224.663 257.294 228.391 254.618 232.861C251.764 237.219 250.048 242.223 249.626 247.416C249.393 252.227 250.875 255.885 253.797 257.716C255.125 258.533 256.658 258.955 258.216 258.932C263.859 258.932 270.822 254.085 275.804 246.132C278.659 241.774 280.375 236.77 280.797 231.577C281.029 226.765 279.547 223.107 276.625 221.275ZM251.625 247.512C252.03 242.662 253.642 237.99 256.314 233.922C258.808 229.742 262.308 226.253 266.496 223.773C267.812 223.028 269.24 222.503 270.725 222.22C272.093 226.941 270.482 233.909 266.483 240.293C262.529 246.605 256.913 251.148 252.077 251.993C251.683 250.534 251.53 249.02 251.624 247.512H251.625ZM278.799 231.48C278.396 236.33 276.783 241.003 274.11 245.07C268.5 254.027 259.683 259.045 254.861 256.022C254.025 255.485 253.335 254.748 252.853 253.879C258.186 252.761 263.986 248.048 268.178 241.354C272.346 234.702 274.056 227.347 272.758 222.104C273.749 222.157 274.711 222.455 275.558 222.971C277.846 224.399 278.995 227.423 278.798 231.48H278.799Z" fill="#333333"/>
<path d="M1 88.5L151 170.5M151 170.5V346M151 170.5L299 88.5" stroke="#333333" stroke-width="2"/>
</svg>
