<svg width="597" height="3336" viewBox="0 0 597 3336" fill="none" xmlns="http://www.w3.org/2000/svg">
<path d="M199.968 2457.43L289.608 2509.19V2612.7L199.968 2664.45L110.327 2612.7V2509.19L199.968 2457.43Z" fill="#1F1D1D" stroke="#333333" stroke-width="1.20358"/>
<path d="M199.193 2488.12C206.447 2488.12 212.131 2484.82 212.131 2480.6V2474.28H212.106C211.841 2470.21 206.272 2467.06 199.193 2467.06C192.113 2467.06 186.544 2470.21 186.28 2474.28H186.254V2480.6C186.254 2484.82 191.938 2488.12 199.193 2488.12ZM199.193 2468.27C205.554 2468.27 210.928 2471.16 210.928 2474.58C210.928 2478.01 205.554 2480.9 199.193 2480.9C192.832 2480.9 187.458 2478.01 187.458 2474.58C187.458 2471.16 192.831 2468.27 199.193 2468.27ZM187.458 2477.79C189.493 2480.36 193.922 2482.11 199.193 2482.11C204.464 2482.11 208.893 2480.36 210.928 2477.79V2480.6C210.928 2484.03 205.554 2486.92 199.193 2486.92C192.832 2486.92 187.458 2484.03 187.458 2480.6V2477.79Z" fill="#333333"/>
<path d="M150.448 2516.41C157.702 2516.41 163.386 2513.1 163.386 2508.89V2502.57H163.361C163.096 2498.5 157.527 2495.35 150.448 2495.35C143.368 2495.35 137.799 2498.5 137.535 2502.57H137.509V2508.89C137.509 2513.1 143.193 2516.41 150.448 2516.41ZM150.448 2496.55C156.809 2496.55 162.183 2499.44 162.183 2502.87C162.183 2506.29 156.809 2509.19 150.448 2509.19C144.087 2509.19 138.713 2506.29 138.713 2502.87C138.713 2499.44 144.086 2496.55 150.448 2496.55ZM150.448 2510.39C155.718 2510.39 160.147 2508.65 162.183 2506.07V2508.89C162.183 2512.31 156.809 2515.21 150.448 2515.21C144.087 2515.21 138.713 2512.31 138.713 2508.89V2506.07C140.748 2508.64 145.177 2510.39 150.448 2510.39Z" fill="#333333"/>
<path d="M118.792 2606.33C121.48 2611.62 125.663 2614.97 129.154 2614.97C129.817 2614.97 130.474 2614.84 131.083 2614.58L131.091 2614.59L131.354 2614.46H131.36H131.363L136.725 2611.74C140.485 2609.83 140.856 2603.26 137.567 2596.79C134.278 2590.33 128.759 2586.76 125 2588.67L119.636 2591.39L119.369 2591.53L119.381 2591.55C115.872 2593.63 115.586 2600.02 118.792 2606.33ZM125.549 2589.74C128.599 2588.18 133.613 2591.66 136.497 2597.34C139.382 2603.01 139.233 2609.11 136.18 2610.66L133.669 2611.93C135.04 2608.96 134.593 2604.21 132.205 2599.52C129.818 2594.82 126.254 2591.66 123.039 2591.01L125.549 2589.74ZM120.182 2592.46C123.232 2590.91 128.246 2594.39 131.129 2600.06C134.013 2605.73 133.865 2611.83 130.815 2613.38L130.808 2613.39C127.756 2614.94 122.744 2611.46 119.862 2605.79C116.98 2600.12 117.129 2594.01 120.182 2592.46V2592.46Z" fill="#333333"/>
<path d="M177.899 2587.29C178.562 2587.29 179.219 2587.16 179.828 2586.9L179.836 2586.91L180.099 2586.78H180.105H180.108L185.47 2584.05C189.23 2582.14 189.601 2575.58 186.312 2569.11C183.023 2562.64 177.506 2559.07 173.745 2560.99L168.381 2563.71L168.114 2563.85L168.126 2563.87C164.616 2565.95 164.33 2572.34 167.536 2578.65C170.225 2583.94 174.408 2587.29 177.899 2587.29ZM174.294 2562.05C177.346 2560.5 182.361 2563.98 185.242 2569.65C188.124 2575.32 187.978 2581.43 184.924 2582.98L182.414 2584.25C183.785 2581.27 183.338 2576.53 180.95 2571.83C178.563 2567.13 174.998 2563.98 171.784 2563.33L174.294 2562.05ZM168.927 2564.78C171.978 2563.23 176.99 2566.71 179.874 2572.38C182.758 2578.05 182.61 2584.15 179.56 2585.7H179.553C176.499 2587.25 171.489 2583.77 168.607 2578.1C165.725 2572.43 165.874 2566.33 168.927 2564.78V2564.78Z" fill="#333333"/>
<path d="M212.576 2639.75L217.907 2643.14L217.919 2643.12C218.657 2643.52 219.486 2643.73 220.326 2643.72C221.734 2643.67 223.11 2643.28 224.33 2642.58C227.043 2641.01 229.317 2638.78 230.947 2636.1C234.747 2630.13 235.079 2623.74 231.789 2621.33L231.802 2621.31L231.549 2621.15L226.472 2617.92C222.913 2615.65 217.076 2618.67 213.18 2624.79C211.444 2627.4 210.389 2630.41 210.114 2633.53C209.947 2636.42 210.825 2638.63 212.576 2639.75ZM229.931 2635.45C228.413 2637.96 226.291 2640.04 223.761 2641.52C221.607 2642.68 219.668 2642.83 218.3 2641.96C215.411 2640.13 215.853 2634.04 219.268 2628.67C221.997 2624.38 225.948 2621.62 228.897 2621.62C229.602 2621.6 230.297 2621.79 230.898 2622.16V2622.16C233.789 2624 233.345 2630.09 229.931 2635.45V2635.45ZM211.311 2633.6C211.575 2630.68 212.565 2627.87 214.191 2625.44C217.605 2620.07 222.93 2617.09 225.822 2618.93L228.198 2620.44C224.935 2620.78 221.082 2623.58 218.252 2628.02C215.423 2632.47 214.521 2637.15 215.598 2640.24L213.223 2638.73C211.855 2637.86 211.176 2636.04 211.311 2633.6V2633.6Z" fill="#333333"/>
<path d="M261.321 2554.29L266.652 2557.69L266.664 2557.67C267.402 2558.07 268.23 2558.28 269.071 2558.27C270.479 2558.22 271.854 2557.83 273.075 2557.12C275.787 2555.55 278.062 2553.32 279.691 2550.65C283.492 2544.67 283.824 2538.28 280.534 2535.87L280.547 2535.85L280.294 2535.69L275.217 2532.46C271.657 2530.2 265.821 2533.22 261.925 2539.34C260.188 2541.95 259.134 2544.95 258.858 2548.08C258.692 2550.97 259.57 2553.18 261.321 2554.29ZM278.675 2550C277.157 2552.51 275.036 2554.59 272.505 2556.07C270.351 2557.22 268.413 2557.38 267.045 2556.51C264.156 2554.67 264.598 2548.58 268.013 2543.22C270.741 2538.93 274.693 2536.17 277.641 2536.17C278.347 2536.15 279.042 2536.34 279.643 2536.71V2536.71C282.533 2538.55 282.089 2544.63 278.675 2550V2550ZM260.056 2548.14C260.32 2545.23 261.31 2542.42 262.936 2539.98C266.35 2534.62 271.674 2531.64 274.566 2533.48L276.942 2534.99C273.679 2535.32 269.827 2538.12 266.997 2542.57C264.167 2547.02 263.266 2551.69 264.343 2554.79L261.967 2553.28C260.599 2552.41 259.921 2550.58 260.056 2548.14V2548.14Z" fill="#333333"/>
<path d="M199.193 2544.69C206.447 2544.69 212.131 2541.39 212.131 2537.17V2530.85H212.106C211.841 2526.78 206.272 2523.63 199.193 2523.63C192.113 2523.63 186.544 2526.78 186.28 2530.85H186.254V2537.17C186.254 2541.39 191.938 2544.69 199.193 2544.69ZM199.193 2524.83C205.554 2524.83 210.928 2527.73 210.928 2531.15C210.928 2534.58 205.554 2537.47 199.193 2537.47C192.832 2537.47 187.458 2534.58 187.458 2531.15C187.458 2527.73 192.831 2524.83 199.193 2524.83ZM187.458 2534.36C189.493 2536.93 193.922 2538.68 199.193 2538.68C204.464 2538.68 208.893 2536.93 210.928 2534.36V2537.17C210.928 2540.6 205.554 2543.49 199.193 2543.49C192.832 2543.49 187.458 2540.6 187.458 2537.17V2534.36Z" fill="#333333"/>
<path d="M248.54 2516.41C255.794 2516.41 261.478 2513.1 261.478 2508.89V2502.57H261.453C261.187 2498.5 255.619 2495.35 248.54 2495.35C241.46 2495.35 235.891 2498.5 235.626 2502.57H235.601V2508.89C235.601 2513.1 241.284 2516.41 248.54 2516.41ZM248.54 2496.55C254.9 2496.55 260.274 2499.44 260.274 2502.87C260.274 2506.29 254.9 2509.19 248.54 2509.19C242.179 2509.19 236.805 2506.29 236.805 2502.87C236.805 2499.44 242.178 2496.55 248.54 2496.55ZM236.805 2506.07C238.839 2508.64 243.268 2510.39 248.54 2510.39C253.811 2510.39 258.239 2508.65 260.274 2506.07V2508.89C260.274 2512.31 254.9 2515.21 248.54 2515.21C242.179 2515.21 236.805 2512.31 236.805 2508.89V2506.07Z" fill="#333333"/>
<path d="M199.193 2515.81C206.447 2515.81 212.131 2512.5 212.131 2508.28C212.131 2504.07 206.447 2500.76 199.193 2500.76C191.938 2500.76 186.254 2504.07 186.254 2508.28C186.254 2512.5 191.938 2515.81 199.193 2515.81ZM199.193 2514.6C194.61 2514.6 190.551 2513.1 188.633 2510.98C190.609 2508.78 194.67 2507.38 199.193 2507.38C203.667 2507.38 207.77 2508.79 209.749 2510.98C207.83 2513.1 203.773 2514.6 199.193 2514.6ZM199.193 2501.97C205.554 2501.97 210.928 2504.86 210.928 2508.28C210.918 2508.88 210.76 2509.46 210.467 2509.98C208.19 2507.63 203.939 2506.18 199.193 2506.18C194.474 2506.18 190.181 2507.65 187.92 2509.99C187.626 2509.47 187.467 2508.88 187.458 2508.28C187.458 2504.86 192.831 2501.97 199.193 2501.97Z" fill="#333333"/>
<path d="M133.7 2556.41C134.481 2556.42 135.252 2556.23 135.947 2555.88C139.692 2553.93 140.007 2547.37 136.669 2540.93C135.283 2538.12 133.214 2535.7 130.651 2533.89C128.229 2532.3 125.88 2531.95 124.037 2532.9C122.194 2533.86 121.126 2535.98 121.031 2538.88C121.032 2542.02 121.818 2545.1 123.318 2547.85C126.029 2553.1 130.214 2556.41 133.7 2556.41ZM135.599 2541.48C137.709 2545.55 138.241 2549.85 137.242 2552.53C134.382 2551.79 131.271 2548.82 129.188 2544.81C127.123 2540.83 126.485 2536.52 127.531 2533.76C128.406 2534 129.235 2534.39 129.987 2534.9C132.376 2536.59 134.304 2538.85 135.596 2541.48L135.599 2541.48ZM124.586 2533.98C125.105 2533.71 125.68 2533.58 126.263 2533.58C126.279 2533.58 126.296 2533.58 126.311 2533.58C125.26 2536.69 125.93 2541.14 128.117 2545.36C130.29 2549.55 133.575 2552.68 136.687 2553.61C136.361 2554.11 135.915 2554.52 135.39 2554.81C132.351 2556.38 127.306 2552.95 124.377 2547.3C122.973 2544.73 122.234 2541.85 122.228 2538.92C122.308 2536.48 123.144 2534.72 124.584 2533.97L124.586 2533.98Z" fill="#333333"/>
<path d="M179.389 2618.74C176.967 2617.15 174.618 2616.8 172.774 2617.76C170.932 2618.71 169.864 2620.83 169.769 2623.73C169.769 2626.87 170.556 2629.95 172.056 2632.71C174.776 2637.95 178.961 2641.26 182.444 2641.26C183.225 2641.27 183.996 2641.08 184.691 2640.73C188.435 2638.79 188.751 2632.22 185.413 2625.78C184.025 2622.97 181.954 2620.55 179.389 2618.74V2618.74ZM184.135 2639.66C181.096 2641.23 176.051 2637.8 173.122 2632.15C171.718 2629.58 170.979 2626.7 170.973 2623.77C171.053 2621.33 171.889 2619.57 173.329 2618.83C173.848 2618.56 174.423 2618.43 175.005 2618.43C175.021 2618.43 175.038 2618.43 175.054 2618.43C174.003 2621.54 174.672 2625.99 176.859 2630.21C179.033 2634.4 182.318 2637.53 185.429 2638.46C185.105 2638.96 184.66 2639.38 184.135 2639.66V2639.66ZM185.984 2637.37C183.124 2636.63 180.013 2633.67 177.931 2629.66C175.865 2625.67 175.227 2621.37 176.273 2618.6C177.148 2618.85 177.978 2619.24 178.729 2619.75C181.12 2621.44 183.049 2623.7 184.341 2626.33C186.451 2630.4 186.983 2634.7 185.984 2637.38V2637.37Z" fill="#333333"/>
<path d="M212.784 2583.64C213.583 2584.13 214.506 2584.39 215.444 2584.37C218.839 2584.37 223.03 2581.45 226.028 2576.67C227.746 2574.05 228.779 2571.03 229.033 2567.91C229.172 2565.01 228.28 2562.81 226.522 2561.71C224.763 2560.61 222.394 2560.77 219.849 2562.16C217.148 2563.75 214.889 2565.99 213.278 2568.68C211.56 2571.31 210.528 2574.32 210.274 2577.44C210.134 2580.34 211.026 2582.54 212.784 2583.64ZM227.829 2567.85C227.586 2570.77 226.616 2573.58 225.007 2576.03C221.632 2581.42 216.326 2584.44 213.423 2582.62C212.92 2582.3 212.505 2581.85 212.215 2581.33C215.424 2580.66 218.915 2577.82 221.437 2573.79C223.946 2569.79 224.975 2565.36 224.194 2562.21C224.79 2562.24 225.369 2562.42 225.879 2562.73C227.257 2563.59 227.948 2565.41 227.83 2567.85H227.829ZM211.476 2577.5C211.719 2574.58 212.689 2571.77 214.298 2569.32C215.798 2566.8 217.905 2564.7 220.425 2563.21C221.217 2562.76 222.076 2562.45 222.97 2562.28C223.793 2565.12 222.824 2569.31 220.417 2573.15C218.038 2576.95 214.658 2579.69 211.748 2580.19C211.511 2579.32 211.419 2578.41 211.477 2577.5H211.476Z" fill="#333333"/>
<path d="M275.869 2589.39C274.11 2588.29 271.741 2588.45 269.196 2589.84C266.495 2591.43 264.236 2593.67 262.625 2596.36C260.908 2598.99 259.875 2602 259.621 2605.12C259.481 2608.02 260.373 2610.22 262.131 2611.32C262.93 2611.81 263.853 2612.07 264.791 2612.05C268.187 2612.05 272.377 2609.14 275.375 2604.35C277.093 2601.73 278.126 2598.72 278.38 2595.59C278.519 2592.7 277.627 2590.49 275.869 2589.39ZM260.824 2605.18C261.068 2602.26 262.038 2599.45 263.646 2597C265.147 2594.49 267.253 2592.39 269.773 2590.89C270.565 2590.45 271.425 2590.13 272.318 2589.96C273.142 2592.8 272.172 2596.99 269.766 2600.84C267.386 2604.63 264.007 2607.37 261.096 2607.88C260.859 2607 260.767 2606.09 260.824 2605.18H260.824ZM277.177 2595.53C276.934 2598.45 275.964 2601.26 274.355 2603.71C270.979 2609.1 265.674 2612.12 262.772 2610.3C262.268 2609.98 261.853 2609.54 261.563 2609.01C264.773 2608.34 268.263 2605.5 270.786 2601.47C273.294 2597.47 274.323 2593.05 273.542 2589.89C274.138 2589.92 274.717 2590.1 275.227 2590.41C276.604 2591.27 277.295 2593.09 277.177 2595.53H277.177Z" fill="#333333"/>
<path d="M110 2509.49L200.268 2558.84M200.268 2558.84V2664.45M200.268 2558.84L289.333 2509.49" stroke="#333333" stroke-width="1.20358"/>
<path d="M289.634 2507.98L379.275 2559.74V2663.25L289.634 2715L199.994 2663.25V2559.74L289.634 2507.98Z" fill="#1F1D1D" stroke="#38421E" stroke-width="1.20358"/>
<path d="M288.859 2538.67C296.114 2538.67 301.798 2535.37 301.798 2531.15V2524.83H301.773C301.507 2520.76 295.939 2517.61 288.859 2517.61C281.78 2517.61 276.211 2520.76 275.946 2524.83H275.921V2531.15C275.921 2535.37 281.604 2538.67 288.859 2538.67ZM288.859 2518.82C295.22 2518.82 300.594 2521.71 300.594 2525.13C300.594 2528.56 295.22 2531.45 288.859 2531.45C282.498 2531.45 277.124 2528.56 277.124 2525.13C277.124 2521.71 282.498 2518.82 288.859 2518.82ZM277.124 2528.34C279.159 2530.91 283.588 2532.66 288.859 2532.66C294.13 2532.66 298.559 2530.91 300.594 2528.34V2531.15C300.594 2534.58 295.22 2537.47 288.859 2537.47C282.498 2537.47 277.124 2534.58 277.124 2531.15V2528.34Z" fill="#38421E"/>
<path d="M240.114 2566.96C247.369 2566.96 253.053 2563.65 253.053 2559.44V2553.12H253.027C252.762 2549.05 247.194 2545.9 240.114 2545.9C233.035 2545.9 227.466 2549.05 227.201 2553.12H227.176V2559.44C227.176 2563.65 232.859 2566.96 240.114 2566.96ZM240.114 2547.1C246.475 2547.1 251.849 2549.99 251.849 2553.42C251.849 2556.84 246.475 2559.74 240.114 2559.74C233.753 2559.74 228.379 2556.84 228.379 2553.42C228.379 2549.99 233.753 2547.1 240.114 2547.1ZM240.114 2560.94C245.385 2560.94 249.814 2559.2 251.849 2556.62V2559.44C251.849 2562.86 246.475 2565.76 240.114 2565.76C233.753 2565.76 228.379 2562.86 228.379 2559.44V2556.62C230.414 2559.19 234.843 2560.94 240.114 2560.94Z" fill="#38421E"/>
<path d="M208.459 2656.88C211.147 2662.17 215.329 2665.52 218.821 2665.52C219.484 2665.52 220.14 2665.39 220.75 2665.13L220.758 2665.14L221.021 2665.01H221.026H221.03L226.391 2662.29C230.151 2660.38 230.523 2653.81 227.234 2647.34C223.945 2640.88 218.426 2637.31 214.667 2639.22L209.303 2641.95L209.036 2642.08L209.047 2642.1C205.538 2644.18 205.253 2650.57 208.459 2656.88ZM215.215 2640.29C218.266 2638.73 223.279 2642.21 226.164 2647.89C229.048 2653.56 228.9 2659.66 225.846 2661.21L223.336 2662.48C224.707 2659.51 224.259 2654.77 221.872 2650.07C219.485 2645.37 215.92 2642.21 212.706 2641.56L215.215 2640.29ZM209.848 2643.01C212.899 2641.46 217.912 2644.94 220.796 2650.61C223.68 2656.28 223.532 2662.38 220.481 2663.94L220.474 2663.94C217.422 2665.49 212.411 2662.01 209.529 2656.34C206.647 2650.67 206.796 2644.57 209.848 2643.01V2643.01Z" fill="#38421E"/>
<path d="M267.566 2637.84C268.229 2637.84 268.885 2637.71 269.494 2637.45L269.503 2637.46L269.766 2637.33H269.771H269.775L275.136 2634.6C278.896 2632.69 279.267 2626.13 275.979 2619.66C272.69 2613.19 267.172 2609.62 263.412 2611.54L258.048 2614.26L257.781 2614.4L257.792 2614.42C254.282 2616.5 253.997 2622.89 257.203 2629.2C259.892 2634.49 264.074 2637.84 267.566 2637.84ZM263.96 2612.6C267.013 2611.05 272.027 2614.53 274.909 2620.2C277.79 2625.87 277.644 2631.98 274.591 2633.53L272.081 2634.8C273.452 2631.82 273.004 2627.08 270.617 2622.38C268.229 2617.69 264.664 2614.53 261.451 2613.88L263.96 2612.6ZM258.593 2615.33C261.644 2613.78 266.657 2617.26 269.541 2622.93C272.424 2628.6 272.276 2634.7 269.226 2636.25H269.219C266.165 2637.8 261.155 2634.32 258.273 2628.65C255.391 2622.98 255.541 2616.88 258.593 2615.33V2615.33Z" fill="#38421E"/>
<path d="M302.243 2690.3L307.574 2693.69L307.585 2693.67C308.324 2694.07 309.152 2694.28 309.993 2694.27C311.401 2694.23 312.776 2693.83 313.997 2693.13C316.709 2691.56 318.984 2689.33 320.613 2686.65C324.414 2680.68 324.746 2674.29 321.456 2671.88L321.469 2671.86L321.215 2671.7L316.139 2668.47C312.579 2666.2 306.742 2669.22 302.846 2675.34C301.11 2677.95 300.056 2680.96 299.78 2684.08C299.614 2686.97 300.492 2689.18 302.243 2690.3ZM319.597 2686C318.079 2688.51 315.958 2690.6 313.427 2692.07C311.273 2693.23 309.335 2693.39 307.966 2692.51C305.078 2690.68 305.52 2684.59 308.935 2679.22C311.663 2674.93 315.615 2672.17 318.563 2672.17C319.269 2672.15 319.964 2672.34 320.565 2672.71V2672.71C323.455 2674.55 323.011 2680.64 319.597 2686V2686ZM300.978 2684.15C301.242 2681.23 302.232 2678.43 303.857 2675.99C307.272 2670.62 312.597 2667.64 315.488 2669.48L317.864 2670.99C314.601 2671.33 310.749 2674.13 307.919 2678.57C305.089 2683.02 304.188 2687.7 305.264 2690.79L302.889 2689.28C301.521 2688.41 300.842 2686.59 300.978 2684.15V2684.15Z" fill="#38421E"/>
<path d="M350.987 2604.84L356.318 2608.24L356.33 2608.22C357.068 2608.62 357.897 2608.83 358.737 2608.82C360.146 2608.77 361.521 2608.38 362.742 2607.68C365.454 2606.1 367.728 2603.87 369.358 2601.2C373.159 2595.22 373.49 2588.83 370.2 2586.42L370.213 2586.4L369.96 2586.24L364.883 2583.01C361.324 2580.75 355.487 2583.77 351.591 2589.89C349.855 2592.5 348.801 2595.5 348.525 2598.63C348.358 2601.52 349.236 2603.73 350.987 2604.84ZM368.342 2600.55C366.824 2603.06 364.703 2605.14 362.172 2606.62C360.018 2607.77 358.08 2607.93 356.711 2607.06C353.822 2605.22 354.264 2599.14 357.679 2593.77C360.408 2589.48 364.359 2586.72 367.308 2586.72C368.013 2586.7 368.708 2586.89 369.31 2587.26V2587.26C372.2 2589.1 371.756 2595.18 368.342 2600.55V2600.55ZM349.722 2598.69C349.986 2595.78 350.976 2592.97 352.602 2590.53C356.017 2585.17 361.34 2582.19 364.233 2584.03L366.608 2585.54C363.345 2585.87 359.494 2588.67 356.664 2593.12C353.833 2597.57 352.932 2602.24 354.009 2605.34L351.634 2603.83C350.266 2602.96 349.587 2601.13 349.722 2598.69V2598.69Z" fill="#38421E"/>
<path d="M288.859 2595.24C296.114 2595.24 301.798 2591.94 301.798 2587.72V2581.4H301.773C301.507 2577.33 295.939 2574.18 288.859 2574.18C281.78 2574.18 276.211 2577.33 275.946 2581.4H275.921V2587.72C275.921 2591.94 281.604 2595.24 288.859 2595.24ZM288.859 2575.38C295.22 2575.38 300.594 2578.28 300.594 2581.7C300.594 2585.13 295.22 2588.02 288.859 2588.02C282.498 2588.02 277.124 2585.13 277.124 2581.7C277.124 2578.28 282.498 2575.38 288.859 2575.38ZM277.124 2584.91C279.159 2587.48 283.588 2589.23 288.859 2589.23C294.13 2589.23 298.559 2587.48 300.594 2584.91V2587.72C300.594 2591.15 295.22 2594.04 288.859 2594.04C282.498 2594.04 277.124 2591.15 277.124 2587.72V2584.91Z" fill="#38421E"/>
<path d="M338.206 2566.96C345.461 2566.96 351.145 2563.65 351.145 2559.44V2553.12H351.119C350.854 2549.05 345.286 2545.9 338.206 2545.9C331.127 2545.9 325.558 2549.05 325.293 2553.12H325.268V2559.44C325.268 2563.65 330.951 2566.96 338.206 2566.96ZM338.206 2547.1C344.567 2547.1 349.941 2549.99 349.941 2553.42C349.941 2556.84 344.567 2559.74 338.206 2559.74C331.845 2559.74 326.471 2556.84 326.471 2553.42C326.471 2549.99 331.845 2547.1 338.206 2547.1ZM326.471 2556.62C328.506 2559.19 332.935 2560.94 338.206 2560.94C343.477 2560.94 347.906 2559.2 349.941 2556.62V2559.44C349.941 2562.86 344.567 2565.76 338.206 2565.76C331.845 2565.76 326.471 2562.86 326.471 2559.44V2556.62Z" fill="#38421E"/>
<path d="M288.859 2566.36C296.114 2566.36 301.798 2563.05 301.798 2558.83C301.798 2554.62 296.114 2551.31 288.859 2551.31C281.605 2551.31 275.921 2554.62 275.921 2558.83C275.921 2563.05 281.604 2566.36 288.859 2566.36ZM288.859 2565.15C284.276 2565.15 280.218 2563.65 278.3 2561.53C280.275 2559.33 284.336 2557.93 288.859 2557.93C293.333 2557.93 297.437 2559.34 299.415 2561.53C297.497 2563.65 293.44 2565.15 288.859 2565.15ZM288.859 2552.52C295.22 2552.52 300.594 2555.41 300.594 2558.83C300.585 2559.43 300.426 2560.01 300.133 2560.53C297.857 2558.18 293.606 2556.73 288.859 2556.73C284.14 2556.73 279.848 2558.2 277.586 2560.54C277.292 2560.02 277.134 2559.43 277.124 2558.83C277.124 2555.41 282.498 2552.52 288.859 2552.52Z" fill="#38421E"/>
<path d="M223.367 2606.96C224.148 2606.97 224.919 2606.78 225.614 2606.43C229.358 2604.48 229.674 2597.92 226.336 2591.48C224.949 2588.67 222.88 2586.25 220.318 2584.44C217.896 2582.85 215.546 2582.5 213.703 2583.46C211.86 2584.41 210.793 2586.53 210.698 2589.43C210.698 2592.57 211.484 2595.65 212.985 2598.4C215.696 2603.65 219.88 2606.96 223.367 2606.96ZM225.265 2592.03C227.376 2596.1 227.908 2600.4 226.908 2603.08C224.048 2602.34 220.937 2599.37 218.855 2595.36C216.79 2591.38 216.151 2587.07 217.197 2584.31C218.072 2584.55 218.902 2584.94 219.654 2585.45C222.043 2587.14 223.971 2589.4 225.262 2592.03L225.265 2592.03ZM214.253 2584.53C214.772 2584.26 215.347 2584.13 215.929 2584.13C215.945 2584.13 215.962 2584.13 215.978 2584.13C214.926 2587.24 215.596 2591.69 217.783 2595.91C219.957 2600.1 223.241 2603.23 226.353 2604.17C226.027 2604.67 225.582 2605.08 225.056 2605.36C222.017 2606.93 216.973 2603.5 214.044 2597.85C212.639 2595.28 211.9 2592.4 211.894 2589.47C211.974 2587.03 212.811 2585.27 214.25 2584.52L214.253 2584.53Z" fill="#38421E"/>
<path d="M269.056 2669.29C266.634 2667.7 264.284 2667.35 262.441 2668.31C260.598 2669.26 259.531 2671.39 259.436 2674.28C259.436 2677.42 260.222 2680.5 261.722 2683.26C264.442 2688.5 268.627 2691.81 272.11 2691.81C272.892 2691.82 273.663 2691.64 274.358 2691.28C278.102 2689.34 278.418 2682.77 275.08 2676.33C273.692 2673.52 271.62 2671.1 269.056 2669.29V2669.29ZM273.802 2690.21C270.762 2691.79 265.717 2688.35 262.789 2682.7C261.384 2680.13 260.645 2677.25 260.639 2674.32C260.719 2671.88 261.556 2670.12 262.995 2669.38C263.514 2669.11 264.089 2668.98 264.672 2668.98C264.688 2668.98 264.705 2668.98 264.72 2668.98C263.669 2672.09 264.339 2676.54 266.526 2680.76C268.699 2684.95 271.984 2688.08 275.096 2689.01C274.771 2689.51 274.326 2689.93 273.802 2690.21V2690.21ZM275.65 2687.92C272.791 2687.18 269.679 2684.22 267.597 2680.21C265.532 2676.22 264.893 2671.92 265.939 2669.15C266.814 2669.4 267.644 2669.79 268.396 2670.3C270.786 2671.99 272.716 2674.25 274.007 2676.88C276.118 2680.95 276.65 2685.25 275.65 2687.93V2687.92Z" fill="#38421E"/>
<path d="M302.451 2634.19C303.25 2634.68 304.172 2634.94 305.11 2634.92C308.506 2634.92 312.696 2632.01 315.694 2627.22C317.412 2624.6 318.445 2621.58 318.699 2618.46C318.839 2615.56 317.947 2613.36 316.188 2612.26C314.43 2611.16 312.06 2611.32 309.515 2612.71C306.814 2614.3 304.555 2616.54 302.945 2619.23C301.227 2621.86 300.194 2624.87 299.941 2627.99C299.8 2630.89 300.692 2633.09 302.451 2634.19ZM317.495 2618.4C317.252 2621.32 316.282 2624.13 314.674 2626.58C311.298 2631.97 305.993 2634.99 303.09 2633.17C302.587 2632.85 302.171 2632.4 301.881 2631.88C305.091 2631.21 308.581 2628.37 311.104 2624.34C313.612 2620.34 314.641 2615.91 313.86 2612.76C314.456 2612.79 315.035 2612.97 315.545 2613.28C316.923 2614.14 317.615 2615.96 317.496 2618.4H317.495ZM301.142 2628.05C301.386 2625.13 302.356 2622.32 303.964 2619.87C305.465 2617.35 307.571 2615.26 310.092 2613.76C310.883 2613.31 311.743 2613 312.637 2612.83C313.46 2615.67 312.49 2619.86 310.084 2623.7C307.704 2627.5 304.325 2630.24 301.414 2630.75C301.177 2629.87 301.086 2628.96 301.143 2628.05H301.142Z" fill="#38421E"/>
<path d="M365.536 2639.94C363.776 2638.84 361.407 2639 358.862 2640.39C356.161 2641.98 353.902 2644.22 352.292 2646.91C350.574 2649.54 349.541 2652.55 349.288 2655.67C349.148 2658.57 350.039 2660.77 351.798 2661.87C352.597 2662.36 353.519 2662.62 354.457 2662.6C357.853 2662.6 362.043 2659.69 365.041 2654.9C366.759 2652.28 367.792 2649.27 368.046 2646.14C368.186 2643.25 367.294 2641.04 365.536 2639.94ZM350.491 2655.73C350.734 2652.81 351.704 2650 353.313 2647.55C354.813 2645.04 356.92 2642.94 359.44 2641.45C360.232 2641 361.091 2640.68 361.985 2640.51C362.808 2643.35 361.839 2647.54 359.432 2651.39C357.053 2655.19 353.673 2657.92 350.763 2658.43C350.525 2657.55 350.433 2656.64 350.49 2655.73H350.491ZM366.844 2646.08C366.601 2649 365.631 2651.81 364.022 2654.26C360.646 2659.65 355.34 2662.67 352.438 2660.85C351.935 2660.53 351.52 2660.09 351.23 2659.56C354.439 2658.89 357.929 2656.05 360.452 2652.03C362.96 2648.02 363.99 2643.6 363.208 2640.44C363.805 2640.47 364.383 2640.65 364.893 2640.96C366.27 2641.82 366.962 2643.64 366.843 2646.08H366.844Z" fill="#38421E"/>
<path d="M199.667 2560.04L289.935 2609.39M289.935 2609.39V2715M289.935 2609.39L379 2560.04" stroke="#38421E" stroke-width="1.20358"/>
<path d="M351.556 1181L450.303 1238.01V1352.03L351.556 1409.04L252.81 1352.03V1238.01L351.556 1181Z" fill="#1F1D1D" stroke="#333333" stroke-width="2"/>
<path d="M350.703 1214.81C358.694 1214.81 364.955 1211.17 364.955 1206.52V1199.56H364.927C364.635 1195.08 358.501 1191.61 350.703 1191.61C342.904 1191.61 336.769 1195.08 336.478 1199.56H336.45V1206.52C336.45 1211.17 342.71 1214.81 350.703 1214.81ZM350.703 1192.93C357.71 1192.93 363.629 1196.12 363.629 1199.89C363.629 1203.67 357.71 1206.85 350.703 1206.85C343.695 1206.85 337.776 1203.67 337.776 1199.89C337.776 1196.12 343.695 1192.93 350.703 1192.93ZM337.776 1203.42C340.017 1206.25 344.896 1208.18 350.703 1208.18C356.509 1208.18 361.387 1206.26 363.629 1203.42V1206.52C363.629 1210.3 357.71 1213.48 350.703 1213.48C343.695 1213.48 337.776 1210.3 337.776 1206.52V1203.42Z" fill="#333333"/>
<path d="M297.006 1245.97C304.997 1245.97 311.259 1242.33 311.259 1237.68V1230.72H311.231C310.938 1226.23 304.804 1222.76 297.006 1222.76C289.207 1222.76 283.072 1226.23 282.781 1230.72H282.753V1237.68C282.753 1242.32 289.014 1245.97 297.006 1245.97ZM297.006 1224.09C304.013 1224.09 309.933 1227.28 309.933 1231.05C309.933 1234.82 304.013 1238.01 297.006 1238.01C289.999 1238.01 284.079 1234.82 284.079 1231.05C284.079 1227.28 289.998 1224.09 297.006 1224.09ZM297.006 1239.34C302.812 1239.34 307.691 1237.41 309.933 1234.58V1237.68C309.933 1241.45 304.013 1244.64 297.006 1244.64C289.999 1244.64 284.079 1241.45 284.079 1237.68V1234.58C286.32 1237.41 291.199 1239.34 297.006 1239.34Z" fill="#333333"/>
<path d="M262.134 1345.02C265.096 1350.85 269.703 1354.54 273.549 1354.54C274.28 1354.54 275.003 1354.4 275.674 1354.11L275.683 1354.12L275.973 1353.98H275.979H275.983L281.889 1350.98C286.031 1348.87 286.44 1341.64 282.817 1334.52C279.194 1327.39 273.114 1323.46 268.973 1325.57L263.064 1328.57L262.77 1328.72L262.783 1328.74C258.917 1331.03 258.603 1338.07 262.134 1345.02ZM269.578 1326.74C272.938 1325.03 278.461 1328.87 281.638 1335.11C284.815 1341.36 284.652 1348.08 281.288 1349.79L278.523 1351.19C280.033 1347.91 279.54 1342.69 276.91 1337.51C274.28 1332.34 270.354 1328.86 266.813 1328.15L269.578 1326.74ZM263.665 1329.74C267.025 1328.04 272.548 1331.87 275.725 1338.12C278.901 1344.36 278.738 1351.08 275.378 1352.79L275.371 1352.8C272.008 1354.5 266.488 1350.67 263.313 1344.42C260.138 1338.18 260.303 1331.46 263.665 1329.74V1329.74Z" fill="#333333"/>
<path d="M327.246 1324.05C327.976 1324.05 328.699 1323.9 329.37 1323.61L329.38 1323.63L329.669 1323.48H329.675H329.679L335.585 1320.48C339.727 1318.38 340.136 1311.15 336.513 1304.02C332.89 1296.9 326.812 1292.97 322.67 1295.07L316.761 1298.07L316.467 1298.22L316.479 1298.25C312.613 1300.54 312.298 1307.58 315.83 1314.53C318.792 1320.36 323.399 1324.05 327.246 1324.05ZM323.274 1296.25C326.637 1294.54 332.161 1298.37 335.335 1304.62C338.509 1310.87 338.348 1317.59 334.985 1319.3L332.22 1320.7C333.73 1317.42 333.237 1312.2 330.607 1307.02C327.977 1301.84 324.05 1298.37 320.51 1297.65L323.274 1296.25ZM317.362 1299.25C320.723 1297.54 326.245 1301.38 329.421 1307.62C332.598 1313.87 332.435 1320.59 329.075 1322.3H329.067C325.703 1324 320.184 1320.17 317.01 1313.92C313.835 1307.68 313.999 1300.96 317.362 1299.25V1299.25Z" fill="#333333"/>
<path d="M365.445 1381.83L371.317 1385.57L371.33 1385.55C372.143 1385.99 373.056 1386.22 373.982 1386.21C375.533 1386.16 377.048 1385.73 378.393 1384.95C381.38 1383.22 383.886 1380.77 385.681 1377.82C389.868 1371.23 390.233 1364.2 386.609 1361.54L386.624 1361.52L386.345 1361.34L380.752 1357.78C376.831 1355.29 370.401 1358.62 366.11 1365.36C364.197 1368.24 363.036 1371.55 362.732 1374.99C362.548 1378.17 363.516 1380.6 365.445 1381.83ZM384.562 1377.1C382.89 1379.86 380.553 1382.16 377.765 1383.79C375.393 1385.06 373.257 1385.23 371.75 1384.28C368.568 1382.25 369.054 1375.54 372.816 1369.63C375.822 1364.91 380.175 1361.86 383.423 1361.86C384.2 1361.85 384.966 1362.05 385.628 1362.46V1362.46C388.812 1364.49 388.323 1371.19 384.562 1377.1V1377.1ZM364.051 1375.06C364.342 1371.84 365.433 1368.75 367.223 1366.07C370.985 1360.16 376.85 1356.87 380.036 1358.9L382.653 1360.57C379.059 1360.94 374.814 1364.02 371.697 1368.92C368.58 1373.82 367.587 1378.97 368.773 1382.38L366.157 1380.72C364.65 1379.75 363.902 1377.75 364.051 1375.06V1375.06Z" fill="#333333"/>
<path d="M419.142 1287.7L425.014 1291.43L425.027 1291.41C425.841 1291.86 426.753 1292.08 427.679 1292.08C429.23 1292.03 430.745 1291.59 432.09 1290.82C435.078 1289.08 437.583 1286.63 439.378 1283.68C443.565 1277.1 443.931 1270.06 440.306 1267.41L440.321 1267.39L440.042 1267.21L434.449 1263.65C430.528 1261.16 424.099 1264.48 419.807 1271.23C417.894 1274.1 416.733 1277.41 416.429 1280.85C416.246 1284.04 417.213 1286.47 419.142 1287.7ZM438.259 1282.97C436.587 1285.73 434.25 1288.03 431.462 1289.65C429.09 1290.93 426.955 1291.1 425.447 1290.14C422.265 1288.12 422.752 1281.41 426.514 1275.5C429.519 1270.77 433.872 1267.73 437.12 1267.73C437.897 1267.71 438.663 1267.92 439.325 1268.33V1268.33C442.509 1270.35 442.02 1277.06 438.259 1282.97V1282.97ZM417.749 1280.92C418.039 1277.71 419.13 1274.62 420.921 1271.94C424.682 1266.03 430.546 1262.74 433.733 1264.77L436.349 1266.43C432.755 1266.8 428.512 1269.89 425.395 1274.78C422.277 1279.68 421.285 1284.83 422.471 1288.25L419.854 1286.58C418.347 1285.62 417.599 1283.61 417.749 1280.92V1280.92Z" fill="#333333"/>
<path d="M350.703 1277.12C358.694 1277.12 364.955 1273.48 364.955 1268.84V1261.88H364.927C364.635 1257.39 358.501 1253.92 350.703 1253.92C342.904 1253.92 336.769 1257.39 336.478 1261.88H336.45V1268.84C336.45 1273.48 342.71 1277.12 350.703 1277.12ZM350.703 1255.25C357.71 1255.25 363.629 1258.43 363.629 1262.21C363.629 1265.98 357.71 1269.17 350.703 1269.17C343.695 1269.17 337.776 1265.98 337.776 1262.21C337.776 1258.43 343.695 1255.25 350.703 1255.25ZM337.776 1265.73C340.017 1268.57 344.896 1270.49 350.703 1270.49C356.509 1270.49 361.387 1268.57 363.629 1265.73V1268.84C363.629 1272.61 357.71 1275.8 350.703 1275.8C343.695 1275.8 337.776 1272.61 337.776 1268.84V1265.73Z" fill="#333333"/>
<path d="M405.062 1245.97C413.054 1245.97 419.315 1242.33 419.315 1237.68V1230.72H419.287C418.995 1226.23 412.861 1222.76 405.062 1222.76C397.264 1222.76 391.129 1226.23 390.837 1230.72H390.81V1237.68C390.81 1242.32 397.07 1245.97 405.062 1245.97ZM405.062 1224.09C412.069 1224.09 417.989 1227.28 417.989 1231.05C417.989 1234.82 412.069 1238.01 405.062 1238.01C398.055 1238.01 392.135 1234.82 392.135 1231.05C392.135 1227.28 398.055 1224.09 405.062 1224.09ZM392.135 1234.58C394.377 1237.41 399.256 1239.34 405.062 1239.34C410.869 1239.34 415.747 1237.41 417.989 1234.58V1237.68C417.989 1241.45 412.069 1244.64 405.062 1244.64C398.055 1244.64 392.135 1241.45 392.135 1237.68V1234.58Z" fill="#333333"/>
<path d="M350.703 1245.3C358.694 1245.3 364.955 1241.66 364.955 1237.02C364.955 1232.37 358.694 1228.73 350.703 1228.73C342.711 1228.73 336.45 1232.37 336.45 1237.02C336.45 1241.66 342.71 1245.3 350.703 1245.3ZM350.703 1243.98C345.654 1243.98 341.183 1242.32 339.07 1239.98C341.247 1237.56 345.72 1236.02 350.703 1236.02C355.631 1236.02 360.151 1237.57 362.331 1239.99C360.217 1242.32 355.748 1243.98 350.703 1243.98ZM350.703 1230.06C357.71 1230.06 363.629 1233.24 363.629 1237.02C363.619 1237.67 363.445 1238.32 363.122 1238.89C360.614 1236.29 355.931 1234.7 350.703 1234.7C345.504 1234.7 340.775 1236.32 338.284 1238.89C337.96 1238.32 337.786 1237.67 337.776 1237.02C337.776 1233.24 343.695 1230.06 350.703 1230.06Z" fill="#333333"/>
<path d="M278.557 1290.03C279.417 1290.04 280.267 1289.83 281.032 1289.44C285.157 1287.3 285.505 1280.07 281.828 1272.97C280.3 1269.88 278.021 1267.21 275.199 1265.22C272.53 1263.47 269.942 1263.09 267.912 1264.14C265.882 1265.19 264.706 1267.53 264.601 1270.72C264.601 1274.17 265.467 1277.57 267.12 1280.61C270.107 1286.38 274.717 1290.03 278.557 1290.03ZM280.648 1273.59C282.973 1278.07 283.559 1282.8 282.458 1285.75C279.308 1284.94 275.881 1281.67 273.587 1277.25C271.312 1272.86 270.608 1268.12 271.761 1265.08C272.725 1265.35 273.639 1265.77 274.467 1266.34C277.098 1268.2 279.222 1270.69 280.645 1273.59L280.648 1273.59ZM268.517 1265.32C269.089 1265.03 269.722 1264.88 270.364 1264.89C270.382 1264.89 270.4 1264.89 270.417 1264.89C269.259 1268.31 269.997 1273.21 272.406 1277.86C274.801 1282.47 278.419 1285.92 281.847 1286.95C281.488 1287.5 280.997 1287.95 280.418 1288.27C277.071 1290 271.513 1286.22 268.287 1280C266.74 1277.16 265.926 1273.99 265.919 1270.76C266.007 1268.07 266.929 1266.14 268.514 1265.31L268.517 1265.32Z" fill="#333333"/>
<path d="M328.887 1358.69C326.219 1356.94 323.631 1356.56 321.6 1357.61C319.57 1358.66 318.394 1361 318.29 1364.19C318.29 1367.65 319.156 1371.04 320.809 1374.08C323.805 1379.85 328.415 1383.5 332.252 1383.5C333.112 1383.51 333.962 1383.31 334.727 1382.91C338.852 1380.77 339.2 1373.54 335.523 1366.45C333.994 1363.35 331.712 1360.68 328.887 1358.69V1358.69ZM334.115 1381.74C330.767 1383.47 325.209 1379.69 321.983 1373.47C320.436 1370.63 319.622 1367.46 319.615 1364.23C319.704 1361.54 320.625 1359.61 322.211 1358.79C322.782 1358.49 323.416 1358.35 324.058 1358.35C324.076 1358.35 324.094 1358.35 324.111 1358.35C322.953 1361.78 323.691 1366.68 326.1 1371.33C328.495 1375.94 332.113 1379.39 335.541 1380.42C335.183 1380.97 334.693 1381.42 334.115 1381.74V1381.74ZM336.151 1379.22C333.001 1378.4 329.574 1375.14 327.28 1370.72C325.005 1366.33 324.302 1361.59 325.454 1358.54C326.418 1358.81 327.332 1359.24 328.16 1359.8C330.793 1361.67 332.919 1364.16 334.342 1367.06C336.666 1371.54 337.252 1376.27 336.151 1379.22V1379.22Z" fill="#333333"/>
<path d="M365.674 1320.03C366.554 1320.57 367.571 1320.85 368.604 1320.83C372.345 1320.83 376.961 1317.62 380.263 1312.35C382.156 1309.46 383.293 1306.14 383.573 1302.7C383.727 1299.51 382.745 1297.08 380.808 1295.87C378.871 1294.66 376.26 1294.83 373.456 1296.36C370.481 1298.12 367.993 1300.59 366.219 1303.55C364.326 1306.44 363.189 1309.76 362.909 1313.2C362.755 1316.39 363.737 1318.81 365.674 1320.03ZM382.247 1302.63C381.98 1305.85 380.911 1308.95 379.139 1311.64C375.421 1317.58 369.576 1320.91 366.378 1318.9C365.824 1318.55 365.367 1318.06 365.047 1317.48C368.583 1316.74 372.428 1313.62 375.207 1309.18C377.97 1304.77 379.103 1299.89 378.243 1296.42C378.899 1296.45 379.537 1296.65 380.099 1296.99C381.617 1297.94 382.379 1299.94 382.248 1302.63H382.247ZM364.233 1313.26C364.501 1310.05 365.57 1306.95 367.342 1304.25C368.995 1301.48 371.315 1299.17 374.092 1297.52C374.964 1297.03 375.911 1296.68 376.895 1296.49C377.802 1299.62 376.734 1304.24 374.083 1308.47C371.462 1312.66 367.739 1315.67 364.533 1316.23C364.272 1315.26 364.171 1314.26 364.234 1313.26H364.233Z" fill="#333333"/>
<path d="M435.167 1326.36C433.229 1325.15 430.619 1325.32 427.816 1326.85C424.84 1328.61 422.352 1331.08 420.578 1334.04C418.686 1336.93 417.548 1340.25 417.269 1343.69C417.114 1346.88 418.097 1349.31 420.034 1350.52C420.914 1351.06 421.93 1351.34 422.963 1351.33C426.704 1351.33 431.32 1348.11 434.623 1342.84C436.515 1339.95 437.653 1336.63 437.933 1333.19C438.086 1330 437.104 1327.58 435.167 1326.36ZM418.594 1343.76C418.862 1340.54 419.931 1337.44 421.702 1334.75C423.356 1331.98 425.676 1329.66 428.452 1328.02C429.324 1327.52 430.271 1327.18 431.256 1326.99C432.163 1330.12 431.095 1334.74 428.444 1338.97C425.822 1343.15 422.099 1346.17 418.894 1346.73C418.632 1345.76 418.53 1344.76 418.593 1343.76H418.594ZM436.608 1333.13C436.34 1336.34 435.272 1339.44 433.5 1342.14C429.781 1348.07 423.936 1351.4 420.739 1349.4C420.185 1349.04 419.727 1348.55 419.408 1347.98C422.943 1347.23 426.788 1344.11 429.567 1339.67C432.33 1335.26 433.464 1330.39 432.603 1326.91C433.26 1326.95 433.898 1327.14 434.46 1327.49C435.976 1328.43 436.738 1330.44 436.607 1333.13H436.608Z" fill="#333333"/>
<path d="M252.449 1238.34L351.887 1292.7M351.887 1292.7V1409.05M351.887 1292.7L450 1238.34" stroke="#333333" stroke-width="2"/>
<path d="M254.107 1236.69L352.853 1293.7V1407.72L254.107 1464.73L155.361 1407.72V1293.7L254.107 1236.69Z" fill="#1F1D1D" stroke="#38421E" stroke-width="2"/>
<path d="M253.253 1270.49C261.245 1270.49 267.506 1266.85 267.506 1262.21V1255.25H267.478C267.186 1250.76 261.052 1247.29 253.253 1247.29C245.455 1247.29 239.32 1250.76 239.028 1255.25H239V1262.21C239 1266.85 245.261 1270.49 253.253 1270.49ZM253.253 1248.62C260.26 1248.62 266.18 1251.81 266.18 1255.58C266.18 1259.35 260.26 1262.54 253.253 1262.54C246.246 1262.54 240.326 1259.35 240.326 1255.58C240.326 1251.8 246.246 1248.62 253.253 1248.62ZM240.326 1259.11C242.568 1261.94 247.447 1263.86 253.253 1263.86C259.06 1263.86 263.938 1261.94 266.18 1259.11V1262.21C266.18 1265.98 260.26 1269.17 253.253 1269.17C246.246 1269.17 240.326 1265.98 240.326 1262.21V1259.11Z" fill="#38421E"/>
<path d="M199.557 1301.65C207.548 1301.65 213.809 1298.01 213.809 1293.36V1286.4H213.781C213.489 1281.92 207.355 1278.45 199.557 1278.45C191.758 1278.45 185.623 1281.92 185.332 1286.4H185.304V1293.36C185.304 1298.01 191.564 1301.65 199.557 1301.65ZM199.557 1279.77C206.564 1279.77 212.483 1282.96 212.483 1286.74C212.483 1290.51 206.564 1293.7 199.557 1293.7C192.549 1293.7 186.63 1290.51 186.63 1286.74C186.63 1282.96 192.549 1279.77 199.557 1279.77ZM199.557 1295.02C205.362 1295.02 210.241 1293.1 212.483 1290.26V1293.36C212.483 1297.14 206.564 1300.33 199.557 1300.33C192.549 1300.33 186.63 1297.14 186.63 1293.36V1290.26C188.871 1293.09 193.75 1295.02 199.557 1295.02Z" fill="#38421E"/>
<path d="M164.685 1400.71C167.646 1406.54 172.254 1410.23 176.1 1410.23C176.83 1410.23 177.553 1410.08 178.225 1409.79L178.234 1409.81L178.524 1409.66H178.529H178.533L184.439 1406.66C188.581 1404.56 188.99 1397.33 185.367 1390.2C181.745 1383.08 175.665 1379.14 171.524 1381.25L165.615 1384.25L165.321 1384.4L165.333 1384.43C161.468 1386.71 161.154 1393.75 164.685 1400.71ZM172.128 1382.43C175.489 1380.72 181.011 1384.55 184.189 1390.8C187.366 1397.05 187.203 1403.77 183.839 1405.48L181.074 1406.88C182.584 1403.6 182.091 1398.38 179.461 1393.2C176.831 1388.02 172.905 1384.55 169.364 1383.83L172.128 1382.43ZM166.216 1385.43C169.576 1383.72 175.099 1387.56 178.276 1393.8C181.452 1400.05 181.289 1406.77 177.929 1408.48L177.922 1408.48C174.559 1410.19 169.038 1406.35 165.864 1400.11C162.689 1393.86 162.853 1387.14 166.216 1385.43V1385.43Z" fill="#38421E"/>
<path d="M229.797 1379.73C230.527 1379.73 231.25 1379.59 231.921 1379.3L231.93 1379.32L232.22 1379.17H232.226H232.23L238.136 1376.17C242.278 1374.06 242.687 1366.83 239.064 1359.71C235.441 1352.58 229.363 1348.65 225.22 1350.76L219.312 1353.76L219.017 1353.91L219.03 1353.93C215.164 1356.23 214.849 1363.27 218.381 1370.22C221.343 1376.04 225.95 1379.73 229.797 1379.73ZM225.825 1351.93C229.187 1350.22 234.711 1354.06 237.885 1360.3C241.06 1366.55 240.899 1373.27 237.535 1374.98L234.77 1376.39C236.281 1373.1 235.787 1367.88 233.158 1362.71C230.528 1357.53 226.601 1354.05 223.061 1353.34L225.825 1351.93ZM219.912 1354.94C223.273 1353.23 228.795 1357.06 231.972 1363.31C235.149 1369.55 234.986 1376.27 231.626 1377.98H231.618C228.254 1379.69 222.735 1375.85 219.56 1369.61C216.386 1363.37 216.55 1356.65 219.912 1354.94V1354.94Z" fill="#38421E"/>
<path d="M267.996 1437.52L273.868 1441.25L273.881 1441.23C274.695 1441.68 275.607 1441.9 276.533 1441.9C278.084 1441.85 279.599 1441.41 280.944 1440.64C283.932 1438.9 286.437 1436.45 288.232 1433.5C292.419 1426.92 292.785 1419.88 289.16 1417.23L289.175 1417.21L288.896 1417.03L283.303 1413.47C279.382 1410.98 272.953 1414.3 268.661 1421.05C266.748 1423.92 265.587 1427.23 265.283 1430.67C265.1 1433.86 266.067 1436.29 267.996 1437.52ZM287.113 1432.79C285.441 1435.55 283.104 1437.85 280.316 1439.47C277.944 1440.75 275.809 1440.92 274.301 1439.96C271.119 1437.94 271.606 1431.23 275.368 1425.32C278.373 1420.59 282.726 1417.55 285.974 1417.55C286.751 1417.53 287.517 1417.74 288.179 1418.15V1418.15C291.363 1420.17 290.874 1426.88 287.113 1432.79V1432.79ZM266.603 1430.74C266.893 1427.53 267.984 1424.44 269.775 1421.76C273.536 1415.85 279.402 1412.56 282.587 1414.59L285.204 1416.25C281.61 1416.62 277.366 1419.71 274.249 1424.6C271.132 1429.5 270.139 1434.65 271.325 1438.07L268.708 1436.4C267.201 1435.44 266.453 1433.43 266.603 1430.74V1430.74Z" fill="#38421E"/>
<path d="M321.693 1343.38L327.565 1347.12L327.578 1347.1C328.391 1347.54 329.304 1347.77 330.23 1347.76C331.781 1347.71 333.296 1347.28 334.641 1346.5C337.629 1344.77 340.134 1342.32 341.929 1339.37C346.116 1332.79 346.481 1325.75 342.857 1323.09L342.872 1323.07L342.593 1322.89L337 1319.34C333.079 1316.84 326.649 1320.17 322.358 1326.91C320.445 1329.79 319.284 1333.1 318.98 1336.54C318.796 1339.72 319.764 1342.16 321.693 1343.38ZM340.81 1338.65C339.138 1341.41 336.801 1343.71 334.013 1345.34C331.641 1346.61 329.505 1346.79 327.998 1345.83C324.816 1343.8 325.302 1337.1 329.064 1331.18C332.07 1326.46 336.423 1323.41 339.671 1323.41C340.448 1323.4 341.214 1323.6 341.876 1324.01V1324.01C345.06 1326.04 344.571 1332.74 340.81 1338.65V1338.65ZM320.299 1336.61C320.59 1333.4 321.681 1330.31 323.471 1327.62C327.233 1321.71 333.097 1318.43 336.284 1320.45L338.9 1322.12C335.306 1322.49 331.063 1325.57 327.945 1330.47C324.828 1335.37 323.835 1340.52 325.021 1343.93L322.405 1342.27C320.898 1341.31 320.15 1339.3 320.299 1336.61V1336.61Z" fill="#38421E"/>
<path d="M253.253 1332.81C261.245 1332.81 267.506 1329.17 267.506 1324.52V1317.56H267.478C267.186 1313.08 261.052 1309.61 253.253 1309.61C245.455 1309.61 239.32 1313.08 239.028 1317.56H239V1324.52C239 1329.17 245.261 1332.81 253.253 1332.81ZM253.253 1310.93C260.26 1310.93 266.18 1314.12 266.18 1317.89C266.18 1321.67 260.26 1324.85 253.253 1324.85C246.246 1324.85 240.326 1321.67 240.326 1317.89C240.326 1314.12 246.246 1310.93 253.253 1310.93ZM240.326 1321.42C242.568 1324.25 247.447 1326.18 253.253 1326.18C259.06 1326.18 263.938 1324.26 266.18 1321.42V1324.52C266.18 1328.3 260.26 1331.48 253.253 1331.48C246.246 1331.48 240.326 1328.3 240.326 1324.52V1321.42Z" fill="#38421E"/>
<path d="M307.613 1301.65C315.604 1301.65 321.865 1298.01 321.865 1293.36V1286.4H321.838C321.545 1281.92 315.411 1278.45 307.613 1278.45C299.814 1278.45 293.679 1281.92 293.388 1286.4H293.36V1293.36C293.36 1298.01 299.62 1301.65 307.613 1301.65ZM307.613 1279.77C314.62 1279.77 320.54 1282.96 320.54 1286.74C320.54 1290.51 314.62 1293.7 307.613 1293.7C300.606 1293.7 294.686 1290.51 294.686 1286.74C294.686 1282.96 300.605 1279.77 307.613 1279.77ZM294.686 1290.26C296.927 1293.1 301.806 1295.02 307.613 1295.02C313.419 1295.02 318.298 1293.1 320.54 1290.26V1293.36C320.54 1297.14 314.62 1300.33 307.613 1300.33C300.606 1300.33 294.686 1297.14 294.686 1293.36V1290.26Z" fill="#38421E"/>
<path d="M253.253 1300.99C261.245 1300.99 267.506 1297.35 267.506 1292.7C267.506 1288.06 261.245 1284.42 253.253 1284.42C245.262 1284.42 239 1288.06 239 1292.7C239 1297.35 245.261 1300.99 253.253 1300.99ZM253.253 1299.66C248.204 1299.66 243.734 1298 241.621 1295.67C243.797 1293.25 248.271 1291.71 253.253 1291.71C258.181 1291.71 262.702 1293.26 264.882 1295.67C262.768 1298 258.299 1299.66 253.253 1299.66ZM253.253 1285.74C260.26 1285.74 266.18 1288.93 266.18 1292.7C266.17 1293.36 265.995 1294 265.672 1294.57C263.165 1291.98 258.482 1290.38 253.253 1290.38C248.055 1290.38 243.326 1292 240.835 1294.57C240.511 1294 240.336 1293.36 240.326 1292.7C240.326 1288.93 246.246 1285.74 253.253 1285.74Z" fill="#38421E"/>
<path d="M181.108 1345.71C181.968 1345.72 182.817 1345.52 183.583 1345.13C187.708 1342.99 188.056 1335.75 184.379 1328.66C182.851 1325.56 180.572 1322.9 177.749 1320.91C175.081 1319.16 172.493 1318.77 170.462 1319.82C168.433 1320.88 167.257 1323.21 167.152 1326.41C167.152 1329.86 168.018 1333.26 169.671 1336.29C172.657 1342.07 177.267 1345.71 181.108 1345.71ZM183.199 1329.27C185.524 1333.76 186.11 1338.49 185.009 1341.44C181.859 1340.62 178.431 1337.36 176.138 1332.94C173.863 1328.55 173.159 1323.81 174.311 1320.76C175.276 1321.03 176.19 1321.46 177.017 1322.02C179.649 1323.89 181.773 1326.38 183.196 1329.27L183.199 1329.27ZM171.068 1321C171.639 1320.71 172.273 1320.56 172.915 1320.57C172.933 1320.57 172.951 1320.57 172.968 1320.57C171.81 1323.99 172.548 1328.89 174.957 1333.54C177.352 1338.16 180.97 1341.61 184.398 1342.64C184.039 1343.19 183.548 1343.64 182.969 1343.95C179.621 1345.69 174.064 1341.9 170.838 1335.68C169.29 1332.85 168.476 1329.68 168.47 1326.45C168.558 1323.76 169.479 1321.82 171.065 1321L171.068 1321Z" fill="#38421E"/>
<path d="M231.438 1414.38C228.77 1412.63 226.182 1412.24 224.151 1413.29C222.121 1414.35 220.945 1416.68 220.84 1419.88C220.841 1423.33 221.707 1426.73 223.359 1429.76C226.356 1435.54 230.966 1439.19 234.803 1439.19C235.663 1439.19 236.513 1438.99 237.278 1438.6C241.403 1436.46 241.751 1429.23 238.074 1422.13C236.544 1419.03 234.263 1416.37 231.438 1414.38V1414.38ZM236.666 1437.42C233.318 1439.16 227.76 1435.37 224.534 1429.15C222.987 1426.32 222.173 1423.15 222.166 1419.92C222.254 1417.23 223.176 1415.29 224.762 1414.47C225.333 1414.18 225.967 1414.03 226.608 1414.04C226.626 1414.04 226.645 1414.04 226.662 1414.04C225.504 1417.46 226.242 1422.36 228.651 1427.01C231.045 1431.63 234.664 1435.08 238.092 1436.11C237.734 1436.66 237.243 1437.11 236.666 1437.42V1437.42ZM238.702 1434.9C235.552 1434.09 232.125 1430.82 229.831 1426.4C227.556 1422.01 226.852 1417.27 228.005 1414.23C228.969 1414.5 229.883 1414.92 230.711 1415.49C233.344 1417.35 235.469 1419.85 236.892 1422.74C239.217 1427.22 239.803 1431.96 238.702 1434.91V1434.9Z" fill="#38421E"/>
<path d="M268.225 1375.71C269.105 1376.25 270.121 1376.53 271.155 1376.52C274.896 1376.52 279.511 1373.3 282.814 1368.03C284.706 1365.14 285.844 1361.83 286.124 1358.38C286.278 1355.19 285.295 1352.77 283.358 1351.55C281.421 1350.34 278.811 1350.52 276.007 1352.05C273.032 1353.8 270.543 1356.27 268.769 1359.24C266.877 1362.12 265.739 1365.44 265.46 1368.88C265.306 1372.07 266.288 1374.5 268.225 1375.71ZM284.798 1358.32C284.53 1361.53 283.462 1364.63 281.69 1367.33C277.971 1373.27 272.127 1376.59 268.929 1374.59C268.375 1374.23 267.917 1373.74 267.598 1373.17C271.133 1372.43 274.978 1369.3 277.757 1364.86C280.52 1360.45 281.654 1355.58 280.794 1352.1C281.45 1352.14 282.088 1352.34 282.65 1352.68C284.168 1353.62 284.929 1355.63 284.799 1358.32H284.798ZM266.784 1368.95C267.052 1365.73 268.121 1362.63 269.892 1359.94C271.546 1357.17 273.866 1354.85 276.642 1353.21C277.514 1352.71 278.461 1352.37 279.446 1352.18C280.353 1355.31 279.285 1359.93 276.634 1364.16C274.013 1368.34 270.29 1371.36 267.084 1371.92C266.822 1370.95 266.721 1369.95 266.785 1368.95H266.784Z" fill="#38421E"/>
<path d="M337.718 1382.05C335.781 1380.84 333.171 1381.01 330.367 1382.54C327.392 1384.29 324.903 1386.76 323.129 1389.73C321.237 1392.62 320.099 1395.93 319.82 1399.38C319.666 1402.57 320.648 1404.99 322.585 1406.21C323.465 1406.75 324.481 1407.03 325.515 1407.01C329.255 1407.01 333.871 1403.8 337.174 1398.53C339.066 1395.64 340.204 1392.32 340.484 1388.88C340.638 1385.69 339.655 1383.26 337.718 1382.05ZM321.145 1399.44C321.413 1396.23 322.482 1393.13 324.254 1390.43C325.907 1387.66 328.227 1385.35 331.003 1383.7C331.875 1383.21 332.823 1382.86 333.807 1382.67C334.714 1385.8 333.646 1390.42 330.995 1394.66C328.374 1398.84 324.651 1401.85 321.445 1402.41C321.183 1401.44 321.082 1400.44 321.145 1399.44H321.145ZM339.159 1388.81C338.892 1392.03 337.823 1395.13 336.051 1397.82C332.332 1403.76 326.487 1407.09 323.29 1405.08C322.736 1404.73 322.279 1404.24 321.959 1403.66C325.495 1402.92 329.34 1399.8 332.119 1395.36C334.882 1390.95 336.015 1386.07 335.155 1382.6C335.811 1382.63 336.449 1382.83 337.011 1383.17C338.528 1384.12 339.289 1386.12 339.159 1388.81H339.159Z" fill="#38421E"/>
<path d="M155 1294.03L254.438 1348.39M254.438 1348.39V1464.73M254.438 1348.39L352.551 1294.03" stroke="#38421E" stroke-width="2"/>
<g opacity="0.8">
<path d="M446.5 259L595.456 345V517L446.5 603L297.544 517V345L446.5 259Z" fill="#1F1D1D" stroke="#333333" stroke-width="2"/>
<path d="M445.213 309.999C457.268 309.999 466.713 304.508 466.713 297.499V286.999H466.671C466.23 280.233 456.977 274.999 445.213 274.999C433.449 274.999 424.195 280.233 423.755 286.999H423.713V297.499C423.713 304.505 433.157 309.999 445.213 309.999ZM445.213 276.999C455.783 276.999 464.713 281.808 464.713 287.499C464.713 293.19 455.783 297.999 445.213 297.999C434.643 297.999 425.713 293.191 425.713 287.499C425.713 281.807 434.642 276.999 445.213 276.999ZM425.713 292.821C429.094 297.094 436.454 299.999 445.213 299.999C453.972 299.999 461.331 297.099 464.713 292.821V297.499C464.713 303.191 455.783 307.999 445.213 307.999C434.643 307.999 425.713 303.191 425.713 297.499V292.821Z" fill="#333333"/>
<path d="M364.213 356.999C376.268 356.999 385.713 351.508 385.713 344.499V333.999H385.671C385.23 327.233 375.977 321.999 364.213 321.999C352.449 321.999 343.195 327.233 342.755 333.999H342.713V344.499C342.713 351.505 352.157 356.999 364.213 356.999ZM364.213 323.999C374.783 323.999 383.713 328.808 383.713 334.499C383.713 340.19 374.783 344.999 364.213 344.999C353.643 344.999 344.713 340.191 344.713 334.499C344.713 328.807 353.642 323.999 364.213 323.999ZM364.213 346.999C372.971 346.999 380.331 344.099 383.713 339.821V344.499C383.713 350.191 374.783 354.999 364.213 354.999C353.643 354.999 344.713 350.191 344.713 344.499V339.821C348.094 344.091 355.454 346.999 364.213 346.999Z" fill="#333333"/>
<path d="M311.61 506.423C316.077 515.214 323.027 520.783 328.829 520.783C329.931 520.786 331.022 520.563 332.034 520.128L332.048 520.155L332.485 519.933H332.494H332.5L341.409 515.406C347.657 512.232 348.274 501.325 342.809 490.576C337.344 479.827 328.173 473.896 321.926 477.076L313.013 481.604L312.569 481.829L312.588 481.866C306.757 485.315 306.283 495.934 311.61 506.423ZM322.838 478.847C327.907 476.268 336.238 482.052 341.031 491.476C345.824 500.9 345.577 511.038 340.503 513.616L336.332 515.735C338.61 510.785 337.866 502.907 333.899 495.099C329.932 487.291 324.009 482.045 318.668 480.965L322.838 478.847ZM313.919 483.378C318.988 480.805 327.319 486.584 332.111 496.007C336.903 505.43 336.657 515.562 331.588 518.145L331.577 518.15C326.505 520.721 318.177 514.939 313.388 505.519C308.599 496.099 308.847 485.958 313.919 483.378V483.378Z" fill="#333333"/>
<path d="M409.829 474.783C410.931 474.786 412.021 474.563 413.034 474.128L413.048 474.155L413.485 473.933H413.494H413.5L422.409 469.406C428.657 466.232 429.274 455.325 423.809 444.576C418.344 433.827 409.175 427.897 402.926 431.076L394.013 435.604L393.569 435.829L393.588 435.866C387.756 439.324 387.281 449.943 392.609 460.432C397.077 469.214 404.027 474.783 409.829 474.783ZM403.838 432.847C408.91 430.267 417.243 436.052 422.031 445.476C426.819 454.9 426.577 465.038 421.503 467.616L417.332 469.735C419.61 464.785 418.866 456.907 414.899 449.099C410.932 441.291 405.008 436.046 399.668 434.965L403.838 432.847ZM394.919 437.378C399.989 434.804 408.319 440.584 413.111 450.007C417.903 459.43 417.657 469.562 412.588 472.145H412.577C407.502 474.716 399.177 468.933 394.388 459.514C389.599 450.095 389.847 439.958 394.919 437.378V437.378Z" fill="#333333"/>
<path d="M467.452 561.951L476.31 567.588L476.329 567.557C477.556 568.224 478.933 568.568 480.329 568.557C482.67 568.479 484.955 567.826 486.983 566.657C491.49 564.043 495.27 560.342 497.978 555.891C504.294 545.964 504.845 535.349 499.378 531.345L499.4 531.31L498.978 531.042L490.542 525.675C484.627 521.915 474.928 526.932 468.454 537.104C465.569 541.442 463.817 546.433 463.359 551.623C463.082 556.431 464.542 560.099 467.452 561.951ZM496.29 554.817C493.767 558.981 490.242 562.447 486.036 564.899C482.457 566.821 479.236 567.083 476.962 565.636C472.162 562.581 472.897 552.465 478.572 543.548C483.106 536.422 489.672 531.828 494.572 531.828C495.744 531.802 496.898 532.115 497.897 532.728V532.728C502.7 535.785 501.963 545.899 496.29 554.817V554.817ZM465.349 551.732C465.788 546.884 467.433 542.224 470.134 538.175C475.808 529.259 484.657 524.303 489.462 527.36L493.41 529.872C487.988 530.431 481.586 535.081 476.884 542.472C472.182 549.863 470.684 557.63 472.473 562.777L468.525 560.266C466.252 558.817 465.124 555.788 465.349 551.732V551.732Z" fill="#333333"/>
<path d="M548.452 419.951L557.31 425.588L557.329 425.557C558.556 426.224 559.933 426.569 561.329 426.557C563.67 426.479 565.955 425.826 567.983 424.657C572.49 422.043 576.27 418.342 578.978 413.891C585.294 403.964 585.845 393.349 580.378 389.345L580.4 389.31L579.978 389.042L571.542 383.675C565.627 379.914 555.928 384.931 549.454 395.104C546.569 399.442 544.817 404.434 544.359 409.623C544.082 414.431 545.542 418.099 548.452 419.951ZM577.29 412.817C574.767 416.981 571.242 420.447 567.036 422.899C563.457 424.822 560.236 425.084 557.962 423.636C553.162 420.581 553.897 410.466 559.572 401.548C564.106 394.422 570.672 389.828 575.572 389.828C576.744 389.802 577.898 390.115 578.897 390.728V390.728C583.7 393.785 582.963 403.899 577.29 412.817V412.817ZM546.349 409.732C546.788 404.884 548.433 400.224 551.134 396.175C556.808 387.259 565.655 382.303 570.462 385.36L574.409 387.872C568.987 388.431 562.587 393.081 557.884 400.472C553.181 407.863 551.684 415.63 553.473 420.777L549.525 418.266C547.252 416.817 546.124 413.788 546.349 409.732V409.732Z" fill="#333333"/>
<path d="M445.213 403.999C457.268 403.999 466.713 398.508 466.713 391.499V380.999H466.671C466.23 374.233 456.977 368.999 445.213 368.999C433.449 368.999 424.195 374.233 423.755 380.999H423.713V391.499C423.713 398.505 433.157 403.999 445.213 403.999ZM445.213 370.999C455.783 370.999 464.713 375.808 464.713 381.499C464.713 387.19 455.783 391.999 445.213 391.999C434.643 391.999 425.713 387.191 425.713 381.499C425.713 375.807 434.642 370.999 445.213 370.999ZM425.713 386.821C429.094 391.094 436.454 393.999 445.213 393.999C453.972 393.999 461.331 391.099 464.713 386.821V391.499C464.713 397.191 455.783 401.999 445.213 401.999C434.643 401.999 425.713 397.191 425.713 391.499V386.821Z" fill="#333333"/>
<path d="M527.213 356.999C539.268 356.999 548.713 351.508 548.713 344.499V333.999H548.671C548.23 327.233 538.977 321.999 527.213 321.999C515.449 321.999 506.195 327.233 505.755 333.999H505.713V344.499C505.713 351.505 515.157 356.999 527.213 356.999ZM527.213 323.999C537.783 323.999 546.713 328.808 546.713 334.499C546.713 340.19 537.783 344.999 527.213 344.999C516.643 344.999 507.713 340.191 507.713 334.499C507.713 328.807 516.642 323.999 527.213 323.999ZM507.713 339.821C511.094 344.094 518.454 346.999 527.213 346.999C535.972 346.999 543.331 344.099 546.713 339.821V344.499C546.713 350.191 537.783 354.999 527.213 354.999C516.643 354.999 507.713 350.191 507.713 344.499V339.821Z" fill="#333333"/>
<path d="M445.213 355.999C457.268 355.999 466.713 350.508 466.713 343.499C466.713 336.49 457.268 330.999 445.213 330.999C433.158 330.999 423.713 336.49 423.713 343.499C423.713 350.508 433.157 355.999 445.213 355.999ZM445.213 353.999C437.597 353.999 430.853 351.499 427.666 347.973C430.949 344.322 437.697 341.999 445.213 341.999C452.647 341.999 459.466 344.339 462.754 347.978C459.566 351.499 452.824 353.999 445.213 353.999ZM445.213 332.999C455.783 332.999 464.713 337.808 464.713 343.499C464.697 344.489 464.434 345.459 463.947 346.321C460.164 342.405 453.1 339.999 445.213 339.999C437.371 339.999 430.238 342.448 426.48 346.325C425.992 345.462 425.728 344.49 425.713 343.499C425.713 337.805 434.642 332.999 445.213 332.999Z" fill="#333333"/>
<path d="M336.383 423.467C337.681 423.478 338.962 423.175 340.117 422.582C346.339 419.355 346.864 408.443 341.317 397.741C339.013 393.069 335.575 389.049 331.317 386.048C327.292 383.405 323.388 382.824 320.325 384.411C317.263 385.999 315.489 389.525 315.331 394.34C315.332 399.55 316.638 404.677 319.131 409.252C323.636 417.966 330.59 423.467 336.383 423.467ZM339.538 398.667C343.045 405.428 343.929 412.567 342.268 417.017C337.516 415.785 332.346 410.864 328.886 404.192C325.454 397.575 324.393 390.422 326.131 385.829C327.585 386.237 328.964 386.879 330.213 387.729C334.183 390.539 337.387 394.298 339.533 398.662L339.538 398.667ZM321.238 386.191C322.1 385.752 323.056 385.529 324.024 385.54C324.051 385.54 324.079 385.54 324.105 385.54C322.358 390.702 323.471 398.095 327.105 405.109C330.717 412.071 336.175 417.275 341.346 418.825C340.804 419.656 340.064 420.337 339.191 420.808C334.141 423.424 325.758 417.715 320.891 408.332C318.557 404.061 317.329 399.274 317.319 394.406C317.452 390.345 318.842 387.426 321.234 386.186L321.238 386.191Z" fill="#333333"/>
<path d="M412.304 527.048C408.279 524.405 404.375 523.823 401.312 525.411C398.25 526.999 396.476 530.525 396.318 535.34C396.319 540.55 397.625 545.677 400.118 550.252C404.638 558.966 411.592 564.467 417.38 564.467C418.678 564.478 419.96 564.175 421.114 563.582C427.336 560.355 427.861 549.443 422.314 538.741C420.008 534.068 416.566 530.048 412.304 527.048V527.048ZM420.19 561.807C415.14 564.424 406.756 558.714 401.89 549.331C399.556 545.06 398.328 540.273 398.318 535.405C398.451 531.345 399.841 528.426 402.233 527.186C403.096 526.747 404.052 526.524 405.019 526.535C405.046 526.535 405.074 526.535 405.1 526.535C403.353 531.697 404.466 539.09 408.1 546.104C411.712 553.066 417.17 558.27 422.341 559.82C421.801 560.652 421.062 561.335 420.19 561.807V561.807ZM423.262 558.007C418.51 556.775 413.34 551.854 409.88 545.182C406.448 538.565 405.387 531.412 407.125 526.819C408.58 527.227 409.959 527.869 411.207 528.719C415.18 531.531 418.386 535.293 420.532 539.661C424.039 546.423 424.923 553.561 423.262 558.012V558.007Z" fill="#333333"/>
<path d="M467.798 468.717C469.126 469.534 470.659 469.956 472.217 469.933C477.86 469.933 484.823 465.087 489.805 457.133C492.66 452.775 494.376 447.771 494.798 442.578C495.03 437.766 493.548 434.108 490.626 432.278C487.704 430.448 483.766 430.711 479.537 433.02C475.049 435.666 471.295 439.394 468.619 443.864C465.765 448.222 464.049 453.227 463.627 458.419C463.394 463.227 464.876 466.885 467.798 468.717ZM492.798 442.48C492.394 447.331 490.782 452.003 488.109 456.07C482.5 465.027 473.684 470.045 468.86 467.022C468.024 466.485 467.334 465.749 466.852 464.879C472.185 463.761 477.985 459.048 482.177 452.354C486.345 445.702 488.055 438.347 486.757 433.104C487.748 433.157 488.71 433.455 489.557 433.971C491.847 435.399 492.996 438.423 492.799 442.48H492.798ZM465.624 458.512C466.029 453.662 467.641 448.99 470.313 444.922C472.807 440.742 476.307 437.253 480.495 434.773C481.811 434.028 483.239 433.503 484.724 433.22C486.092 437.941 484.481 444.909 480.482 451.293C476.528 457.605 470.912 462.148 466.076 462.993C465.682 461.534 465.53 460.02 465.625 458.512H465.624Z" fill="#333333"/>
<path d="M572.626 478.275C569.703 476.446 565.766 476.709 561.537 479.017C557.049 481.663 553.295 485.391 550.619 489.861C547.765 494.219 546.049 499.223 545.627 504.416C545.394 509.227 546.876 512.885 549.798 514.716C551.126 515.533 552.659 515.955 554.217 515.932C559.86 515.932 566.823 511.085 571.805 503.132C574.66 498.774 576.376 493.77 576.798 488.577C577.03 483.765 575.548 480.107 572.626 478.275ZM547.626 504.512C548.031 499.662 549.643 494.99 552.315 490.922C554.809 486.742 558.309 483.253 562.497 480.773C563.813 480.028 565.241 479.503 566.726 479.22C568.094 483.941 566.483 490.909 562.484 497.293C558.53 503.605 552.914 508.148 548.078 508.993C547.684 507.534 547.531 506.02 547.625 504.512H547.626ZM574.8 488.48C574.396 493.33 572.784 498.003 570.111 502.07C564.501 511.027 555.684 516.045 550.862 513.022C550.026 512.485 549.336 511.748 548.854 510.879C554.187 509.761 559.987 505.048 564.179 498.354C568.347 491.702 570.057 484.347 568.759 479.104C569.75 479.157 570.712 479.455 571.559 479.971C573.847 481.399 574.996 484.423 574.799 488.48H574.8Z" fill="#333333"/>
<path d="M297 345.5L447 427.5M447 427.5V603M447 427.5L595 345.5" stroke="#333333" stroke-width="2"/>
</g>
<g opacity="0.8">
<path d="M150.5 259L299.456 345V517L150.5 603L1.54362 517V345L150.5 259Z" fill="#1F1D1D" stroke="#333333" stroke-width="2"/>
<path d="M149.213 309.999C161.268 309.999 170.713 304.508 170.713 297.499V286.999H170.671C170.23 280.233 160.977 274.999 149.213 274.999C137.449 274.999 128.195 280.233 127.755 286.999H127.713V297.499C127.713 304.505 137.157 309.999 149.213 309.999ZM149.213 276.999C159.783 276.999 168.713 281.808 168.713 287.499C168.713 293.19 159.783 297.999 149.213 297.999C138.643 297.999 129.713 293.191 129.713 287.499C129.713 281.807 138.642 276.999 149.213 276.999ZM129.713 292.821C133.094 297.094 140.454 299.999 149.213 299.999C157.972 299.999 165.331 297.099 168.713 292.821V297.499C168.713 303.191 159.783 307.999 149.213 307.999C138.643 307.999 129.713 303.191 129.713 297.499V292.821Z" fill="#333333"/>
<path d="M68.2129 356.999C80.2679 356.999 89.7129 351.508 89.7129 344.499V333.999H89.6709C89.2299 327.233 79.9769 321.999 68.2129 321.999C56.4489 321.999 47.1949 327.233 46.7549 333.999H46.7129V344.499C46.7129 351.505 56.1569 356.999 68.2129 356.999ZM68.2129 323.999C78.7829 323.999 87.7129 328.808 87.7129 334.499C87.7129 340.19 78.7829 344.999 68.2129 344.999C57.6429 344.999 48.7129 340.191 48.7129 334.499C48.7129 328.807 57.6419 323.999 68.2129 323.999ZM68.2129 346.999C76.9709 346.999 84.3309 344.099 87.7129 339.821V344.499C87.7129 350.191 78.7829 354.999 68.2129 354.999C57.6429 354.999 48.7129 350.191 48.7129 344.499V339.821C52.0939 344.091 59.4539 346.999 68.2129 346.999Z" fill="#333333"/>
<path d="M15.6099 506.423C20.0769 515.214 27.0269 520.783 32.8289 520.783C33.9307 520.786 35.0216 520.563 36.034 520.128L36.0479 520.155L36.4849 519.933H36.4939H36.4999L45.409 515.406C51.657 512.232 52.2739 501.325 46.8089 490.576C41.3439 479.827 32.1729 473.896 25.9259 477.076L17.013 481.604L16.5689 481.829L16.5879 481.866C10.7569 485.315 10.2829 495.934 15.6099 506.423ZM26.8379 478.847C31.9069 476.268 40.2379 482.052 45.0309 491.476C49.8239 500.9 49.577 511.038 44.503 513.616L40.332 515.735C42.61 510.785 41.866 502.907 37.899 495.099C33.932 487.291 28.0089 482.045 22.6679 480.965L26.8379 478.847ZM17.919 483.378C22.988 480.805 31.3189 486.584 36.1109 496.007C40.9029 505.43 40.6569 515.562 35.5879 518.145L35.577 518.15C30.505 520.721 22.177 514.939 17.388 505.519C12.599 496.099 12.847 485.958 17.919 483.378V483.378Z" fill="#333333"/>
<path d="M113.829 474.783C114.931 474.786 116.021 474.563 117.034 474.128L117.048 474.155L117.485 473.933H117.494H117.5L126.409 469.406C132.657 466.232 133.274 455.325 127.809 444.576C122.344 433.827 113.175 427.897 106.926 431.076L98.0128 435.604L97.5687 435.829L97.5878 435.866C91.7558 439.324 91.2808 449.943 96.6088 460.432C101.077 469.214 108.027 474.783 113.829 474.783ZM107.838 432.847C112.91 430.267 121.243 436.052 126.031 445.476C130.819 454.9 130.577 465.038 125.503 467.616L121.332 469.735C123.61 464.785 122.866 456.907 118.899 449.099C114.932 441.291 109.008 436.046 103.668 434.965L107.838 432.847ZM98.9188 437.378C103.989 434.804 112.319 440.584 117.111 450.007C121.903 459.43 121.657 469.562 116.588 472.145H116.577C111.502 474.716 103.177 468.933 98.3878 459.514C93.5988 450.095 93.8468 439.958 98.9188 437.378V437.378Z" fill="#333333"/>
<path d="M171.452 561.951L180.31 567.588L180.33 567.557C181.557 568.224 182.933 568.568 184.33 568.557C186.67 568.479 188.955 567.826 190.984 566.657C195.491 564.043 199.27 560.342 201.978 555.891C208.294 545.964 208.845 535.349 203.378 531.345L203.4 531.31L202.979 531.042L194.543 525.675C188.628 521.915 178.929 526.932 172.455 537.104C169.57 541.442 167.818 546.433 167.36 551.623C167.083 556.431 168.542 560.099 171.452 561.951ZM200.29 554.817C197.767 558.981 194.243 562.447 190.037 564.899C186.458 566.821 183.237 567.083 180.963 565.636C176.163 562.581 176.897 552.465 182.572 543.548C187.106 536.422 193.672 531.828 198.572 531.828C199.744 531.802 200.899 532.115 201.898 532.728V532.728C206.701 535.785 205.963 545.899 200.29 554.817V554.817ZM169.35 551.732C169.789 546.884 171.434 542.224 174.135 538.175C179.809 529.259 188.657 524.303 193.462 527.36L197.41 529.872C191.988 530.431 185.586 535.081 180.884 542.472C176.182 549.863 174.684 557.63 176.473 562.777L172.526 560.266C170.253 558.817 169.125 555.788 169.35 551.732V551.732Z" fill="#333333"/>
<path d="M252.452 419.951L261.31 425.588L261.33 425.557C262.557 426.224 263.933 426.569 265.33 426.557C267.67 426.479 269.955 425.826 271.984 424.657C276.491 422.043 280.27 418.342 282.978 413.891C289.294 403.964 289.845 393.349 284.378 389.345L284.4 389.31L283.979 389.042L275.543 383.675C269.628 379.914 259.929 384.931 253.455 395.104C250.57 399.442 248.818 404.434 248.36 409.623C248.083 414.431 249.542 418.099 252.452 419.951ZM281.29 412.817C278.767 416.981 275.243 420.447 271.037 422.899C267.458 424.822 264.237 425.084 261.963 423.636C257.163 420.581 257.897 410.466 263.572 401.548C268.106 394.422 274.672 389.828 279.572 389.828C280.744 389.802 281.899 390.115 282.898 390.728V390.728C287.701 393.785 286.963 403.899 281.29 412.817V412.817ZM250.35 409.732C250.789 404.884 252.434 400.224 255.135 396.175C260.809 387.259 269.655 382.303 274.462 385.36L278.409 387.872C272.987 388.431 266.587 393.081 261.884 400.472C257.181 407.863 255.684 415.63 257.473 420.777L253.526 418.266C251.253 416.817 250.125 413.788 250.35 409.732V409.732Z" fill="#333333"/>
<path d="M149.213 403.999C161.268 403.999 170.713 398.508 170.713 391.499V380.999H170.671C170.23 374.233 160.977 368.999 149.213 368.999C137.449 368.999 128.195 374.233 127.755 380.999H127.713V391.499C127.713 398.505 137.157 403.999 149.213 403.999ZM149.213 370.999C159.783 370.999 168.713 375.808 168.713 381.499C168.713 387.19 159.783 391.999 149.213 391.999C138.643 391.999 129.713 387.191 129.713 381.499C129.713 375.807 138.642 370.999 149.213 370.999ZM129.713 386.821C133.094 391.094 140.454 393.999 149.213 393.999C157.972 393.999 165.331 391.099 168.713 386.821V391.499C168.713 397.191 159.783 401.999 149.213 401.999C138.643 401.999 129.713 397.191 129.713 391.499V386.821Z" fill="#333333"/>
<path d="M231.213 356.999C243.268 356.999 252.713 351.508 252.713 344.499V333.999H252.671C252.23 327.233 242.977 321.999 231.213 321.999C219.449 321.999 210.195 327.233 209.755 333.999H209.713V344.499C209.713 351.505 219.157 356.999 231.213 356.999ZM231.213 323.999C241.783 323.999 250.713 328.808 250.713 334.499C250.713 340.19 241.783 344.999 231.213 344.999C220.643 344.999 211.713 340.191 211.713 334.499C211.713 328.807 220.642 323.999 231.213 323.999ZM211.713 339.821C215.094 344.094 222.454 346.999 231.213 346.999C239.972 346.999 247.331 344.099 250.713 339.821V344.499C250.713 350.191 241.783 354.999 231.213 354.999C220.643 354.999 211.713 350.191 211.713 344.499V339.821Z" fill="#333333"/>
<path d="M149.213 355.999C161.268 355.999 170.713 350.508 170.713 343.499C170.713 336.49 161.268 330.999 149.213 330.999C137.158 330.999 127.713 336.49 127.713 343.499C127.713 350.508 137.157 355.999 149.213 355.999ZM149.213 353.999C141.597 353.999 134.853 351.499 131.666 347.973C134.949 344.322 141.697 341.999 149.213 341.999C156.647 341.999 163.466 344.339 166.754 347.978C163.566 351.499 156.824 353.999 149.213 353.999ZM149.213 332.999C159.783 332.999 168.713 337.808 168.713 343.499C168.697 344.489 168.434 345.459 167.947 346.321C164.164 342.405 157.1 339.999 149.213 339.999C141.371 339.999 134.238 342.448 130.48 346.325C129.992 345.462 129.728 344.49 129.713 343.499C129.713 337.805 138.642 332.999 149.213 332.999Z" fill="#333333"/>
<path d="M40.3831 423.467C41.681 423.478 42.9622 423.175 44.1171 422.582C50.3391 419.355 50.864 408.443 45.317 397.741C43.0131 393.069 39.575 389.049 35.317 386.048C31.292 383.405 27.388 382.824 24.325 384.411C21.263 385.999 19.4891 389.525 19.3311 394.34C19.3316 399.55 20.638 404.677 23.131 409.252C27.636 417.966 34.5901 423.467 40.3831 423.467ZM43.538 398.667C47.045 405.428 47.9291 412.567 46.2681 417.017C41.5161 415.785 36.346 410.864 32.886 404.192C29.454 397.575 28.393 390.422 30.131 385.829C31.5855 386.237 32.9641 386.879 34.213 387.729C38.1829 390.539 41.3867 394.298 43.533 398.662L43.538 398.667ZM25.238 386.191C26.1004 385.752 27.0564 385.529 28.024 385.54C28.051 385.54 28.079 385.54 28.105 385.54C26.358 390.702 27.471 398.095 31.105 405.109C34.717 412.071 40.1749 417.275 45.3459 418.825C44.8044 419.656 44.0636 420.337 43.191 420.808C38.141 423.424 29.758 417.715 24.891 408.332C22.5569 404.061 21.3289 399.274 21.319 394.406C21.452 390.345 22.842 387.426 25.234 386.186L25.238 386.191Z" fill="#333333"/>
<path d="M116.305 527.048C112.28 524.405 108.376 523.823 105.313 525.411C102.251 526.999 100.477 530.525 100.319 535.34C100.319 540.55 101.626 545.677 104.119 550.252C108.639 558.966 115.593 564.467 121.381 564.467C122.679 564.478 123.96 564.175 125.115 563.582C131.337 560.355 131.862 549.443 126.315 538.741C124.008 534.068 120.567 530.048 116.305 527.048V527.048ZM124.191 561.807C119.141 564.424 110.757 558.714 105.891 549.331C103.557 545.06 102.329 540.273 102.319 535.405C102.452 531.345 103.842 528.426 106.234 527.186C107.096 526.747 108.052 526.524 109.02 526.535C109.047 526.535 109.075 526.535 109.101 526.535C107.354 531.697 108.467 539.09 112.101 546.104C115.713 553.066 121.171 558.27 126.342 559.82C125.802 560.652 125.063 561.335 124.191 561.807V561.807ZM127.263 558.007C122.511 556.775 117.341 551.854 113.881 545.182C110.449 538.565 109.388 531.412 111.126 526.819C112.58 527.227 113.959 527.869 115.208 528.719C119.181 531.531 122.386 535.293 124.533 539.661C128.04 546.423 128.924 553.561 127.263 558.012V558.007Z" fill="#333333"/>
<path d="M171.798 468.717C173.125 469.534 174.658 469.956 176.217 469.933C181.86 469.933 188.823 465.087 193.805 457.133C196.659 452.775 198.376 447.771 198.798 442.578C199.03 437.766 197.548 434.108 194.626 432.278C191.704 430.448 187.766 430.711 183.537 433.02C179.049 435.666 175.295 439.394 172.619 443.864C169.764 448.222 168.048 453.227 167.627 458.419C167.394 463.227 168.876 466.885 171.798 468.717ZM196.798 442.48C196.394 447.331 194.782 452.003 192.109 456.07C186.5 465.027 177.684 470.045 172.86 467.022C172.024 466.485 171.334 465.749 170.852 464.879C176.185 463.761 181.985 459.048 186.177 452.354C190.345 445.702 192.055 438.347 190.757 433.104C191.748 433.157 192.71 433.455 193.557 433.971C195.847 435.399 196.996 438.423 196.799 442.48H196.798ZM169.624 458.512C170.028 453.662 171.64 448.99 174.313 444.922C176.807 440.742 180.307 437.253 184.495 434.773C185.81 434.028 187.239 433.503 188.724 433.22C190.092 437.941 188.481 444.909 184.482 451.293C180.528 457.605 174.912 462.148 170.076 462.993C169.682 461.534 169.529 460.02 169.625 458.512H169.624Z" fill="#333333"/>
<path d="M276.626 478.275C273.703 476.446 269.766 476.709 265.537 479.017C261.049 481.663 257.295 485.391 254.619 489.861C251.764 494.219 250.048 499.223 249.627 504.416C249.394 509.227 250.876 512.885 253.798 514.716C255.125 515.533 256.658 515.955 258.217 515.932C263.86 515.932 270.823 511.085 275.805 503.132C278.659 498.774 280.376 493.77 280.798 488.577C281.03 483.765 279.548 480.107 276.626 478.275ZM251.626 504.512C252.03 499.662 253.642 494.99 256.315 490.922C258.809 486.742 262.309 483.253 266.497 480.773C267.812 480.028 269.241 479.503 270.726 479.22C272.094 483.941 270.483 490.909 266.484 497.293C262.53 503.605 256.914 508.148 252.078 508.993C251.683 507.534 251.53 506.02 251.625 504.512H251.626ZM278.8 488.48C278.396 493.33 276.784 498.003 274.111 502.07C268.501 511.027 259.684 516.045 254.862 513.022C254.026 512.485 253.336 511.748 252.854 510.879C258.187 509.761 263.987 505.048 268.179 498.354C272.347 491.702 274.057 484.347 272.759 479.104C273.75 479.157 274.712 479.455 275.559 479.971C277.847 481.399 278.996 484.423 278.799 488.48H278.8Z" fill="#333333"/>
<path d="M1 345.5L151 427.5M151 427.5V603M151 427.5L299 345.5" stroke="#333333" stroke-width="2"/>
</g>
<g opacity="0.8">
<path d="M298.5 2L447.456 88V260L298.5 346L149.544 260V88L298.5 2Z" fill="#1F1D1D" stroke="#38421E" stroke-width="2"/>
<path d="M297.213 52.999C309.268 52.999 318.713 47.508 318.713 40.499V29.999H318.671C318.23 23.233 308.977 17.999 297.213 17.999C285.449 17.999 276.195 23.233 275.755 29.999H275.713V40.499C275.713 47.505 285.157 52.999 297.213 52.999ZM297.213 19.999C307.783 19.999 316.713 24.808 316.713 30.499C316.713 36.19 307.783 40.999 297.213 40.999C286.643 40.999 277.713 36.191 277.713 30.499C277.713 24.807 286.642 19.999 297.213 19.999ZM277.713 35.821C281.094 40.094 288.454 42.999 297.213 42.999C305.972 42.999 313.331 40.099 316.713 35.821V40.499C316.713 46.191 307.783 50.999 297.213 50.999C286.643 50.999 277.713 46.191 277.713 40.499V35.821Z" fill="#38421E"/>
<path d="M216.213 99.999C228.268 99.999 237.713 94.508 237.713 87.499V76.999H237.671C237.23 70.233 227.977 64.999 216.213 64.999C204.449 64.999 195.195 70.233 194.755 76.999H194.713V87.499C194.713 94.505 204.157 99.999 216.213 99.999ZM216.213 66.999C226.783 66.999 235.713 71.808 235.713 77.499C235.713 83.19 226.783 87.999 216.213 87.999C205.643 87.999 196.713 83.191 196.713 77.499C196.713 71.807 205.642 66.999 216.213 66.999ZM216.213 89.999C224.971 89.999 232.331 87.099 235.713 82.821V87.499C235.713 93.191 226.783 97.999 216.213 97.999C205.643 97.999 196.713 93.191 196.713 87.499V82.821C200.094 87.091 207.454 89.999 216.213 89.999Z" fill="#38421E"/>
<path d="M163.61 249.423C168.077 258.214 175.027 263.783 180.829 263.783C181.931 263.786 183.022 263.563 184.034 263.128L184.048 263.155L184.485 262.933H184.494H184.5L193.409 258.406C199.657 255.232 200.274 244.325 194.809 233.576C189.344 222.827 180.173 216.896 173.926 220.076L165.013 224.604L164.569 224.829L164.588 224.866C158.757 228.315 158.283 238.934 163.61 249.423ZM174.838 221.847C179.907 219.268 188.238 225.052 193.031 234.476C197.824 243.9 197.577 254.038 192.503 256.616L188.332 258.735C190.61 253.785 189.866 245.907 185.899 238.099C181.932 230.291 176.009 225.045 170.668 223.965L174.838 221.847ZM165.919 226.378C170.988 223.805 179.319 229.584 184.111 239.007C188.903 248.43 188.657 258.562 183.588 261.145L183.577 261.15C178.505 263.721 170.177 257.939 165.388 248.519C160.599 239.099 160.847 228.958 165.919 226.378V226.378Z" fill="#38421E"/>
<path d="M261.829 217.783C262.931 217.786 264.021 217.563 265.034 217.128L265.048 217.155L265.485 216.933H265.494H265.5L274.409 212.406C280.657 209.232 281.274 198.325 275.809 187.576C270.344 176.827 261.175 170.897 254.926 174.076L246.013 178.604L245.569 178.829L245.588 178.866C239.756 182.324 239.281 192.943 244.609 203.432C249.077 212.214 256.027 217.783 261.829 217.783ZM255.838 175.847C260.91 173.267 269.243 179.052 274.031 188.476C278.819 197.9 278.577 208.038 273.503 210.616L269.332 212.735C271.61 207.785 270.866 199.907 266.899 192.099C262.932 184.291 257.008 179.046 251.668 177.965L255.838 175.847ZM246.919 180.378C251.989 177.804 260.319 183.584 265.111 193.007C269.903 202.43 269.657 212.562 264.588 215.145H264.577C259.502 217.716 251.177 211.933 246.388 202.514C241.599 193.095 241.847 182.958 246.919 180.378V180.378Z" fill="#38421E"/>
<path d="M319.452 304.951L328.31 310.588L328.33 310.557C329.557 311.224 330.933 311.568 332.33 311.557C334.67 311.479 336.955 310.826 338.984 309.657C343.491 307.043 347.27 303.342 349.978 298.891C356.294 288.964 356.845 278.349 351.378 274.345L351.4 274.31L350.979 274.042L342.543 268.675C336.628 264.915 326.929 269.932 320.455 280.104C317.57 284.442 315.818 289.433 315.36 294.623C315.083 299.431 316.542 303.099 319.452 304.951ZM348.29 297.817C345.767 301.981 342.243 305.447 338.037 307.899C334.458 309.821 331.237 310.083 328.963 308.636C324.163 305.581 324.897 295.465 330.572 286.548C335.106 279.422 341.672 274.828 346.572 274.828C347.744 274.802 348.899 275.115 349.898 275.728V275.728C354.701 278.785 353.963 288.899 348.29 297.817V297.817ZM317.35 294.732C317.789 289.884 319.434 285.224 322.135 281.175C327.809 272.259 336.657 267.303 341.462 270.36L345.41 272.872C339.988 273.431 333.586 278.081 328.884 285.472C324.182 292.863 322.684 300.63 324.473 305.777L320.526 303.266C318.253 301.817 317.125 298.788 317.35 294.732V294.732Z" fill="#38421E"/>
<path d="M400.452 162.951L409.31 168.588L409.329 168.557C410.556 169.224 411.933 169.569 413.329 169.557C415.67 169.479 417.955 168.826 419.983 167.657C424.49 165.043 428.27 161.342 430.978 156.891C437.294 146.964 437.845 136.349 432.378 132.345L432.4 132.31L431.978 132.042L423.542 126.675C417.627 122.914 407.928 127.931 401.454 138.104C398.569 142.442 396.817 147.434 396.359 152.623C396.082 157.431 397.542 161.099 400.452 162.951ZM429.29 155.817C426.767 159.981 423.242 163.447 419.036 165.899C415.457 167.822 412.236 168.084 409.962 166.636C405.162 163.581 405.897 153.466 411.572 144.548C416.106 137.422 422.672 132.828 427.572 132.828C428.744 132.802 429.898 133.115 430.897 133.728V133.728C435.7 136.785 434.963 146.899 429.29 155.817V155.817ZM398.349 152.732C398.788 147.884 400.433 143.224 403.134 139.175C408.808 130.259 417.655 125.303 422.462 128.36L426.409 130.872C420.987 131.431 414.587 136.081 409.884 143.472C405.181 150.863 403.684 158.63 405.473 163.777L401.525 161.266C399.252 159.817 398.124 156.788 398.349 152.732V152.732Z" fill="#38421E"/>
<path d="M297.213 146.999C309.268 146.999 318.713 141.508 318.713 134.499V123.999H318.671C318.23 117.233 308.977 111.999 297.213 111.999C285.449 111.999 276.195 117.233 275.755 123.999H275.713V134.499C275.713 141.505 285.157 146.999 297.213 146.999ZM297.213 113.999C307.783 113.999 316.713 118.808 316.713 124.499C316.713 130.19 307.783 134.999 297.213 134.999C286.643 134.999 277.713 130.191 277.713 124.499C277.713 118.807 286.642 113.999 297.213 113.999ZM277.713 129.821C281.094 134.094 288.454 136.999 297.213 136.999C305.972 136.999 313.331 134.099 316.713 129.821V134.499C316.713 140.191 307.783 144.999 297.213 144.999C286.643 144.999 277.713 140.191 277.713 134.499V129.821Z" fill="#38421E"/>
<path d="M379.213 99.999C391.268 99.999 400.713 94.508 400.713 87.499V76.999H400.671C400.23 70.233 390.977 64.999 379.213 64.999C367.449 64.999 358.195 70.233 357.755 76.999H357.713V87.499C357.713 94.505 367.157 99.999 379.213 99.999ZM379.213 66.999C389.783 66.999 398.713 71.808 398.713 77.499C398.713 83.19 389.783 87.999 379.213 87.999C368.643 87.999 359.713 83.191 359.713 77.499C359.713 71.807 368.642 66.999 379.213 66.999ZM359.713 82.821C363.094 87.094 370.454 89.999 379.213 89.999C387.972 89.999 395.331 87.099 398.713 82.821V87.499C398.713 93.191 389.783 97.999 379.213 97.999C368.643 97.999 359.713 93.191 359.713 87.499V82.821Z" fill="#38421E"/>
<path d="M297.213 98.999C309.268 98.999 318.713 93.508 318.713 86.499C318.713 79.49 309.268 73.999 297.213 73.999C285.158 73.999 275.713 79.49 275.713 86.499C275.713 93.508 285.157 98.999 297.213 98.999ZM297.213 96.999C289.597 96.999 282.853 94.499 279.666 90.973C282.949 87.322 289.697 84.999 297.213 84.999C304.647 84.999 311.466 87.339 314.754 90.978C311.566 94.499 304.824 96.999 297.213 96.999ZM297.213 75.999C307.783 75.999 316.713 80.808 316.713 86.499C316.697 87.4889 316.434 88.4591 315.947 89.321C312.164 85.405 305.1 82.999 297.213 82.999C289.371 82.999 282.238 85.448 278.48 89.325C277.992 88.462 277.728 87.4903 277.713 86.499C277.713 80.805 286.642 75.999 297.213 75.999Z" fill="#38421E"/>
<path d="M188.383 166.467C189.681 166.478 190.962 166.175 192.117 165.582C198.339 162.355 198.864 151.443 193.317 140.741C191.013 136.069 187.575 132.049 183.317 129.048C179.292 126.405 175.388 125.824 172.325 127.411C169.263 128.999 167.489 132.525 167.331 137.34C167.332 142.55 168.638 147.677 171.131 152.252C175.636 160.966 182.59 166.467 188.383 166.467ZM191.538 141.667C195.045 148.428 195.929 155.567 194.268 160.017C189.516 158.785 184.346 153.864 180.886 147.192C177.454 140.575 176.393 133.422 178.131 128.829C179.585 129.237 180.964 129.879 182.213 130.729C186.183 133.539 189.387 137.298 191.533 141.662L191.538 141.667ZM173.238 129.191C174.1 128.752 175.056 128.529 176.024 128.54C176.051 128.54 176.079 128.54 176.105 128.54C174.358 133.702 175.471 141.095 179.105 148.109C182.717 155.071 188.175 160.275 193.346 161.825C192.804 162.656 192.064 163.337 191.191 163.808C186.141 166.424 177.758 160.715 172.891 151.332C170.557 147.061 169.329 142.274 169.319 137.406C169.452 133.345 170.842 130.426 173.234 129.186L173.238 129.191Z" fill="#38421E"/>
<path d="M264.305 270.048C260.28 267.405 256.376 266.823 253.313 268.411C250.251 269.999 248.477 273.525 248.319 278.34C248.319 283.55 249.626 288.677 252.119 293.252C256.639 301.966 263.593 307.467 269.381 307.467C270.679 307.478 271.96 307.175 273.115 306.582C279.337 303.355 279.862 292.443 274.315 281.741C272.008 277.068 268.567 273.048 264.305 270.048V270.048ZM272.191 304.807C267.141 307.424 258.757 301.714 253.891 292.331C251.557 288.06 250.329 283.273 250.319 278.405C250.452 274.345 251.842 271.426 254.234 270.186C255.096 269.747 256.052 269.524 257.02 269.535C257.047 269.535 257.075 269.535 257.101 269.535C255.354 274.697 256.467 282.09 260.101 289.104C263.713 296.066 269.171 301.27 274.342 302.82C273.802 303.652 273.063 304.335 272.191 304.807V304.807ZM275.263 301.007C270.511 299.775 265.341 294.854 261.881 288.182C258.449 281.565 257.388 274.412 259.126 269.819C260.58 270.227 261.959 270.869 263.208 271.719C267.181 274.531 270.386 278.293 272.533 282.661C276.04 289.423 276.924 296.561 275.263 301.012V301.007Z" fill="#38421E"/>
<path d="M319.798 211.717C321.125 212.534 322.658 212.956 324.217 212.933C329.86 212.933 336.823 208.087 341.805 200.133C344.659 195.775 346.376 190.771 346.798 185.578C347.03 180.766 345.548 177.108 342.626 175.278C339.704 173.448 335.766 173.711 331.537 176.02C327.049 178.666 323.295 182.394 320.619 186.864C317.764 191.222 316.048 196.227 315.627 201.419C315.394 206.227 316.876 209.885 319.798 211.717ZM344.798 185.48C344.394 190.331 342.782 195.003 340.109 199.07C334.5 208.027 325.684 213.045 320.86 210.022C320.024 209.485 319.334 208.749 318.852 207.879C324.185 206.761 329.985 202.048 334.177 195.354C338.345 188.702 340.055 181.347 338.757 176.104C339.748 176.157 340.71 176.455 341.557 176.971C343.847 178.399 344.996 181.423 344.799 185.48H344.798ZM317.624 201.512C318.028 196.662 319.64 191.99 322.313 187.922C324.807 183.742 328.307 180.253 332.495 177.773C333.81 177.028 335.239 176.503 336.724 176.22C338.092 180.941 336.481 187.909 332.482 194.293C328.528 200.605 322.912 205.148 318.076 205.993C317.682 204.534 317.529 203.02 317.625 201.512H317.624Z" fill="#38421E"/>
<path d="M424.626 221.275C421.703 219.446 417.766 219.709 413.537 222.017C409.049 224.663 405.295 228.391 402.619 232.861C399.765 237.219 398.049 242.223 397.627 247.416C397.394 252.227 398.876 255.885 401.798 257.716C403.126 258.533 404.659 258.955 406.217 258.932C411.86 258.932 418.823 254.085 423.805 246.132C426.66 241.774 428.376 236.77 428.798 231.577C429.03 226.765 427.548 223.107 424.626 221.275ZM399.626 247.512C400.031 242.662 401.643 237.99 404.315 233.922C406.809 229.742 410.309 226.253 414.497 223.773C415.813 223.028 417.241 222.503 418.726 222.22C420.094 226.941 418.483 233.909 414.484 240.293C410.53 246.605 404.914 251.148 400.078 251.993C399.684 250.534 399.531 249.02 399.625 247.512H399.626ZM426.8 231.48C426.396 236.33 424.784 241.003 422.111 245.07C416.501 254.027 407.684 259.045 402.862 256.022C402.026 255.485 401.336 254.748 400.854 253.879C406.187 252.761 411.987 248.048 416.179 241.354C420.347 234.702 422.057 227.347 420.759 222.104C421.75 222.157 422.712 222.455 423.559 222.971C425.847 224.399 426.996 227.423 426.799 231.48H426.8Z" fill="#38421E"/>
<path d="M149 88.5L299 170.5M299 170.5V346M299 170.5L447 88.5" stroke="#38421E" stroke-width="2"/>
</g>
</svg>
