<svg width="545" height="605" viewBox="0 0 545 605" fill="none" xmlns="http://www.w3.org/2000/svg">
<g opacity="0.8">
<path d="M394.5 259L543.456 345V517L394.5 603L245.544 517V345L394.5 259Z" fill="#1F1D1D" stroke="#333333" stroke-width="2"/>
<path d="M393.213 309.999C405.268 309.999 414.713 304.508 414.713 297.499V286.999H414.671C414.23 280.233 404.977 274.999 393.213 274.999C381.449 274.999 372.195 280.233 371.755 286.999H371.713V297.499C371.713 304.505 381.157 309.999 393.213 309.999ZM393.213 276.999C403.783 276.999 412.713 281.808 412.713 287.499C412.713 293.19 403.783 297.999 393.213 297.999C382.643 297.999 373.713 293.191 373.713 287.499C373.713 281.807 382.642 276.999 393.213 276.999ZM373.713 292.821C377.094 297.094 384.454 299.999 393.213 299.999C401.972 299.999 409.331 297.099 412.713 292.821V297.499C412.713 303.191 403.783 307.999 393.213 307.999C382.643 307.999 373.713 303.191 373.713 297.499V292.821Z" fill="#333333"/>
<path d="M312.213 356.999C324.268 356.999 333.713 351.508 333.713 344.499V333.999H333.671C333.23 327.233 323.977 321.999 312.213 321.999C300.449 321.999 291.195 327.233 290.755 333.999H290.713V344.499C290.713 351.505 300.157 356.999 312.213 356.999ZM312.213 323.999C322.783 323.999 331.713 328.808 331.713 334.499C331.713 340.19 322.783 344.999 312.213 344.999C301.643 344.999 292.713 340.191 292.713 334.499C292.713 328.807 301.642 323.999 312.213 323.999ZM312.213 346.999C320.971 346.999 328.331 344.099 331.713 339.821V344.499C331.713 350.191 322.783 354.999 312.213 354.999C301.643 354.999 292.713 350.191 292.713 344.499V339.821C296.094 344.091 303.454 346.999 312.213 346.999Z" fill="#333333"/>
<path d="M259.609 506.423C264.076 515.214 271.026 520.783 276.828 520.783C277.93 520.786 279.021 520.563 280.033 520.128L280.047 520.155L280.484 519.933H280.493H280.499L289.408 515.406C295.656 512.232 296.273 501.325 290.808 490.576C285.343 479.827 276.172 473.896 269.925 477.076L261.012 481.604L260.568 481.829L260.587 481.866C254.756 485.315 254.282 495.934 259.609 506.423ZM270.837 478.847C275.906 476.268 284.237 482.052 289.03 491.476C293.823 500.9 293.576 511.038 288.502 513.616L284.331 515.735C286.609 510.785 285.865 502.907 281.898 495.099C277.931 487.291 272.008 482.045 266.667 480.965L270.837 478.847ZM261.919 483.378C266.988 480.805 275.318 486.584 280.11 496.007C284.902 505.43 284.656 515.562 279.587 518.145L279.576 518.15C274.504 520.721 266.176 514.939 261.387 505.519C256.598 496.099 256.847 485.958 261.919 483.378Z" fill="#333333"/>
<path d="M357.829 474.783C358.931 474.786 360.021 474.563 361.034 474.128L361.048 474.155L361.485 473.933H361.494H361.5L370.409 469.406C376.657 466.232 377.274 455.325 371.809 444.576C366.344 433.827 357.175 427.897 350.926 431.076L342.013 435.604L341.569 435.829L341.588 435.866C335.756 439.324 335.281 449.943 340.609 460.432C345.077 469.214 352.027 474.783 357.829 474.783ZM351.838 432.847C356.91 430.267 365.243 436.052 370.031 445.476C374.819 454.9 374.577 465.038 369.503 467.616L365.332 469.735C367.61 464.785 366.866 456.907 362.899 449.099C358.932 441.291 353.008 436.046 347.668 434.965L351.838 432.847ZM342.919 437.378C347.989 434.804 356.319 440.584 361.111 450.007C365.903 459.43 365.657 469.562 360.588 472.145H360.577C355.502 474.716 347.177 468.933 342.388 459.514C337.599 450.095 337.847 439.958 342.919 437.378Z" fill="#333333"/>
<path d="M415.452 561.951L424.31 567.588L424.329 567.557C425.556 568.224 426.933 568.568 428.329 568.557C430.67 568.479 432.955 567.826 434.983 566.657C439.49 564.043 443.27 560.342 445.978 555.891C452.294 545.964 452.845 535.349 447.378 531.345L447.4 531.31L446.978 531.042L438.542 525.675C432.627 521.915 422.928 526.932 416.454 537.104C413.569 541.442 411.817 546.433 411.359 551.623C411.082 556.431 412.542 560.099 415.452 561.951ZM444.29 554.817C441.767 558.981 438.242 562.447 434.036 564.899C430.457 566.821 427.236 567.083 424.962 565.636C420.162 562.581 420.897 552.465 426.572 543.548C431.106 536.422 437.672 531.828 442.572 531.828C443.744 531.802 444.898 532.115 445.897 532.728C450.7 535.785 449.963 545.899 444.29 554.817ZM413.349 551.732C413.788 546.884 415.433 542.224 418.134 538.175C423.808 529.259 432.657 524.303 437.462 527.36L441.41 529.872C435.988 530.431 429.586 535.081 424.884 542.472C420.182 549.863 418.684 557.63 420.473 562.777L416.525 560.266C414.252 558.817 413.124 555.788 413.349 551.732Z" fill="#333333"/>
<path d="M496.452 419.951L505.31 425.588L505.329 425.557C506.556 426.224 507.933 426.569 509.329 426.557C511.67 426.479 513.955 425.826 515.983 424.657C520.49 422.043 524.27 418.342 526.978 413.891C533.294 403.964 533.845 393.349 528.378 389.345L528.4 389.31L527.978 389.042L519.542 383.675C513.627 379.914 503.928 384.931 497.454 395.104C494.569 399.442 492.817 404.434 492.359 409.623C492.082 414.431 493.542 418.099 496.452 419.951ZM525.29 412.817C522.767 416.981 519.242 420.447 515.036 422.899C511.457 424.822 508.236 425.084 505.962 423.636C501.162 420.581 501.897 410.466 507.572 401.548C512.106 394.422 518.672 389.828 523.572 389.828C524.744 389.802 525.898 390.115 526.897 390.728C531.7 393.785 530.963 403.899 525.29 412.817ZM494.349 409.732C494.788 404.884 496.433 400.224 499.134 396.175C504.808 387.259 513.655 382.303 518.462 385.36L522.409 387.872C516.987 388.431 510.587 393.081 505.884 400.472C501.181 407.863 499.684 415.63 501.473 420.777L497.525 418.266C495.252 416.817 494.124 413.788 494.349 409.732Z" fill="#333333"/>
<path d="M393.213 403.999C405.268 403.999 414.713 398.508 414.713 391.499V380.999H414.671C414.23 374.233 404.977 368.999 393.213 368.999C381.449 368.999 372.195 374.233 371.755 380.999H371.713V391.499C371.713 398.505 381.157 403.999 393.213 403.999ZM393.213 370.999C403.783 370.999 412.713 375.808 412.713 381.499C412.713 387.19 403.783 391.999 393.213 391.999C382.643 391.999 373.713 387.191 373.713 381.499C373.713 375.807 382.642 370.999 393.213 370.999ZM373.713 386.821C377.094 391.094 384.454 393.999 393.213 393.999C401.972 393.999 409.331 391.099 412.713 386.821V391.499C412.713 397.191 403.783 401.999 393.213 401.999C382.643 401.999 373.713 397.191 373.713 391.499V386.821Z" fill="#333333"/>
<path d="M475.213 356.999C487.268 356.999 496.713 351.508 496.713 344.499V333.999H496.671C496.23 327.233 486.977 321.999 475.213 321.999C463.449 321.999 454.195 327.233 453.755 333.999H453.713V344.499C453.713 351.505 463.157 356.999 475.213 356.999ZM475.213 323.999C485.783 323.999 494.713 328.808 494.713 334.499C494.713 340.19 485.783 344.999 475.213 344.999C464.643 344.999 455.713 340.191 455.713 334.499C455.713 328.807 464.642 323.999 475.213 323.999ZM455.713 339.821C459.094 344.094 466.454 346.999 475.213 346.999C483.972 346.999 491.331 344.099 494.713 339.821V344.499C494.713 350.191 485.783 354.999 475.213 354.999C464.643 354.999 455.713 350.191 455.713 344.499V339.821Z" fill="#333333"/>
<path d="M393.213 355.999C405.268 355.999 414.713 350.508 414.713 343.499C414.713 336.49 405.268 330.999 393.213 330.999C381.158 330.999 371.713 336.49 371.713 343.499C371.713 350.508 381.157 355.999 393.213 355.999ZM393.213 353.999C385.597 353.999 378.853 351.499 375.666 347.973C378.949 344.322 385.697 341.999 393.213 341.999C400.647 341.999 407.466 344.339 410.754 347.978C407.566 351.499 400.824 353.999 393.213 353.999ZM393.213 332.999C403.783 332.999 412.713 337.808 412.713 343.499C412.697 344.489 412.434 345.459 411.947 346.321C408.164 342.405 401.1 339.999 393.213 339.999C385.371 339.999 378.238 342.448 374.48 346.325C373.992 345.462 373.728 344.49 373.713 343.499C373.713 337.805 382.642 332.999 393.213 332.999Z" fill="#333333"/>
<path d="M284.382 423.467C285.68 423.478 286.961 423.174 288.116 422.582C294.338 419.355 294.863 408.443 289.316 397.741C287.012 393.069 283.574 389.049 279.316 386.048C275.291 383.405 271.387 382.824 268.324 384.411C265.262 385.999 263.488 389.525 263.33 394.34C263.331 399.55 264.637 404.677 267.13 409.252C271.635 417.966 278.589 423.467 284.382 423.467ZM287.537 398.667C291.044 405.428 291.928 412.567 290.267 417.017C285.515 415.785 280.345 410.864 276.885 404.192C273.453 397.575 272.392 390.422 274.13 385.829C275.585 386.237 276.963 386.879 278.212 387.729C282.182 390.539 285.386 394.297 287.532 398.662L287.537 398.667ZM269.237 386.191C270.099 385.752 271.055 385.529 272.023 385.54C272.05 385.54 272.078 385.54 272.104 385.54C270.357 390.702 271.47 398.095 275.104 405.109C278.716 412.071 284.174 417.275 289.345 418.825C288.803 419.655 288.063 420.337 287.19 420.808C282.14 423.424 273.757 417.715 268.89 408.332C266.556 404.061 265.328 399.273 265.318 394.406C265.451 390.345 266.841 387.426 269.233 386.186L269.237 386.191Z" fill="#333333"/>
<path d="M360.304 527.048C356.279 524.405 352.375 523.823 349.312 525.411C346.25 526.999 344.476 530.525 344.318 535.34C344.319 540.55 345.625 545.677 348.118 550.252C352.638 558.966 359.592 564.467 365.38 564.467C366.678 564.478 367.96 564.175 369.114 563.582C375.336 560.355 375.861 549.443 370.314 538.741C368.008 534.068 364.566 530.048 360.304 527.048ZM368.19 561.807C363.14 564.424 354.756 558.714 349.89 549.331C347.556 545.06 346.328 540.272 346.318 535.405C346.451 531.345 347.841 528.426 350.233 527.186C351.096 526.747 352.052 526.524 353.019 526.535C353.046 526.535 353.074 526.535 353.1 526.535C351.353 531.697 352.466 539.09 356.1 546.104C359.712 553.066 365.17 558.27 370.341 559.82C369.801 560.652 369.062 561.335 368.19 561.807ZM371.262 558.007C366.51 556.775 361.34 551.854 357.88 545.182C354.448 538.565 353.387 531.412 355.125 526.819C356.58 527.227 357.959 527.869 359.207 528.719C363.18 531.531 366.386 535.293 368.532 539.661C372.039 546.423 372.923 553.561 371.262 558.012V558.007Z" fill="#333333"/>
<path d="M415.797 468.717C417.125 469.534 418.658 469.956 420.216 469.933C425.859 469.933 432.822 465.087 437.804 457.133C440.659 452.775 442.375 447.771 442.797 442.578C443.029 437.766 441.547 434.108 438.625 432.278C435.703 430.448 431.765 430.711 427.536 433.02C423.048 435.666 419.294 439.394 416.618 443.864C413.764 448.222 412.048 453.226 411.626 458.419C411.393 463.227 412.875 466.885 415.797 468.717ZM440.797 442.48C440.393 447.33 438.781 452.002 436.108 456.07C430.499 465.027 421.683 470.045 416.859 467.022C416.023 466.485 415.333 465.748 414.851 464.879C420.184 463.761 425.984 459.048 430.176 452.354C434.344 445.702 436.054 438.347 434.756 433.104C435.747 433.157 436.709 433.455 437.556 433.971C439.846 435.399 440.995 438.423 440.798 442.48H440.797ZM413.623 458.512C414.028 453.662 415.64 448.99 418.312 444.922C420.806 440.742 424.307 437.253 428.494 434.773C429.81 434.028 431.238 433.503 432.723 433.22C434.091 437.941 432.48 444.909 428.481 451.293C424.527 457.605 418.911 462.148 414.075 462.993C413.681 461.534 413.529 460.02 413.624 458.512H413.623Z" fill="#333333"/>
<path d="M520.625 478.275C517.702 476.446 513.765 476.709 509.536 479.017C505.048 481.663 501.294 485.391 498.618 489.861C495.764 494.219 494.048 499.223 493.626 504.416C493.393 509.227 494.875 512.885 497.797 514.716C499.125 515.533 500.658 515.955 502.216 515.932C507.859 515.932 514.822 511.085 519.804 503.132C522.659 498.774 524.375 493.77 524.797 488.577C525.029 483.765 523.547 480.107 520.625 478.275ZM495.625 504.512C496.03 499.662 497.642 494.99 500.314 490.922C502.808 486.742 506.308 483.253 510.496 480.773C511.812 480.028 513.24 479.503 514.725 479.22C516.093 483.941 514.482 490.909 510.483 497.293C506.529 503.605 500.913 508.148 496.077 508.993C495.683 507.534 495.53 506.02 495.624 504.512H495.625ZM522.799 488.48C522.396 493.33 520.783 498.003 518.11 502.07C512.5 511.027 503.683 516.045 498.861 513.022C498.025 512.485 497.335 511.748 496.853 510.879C502.186 509.761 507.986 505.048 512.178 498.354C516.346 491.702 518.056 484.347 516.758 479.104C517.749 479.157 518.711 479.455 519.558 479.971C521.846 481.399 522.995 484.423 522.798 488.48H522.799Z" fill="#333333"/>
<path d="M245 345.5L395 427.5M395 427.5V603M395 427.5L543 345.5" stroke="#333333" stroke-width="2"/>
</g>
<g opacity="0.8">
<path d="M98.5 259L247.456 345V517L98.5 603L-50.4564 517V345L98.5 259Z" fill="#1F1D1D" stroke="#333333" stroke-width="2"/>
<path d="M97.2129 309.999C109.268 309.999 118.713 304.508 118.713 297.499V286.999H118.671C118.23 280.233 108.977 274.999 97.2129 274.999C85.4489 274.999 76.1949 280.233 75.7549 286.999H75.7129V297.499C75.7129 304.505 85.1569 309.999 97.2129 309.999ZM97.2129 276.999C107.783 276.999 116.713 281.808 116.713 287.499C116.713 293.19 107.783 297.999 97.2129 297.999C86.6429 297.999 77.7129 293.191 77.7129 287.499C77.7129 281.807 86.6419 276.999 97.2129 276.999ZM77.7129 292.821C81.0939 297.094 88.4539 299.999 97.2129 299.999C105.972 299.999 113.331 297.099 116.713 292.821V297.499C116.713 303.191 107.783 307.999 97.2129 307.999C86.6429 307.999 77.7129 303.191 77.7129 297.499V292.821Z" fill="#333333"/>
<path d="M16.2129 356.999C28.2679 356.999 37.7129 351.508 37.7129 344.499V333.999H37.6709C37.2299 327.233 27.9769 321.999 16.2129 321.999C4.44889 321.999 -4.80512 327.233 -5.24512 333.999H-5.28711V344.499C-5.28711 351.505 4.15689 356.999 16.2129 356.999ZM16.2129 323.999C26.7829 323.999 35.7129 328.808 35.7129 334.499C35.7129 340.19 26.7829 344.999 16.2129 344.999C5.64289 344.999 -3.28711 340.191 -3.28711 334.499C-3.28711 328.807 5.64189 323.999 16.2129 323.999ZM16.2129 346.999C24.9709 346.999 32.3309 344.099 35.7129 339.821V344.499C35.7129 350.191 26.7829 354.999 16.2129 354.999C5.64289 354.999 -3.28711 350.191 -3.28711 344.499V339.821C0.0938907 344.091 7.45389 346.999 16.2129 346.999Z" fill="#333333"/>
<path d="M-36.3901 506.423C-31.9231 515.214 -24.9731 520.783 -19.1711 520.783C-18.0693 520.786 -16.9784 520.563 -15.966 520.128L-15.9521 520.155L-15.5151 519.933H-15.5061H-15.5001L-6.59102 515.406C-0.343018 512.232 0.273884 501.325 -5.19112 490.576C-10.6561 479.827 -19.8271 473.896 -26.0741 477.076L-34.987 481.604L-35.4311 481.829L-35.4121 481.866C-41.2431 485.315 -41.7171 495.934 -36.3901 506.423ZM-25.1621 478.847C-20.0931 476.268 -11.7621 482.052 -6.96907 491.476C-2.17607 500.9 -2.42302 511.038 -7.49702 513.616L-11.668 515.735C-9.39005 510.785 -10.134 502.907 -14.101 495.099C-18.068 487.291 -23.9911 482.045 -29.3321 480.965L-25.1621 478.847ZM-34.081 483.378C-29.012 480.805 -20.6811 486.584 -15.8891 496.007C-11.0971 505.43 -11.3431 515.562 -16.4121 518.145L-16.423 518.15C-21.4951 520.721 -29.823 514.939 -34.612 505.519C-39.401 496.099 -39.153 485.958 -34.081 483.378Z" fill="#333333"/>
<path d="M61.8287 474.783C62.9306 474.786 64.0214 474.563 65.0338 474.128L65.0477 474.155L65.4847 473.933H65.4938H65.4997L74.4088 469.406C80.6568 466.232 81.2737 455.325 75.8087 444.576C70.3437 433.827 61.1748 427.897 54.9258 431.076L46.0128 435.604L45.5687 435.829L45.5878 435.866C39.7558 439.324 39.2808 449.943 44.6088 460.432C49.0767 469.214 56.0267 474.783 61.8287 474.783ZM55.8378 432.847C60.9098 430.267 69.2427 436.052 74.0307 445.476C78.8187 454.9 78.5768 465.038 73.5028 467.616L69.3318 469.735C71.6098 464.785 70.8658 456.907 66.8988 449.099C62.9318 441.291 57.0077 436.046 51.6677 434.965L55.8378 432.847ZM46.9188 437.378C51.9888 434.804 60.3187 440.584 65.1107 450.007C69.9027 459.43 69.6568 469.562 64.5878 472.145H64.5768C59.5018 474.716 51.1768 468.933 46.3878 459.514C41.5988 450.095 41.8468 439.958 46.9188 437.378Z" fill="#333333"/>
<path d="M119.452 561.951L128.31 567.588L128.329 567.557C129.556 568.224 130.933 568.568 132.329 568.557C134.67 568.479 136.955 567.826 138.983 566.657C143.49 564.043 147.27 560.342 149.978 555.891C156.294 545.964 156.845 535.349 151.378 531.345L151.4 531.31L150.978 531.042L142.542 525.675C136.627 521.915 126.928 526.932 120.454 537.104C117.569 541.442 115.817 546.433 115.359 551.623C115.082 556.431 116.542 560.099 119.452 561.951ZM148.29 554.817C145.767 558.981 142.242 562.447 138.036 564.899C134.457 566.821 131.236 567.083 128.962 565.636C124.162 562.581 124.897 552.465 130.572 543.548C135.106 536.422 141.672 531.828 146.572 531.828C147.744 531.802 148.898 532.115 149.897 532.728C154.7 535.785 153.963 545.899 148.29 554.817ZM117.349 551.732C117.788 546.884 119.433 542.224 122.134 538.175C127.808 529.259 136.657 524.303 141.462 527.36L145.41 529.872C139.988 530.431 133.586 535.081 128.884 542.472C124.182 549.863 122.684 557.63 124.473 562.777L120.525 560.266C118.252 558.817 117.124 555.788 117.349 551.732Z" fill="#333333"/>
<path d="M200.452 419.951L209.31 425.588L209.329 425.557C210.556 426.224 211.933 426.569 213.329 426.557C215.67 426.479 217.955 425.826 219.983 424.657C224.49 422.043 228.27 418.342 230.978 413.891C237.294 403.964 237.845 393.349 232.378 389.345L232.4 389.31L231.978 389.042L223.542 383.675C217.627 379.914 207.928 384.931 201.454 395.104C198.569 399.442 196.817 404.434 196.359 409.623C196.082 414.431 197.542 418.099 200.452 419.951ZM229.29 412.817C226.767 416.981 223.242 420.447 219.036 422.899C215.457 424.822 212.236 425.084 209.962 423.636C205.162 420.581 205.897 410.466 211.572 401.548C216.106 394.422 222.672 389.828 227.572 389.828C228.744 389.802 229.898 390.115 230.897 390.728C235.7 393.785 234.963 403.899 229.29 412.817ZM198.349 409.732C198.788 404.884 200.433 400.224 203.134 396.175C208.808 387.259 217.655 382.303 222.462 385.36L226.409 387.872C220.987 388.431 214.587 393.081 209.884 400.472C205.181 407.863 203.684 415.63 205.473 420.777L201.525 418.266C199.252 416.817 198.124 413.788 198.349 409.732Z" fill="#333333"/>
<path d="M97.2129 403.999C109.268 403.999 118.713 398.508 118.713 391.499V380.999H118.671C118.23 374.233 108.977 368.999 97.2129 368.999C85.4489 368.999 76.1949 374.233 75.7549 380.999H75.7129V391.499C75.7129 398.505 85.1569 403.999 97.2129 403.999ZM97.2129 370.999C107.783 370.999 116.713 375.808 116.713 381.499C116.713 387.19 107.783 391.999 97.2129 391.999C86.6429 391.999 77.7129 387.191 77.7129 381.499C77.7129 375.807 86.6419 370.999 97.2129 370.999ZM77.7129 386.821C81.0939 391.094 88.4539 393.999 97.2129 393.999C105.972 393.999 113.331 391.099 116.713 386.821V391.499C116.713 397.191 107.783 401.999 97.2129 401.999C86.6429 401.999 77.7129 397.191 77.7129 391.499V386.821Z" fill="#333333"/>
<path d="M179.213 356.999C191.268 356.999 200.713 351.508 200.713 344.499V333.999H200.671C200.23 327.233 190.977 321.999 179.213 321.999C167.449 321.999 158.195 327.233 157.755 333.999H157.713V344.499C157.713 351.505 167.157 356.999 179.213 356.999ZM179.213 323.999C189.783 323.999 198.713 328.808 198.713 334.499C198.713 340.19 189.783 344.999 179.213 344.999C168.643 344.999 159.713 340.191 159.713 334.499C159.713 328.807 168.642 323.999 179.213 323.999ZM159.713 339.821C163.094 344.094 170.454 346.999 179.213 346.999C187.972 346.999 195.331 344.099 198.713 339.821V344.499C198.713 350.191 189.783 354.999 179.213 354.999C168.643 354.999 159.713 350.191 159.713 344.499V339.821Z" fill="#333333"/>
<path d="M97.2129 355.999C109.268 355.999 118.713 350.508 118.713 343.499C118.713 336.49 109.268 330.999 97.2129 330.999C85.1579 330.999 75.7129 336.49 75.7129 343.499C75.7129 350.508 85.1569 355.999 97.2129 355.999ZM97.2129 353.999C89.5969 353.999 82.8529 351.499 79.6659 347.973C82.9489 344.322 89.6969 341.999 97.2129 341.999C104.647 341.999 111.466 344.339 114.754 347.978C111.566 351.499 104.824 353.999 97.2129 353.999ZM97.2129 332.999C107.783 332.999 116.713 337.808 116.713 343.499C116.697 344.489 116.434 345.459 115.947 346.321C112.164 342.405 105.1 339.999 97.2129 339.999C89.3709 339.999 82.2379 342.448 78.4799 346.325C77.9919 345.462 77.7282 344.49 77.7129 343.499C77.7129 337.805 86.6419 332.999 97.2129 332.999Z" fill="#333333"/>
<path d="M64.3049 527.048C60.2799 524.405 56.3759 523.823 53.3129 525.411C50.2509 526.999 48.4768 530.525 48.3188 535.34C48.3194 540.55 49.6259 545.677 52.1189 550.252C56.6389 558.966 63.5929 564.467 69.3809 564.467C70.6788 564.478 71.96 564.175 73.1149 563.582C79.3369 560.355 79.8619 549.443 74.3149 538.741C72.0082 534.068 68.5666 530.048 64.3049 527.048ZM72.1909 561.807C67.1409 564.424 58.7569 558.714 53.8909 549.331C51.5568 545.06 50.3288 540.272 50.3188 535.405C50.4518 531.345 51.8419 528.426 54.2339 527.186C55.0963 526.747 56.0523 526.524 57.0199 526.535C57.0469 526.535 57.0748 526.535 57.1008 526.535C55.3538 531.697 56.4668 539.09 60.1008 546.104C63.7128 553.066 69.1709 558.27 74.3419 559.82C73.802 560.652 73.0625 561.335 72.1909 561.807ZM75.2629 558.007C70.5109 556.775 65.3409 551.854 61.8809 545.182C58.4489 538.565 57.3879 531.412 59.1259 526.819C60.5804 527.227 61.959 527.869 63.2079 528.719C67.1807 531.531 70.3864 535.293 72.5328 539.661C76.0398 546.423 76.9239 553.561 75.2629 558.012V558.007Z" fill="#333333"/>
<path d="M119.798 468.717C121.126 469.534 122.659 469.956 124.217 469.933C129.86 469.933 136.823 465.087 141.805 457.133C144.66 452.775 146.376 447.771 146.798 442.578C147.03 437.766 145.548 434.108 142.626 432.278C139.704 430.448 135.766 430.711 131.537 433.02C127.049 435.666 123.295 439.394 120.619 443.864C117.765 448.222 116.049 453.226 115.627 458.419C115.394 463.227 116.876 466.885 119.798 468.717ZM144.798 442.48C144.394 447.33 142.782 452.002 140.109 456.07C134.5 465.027 125.684 470.045 120.86 467.022C120.024 466.485 119.334 465.748 118.852 464.879C124.185 463.761 129.985 459.048 134.177 452.354C138.345 445.702 140.055 438.347 138.757 433.104C139.748 433.157 140.71 433.455 141.557 433.971C143.847 435.399 144.996 438.423 144.799 442.48H144.798ZM117.624 458.512C118.029 453.662 119.641 448.99 122.313 444.922C124.807 440.742 128.307 437.253 132.495 434.773C133.811 434.028 135.239 433.503 136.724 433.22C138.092 437.941 136.481 444.909 132.482 451.293C128.528 457.605 122.912 462.148 118.076 462.993C117.682 461.534 117.53 460.02 117.625 458.512H117.624Z" fill="#333333"/>
<path d="M224.626 478.275C221.703 476.446 217.766 476.709 213.537 479.017C209.049 481.663 205.295 485.391 202.619 489.861C199.765 494.219 198.049 499.223 197.627 504.416C197.394 509.227 198.876 512.885 201.798 514.716C203.126 515.533 204.659 515.955 206.217 515.932C211.86 515.932 218.823 511.085 223.805 503.132C226.66 498.774 228.376 493.77 228.798 488.577C229.03 483.765 227.548 480.107 224.626 478.275ZM199.626 504.512C200.031 499.662 201.643 494.99 204.315 490.922C206.809 486.742 210.309 483.253 214.497 480.773C215.813 480.028 217.241 479.503 218.726 479.22C220.094 483.941 218.483 490.909 214.484 497.293C210.53 503.605 204.914 508.148 200.078 508.993C199.684 507.534 199.531 506.02 199.625 504.512H199.626ZM226.8 488.48C226.396 493.33 224.784 498.003 222.111 502.07C216.501 511.027 207.684 516.045 202.862 513.022C202.026 512.485 201.336 511.748 200.854 510.879C206.187 509.761 211.987 505.048 216.179 498.354C220.347 491.702 222.057 484.347 220.759 479.104C221.75 479.157 222.712 479.455 223.559 479.971C225.847 481.399 226.996 484.423 226.799 488.48H226.8Z" fill="#333333"/>
<path d="M-51 345.5L99 427.5M99 427.5V603M99 427.5L247 345.5" stroke="#333333" stroke-width="2"/>
</g>
<g opacity="0.8">
<path d="M246.5 2L395.456 88V260L246.5 346L97.5436 260V88L246.5 2Z" fill="#1F1D1D" stroke="#38421E" stroke-width="2"/>
<path d="M245.213 52.999C257.268 52.999 266.713 47.508 266.713 40.499V29.999H266.671C266.23 23.233 256.977 17.999 245.213 17.999C233.449 17.999 224.195 23.233 223.755 29.999H223.713V40.499C223.713 47.505 233.157 52.999 245.213 52.999ZM245.213 19.999C255.783 19.999 264.713 24.808 264.713 30.499C264.713 36.19 255.783 40.999 245.213 40.999C234.643 40.999 225.713 36.191 225.713 30.499C225.713 24.807 234.642 19.999 245.213 19.999ZM225.713 35.821C229.094 40.094 236.454 42.999 245.213 42.999C253.972 42.999 261.331 40.099 264.713 35.821V40.499C264.713 46.191 255.783 50.999 245.213 50.999C234.643 50.999 225.713 46.191 225.713 40.499V35.821Z" fill="#38421E"/>
<path d="M164.213 99.999C176.268 99.999 185.713 94.508 185.713 87.499V76.999H185.671C185.23 70.233 175.977 64.999 164.213 64.999C152.449 64.999 143.195 70.233 142.755 76.999H142.713V87.499C142.713 94.505 152.157 99.999 164.213 99.999ZM164.213 66.999C174.783 66.999 183.713 71.808 183.713 77.499C183.713 83.19 174.783 87.999 164.213 87.999C153.643 87.999 144.713 83.191 144.713 77.499C144.713 71.807 153.642 66.999 164.213 66.999ZM164.213 89.999C172.971 89.999 180.331 87.099 183.713 82.821V87.499C183.713 93.191 174.783 97.999 164.213 97.999C153.643 97.999 144.713 93.191 144.713 87.499V82.821C148.094 87.091 155.454 89.999 164.213 89.999Z" fill="#38421E"/>
<path d="M111.609 249.423C116.076 258.214 123.026 263.783 128.828 263.783C129.93 263.786 131.021 263.563 132.033 263.128L132.047 263.155L132.484 262.933H132.493H132.499L141.408 258.406C147.656 255.232 148.273 244.325 142.808 233.576C137.343 222.827 128.172 216.896 121.925 220.076L113.012 224.604L112.568 224.829L112.587 224.866C106.756 228.315 106.282 238.934 111.609 249.423ZM122.837 221.847C127.906 219.268 136.237 225.052 141.03 234.476C145.823 243.9 145.576 254.038 140.502 256.616L136.331 258.735C138.609 253.785 137.865 245.907 133.898 238.099C129.931 230.291 124.008 225.045 118.667 223.965L122.837 221.847ZM113.919 226.378C118.988 223.805 127.318 229.584 132.11 239.007C136.902 248.43 136.656 258.562 131.587 261.145L131.576 261.15C126.504 263.721 118.176 257.939 113.387 248.519C108.598 239.099 108.847 228.958 113.919 226.378Z" fill="#38421E"/>
<path d="M209.829 217.783C210.931 217.786 212.021 217.563 213.034 217.128L213.048 217.155L213.485 216.933H213.494H213.5L222.409 212.406C228.657 209.232 229.274 198.325 223.809 187.576C218.344 176.827 209.175 170.897 202.926 174.076L194.013 178.604L193.569 178.829L193.588 178.866C187.756 182.324 187.281 192.943 192.609 203.432C197.077 212.214 204.027 217.783 209.829 217.783ZM203.838 175.847C208.91 173.267 217.243 179.052 222.031 188.476C226.819 197.9 226.577 208.038 221.503 210.616L217.332 212.735C219.61 207.785 218.866 199.907 214.899 192.099C210.932 184.291 205.008 179.046 199.668 177.965L203.838 175.847ZM194.919 180.378C199.989 177.804 208.319 183.584 213.111 193.007C217.903 202.43 217.657 212.562 212.588 215.145H212.577C207.502 217.716 199.177 211.933 194.388 202.514C189.599 193.095 189.847 182.958 194.919 180.378Z" fill="#38421E"/>
<path d="M267.452 304.951L276.31 310.588L276.329 310.557C277.556 311.224 278.933 311.568 280.329 311.557C282.67 311.479 284.955 310.826 286.983 309.657C291.49 307.043 295.27 303.342 297.978 298.891C304.294 288.964 304.845 278.349 299.378 274.345L299.4 274.31L298.978 274.042L290.542 268.675C284.627 264.915 274.928 269.932 268.454 280.104C265.569 284.442 263.817 289.433 263.359 294.623C263.082 299.431 264.542 303.099 267.452 304.951ZM296.29 297.817C293.767 301.981 290.242 305.447 286.036 307.899C282.457 309.821 279.236 310.083 276.962 308.636C272.162 305.581 272.897 295.465 278.572 286.548C283.106 279.422 289.672 274.828 294.572 274.828C295.744 274.802 296.898 275.115 297.897 275.728C302.7 278.785 301.963 288.899 296.29 297.817ZM265.349 294.732C265.788 289.884 267.433 285.224 270.134 281.175C275.808 272.259 284.657 267.303 289.462 270.36L293.41 272.872C287.988 273.431 281.586 278.081 276.884 285.472C272.182 292.863 270.684 300.63 272.473 305.777L268.525 303.266C266.252 301.817 265.124 298.788 265.349 294.732Z" fill="#38421E"/>
<path d="M348.452 162.951L357.31 168.588L357.329 168.557C358.556 169.224 359.933 169.569 361.329 169.557C363.67 169.479 365.955 168.826 367.983 167.657C372.49 165.043 376.27 161.342 378.978 156.891C385.294 146.964 385.845 136.349 380.378 132.345L380.4 132.31L379.978 132.042L371.542 126.675C365.627 122.914 355.928 127.931 349.454 138.104C346.569 142.442 344.817 147.434 344.359 152.623C344.082 157.431 345.542 161.099 348.452 162.951ZM377.29 155.817C374.767 159.981 371.242 163.447 367.036 165.899C363.457 167.822 360.236 168.084 357.962 166.636C353.162 163.581 353.897 153.466 359.572 144.548C364.106 137.422 370.672 132.828 375.572 132.828C376.744 132.802 377.898 133.115 378.897 133.728C383.7 136.785 382.963 146.899 377.29 155.817ZM346.349 152.732C346.788 147.884 348.433 143.224 351.134 139.175C356.808 130.259 365.655 125.303 370.462 128.36L374.409 130.872C368.987 131.431 362.587 136.081 357.884 143.472C353.181 150.863 351.684 158.63 353.473 163.777L349.525 161.266C347.252 159.817 346.124 156.788 346.349 152.732Z" fill="#38421E"/>
<path d="M245.213 146.999C257.268 146.999 266.713 141.508 266.713 134.499V123.999H266.671C266.23 117.233 256.977 111.999 245.213 111.999C233.449 111.999 224.195 117.233 223.755 123.999H223.713V134.499C223.713 141.505 233.157 146.999 245.213 146.999ZM245.213 113.999C255.783 113.999 264.713 118.808 264.713 124.499C264.713 130.19 255.783 134.999 245.213 134.999C234.643 134.999 225.713 130.191 225.713 124.499C225.713 118.807 234.642 113.999 245.213 113.999ZM225.713 129.821C229.094 134.094 236.454 136.999 245.213 136.999C253.972 136.999 261.331 134.099 264.713 129.821V134.499C264.713 140.191 255.783 144.999 245.213 144.999C234.643 144.999 225.713 140.191 225.713 134.499V129.821Z" fill="#38421E"/>
<path d="M327.213 99.999C339.268 99.999 348.713 94.508 348.713 87.499V76.999H348.671C348.23 70.233 338.977 64.999 327.213 64.999C315.449 64.999 306.195 70.233 305.755 76.999H305.713V87.499C305.713 94.505 315.157 99.999 327.213 99.999ZM327.213 66.999C337.783 66.999 346.713 71.808 346.713 77.499C346.713 83.19 337.783 87.999 327.213 87.999C316.643 87.999 307.713 83.191 307.713 77.499C307.713 71.807 316.642 66.999 327.213 66.999ZM307.713 82.821C311.094 87.094 318.454 89.999 327.213 89.999C335.972 89.999 343.331 87.099 346.713 82.821V87.499C346.713 93.191 337.783 97.999 327.213 97.999C316.643 97.999 307.713 93.191 307.713 87.499V82.821Z" fill="#38421E"/>
<path d="M245.213 98.999C257.268 98.999 266.713 93.508 266.713 86.499C266.713 79.49 257.268 73.999 245.213 73.999C233.158 73.999 223.713 79.49 223.713 86.499C223.713 93.508 233.157 98.999 245.213 98.999ZM245.213 96.999C237.597 96.999 230.853 94.499 227.666 90.973C230.949 87.322 237.697 84.999 245.213 84.999C252.647 84.999 259.466 87.339 262.754 90.978C259.566 94.499 252.824 96.999 245.213 96.999ZM245.213 75.999C255.783 75.999 264.713 80.808 264.713 86.499C264.697 87.4889 264.434 88.4591 263.947 89.321C260.164 85.405 253.1 82.999 245.213 82.999C237.371 82.999 230.238 85.448 226.48 89.325C225.992 88.462 225.728 87.4903 225.713 86.499C225.713 80.805 234.642 75.999 245.213 75.999Z" fill="#38421E"/>
<path d="M136.382 166.467C137.68 166.478 138.961 166.174 140.116 165.582C146.338 162.355 146.863 151.443 141.316 140.741C139.012 136.069 135.574 132.049 131.316 129.048C127.291 126.405 123.387 125.824 120.324 127.411C117.262 128.999 115.488 132.525 115.33 137.34C115.331 142.55 116.637 147.677 119.13 152.252C123.635 160.966 130.589 166.467 136.382 166.467ZM139.537 141.667C143.044 148.428 143.928 155.567 142.267 160.017C137.515 158.785 132.345 153.864 128.885 147.192C125.453 140.575 124.392 133.422 126.13 128.829C127.585 129.237 128.963 129.879 130.212 130.729C134.182 133.539 137.386 137.297 139.532 141.662L139.537 141.667ZM121.237 129.191C122.099 128.752 123.055 128.529 124.023 128.54C124.05 128.54 124.078 128.54 124.104 128.54C122.357 133.702 123.47 141.095 127.104 148.109C130.716 155.071 136.174 160.275 141.345 161.825C140.803 162.655 140.063 163.337 139.19 163.808C134.14 166.424 125.757 160.715 120.89 151.332C118.556 147.061 117.328 142.273 117.318 137.406C117.451 133.345 118.841 130.426 121.233 129.186L121.237 129.191Z" fill="#38421E"/>
<path d="M212.304 270.048C208.279 267.405 204.375 266.823 201.312 268.411C198.25 269.999 196.476 273.525 196.318 278.34C196.319 283.55 197.625 288.677 200.118 293.252C204.638 301.966 211.592 307.467 217.38 307.467C218.678 307.478 219.96 307.175 221.114 306.582C227.336 303.355 227.861 292.443 222.314 281.741C220.008 277.068 216.566 273.048 212.304 270.048ZM220.19 304.807C215.14 307.424 206.756 301.714 201.89 292.331C199.556 288.06 198.328 283.272 198.318 278.405C198.451 274.345 199.841 271.426 202.233 270.186C203.096 269.747 204.052 269.524 205.019 269.535C205.046 269.535 205.074 269.535 205.1 269.535C203.353 274.697 204.466 282.09 208.1 289.104C211.712 296.066 217.17 301.27 222.341 302.82C221.801 303.652 221.062 304.335 220.19 304.807ZM223.262 301.007C218.51 299.775 213.34 294.854 209.88 288.182C206.448 281.565 205.387 274.412 207.125 269.819C208.58 270.227 209.959 270.869 211.207 271.719C215.18 274.531 218.386 278.293 220.532 282.661C224.039 289.423 224.923 296.561 223.262 301.012V301.007Z" fill="#38421E"/>
<path d="M267.797 211.717C269.125 212.534 270.658 212.956 272.216 212.933C277.859 212.933 284.822 208.087 289.804 200.133C292.659 195.775 294.375 190.771 294.797 185.578C295.029 180.766 293.547 177.108 290.625 175.278C287.703 173.448 283.765 173.711 279.536 176.02C275.048 178.666 271.294 182.394 268.618 186.864C265.764 191.222 264.048 196.226 263.626 201.419C263.393 206.227 264.875 209.885 267.797 211.717ZM292.797 185.48C292.393 190.33 290.781 195.002 288.108 199.07C282.499 208.027 273.683 213.045 268.859 210.022C268.023 209.485 267.333 208.748 266.851 207.879C272.184 206.761 277.984 202.048 282.176 195.354C286.344 188.702 288.054 181.347 286.756 176.104C287.747 176.157 288.709 176.455 289.556 176.971C291.846 178.399 292.995 181.423 292.798 185.48H292.797ZM265.623 201.512C266.028 196.662 267.64 191.99 270.312 187.922C272.806 183.742 276.307 180.253 280.494 177.773C281.81 177.028 283.238 176.503 284.723 176.22C286.091 180.941 284.48 187.909 280.481 194.293C276.527 200.605 270.911 205.148 266.075 205.993C265.681 204.534 265.529 203.02 265.624 201.512H265.623Z" fill="#38421E"/>
<path d="M372.625 221.275C369.702 219.446 365.765 219.709 361.536 222.017C357.048 224.663 353.294 228.391 350.618 232.861C347.764 237.219 346.048 242.223 345.626 247.416C345.393 252.227 346.875 255.885 349.797 257.716C351.125 258.533 352.658 258.955 354.216 258.932C359.859 258.932 366.822 254.085 371.804 246.132C374.659 241.774 376.375 236.77 376.797 231.577C377.029 226.765 375.547 223.107 372.625 221.275ZM347.625 247.512C348.03 242.662 349.642 237.99 352.314 233.922C354.808 229.742 358.308 226.253 362.496 223.773C363.812 223.028 365.24 222.503 366.725 222.22C368.093 226.941 366.482 233.909 362.483 240.293C358.529 246.605 352.913 251.148 348.077 251.993C347.683 250.534 347.53 249.02 347.624 247.512H347.625ZM374.799 231.48C374.396 236.33 372.783 241.003 370.11 245.07C364.5 254.027 355.683 259.045 350.861 256.022C350.025 255.485 349.335 254.748 348.853 253.879C354.186 252.761 359.986 248.048 364.178 241.354C368.346 234.702 370.056 227.347 368.758 222.104C369.749 222.157 370.711 222.455 371.558 222.971C373.846 224.399 374.995 227.423 374.798 231.48H374.799Z" fill="#38421E"/>
<path d="M97 88.5L247 170.5M247 170.5V346M247 170.5L395 88.5" stroke="#38421E" stroke-width="2"/>
</g>
</svg>
