<svg width="2010" height="1911" viewBox="0 0 2010 1911" fill="none" xmlns="http://www.w3.org/2000/svg">
<path d="M351.556 1181L450.303 1238.01V1352.03L351.556 1409.04L252.81 1352.03V1238.01L351.556 1181Z" fill="#1F1D1D" stroke="#333333" stroke-width="2"/>
<path d="M350.703 1214.81C358.694 1214.81 364.955 1211.17 364.955 1206.52V1199.56H364.927C364.635 1195.08 358.501 1191.61 350.703 1191.61C342.904 1191.61 336.769 1195.08 336.478 1199.56H336.45V1206.52C336.45 1211.17 342.71 1214.81 350.703 1214.81ZM350.703 1192.93C357.71 1192.93 363.629 1196.12 363.629 1199.89C363.629 1203.67 357.71 1206.85 350.703 1206.85C343.695 1206.85 337.776 1203.67 337.776 1199.89C337.776 1196.12 343.695 1192.93 350.703 1192.93ZM337.776 1203.42C340.017 1206.25 344.896 1208.18 350.703 1208.18C356.509 1208.18 361.387 1206.26 363.629 1203.42V1206.52C363.629 1210.3 357.71 1213.48 350.703 1213.48C343.695 1213.48 337.776 1210.3 337.776 1206.52V1203.42Z" fill="#333333"/>
<path d="M297.006 1245.97C304.997 1245.97 311.259 1242.33 311.259 1237.68V1230.72H311.231C310.938 1226.23 304.804 1222.76 297.006 1222.76C289.207 1222.76 283.072 1226.23 282.781 1230.72H282.753V1237.68C282.753 1242.32 289.014 1245.97 297.006 1245.97ZM297.006 1224.09C304.013 1224.09 309.933 1227.28 309.933 1231.05C309.933 1234.82 304.013 1238.01 297.006 1238.01C289.999 1238.01 284.079 1234.82 284.079 1231.05C284.079 1227.28 289.998 1224.09 297.006 1224.09ZM297.006 1239.34C302.812 1239.34 307.691 1237.41 309.933 1234.58V1237.68C309.933 1241.45 304.013 1244.64 297.006 1244.64C289.999 1244.64 284.079 1241.45 284.079 1237.68V1234.58C286.32 1237.41 291.199 1239.34 297.006 1239.34Z" fill="#333333"/>
<path d="M262.134 1345.02C265.096 1350.85 269.703 1354.54 273.549 1354.54C274.28 1354.54 275.003 1354.4 275.674 1354.11L275.683 1354.13L275.973 1353.98H275.979H275.983L281.889 1350.98C286.031 1348.87 286.44 1341.64 282.817 1334.52C279.194 1327.39 273.114 1323.46 268.973 1325.57L263.064 1328.57L262.77 1328.72L262.783 1328.74C258.917 1331.03 258.603 1338.07 262.134 1345.02ZM269.578 1326.74C272.938 1325.03 278.461 1328.87 281.638 1335.11C284.815 1341.36 284.652 1348.08 281.288 1349.79L278.523 1351.2C280.033 1347.91 279.54 1342.69 276.91 1337.52C274.28 1332.34 270.354 1328.86 266.813 1328.15L269.578 1326.74ZM263.665 1329.75C267.025 1328.04 272.548 1331.87 275.725 1338.12C278.901 1344.36 278.738 1351.08 275.378 1352.79L275.371 1352.8C272.008 1354.5 266.488 1350.67 263.313 1344.42C260.138 1338.18 260.303 1331.46 263.665 1329.75V1329.75Z" fill="#333333"/>
<path d="M327.246 1324.05C327.976 1324.05 328.699 1323.9 329.37 1323.61L329.38 1323.63L329.669 1323.48H329.675H329.679L335.585 1320.48C339.727 1318.38 340.136 1311.15 336.513 1304.02C332.89 1296.9 326.812 1292.97 322.67 1295.07L316.761 1298.07L316.467 1298.22L316.479 1298.25C312.613 1300.54 312.298 1307.58 315.83 1314.53C318.792 1320.36 323.399 1324.05 327.246 1324.05ZM323.274 1296.25C326.637 1294.54 332.161 1298.37 335.335 1304.62C338.509 1310.87 338.348 1317.59 334.985 1319.3L332.22 1320.7C333.73 1317.42 333.237 1312.2 330.607 1307.02C327.977 1301.84 324.05 1298.37 320.51 1297.65L323.274 1296.25ZM317.362 1299.25C320.723 1297.54 326.245 1301.38 329.421 1307.62C332.598 1313.87 332.435 1320.59 329.075 1322.3H329.067C325.703 1324 320.184 1320.17 317.01 1313.93C313.835 1307.68 313.999 1300.96 317.362 1299.25V1299.25Z" fill="#333333"/>
<path d="M365.445 1381.83L371.317 1385.57L371.331 1385.55C372.144 1385.99 373.056 1386.22 373.982 1386.21C375.534 1386.16 377.049 1385.73 378.393 1384.95C381.381 1383.22 383.887 1380.77 385.682 1377.82C389.869 1371.23 390.234 1364.2 386.61 1361.54L386.624 1361.52L386.345 1361.34L380.753 1357.78C376.832 1355.29 370.402 1358.62 366.11 1365.36C364.197 1368.24 363.036 1371.55 362.733 1374.99C362.549 1378.17 363.516 1380.61 365.445 1381.83ZM384.563 1377.1C382.89 1379.86 380.554 1382.16 377.766 1383.79C375.393 1385.06 373.258 1385.23 371.75 1384.28C368.568 1382.25 369.055 1375.54 372.817 1369.63C375.823 1364.91 380.175 1361.86 383.424 1361.86C384.201 1361.85 384.966 1362.05 385.628 1362.46V1362.46C388.813 1364.49 388.323 1371.19 384.563 1377.1V1377.1ZM364.052 1375.06C364.343 1371.84 365.433 1368.76 367.224 1366.07C370.985 1360.16 376.851 1356.88 380.036 1358.9L382.653 1360.57C379.059 1360.94 374.815 1364.02 371.698 1368.92C368.581 1373.82 367.588 1378.97 368.774 1382.38L366.157 1380.72C364.65 1379.76 363.903 1377.75 364.052 1375.06V1375.06Z" fill="#333333"/>
<path d="M419.142 1287.7L425.014 1291.43L425.027 1291.41C425.841 1291.86 426.753 1292.08 427.679 1292.08C429.23 1292.03 430.745 1291.59 432.09 1290.82C435.078 1289.08 437.583 1286.63 439.378 1283.68C443.565 1277.1 443.931 1270.06 440.306 1267.41L440.321 1267.39L440.042 1267.21L434.449 1263.65C430.528 1261.16 424.099 1264.48 419.807 1271.23C417.894 1274.1 416.733 1277.41 416.429 1280.85C416.246 1284.04 417.213 1286.47 419.142 1287.7ZM438.259 1282.97C436.587 1285.73 434.25 1288.03 431.462 1289.65C429.09 1290.93 426.955 1291.1 425.447 1290.14C422.265 1288.12 422.752 1281.41 426.514 1275.5C429.519 1270.77 433.872 1267.73 437.12 1267.73C437.897 1267.71 438.663 1267.92 439.325 1268.33V1268.33C442.509 1270.35 442.02 1277.06 438.259 1282.97V1282.97ZM417.749 1280.92C418.039 1277.71 419.13 1274.62 420.921 1271.94C424.682 1266.03 430.546 1262.74 433.733 1264.77L436.349 1266.43C432.755 1266.8 428.512 1269.89 425.395 1274.78C422.277 1279.68 421.285 1284.83 422.471 1288.25L419.854 1286.58C418.347 1285.62 417.599 1283.61 417.749 1280.92V1280.92Z" fill="#333333"/>
<path d="M350.703 1277.12C358.694 1277.12 364.955 1273.48 364.955 1268.84V1261.88H364.927C364.635 1257.39 358.501 1253.92 350.703 1253.92C342.904 1253.92 336.769 1257.39 336.478 1261.88H336.45V1268.84C336.45 1273.48 342.71 1277.12 350.703 1277.12ZM350.703 1255.25C357.71 1255.25 363.629 1258.43 363.629 1262.21C363.629 1265.98 357.71 1269.17 350.703 1269.17C343.695 1269.17 337.776 1265.98 337.776 1262.21C337.776 1258.43 343.695 1255.25 350.703 1255.25ZM337.776 1265.74C340.017 1268.57 344.896 1270.49 350.703 1270.49C356.509 1270.49 361.387 1268.57 363.629 1265.74V1268.84C363.629 1272.61 357.71 1275.8 350.703 1275.8C343.695 1275.8 337.776 1272.61 337.776 1268.84V1265.74Z" fill="#333333"/>
<path d="M405.062 1245.97C413.053 1245.97 419.315 1242.33 419.315 1237.68V1230.72H419.287C418.995 1226.23 412.86 1222.76 405.062 1222.76C397.263 1222.76 391.129 1226.23 390.837 1230.72H390.809V1237.68C390.809 1242.32 397.07 1245.97 405.062 1245.97ZM405.062 1224.09C412.069 1224.09 417.989 1227.28 417.989 1231.05C417.989 1234.82 412.069 1238.01 405.062 1238.01C398.055 1238.01 392.135 1234.82 392.135 1231.05C392.135 1227.28 398.054 1224.09 405.062 1224.09ZM392.135 1234.58C394.376 1237.41 399.255 1239.34 405.062 1239.34C410.868 1239.34 415.747 1237.41 417.989 1234.58V1237.68C417.989 1241.45 412.069 1244.64 405.062 1244.64C398.055 1244.64 392.135 1241.45 392.135 1237.68V1234.58Z" fill="#333333"/>
<path d="M350.703 1245.3C358.694 1245.3 364.955 1241.66 364.955 1237.02C364.955 1232.37 358.694 1228.73 350.703 1228.73C342.711 1228.73 336.45 1232.37 336.45 1237.02C336.45 1241.66 342.71 1245.3 350.703 1245.3ZM350.703 1243.98C345.654 1243.98 341.183 1242.32 339.07 1239.98C341.247 1237.56 345.72 1236.02 350.703 1236.02C355.631 1236.02 360.151 1237.57 362.331 1239.99C360.217 1242.32 355.748 1243.98 350.703 1243.98ZM350.703 1230.06C357.71 1230.06 363.629 1233.24 363.629 1237.02C363.619 1237.67 363.445 1238.32 363.122 1238.89C360.614 1236.29 355.931 1234.7 350.703 1234.7C345.504 1234.7 340.775 1236.32 338.284 1238.89C337.96 1238.32 337.786 1237.67 337.776 1237.02C337.776 1233.24 343.695 1230.06 350.703 1230.06Z" fill="#333333"/>
<path d="M278.557 1290.03C279.417 1290.04 280.267 1289.83 281.032 1289.44C285.157 1287.3 285.505 1280.07 281.828 1272.97C280.3 1269.88 278.021 1267.21 275.199 1265.22C272.53 1263.47 269.942 1263.09 267.912 1264.14C265.882 1265.19 264.706 1267.53 264.601 1270.72C264.601 1274.17 265.467 1277.57 267.12 1280.61C270.107 1286.38 274.717 1290.03 278.557 1290.03ZM280.648 1273.59C282.973 1278.07 283.559 1282.8 282.458 1285.75C279.308 1284.94 275.881 1281.67 273.587 1277.25C271.312 1272.86 270.608 1268.12 271.761 1265.08C272.725 1265.35 273.639 1265.77 274.467 1266.34C277.098 1268.2 279.222 1270.69 280.645 1273.59L280.648 1273.59ZM268.517 1265.32C269.089 1265.03 269.722 1264.88 270.364 1264.89C270.382 1264.89 270.4 1264.89 270.417 1264.89C269.259 1268.31 269.997 1273.21 272.406 1277.86C274.801 1282.47 278.419 1285.92 281.847 1286.95C281.488 1287.5 280.997 1287.95 280.418 1288.27C277.071 1290 271.513 1286.22 268.287 1280C266.74 1277.16 265.926 1273.99 265.919 1270.76C266.007 1268.07 266.929 1266.14 268.514 1265.31L268.517 1265.32Z" fill="#333333"/>
<path d="M328.887 1358.69C326.219 1356.94 323.631 1356.56 321.6 1357.61C319.57 1358.66 318.394 1361 318.29 1364.19C318.29 1367.65 319.156 1371.04 320.809 1374.08C323.805 1379.85 328.415 1383.5 332.252 1383.5C333.112 1383.51 333.962 1383.31 334.727 1382.91C338.852 1380.77 339.2 1373.54 335.523 1366.45C333.994 1363.35 331.712 1360.68 328.887 1358.69V1358.69ZM334.115 1381.74C330.767 1383.47 325.209 1379.69 321.983 1373.47C320.436 1370.64 319.622 1367.46 319.615 1364.23C319.704 1361.54 320.625 1359.61 322.211 1358.79C322.782 1358.5 323.416 1358.35 324.058 1358.35C324.076 1358.35 324.094 1358.35 324.111 1358.35C322.953 1361.78 323.691 1366.68 326.1 1371.33C328.495 1375.94 332.113 1379.39 335.541 1380.42C335.183 1380.97 334.693 1381.42 334.115 1381.74V1381.74ZM336.151 1379.22C333.001 1378.4 329.574 1375.14 327.28 1370.72C325.005 1366.33 324.302 1361.59 325.454 1358.54C326.418 1358.81 327.332 1359.24 328.16 1359.8C330.793 1361.67 332.919 1364.16 334.342 1367.06C336.666 1371.54 337.252 1376.27 336.151 1379.22V1379.22Z" fill="#333333"/>
<path d="M365.674 1320.03C366.554 1320.57 367.571 1320.85 368.604 1320.83C372.345 1320.83 376.961 1317.62 380.263 1312.35C382.156 1309.46 383.293 1306.14 383.573 1302.7C383.727 1299.51 382.745 1297.08 380.808 1295.87C378.871 1294.66 376.26 1294.83 373.456 1296.36C370.481 1298.12 367.993 1300.59 366.219 1303.55C364.326 1306.44 363.189 1309.76 362.909 1313.2C362.755 1316.39 363.737 1318.81 365.674 1320.03ZM382.247 1302.63C381.98 1305.85 380.911 1308.95 379.139 1311.64C375.421 1317.58 369.576 1320.91 366.378 1318.9C365.824 1318.55 365.367 1318.06 365.047 1317.48C368.583 1316.74 372.428 1313.62 375.207 1309.18C377.97 1304.77 379.103 1299.89 378.243 1296.42C378.899 1296.45 379.537 1296.65 380.099 1296.99C381.617 1297.94 382.379 1299.94 382.248 1302.63H382.247ZM364.233 1313.26C364.501 1310.05 365.57 1306.95 367.342 1304.25C368.995 1301.48 371.315 1299.17 374.092 1297.52C374.964 1297.03 375.911 1296.68 376.895 1296.49C377.802 1299.62 376.734 1304.24 374.083 1308.48C371.462 1312.66 367.739 1315.67 364.533 1316.23C364.272 1315.26 364.171 1314.26 364.234 1313.26H364.233Z" fill="#333333"/>
<path d="M435.167 1326.36C433.23 1325.15 430.62 1325.32 427.816 1326.85C424.841 1328.61 422.353 1331.08 420.579 1334.04C418.686 1336.93 417.548 1340.25 417.269 1343.69C417.115 1346.88 418.097 1349.31 420.034 1350.52C420.914 1351.06 421.931 1351.34 422.964 1351.33C426.705 1351.33 431.321 1348.11 434.623 1342.84C436.515 1339.95 437.653 1336.63 437.933 1333.19C438.087 1330 437.105 1327.58 435.167 1326.36ZM418.594 1343.76C418.862 1340.54 419.931 1337.44 421.703 1334.75C423.356 1331.98 425.676 1329.66 428.453 1328.02C429.325 1327.52 430.272 1327.18 431.256 1326.99C432.163 1330.12 431.095 1334.74 428.444 1338.97C425.823 1343.15 422.1 1346.17 418.894 1346.73C418.632 1345.76 418.531 1344.76 418.594 1343.76H418.594ZM436.609 1333.13C436.341 1336.34 435.272 1339.44 433.5 1342.14C429.781 1348.07 423.936 1351.4 420.74 1349.4C420.185 1349.04 419.728 1348.55 419.408 1347.98C422.944 1347.23 426.789 1344.11 429.568 1339.67C432.331 1335.26 433.464 1330.39 432.604 1326.91C433.261 1326.95 433.898 1327.14 434.46 1327.49C435.977 1328.43 436.739 1330.44 436.608 1333.13H436.609Z" fill="#333333"/>
<path d="M252.449 1238.34L351.887 1292.7M351.887 1292.7V1409.05M351.887 1292.7L450 1238.34" stroke="#333333" stroke-width="2"/>
<path d="M254.107 1236.69L352.853 1293.7V1407.72L254.107 1464.73L155.361 1407.72V1293.7L254.107 1236.69Z" fill="#1F1D1D" stroke="#38421E" stroke-width="2"/>
<path d="M253.253 1270.49C261.245 1270.49 267.506 1266.85 267.506 1262.21V1255.25H267.478C267.186 1250.76 261.052 1247.29 253.253 1247.29C245.455 1247.29 239.32 1250.76 239.028 1255.25H239V1262.21C239 1266.85 245.261 1270.49 253.253 1270.49ZM253.253 1248.62C260.26 1248.62 266.18 1251.81 266.18 1255.58C266.18 1259.35 260.26 1262.54 253.253 1262.54C246.246 1262.54 240.326 1259.35 240.326 1255.58C240.326 1251.8 246.246 1248.62 253.253 1248.62ZM240.326 1259.11C242.568 1261.94 247.447 1263.86 253.253 1263.86C259.06 1263.86 263.938 1261.94 266.18 1259.11V1262.21C266.18 1265.98 260.26 1269.17 253.253 1269.17C246.246 1269.17 240.326 1265.98 240.326 1262.21V1259.11Z" fill="#38421E"/>
<path d="M199.557 1301.65C207.548 1301.65 213.809 1298.01 213.809 1293.36V1286.4H213.781C213.489 1281.92 207.355 1278.45 199.557 1278.45C191.758 1278.45 185.623 1281.92 185.332 1286.4H185.304V1293.36C185.304 1298.01 191.564 1301.65 199.557 1301.65ZM199.557 1279.77C206.564 1279.77 212.483 1282.96 212.483 1286.74C212.483 1290.51 206.564 1293.7 199.557 1293.7C192.549 1293.7 186.63 1290.51 186.63 1286.74C186.63 1282.96 192.549 1279.77 199.557 1279.77ZM199.557 1295.02C205.362 1295.02 210.241 1293.1 212.483 1290.26V1293.36C212.483 1297.14 206.564 1300.33 199.557 1300.33C192.549 1300.33 186.63 1297.14 186.63 1293.36V1290.26C188.871 1293.09 193.75 1295.02 199.557 1295.02Z" fill="#38421E"/>
<path d="M164.685 1400.71C167.646 1406.54 172.254 1410.23 176.1 1410.23C176.83 1410.23 177.553 1410.08 178.225 1409.79L178.234 1409.81L178.524 1409.66H178.529H178.533L184.439 1406.66C188.581 1404.56 188.99 1397.33 185.367 1390.2C181.745 1383.08 175.665 1379.14 171.524 1381.25L165.615 1384.25L165.321 1384.4L165.333 1384.43C161.468 1386.71 161.154 1393.75 164.685 1400.71ZM172.128 1382.43C175.489 1380.72 181.011 1384.55 184.189 1390.8C187.366 1397.05 187.203 1403.77 183.839 1405.48L181.074 1406.88C182.584 1403.6 182.091 1398.38 179.461 1393.2C176.831 1388.02 172.905 1384.55 169.364 1383.83L172.128 1382.43ZM166.216 1385.43C169.576 1383.72 175.099 1387.56 178.276 1393.8C181.452 1400.05 181.289 1406.77 177.929 1408.48L177.922 1408.48C174.559 1410.19 169.038 1406.35 165.864 1400.11C162.689 1393.86 162.853 1387.14 166.216 1385.43V1385.43Z" fill="#38421E"/>
<path d="M229.797 1379.73C230.527 1379.73 231.25 1379.59 231.921 1379.3L231.93 1379.32L232.22 1379.17H232.226H232.23L238.136 1376.17C242.278 1374.06 242.687 1366.83 239.064 1359.71C235.441 1352.58 229.363 1348.65 225.22 1350.76L219.312 1353.76L219.017 1353.91L219.03 1353.93C215.164 1356.23 214.849 1363.27 218.381 1370.22C221.343 1376.04 225.95 1379.73 229.797 1379.73ZM225.825 1351.93C229.187 1350.22 234.711 1354.06 237.885 1360.3C241.06 1366.55 240.899 1373.27 237.535 1374.98L234.77 1376.39C236.281 1373.1 235.787 1367.88 233.158 1362.71C230.528 1357.53 226.601 1354.05 223.061 1353.34L225.825 1351.93ZM219.912 1354.94C223.273 1353.23 228.795 1357.06 231.972 1363.31C235.149 1369.55 234.986 1376.27 231.626 1377.98H231.618C228.254 1379.69 222.735 1375.85 219.56 1369.61C216.386 1363.37 216.55 1356.65 219.912 1354.94V1354.94Z" fill="#38421E"/>
<path d="M267.996 1437.52L273.868 1441.25L273.881 1441.23C274.695 1441.68 275.607 1441.9 276.533 1441.9C278.084 1441.85 279.599 1441.41 280.944 1440.64C283.932 1438.91 286.437 1436.45 288.232 1433.5C292.419 1426.92 292.785 1419.88 289.16 1417.23L289.175 1417.21L288.896 1417.03L283.303 1413.47C279.382 1410.98 272.953 1414.3 268.661 1421.05C266.748 1423.92 265.587 1427.23 265.283 1430.67C265.1 1433.86 266.067 1436.29 267.996 1437.52ZM287.113 1432.79C285.441 1435.55 283.104 1437.85 280.316 1439.47C277.944 1440.75 275.809 1440.92 274.301 1439.96C271.119 1437.94 271.606 1431.23 275.368 1425.32C278.373 1420.59 282.726 1417.55 285.974 1417.55C286.751 1417.53 287.517 1417.74 288.179 1418.15V1418.15C291.363 1420.17 290.874 1426.88 287.113 1432.79V1432.79ZM266.603 1430.74C266.893 1427.53 267.984 1424.44 269.775 1421.76C273.536 1415.85 279.402 1412.56 282.587 1414.59L285.204 1416.25C281.61 1416.62 277.366 1419.71 274.249 1424.61C271.132 1429.5 270.139 1434.65 271.325 1438.07L268.708 1436.4C267.201 1435.44 266.453 1433.43 266.603 1430.74V1430.74Z" fill="#38421E"/>
<path d="M321.693 1343.38L327.565 1347.12L327.578 1347.1C328.391 1347.54 329.304 1347.77 330.23 1347.76C331.781 1347.71 333.296 1347.28 334.641 1346.5C337.629 1344.77 340.134 1342.32 341.929 1339.37C346.116 1332.79 346.481 1325.75 342.857 1323.09L342.872 1323.07L342.593 1322.89L337 1319.34C333.079 1316.84 326.649 1320.17 322.358 1326.91C320.445 1329.79 319.284 1333.1 318.98 1336.54C318.796 1339.72 319.764 1342.16 321.693 1343.38ZM340.81 1338.65C339.138 1341.41 336.801 1343.71 334.013 1345.34C331.641 1346.61 329.505 1346.79 327.998 1345.83C324.816 1343.8 325.302 1337.1 329.064 1331.18C332.07 1326.46 336.423 1323.41 339.671 1323.41C340.448 1323.4 341.214 1323.6 341.876 1324.01V1324.01C345.06 1326.04 344.571 1332.74 340.81 1338.65V1338.65ZM320.299 1336.61C320.59 1333.4 321.681 1330.31 323.471 1327.62C327.233 1321.71 333.097 1318.43 336.284 1320.45L338.9 1322.12C335.306 1322.49 331.063 1325.57 327.945 1330.47C324.828 1335.37 323.835 1340.52 325.021 1343.93L322.405 1342.27C320.898 1341.31 320.15 1339.3 320.299 1336.61V1336.61Z" fill="#38421E"/>
<path d="M253.253 1332.81C261.245 1332.81 267.506 1329.17 267.506 1324.52V1317.56H267.478C267.186 1313.08 261.052 1309.61 253.253 1309.61C245.455 1309.61 239.32 1313.08 239.028 1317.56H239V1324.52C239 1329.17 245.261 1332.81 253.253 1332.81ZM253.253 1310.93C260.26 1310.93 266.18 1314.12 266.18 1317.89C266.18 1321.67 260.26 1324.85 253.253 1324.85C246.246 1324.85 240.326 1321.67 240.326 1317.89C240.326 1314.12 246.246 1310.93 253.253 1310.93ZM240.326 1321.42C242.568 1324.25 247.447 1326.18 253.253 1326.18C259.06 1326.18 263.938 1324.26 266.18 1321.42V1324.52C266.18 1328.3 260.26 1331.48 253.253 1331.48C246.246 1331.48 240.326 1328.3 240.326 1324.52V1321.42Z" fill="#38421E"/>
<path d="M307.613 1301.65C315.604 1301.65 321.865 1298.01 321.865 1293.36V1286.4H321.838C321.545 1281.92 315.411 1278.45 307.613 1278.45C299.814 1278.45 293.679 1281.92 293.388 1286.4H293.36V1293.36C293.36 1298.01 299.62 1301.65 307.613 1301.65ZM307.613 1279.77C314.62 1279.77 320.54 1282.96 320.54 1286.74C320.54 1290.51 314.62 1293.7 307.613 1293.7C300.606 1293.7 294.686 1290.51 294.686 1286.74C294.686 1282.96 300.605 1279.77 307.613 1279.77ZM294.686 1290.26C296.927 1293.1 301.806 1295.02 307.613 1295.02C313.419 1295.02 318.298 1293.1 320.54 1290.26V1293.36C320.54 1297.14 314.62 1300.33 307.613 1300.33C300.606 1300.33 294.686 1297.14 294.686 1293.36V1290.26Z" fill="#38421E"/>
<path d="M253.253 1300.99C261.245 1300.99 267.506 1297.35 267.506 1292.7C267.506 1288.06 261.245 1284.42 253.253 1284.42C245.262 1284.42 239 1288.06 239 1292.7C239 1297.35 245.261 1300.99 253.253 1300.99ZM253.253 1299.66C248.204 1299.66 243.734 1298 241.621 1295.67C243.797 1293.25 248.271 1291.71 253.253 1291.71C258.181 1291.71 262.702 1293.26 264.882 1295.67C262.768 1298 258.299 1299.66 253.253 1299.66ZM253.253 1285.74C260.26 1285.74 266.18 1288.93 266.18 1292.7C266.17 1293.36 265.995 1294 265.672 1294.57C263.165 1291.98 258.482 1290.38 253.253 1290.38C248.055 1290.38 243.326 1292 240.835 1294.57C240.511 1294 240.336 1293.36 240.326 1292.7C240.326 1288.93 246.246 1285.74 253.253 1285.74Z" fill="#38421E"/>
<path d="M181.108 1345.71C181.968 1345.72 182.817 1345.52 183.583 1345.13C187.708 1342.99 188.056 1335.75 184.379 1328.66C182.851 1325.56 180.572 1322.9 177.749 1320.91C175.081 1319.16 172.493 1318.77 170.462 1319.82C168.433 1320.88 167.257 1323.21 167.152 1326.41C167.152 1329.86 168.018 1333.26 169.671 1336.29C172.657 1342.07 177.267 1345.71 181.108 1345.71ZM183.199 1329.27C185.524 1333.76 186.11 1338.49 185.009 1341.44C181.859 1340.62 178.431 1337.36 176.138 1332.94C173.863 1328.55 173.159 1323.81 174.311 1320.76C175.276 1321.03 176.19 1321.46 177.017 1322.02C179.649 1323.89 181.773 1326.38 183.196 1329.27L183.199 1329.27ZM171.068 1321C171.639 1320.71 172.273 1320.56 172.915 1320.57C172.933 1320.57 172.951 1320.57 172.968 1320.57C171.81 1323.99 172.548 1328.89 174.957 1333.54C177.352 1338.16 180.97 1341.61 184.398 1342.64C184.039 1343.19 183.548 1343.64 182.969 1343.95C179.621 1345.69 174.064 1341.9 170.838 1335.68C169.29 1332.85 168.476 1329.68 168.47 1326.45C168.558 1323.76 169.479 1321.82 171.065 1321L171.068 1321Z" fill="#38421E"/>
<path d="M231.438 1414.38C228.77 1412.63 226.182 1412.24 224.151 1413.29C222.121 1414.35 220.945 1416.69 220.84 1419.88C220.841 1423.33 221.707 1426.73 223.359 1429.76C226.356 1435.54 230.966 1439.19 234.803 1439.19C235.663 1439.19 236.513 1438.99 237.278 1438.6C241.403 1436.46 241.751 1429.23 238.074 1422.13C236.544 1419.03 234.263 1416.37 231.438 1414.38V1414.38ZM236.666 1437.42C233.318 1439.16 227.76 1435.37 224.534 1429.15C222.987 1426.32 222.173 1423.15 222.166 1419.92C222.254 1417.23 223.176 1415.29 224.762 1414.47C225.333 1414.18 225.967 1414.03 226.608 1414.04C226.626 1414.04 226.645 1414.04 226.662 1414.04C225.504 1417.46 226.242 1422.36 228.651 1427.01C231.045 1431.63 234.664 1435.08 238.092 1436.11C237.734 1436.66 237.243 1437.11 236.666 1437.42V1437.42ZM238.702 1434.9C235.552 1434.09 232.125 1430.82 229.831 1426.4C227.556 1422.02 226.852 1417.27 228.005 1414.23C228.969 1414.5 229.883 1414.92 230.711 1415.49C233.344 1417.35 235.469 1419.85 236.892 1422.74C239.217 1427.22 239.803 1431.96 238.702 1434.91V1434.9Z" fill="#38421E"/>
<path d="M268.225 1375.71C269.105 1376.25 270.121 1376.53 271.155 1376.52C274.896 1376.52 279.511 1373.3 282.814 1368.03C284.706 1365.14 285.844 1361.83 286.124 1358.38C286.278 1355.19 285.295 1352.77 283.358 1351.55C281.421 1350.34 278.811 1350.52 276.007 1352.05C273.032 1353.8 270.543 1356.27 268.769 1359.24C266.877 1362.12 265.739 1365.44 265.46 1368.88C265.306 1372.07 266.288 1374.5 268.225 1375.71ZM284.798 1358.32C284.53 1361.53 283.462 1364.63 281.69 1367.33C277.971 1373.27 272.127 1376.59 268.929 1374.59C268.375 1374.23 267.917 1373.74 267.598 1373.17C271.133 1372.43 274.978 1369.3 277.757 1364.86C280.52 1360.45 281.654 1355.58 280.794 1352.1C281.45 1352.14 282.088 1352.34 282.65 1352.68C284.168 1353.62 284.929 1355.63 284.799 1358.32H284.798ZM266.784 1368.95C267.052 1365.73 268.121 1362.63 269.892 1359.94C271.546 1357.17 273.866 1354.85 276.642 1353.21C277.514 1352.71 278.461 1352.37 279.446 1352.18C280.353 1355.31 279.285 1359.93 276.634 1364.16C274.013 1368.34 270.29 1371.36 267.084 1371.92C266.822 1370.95 266.721 1369.95 266.785 1368.95H266.784Z" fill="#38421E"/>
<path d="M337.718 1382.05C335.781 1380.83 333.171 1381.01 330.367 1382.54C327.392 1384.29 324.903 1386.76 323.129 1389.73C321.237 1392.62 320.099 1395.93 319.82 1399.38C319.666 1402.57 320.648 1404.99 322.585 1406.2C323.465 1406.75 324.481 1407.03 325.515 1407.01C329.255 1407.01 333.871 1403.8 337.174 1398.53C339.066 1395.64 340.204 1392.32 340.484 1388.88C340.638 1385.69 339.655 1383.26 337.718 1382.05ZM321.145 1399.44C321.413 1396.23 322.482 1393.13 324.254 1390.43C325.907 1387.66 328.227 1385.35 331.003 1383.7C331.875 1383.21 332.823 1382.86 333.807 1382.67C334.714 1385.8 333.646 1390.42 330.995 1394.65C328.374 1398.84 324.651 1401.85 321.445 1402.41C321.183 1401.44 321.082 1400.44 321.145 1399.44H321.145ZM339.159 1388.81C338.892 1392.03 337.823 1395.13 336.051 1397.82C332.332 1403.76 326.487 1407.09 323.29 1405.08C322.736 1404.73 322.279 1404.24 321.959 1403.66C325.495 1402.92 329.34 1399.8 332.119 1395.36C334.882 1390.95 336.015 1386.07 335.155 1382.6C335.811 1382.63 336.449 1382.83 337.011 1383.17C338.528 1384.12 339.289 1386.12 339.159 1388.81H339.159Z" fill="#38421E"/>
<path d="M155 1294.03L254.438 1348.39M254.438 1348.39V1464.73M254.438 1348.39L352.551 1294.03" stroke="#38421E" stroke-width="2"/>
<path d="M1859.5 1565L2008.46 1651V1823L1859.5 1909L1710.54 1823V1651L1859.5 1565Z" fill="#1F1D1D" stroke="#333333" stroke-width="2"/>
<path d="M1858.21 1616C1870.27 1616 1879.71 1610.51 1879.71 1603.5V1593H1879.67C1879.23 1586.23 1869.98 1581 1858.21 1581C1846.45 1581 1837.19 1586.23 1836.75 1593H1836.71V1603.5C1836.71 1610.51 1846.16 1616 1858.21 1616ZM1858.21 1583C1868.78 1583 1877.71 1587.81 1877.71 1593.5C1877.71 1599.19 1868.78 1604 1858.21 1604C1847.64 1604 1838.71 1599.19 1838.71 1593.5C1838.71 1587.81 1847.64 1583 1858.21 1583ZM1838.71 1598.82C1842.09 1603.09 1849.45 1606 1858.21 1606C1866.97 1606 1874.33 1603.1 1877.71 1598.82V1603.5C1877.71 1609.19 1868.78 1614 1858.21 1614C1847.64 1614 1838.71 1609.19 1838.71 1603.5V1598.82Z" fill="#333333"/>
<path d="M1777.21 1663C1789.27 1663 1798.71 1657.51 1798.71 1650.5V1640H1798.67C1798.23 1633.23 1788.98 1628 1777.21 1628C1765.45 1628 1756.19 1633.23 1755.75 1640H1755.71V1650.5C1755.71 1657.51 1765.16 1663 1777.21 1663ZM1777.21 1630C1787.78 1630 1796.71 1634.81 1796.71 1640.5C1796.71 1646.19 1787.78 1651 1777.21 1651C1766.64 1651 1757.71 1646.19 1757.71 1640.5C1757.71 1634.81 1766.64 1630 1777.21 1630ZM1777.21 1653C1785.97 1653 1793.33 1650.1 1796.71 1645.82V1650.5C1796.71 1656.19 1787.78 1661 1777.21 1661C1766.64 1661 1757.71 1656.19 1757.71 1650.5V1645.82C1761.09 1650.09 1768.45 1653 1777.21 1653Z" fill="#333333"/>
<path d="M1724.61 1812.42C1729.08 1821.21 1736.03 1826.78 1741.83 1826.78C1742.93 1826.79 1744.02 1826.56 1745.03 1826.13L1745.05 1826.16L1745.48 1825.93H1745.49H1745.5L1754.41 1821.41C1760.66 1818.23 1761.27 1807.33 1755.81 1796.58C1750.34 1785.83 1741.17 1779.9 1734.93 1783.08L1726.01 1787.6L1725.57 1787.83L1725.59 1787.87C1719.76 1791.32 1719.28 1801.93 1724.61 1812.42ZM1735.84 1784.85C1740.91 1782.27 1749.24 1788.05 1754.03 1797.48C1758.82 1806.9 1758.58 1817.04 1753.5 1819.62L1749.33 1821.74C1751.61 1816.79 1750.87 1808.91 1746.9 1801.1C1742.93 1793.29 1737.01 1788.05 1731.67 1786.97L1735.84 1784.85ZM1726.92 1789.38C1731.99 1786.81 1740.32 1792.58 1745.11 1802.01C1749.9 1811.43 1749.66 1821.56 1744.59 1824.15L1744.58 1824.15C1739.5 1826.72 1731.18 1820.94 1726.39 1811.52C1721.6 1802.1 1721.85 1791.96 1726.92 1789.38V1789.38Z" fill="#333333"/>
<path d="M1822.83 1780.78C1823.93 1780.79 1825.02 1780.56 1826.03 1780.13L1826.05 1780.16L1826.48 1779.93H1826.49H1826.5L1835.41 1775.41C1841.66 1772.23 1842.27 1761.33 1836.81 1750.58C1831.34 1739.83 1822.17 1733.9 1815.93 1737.08L1807.01 1741.6L1806.57 1741.83L1806.59 1741.87C1800.76 1745.32 1800.28 1755.94 1805.61 1766.43C1810.08 1775.21 1817.03 1780.78 1822.83 1780.78ZM1816.84 1738.85C1821.91 1736.27 1830.24 1742.05 1835.03 1751.48C1839.82 1760.9 1839.58 1771.04 1834.5 1773.62L1830.33 1775.74C1832.61 1770.79 1831.87 1762.91 1827.9 1755.1C1823.93 1747.29 1818.01 1742.05 1812.67 1740.97L1816.84 1738.85ZM1807.92 1743.38C1812.99 1740.8 1821.32 1746.58 1826.11 1756.01C1830.9 1765.43 1830.66 1775.56 1825.59 1778.15H1825.58C1820.5 1780.72 1812.18 1774.93 1807.39 1765.51C1802.6 1756.1 1802.85 1745.96 1807.92 1743.38V1743.38Z" fill="#333333"/>
<path d="M1880.45 1867.95L1889.31 1873.59L1889.33 1873.56C1890.56 1874.22 1891.93 1874.57 1893.33 1874.56C1895.67 1874.48 1897.96 1873.83 1899.98 1872.66C1904.49 1870.04 1908.27 1866.34 1910.98 1861.89C1917.29 1851.96 1917.85 1841.35 1912.38 1837.34L1912.4 1837.31L1911.98 1837.04L1903.54 1831.67C1897.63 1827.91 1887.93 1832.93 1881.45 1843.1C1878.57 1847.44 1876.82 1852.43 1876.36 1857.62C1876.08 1862.43 1877.54 1866.1 1880.45 1867.95ZM1909.29 1860.82C1906.77 1864.98 1903.24 1868.45 1899.04 1870.9C1895.46 1872.82 1892.24 1873.08 1889.96 1871.64C1885.16 1868.58 1885.9 1858.46 1891.57 1849.55C1896.11 1842.42 1902.67 1837.83 1907.57 1837.83C1908.74 1837.8 1909.9 1838.11 1910.9 1838.73V1838.73C1915.7 1841.78 1914.96 1851.9 1909.29 1860.82V1860.82ZM1878.35 1857.73C1878.79 1852.88 1880.43 1848.22 1883.13 1844.17C1888.81 1835.26 1897.66 1830.3 1902.46 1833.36L1906.41 1835.87C1900.99 1836.43 1894.59 1841.08 1889.88 1848.47C1885.18 1855.86 1883.68 1863.63 1885.47 1868.78L1881.53 1866.27C1879.25 1864.82 1878.12 1861.79 1878.35 1857.73V1857.73Z" fill="#333333"/>
<path d="M1961.45 1725.95L1970.31 1731.59L1970.33 1731.56C1971.56 1732.22 1972.93 1732.57 1974.33 1732.56C1976.67 1732.48 1978.96 1731.83 1980.98 1730.66C1985.49 1728.04 1989.27 1724.34 1991.98 1719.89C1998.29 1709.96 1998.85 1699.35 1993.38 1695.34L1993.4 1695.31L1992.98 1695.04L1984.54 1689.67C1978.63 1685.91 1968.93 1690.93 1962.45 1701.1C1959.57 1705.44 1957.82 1710.43 1957.36 1715.62C1957.08 1720.43 1958.54 1724.1 1961.45 1725.95ZM1990.29 1718.82C1987.77 1722.98 1984.24 1726.45 1980.04 1728.9C1976.46 1730.82 1973.24 1731.08 1970.96 1729.64C1966.16 1726.58 1966.9 1716.47 1972.57 1707.55C1977.11 1700.42 1983.67 1695.83 1988.57 1695.83C1989.74 1695.8 1990.9 1696.11 1991.9 1696.73V1696.73C1996.7 1699.78 1995.96 1709.9 1990.29 1718.82V1718.82ZM1959.35 1715.73C1959.79 1710.88 1961.43 1706.22 1964.13 1702.17C1969.81 1693.26 1978.66 1688.3 1983.46 1691.36L1987.41 1693.87C1981.99 1694.43 1975.59 1699.08 1970.88 1706.47C1966.18 1713.86 1964.68 1721.63 1966.47 1726.78L1962.53 1724.27C1960.25 1722.82 1959.12 1719.79 1959.35 1715.73V1715.73Z" fill="#333333"/>
<path d="M1858.21 1710C1870.27 1710 1879.71 1704.51 1879.71 1697.5V1687H1879.67C1879.23 1680.23 1869.98 1675 1858.21 1675C1846.45 1675 1837.19 1680.23 1836.75 1687H1836.71V1697.5C1836.71 1704.51 1846.16 1710 1858.21 1710ZM1858.21 1677C1868.78 1677 1877.71 1681.81 1877.71 1687.5C1877.71 1693.19 1868.78 1698 1858.21 1698C1847.64 1698 1838.71 1693.19 1838.71 1687.5C1838.71 1681.81 1847.64 1677 1858.21 1677ZM1838.71 1692.82C1842.09 1697.09 1849.45 1700 1858.21 1700C1866.97 1700 1874.33 1697.1 1877.71 1692.82V1697.5C1877.71 1703.19 1868.78 1708 1858.21 1708C1847.64 1708 1838.71 1703.19 1838.71 1697.5V1692.82Z" fill="#333333"/>
<path d="M1940.21 1663C1952.27 1663 1961.71 1657.51 1961.71 1650.5V1640H1961.67C1961.23 1633.23 1951.98 1628 1940.21 1628C1928.45 1628 1919.19 1633.23 1918.75 1640H1918.71V1650.5C1918.71 1657.51 1928.16 1663 1940.21 1663ZM1940.21 1630C1950.78 1630 1959.71 1634.81 1959.71 1640.5C1959.71 1646.19 1950.78 1651 1940.21 1651C1929.64 1651 1920.71 1646.19 1920.71 1640.5C1920.71 1634.81 1929.64 1630 1940.21 1630ZM1920.71 1645.82C1924.09 1650.09 1931.45 1653 1940.21 1653C1948.97 1653 1956.33 1650.1 1959.71 1645.82V1650.5C1959.71 1656.19 1950.78 1661 1940.21 1661C1929.64 1661 1920.71 1656.19 1920.71 1650.5V1645.82Z" fill="#333333"/>
<path d="M1858.21 1662C1870.27 1662 1879.71 1656.51 1879.71 1649.5C1879.71 1642.49 1870.27 1637 1858.21 1637C1846.16 1637 1836.71 1642.49 1836.71 1649.5C1836.71 1656.51 1846.16 1662 1858.21 1662ZM1858.21 1660C1850.6 1660 1843.85 1657.5 1840.67 1653.97C1843.95 1650.32 1850.7 1648 1858.21 1648C1865.65 1648 1872.47 1650.34 1875.75 1653.98C1872.57 1657.5 1865.82 1660 1858.21 1660ZM1858.21 1639C1868.78 1639 1877.71 1643.81 1877.71 1649.5C1877.7 1650.49 1877.43 1651.46 1876.95 1652.32C1873.16 1648.41 1866.1 1646 1858.21 1646C1850.37 1646 1843.24 1648.45 1839.48 1652.33C1838.99 1651.46 1838.73 1650.49 1838.71 1649.5C1838.71 1643.81 1847.64 1639 1858.21 1639Z" fill="#333333"/>
<path d="M1749.38 1729.47C1750.68 1729.48 1751.96 1729.17 1753.12 1728.58C1759.34 1725.35 1759.86 1714.44 1754.32 1703.74C1752.01 1699.07 1748.58 1695.05 1744.32 1692.05C1740.29 1689.4 1736.39 1688.82 1733.32 1690.41C1730.26 1692 1728.49 1695.52 1728.33 1700.34C1728.33 1705.55 1729.64 1710.68 1732.13 1715.25C1736.64 1723.97 1743.59 1729.47 1749.38 1729.47ZM1752.54 1704.67C1756.04 1711.43 1756.93 1718.57 1755.27 1723.02C1750.52 1721.78 1745.35 1716.86 1741.89 1710.19C1738.45 1703.57 1737.39 1696.42 1739.13 1691.83C1740.59 1692.24 1741.96 1692.88 1743.21 1693.73C1747.18 1696.54 1750.39 1700.3 1752.53 1704.66L1752.54 1704.67ZM1734.24 1692.19C1735.1 1691.75 1736.06 1691.53 1737.02 1691.54C1737.05 1691.54 1737.08 1691.54 1737.1 1691.54C1735.36 1696.7 1736.47 1704.09 1740.1 1711.11C1743.72 1718.07 1749.17 1723.27 1754.35 1724.82C1753.8 1725.66 1753.06 1726.34 1752.19 1726.81C1747.14 1729.42 1738.76 1723.71 1733.89 1714.33C1731.56 1710.06 1730.33 1705.27 1730.32 1700.41C1730.45 1696.34 1731.84 1693.43 1734.23 1692.19L1734.24 1692.19Z" fill="#333333"/>
<path d="M1825.3 1833.05C1821.28 1830.4 1817.38 1829.82 1814.31 1831.41C1811.25 1833 1809.48 1836.52 1809.32 1841.34C1809.32 1846.55 1810.63 1851.68 1813.12 1856.25C1817.64 1864.97 1824.59 1870.47 1830.38 1870.47C1831.68 1870.48 1832.96 1870.17 1834.11 1869.58C1840.34 1866.35 1840.86 1855.44 1835.31 1844.74C1833.01 1840.07 1829.57 1836.05 1825.3 1833.05V1833.05ZM1833.19 1867.81C1828.14 1870.42 1819.76 1864.71 1814.89 1855.33C1812.56 1851.06 1811.33 1846.27 1811.32 1841.4C1811.45 1837.34 1812.84 1834.43 1815.23 1833.19C1816.1 1832.75 1817.05 1832.52 1818.02 1832.53C1818.05 1832.53 1818.07 1832.53 1818.1 1832.53C1816.35 1837.7 1817.47 1845.09 1821.1 1852.1C1824.71 1859.07 1830.17 1864.27 1835.34 1865.82C1834.8 1866.65 1834.06 1867.33 1833.19 1867.81V1867.81ZM1836.26 1864.01C1831.51 1862.77 1826.34 1857.85 1822.88 1851.18C1819.45 1844.56 1818.39 1837.41 1820.13 1832.82C1821.58 1833.23 1822.96 1833.87 1824.21 1834.72C1828.18 1837.53 1831.39 1841.29 1833.53 1845.66C1837.04 1852.42 1837.92 1859.56 1836.26 1864.01V1864.01Z" fill="#333333"/>
<path d="M1880.8 1774.72C1882.13 1775.53 1883.66 1775.96 1885.22 1775.93C1890.86 1775.93 1897.82 1771.09 1902.8 1763.13C1905.66 1758.77 1907.38 1753.77 1907.8 1748.58C1908.03 1743.77 1906.55 1740.11 1903.63 1738.28C1900.7 1736.45 1896.77 1736.71 1892.54 1739.02C1888.05 1741.67 1884.29 1745.39 1881.62 1749.86C1878.76 1754.22 1877.05 1759.23 1876.63 1764.42C1876.39 1769.23 1877.88 1772.88 1880.8 1774.72ZM1905.8 1748.48C1905.39 1753.33 1903.78 1758 1901.11 1762.07C1895.5 1771.03 1886.68 1776.04 1881.86 1773.02C1881.02 1772.48 1880.33 1771.75 1879.85 1770.88C1885.18 1769.76 1890.98 1765.05 1895.18 1758.35C1899.34 1751.7 1901.05 1744.35 1899.76 1739.1C1900.75 1739.16 1901.71 1739.45 1902.56 1739.97C1904.85 1741.4 1906 1744.42 1905.8 1748.48H1905.8ZM1878.62 1764.51C1879.03 1759.66 1880.64 1754.99 1883.31 1750.92C1885.81 1746.74 1889.31 1743.25 1893.49 1740.77C1894.81 1740.03 1896.24 1739.5 1897.72 1739.22C1899.09 1743.94 1897.48 1750.91 1893.48 1757.29C1889.53 1763.6 1883.91 1768.15 1879.08 1768.99C1878.68 1767.53 1878.53 1766.02 1878.62 1764.51H1878.62Z" fill="#333333"/>
<path d="M1985.63 1784.28C1982.7 1782.45 1978.77 1782.71 1974.54 1785.02C1970.05 1787.66 1966.29 1791.39 1963.62 1795.86C1960.76 1800.22 1959.05 1805.22 1958.63 1810.42C1958.39 1815.23 1959.88 1818.89 1962.8 1820.72C1964.13 1821.53 1965.66 1821.95 1967.22 1821.93C1972.86 1821.93 1979.82 1817.09 1984.8 1809.13C1987.66 1804.77 1989.38 1799.77 1989.8 1794.58C1990.03 1789.77 1988.55 1786.11 1985.63 1784.28ZM1960.63 1810.51C1961.03 1805.66 1962.64 1800.99 1965.31 1796.92C1967.81 1792.74 1971.31 1789.25 1975.5 1786.77C1976.81 1786.03 1978.24 1785.5 1979.73 1785.22C1981.09 1789.94 1979.48 1796.91 1975.48 1803.29C1971.53 1809.61 1965.91 1814.15 1961.08 1814.99C1960.68 1813.53 1960.53 1812.02 1960.62 1810.51H1960.63ZM1987.8 1794.48C1987.4 1799.33 1985.78 1804 1983.11 1808.07C1977.5 1817.03 1968.68 1822.05 1963.86 1819.02C1963.03 1818.48 1962.34 1817.75 1961.85 1816.88C1967.19 1815.76 1972.99 1811.05 1977.18 1804.35C1981.35 1797.7 1983.06 1790.35 1981.76 1785.1C1982.75 1785.16 1983.71 1785.45 1984.56 1785.97C1986.85 1787.4 1988 1790.42 1987.8 1794.48H1987.8Z" fill="#333333"/>
<path d="M1710 1651.5L1860 1733.5M1860 1733.5V1909M1860 1733.5L2008 1651.5" stroke="#333333" stroke-width="2"/>
<path d="M1859.5 1393L2008.46 1479V1651L1859.5 1737L1710.54 1651V1479L1859.5 1393Z" fill="#1F1D1D" stroke="#38421E" stroke-width="2"/>
<path d="M1858.21 1444C1870.27 1444 1879.71 1438.51 1879.71 1431.5V1421H1879.67C1879.23 1414.23 1869.98 1409 1858.21 1409C1846.45 1409 1837.19 1414.23 1836.75 1421H1836.71V1431.5C1836.71 1438.51 1846.16 1444 1858.21 1444ZM1858.21 1411C1868.78 1411 1877.71 1415.81 1877.71 1421.5C1877.71 1427.19 1868.78 1432 1858.21 1432C1847.64 1432 1838.71 1427.19 1838.71 1421.5C1838.71 1415.81 1847.64 1411 1858.21 1411ZM1838.71 1426.82C1842.09 1431.09 1849.45 1434 1858.21 1434C1866.97 1434 1874.33 1431.1 1877.71 1426.82V1431.5C1877.71 1437.19 1868.78 1442 1858.21 1442C1847.64 1442 1838.71 1437.19 1838.71 1431.5V1426.82Z" fill="#38421E"/>
<path d="M1777.21 1491C1789.27 1491 1798.71 1485.51 1798.71 1478.5V1468H1798.67C1798.23 1461.23 1788.98 1456 1777.21 1456C1765.45 1456 1756.19 1461.23 1755.75 1468H1755.71V1478.5C1755.71 1485.51 1765.16 1491 1777.21 1491ZM1777.21 1458C1787.78 1458 1796.71 1462.81 1796.71 1468.5C1796.71 1474.19 1787.78 1479 1777.21 1479C1766.64 1479 1757.71 1474.19 1757.71 1468.5C1757.71 1462.81 1766.64 1458 1777.21 1458ZM1777.21 1481C1785.97 1481 1793.33 1478.1 1796.71 1473.82V1478.5C1796.71 1484.19 1787.78 1489 1777.21 1489C1766.64 1489 1757.71 1484.19 1757.71 1478.5V1473.82C1761.09 1478.09 1768.45 1481 1777.21 1481Z" fill="#38421E"/>
<path d="M1724.61 1640.42C1729.08 1649.21 1736.03 1654.78 1741.83 1654.78C1742.93 1654.79 1744.02 1654.56 1745.03 1654.13L1745.05 1654.16L1745.48 1653.93H1745.49H1745.5L1754.41 1649.41C1760.66 1646.23 1761.27 1635.33 1755.81 1624.58C1750.34 1613.83 1741.17 1607.9 1734.93 1611.08L1726.01 1615.6L1725.57 1615.83L1725.59 1615.87C1719.76 1619.32 1719.28 1629.93 1724.61 1640.42ZM1735.84 1612.85C1740.91 1610.27 1749.24 1616.05 1754.03 1625.48C1758.82 1634.9 1758.58 1645.04 1753.5 1647.62L1749.33 1649.74C1751.61 1644.79 1750.87 1636.91 1746.9 1629.1C1742.93 1621.29 1737.01 1616.05 1731.67 1614.97L1735.84 1612.85ZM1726.92 1617.38C1731.99 1614.81 1740.32 1620.58 1745.11 1630.01C1749.9 1639.43 1749.66 1649.56 1744.59 1652.15L1744.58 1652.15C1739.5 1654.72 1731.18 1648.94 1726.39 1639.52C1721.6 1630.1 1721.85 1619.96 1726.92 1617.38V1617.38Z" fill="#38421E"/>
<path d="M1822.83 1608.78C1823.93 1608.79 1825.02 1608.56 1826.03 1608.13L1826.05 1608.16L1826.48 1607.93H1826.49H1826.5L1835.41 1603.41C1841.66 1600.23 1842.27 1589.33 1836.81 1578.58C1831.34 1567.83 1822.17 1561.9 1815.93 1565.08L1807.01 1569.6L1806.57 1569.83L1806.59 1569.87C1800.76 1573.32 1800.28 1583.94 1805.61 1594.43C1810.08 1603.21 1817.03 1608.78 1822.83 1608.78ZM1816.84 1566.85C1821.91 1564.27 1830.24 1570.05 1835.03 1579.48C1839.82 1588.9 1839.58 1599.04 1834.5 1601.62L1830.33 1603.74C1832.61 1598.79 1831.87 1590.91 1827.9 1583.1C1823.93 1575.29 1818.01 1570.05 1812.67 1568.97L1816.84 1566.85ZM1807.92 1571.38C1812.99 1568.8 1821.32 1574.58 1826.11 1584.01C1830.9 1593.43 1830.66 1603.56 1825.59 1606.15H1825.58C1820.5 1608.72 1812.18 1602.93 1807.39 1593.51C1802.6 1584.1 1802.85 1573.96 1807.92 1571.38V1571.38Z" fill="#38421E"/>
<path d="M1880.45 1695.95L1889.31 1701.59L1889.33 1701.56C1890.56 1702.22 1891.93 1702.57 1893.33 1702.56C1895.67 1702.48 1897.96 1701.83 1899.98 1700.66C1904.49 1698.04 1908.27 1694.34 1910.98 1689.89C1917.29 1679.96 1917.85 1669.35 1912.38 1665.34L1912.4 1665.31L1911.98 1665.04L1903.54 1659.67C1897.63 1655.91 1887.93 1660.93 1881.45 1671.1C1878.57 1675.44 1876.82 1680.43 1876.36 1685.62C1876.08 1690.43 1877.54 1694.1 1880.45 1695.95ZM1909.29 1688.82C1906.77 1692.98 1903.24 1696.45 1899.04 1698.9C1895.46 1700.82 1892.24 1701.08 1889.96 1699.64C1885.16 1696.58 1885.9 1686.46 1891.57 1677.55C1896.11 1670.42 1902.67 1665.83 1907.57 1665.83C1908.74 1665.8 1909.9 1666.11 1910.9 1666.73V1666.73C1915.7 1669.78 1914.96 1679.9 1909.29 1688.82V1688.82ZM1878.35 1685.73C1878.79 1680.88 1880.43 1676.22 1883.13 1672.17C1888.81 1663.26 1897.66 1658.3 1902.46 1661.36L1906.41 1663.87C1900.99 1664.43 1894.59 1669.08 1889.88 1676.47C1885.18 1683.86 1883.68 1691.63 1885.47 1696.78L1881.53 1694.27C1879.25 1692.82 1878.12 1689.79 1878.35 1685.73V1685.73Z" fill="#38421E"/>
<path d="M1961.45 1553.95L1970.31 1559.59L1970.33 1559.56C1971.56 1560.22 1972.93 1560.57 1974.33 1560.56C1976.67 1560.48 1978.96 1559.83 1980.98 1558.66C1985.49 1556.04 1989.27 1552.34 1991.98 1547.89C1998.29 1537.96 1998.85 1527.35 1993.38 1523.34L1993.4 1523.31L1992.98 1523.04L1984.54 1517.67C1978.63 1513.91 1968.93 1518.93 1962.45 1529.1C1959.57 1533.44 1957.82 1538.43 1957.36 1543.62C1957.08 1548.43 1958.54 1552.1 1961.45 1553.95ZM1990.29 1546.82C1987.77 1550.98 1984.24 1554.45 1980.04 1556.9C1976.46 1558.82 1973.24 1559.08 1970.96 1557.64C1966.16 1554.58 1966.9 1544.47 1972.57 1535.55C1977.11 1528.42 1983.67 1523.83 1988.57 1523.83C1989.74 1523.8 1990.9 1524.11 1991.9 1524.73V1524.73C1996.7 1527.78 1995.96 1537.9 1990.29 1546.82V1546.82ZM1959.35 1543.73C1959.79 1538.88 1961.43 1534.22 1964.13 1530.17C1969.81 1521.26 1978.66 1516.3 1983.46 1519.36L1987.41 1521.87C1981.99 1522.43 1975.59 1527.08 1970.88 1534.47C1966.18 1541.86 1964.68 1549.63 1966.47 1554.78L1962.53 1552.27C1960.25 1550.82 1959.12 1547.79 1959.35 1543.73V1543.73Z" fill="#38421E"/>
<path d="M1858.21 1538C1870.27 1538 1879.71 1532.51 1879.71 1525.5V1515H1879.67C1879.23 1508.23 1869.98 1503 1858.21 1503C1846.45 1503 1837.19 1508.23 1836.75 1515H1836.71V1525.5C1836.71 1532.51 1846.16 1538 1858.21 1538ZM1858.21 1505C1868.78 1505 1877.71 1509.81 1877.71 1515.5C1877.71 1521.19 1868.78 1526 1858.21 1526C1847.64 1526 1838.71 1521.19 1838.71 1515.5C1838.71 1509.81 1847.64 1505 1858.21 1505ZM1838.71 1520.82C1842.09 1525.09 1849.45 1528 1858.21 1528C1866.97 1528 1874.33 1525.1 1877.71 1520.82V1525.5C1877.71 1531.19 1868.78 1536 1858.21 1536C1847.64 1536 1838.71 1531.19 1838.71 1525.5V1520.82Z" fill="#38421E"/>
<path d="M1940.21 1491C1952.27 1491 1961.71 1485.51 1961.71 1478.5V1468H1961.67C1961.23 1461.23 1951.98 1456 1940.21 1456C1928.45 1456 1919.19 1461.23 1918.75 1468H1918.71V1478.5C1918.71 1485.51 1928.16 1491 1940.21 1491ZM1940.21 1458C1950.78 1458 1959.71 1462.81 1959.71 1468.5C1959.71 1474.19 1950.78 1479 1940.21 1479C1929.64 1479 1920.71 1474.19 1920.71 1468.5C1920.71 1462.81 1929.64 1458 1940.21 1458ZM1920.71 1473.82C1924.09 1478.09 1931.45 1481 1940.21 1481C1948.97 1481 1956.33 1478.1 1959.71 1473.82V1478.5C1959.71 1484.19 1950.78 1489 1940.21 1489C1929.64 1489 1920.71 1484.19 1920.71 1478.5V1473.82Z" fill="#38421E"/>
<path d="M1858.21 1490C1870.27 1490 1879.71 1484.51 1879.71 1477.5C1879.71 1470.49 1870.27 1465 1858.21 1465C1846.16 1465 1836.71 1470.49 1836.71 1477.5C1836.71 1484.51 1846.16 1490 1858.21 1490ZM1858.21 1488C1850.6 1488 1843.85 1485.5 1840.67 1481.97C1843.95 1478.32 1850.7 1476 1858.21 1476C1865.65 1476 1872.47 1478.34 1875.75 1481.98C1872.57 1485.5 1865.82 1488 1858.21 1488ZM1858.21 1467C1868.78 1467 1877.71 1471.81 1877.71 1477.5C1877.7 1478.49 1877.43 1479.46 1876.95 1480.32C1873.16 1476.41 1866.1 1474 1858.21 1474C1850.37 1474 1843.24 1476.45 1839.48 1480.33C1838.99 1479.46 1838.73 1478.49 1838.71 1477.5C1838.71 1471.81 1847.64 1467 1858.21 1467Z" fill="#38421E"/>
<path d="M1749.38 1557.47C1750.68 1557.48 1751.96 1557.17 1753.12 1556.58C1759.34 1553.35 1759.86 1542.44 1754.32 1531.74C1752.01 1527.07 1748.58 1523.05 1744.32 1520.05C1740.29 1517.4 1736.39 1516.82 1733.32 1518.41C1730.26 1520 1728.49 1523.52 1728.33 1528.34C1728.33 1533.55 1729.64 1538.68 1732.13 1543.25C1736.64 1551.97 1743.59 1557.47 1749.38 1557.47ZM1752.54 1532.67C1756.04 1539.43 1756.93 1546.57 1755.27 1551.02C1750.52 1549.78 1745.35 1544.86 1741.89 1538.19C1738.45 1531.57 1737.39 1524.42 1739.13 1519.83C1740.59 1520.24 1741.96 1520.88 1743.21 1521.73C1747.18 1524.54 1750.39 1528.3 1752.53 1532.66L1752.54 1532.67ZM1734.24 1520.19C1735.1 1519.75 1736.06 1519.53 1737.02 1519.54C1737.05 1519.54 1737.08 1519.54 1737.1 1519.54C1735.36 1524.7 1736.47 1532.09 1740.1 1539.11C1743.72 1546.07 1749.17 1551.27 1754.35 1552.82C1753.8 1553.66 1753.06 1554.34 1752.19 1554.81C1747.14 1557.42 1738.76 1551.71 1733.89 1542.33C1731.56 1538.06 1730.33 1533.27 1730.32 1528.41C1730.45 1524.34 1731.84 1521.43 1734.23 1520.19L1734.24 1520.19Z" fill="#38421E"/>
<path d="M1825.3 1661.05C1821.28 1658.4 1817.38 1657.82 1814.31 1659.41C1811.25 1661 1809.48 1664.52 1809.32 1669.34C1809.32 1674.55 1810.63 1679.68 1813.12 1684.25C1817.64 1692.97 1824.59 1698.47 1830.38 1698.47C1831.68 1698.48 1832.96 1698.17 1834.11 1697.58C1840.34 1694.35 1840.86 1683.44 1835.31 1672.74C1833.01 1668.07 1829.57 1664.05 1825.3 1661.05V1661.05ZM1833.19 1695.81C1828.14 1698.42 1819.76 1692.71 1814.89 1683.33C1812.56 1679.06 1811.33 1674.27 1811.32 1669.4C1811.45 1665.34 1812.84 1662.43 1815.23 1661.19C1816.1 1660.75 1817.05 1660.52 1818.02 1660.53C1818.05 1660.53 1818.07 1660.53 1818.1 1660.53C1816.35 1665.7 1817.47 1673.09 1821.1 1680.1C1824.71 1687.07 1830.17 1692.27 1835.34 1693.82C1834.8 1694.65 1834.06 1695.33 1833.19 1695.81V1695.81ZM1836.26 1692.01C1831.51 1690.77 1826.34 1685.85 1822.88 1679.18C1819.45 1672.56 1818.39 1665.41 1820.13 1660.82C1821.58 1661.23 1822.96 1661.87 1824.21 1662.72C1828.18 1665.53 1831.39 1669.29 1833.53 1673.66C1837.04 1680.42 1837.92 1687.56 1836.26 1692.01V1692.01Z" fill="#38421E"/>
<path d="M1880.8 1602.72C1882.13 1603.53 1883.66 1603.96 1885.22 1603.93C1890.86 1603.93 1897.82 1599.09 1902.8 1591.13C1905.66 1586.77 1907.38 1581.77 1907.8 1576.58C1908.03 1571.77 1906.55 1568.11 1903.63 1566.28C1900.7 1564.45 1896.77 1564.71 1892.54 1567.02C1888.05 1569.67 1884.29 1573.39 1881.62 1577.86C1878.76 1582.22 1877.05 1587.23 1876.63 1592.42C1876.39 1597.23 1877.88 1600.88 1880.8 1602.72ZM1905.8 1576.48C1905.39 1581.33 1903.78 1586 1901.11 1590.07C1895.5 1599.03 1886.68 1604.04 1881.86 1601.02C1881.02 1600.48 1880.33 1599.75 1879.85 1598.88C1885.18 1597.76 1890.98 1593.05 1895.18 1586.35C1899.34 1579.7 1901.05 1572.35 1899.76 1567.1C1900.75 1567.16 1901.71 1567.45 1902.56 1567.97C1904.85 1569.4 1906 1572.42 1905.8 1576.48H1905.8ZM1878.62 1592.51C1879.03 1587.66 1880.64 1582.99 1883.31 1578.92C1885.81 1574.74 1889.31 1571.25 1893.49 1568.77C1894.81 1568.03 1896.24 1567.5 1897.72 1567.22C1899.09 1571.94 1897.48 1578.91 1893.48 1585.29C1889.53 1591.6 1883.91 1596.15 1879.08 1596.99C1878.68 1595.53 1878.53 1594.02 1878.62 1592.51H1878.62Z" fill="#38421E"/>
<path d="M1985.63 1612.28C1982.7 1610.45 1978.77 1610.71 1974.54 1613.02C1970.05 1615.66 1966.29 1619.39 1963.62 1623.86C1960.76 1628.22 1959.05 1633.22 1958.63 1638.42C1958.39 1643.23 1959.88 1646.89 1962.8 1648.72C1964.13 1649.53 1965.66 1649.95 1967.22 1649.93C1972.86 1649.93 1979.82 1645.09 1984.8 1637.13C1987.66 1632.77 1989.38 1627.77 1989.8 1622.58C1990.03 1617.77 1988.55 1614.11 1985.63 1612.28ZM1960.63 1638.51C1961.03 1633.66 1962.64 1628.99 1965.31 1624.92C1967.81 1620.74 1971.31 1617.25 1975.5 1614.77C1976.81 1614.03 1978.24 1613.5 1979.73 1613.22C1981.09 1617.94 1979.48 1624.91 1975.48 1631.29C1971.53 1637.61 1965.91 1642.15 1961.08 1642.99C1960.68 1641.53 1960.53 1640.02 1960.62 1638.51H1960.63ZM1987.8 1622.48C1987.4 1627.33 1985.78 1632 1983.11 1636.07C1977.5 1645.03 1968.68 1650.05 1963.86 1647.02C1963.03 1646.48 1962.34 1645.75 1961.85 1644.88C1967.19 1643.76 1972.99 1639.05 1977.18 1632.35C1981.35 1625.7 1983.06 1618.35 1981.76 1613.1C1982.75 1613.16 1983.71 1613.45 1984.56 1613.97C1986.85 1615.4 1988 1618.42 1987.8 1622.48H1987.8Z" fill="#38421E"/>
<path d="M1710 1479.5L1860 1561.5M1860 1561.5V1737M1860 1561.5L2008 1479.5" stroke="#38421E" stroke-width="2"/>
<path d="M1859.5 1220L2008.46 1306V1478L1859.5 1564L1710.54 1478V1306L1859.5 1220Z" fill="#1F1D1D" stroke="#333333" stroke-width="2"/>
<path d="M1858.21 1271C1870.27 1271 1879.71 1265.51 1879.71 1258.5V1248H1879.67C1879.23 1241.23 1869.98 1236 1858.21 1236C1846.45 1236 1837.19 1241.23 1836.75 1248H1836.71V1258.5C1836.71 1265.51 1846.16 1271 1858.21 1271ZM1858.21 1238C1868.78 1238 1877.71 1242.81 1877.71 1248.5C1877.71 1254.19 1868.78 1259 1858.21 1259C1847.64 1259 1838.71 1254.19 1838.71 1248.5C1838.71 1242.81 1847.64 1238 1858.21 1238ZM1838.71 1253.82C1842.09 1258.09 1849.45 1261 1858.21 1261C1866.97 1261 1874.33 1258.1 1877.71 1253.82V1258.5C1877.71 1264.19 1868.78 1269 1858.21 1269C1847.64 1269 1838.71 1264.19 1838.71 1258.5V1253.82Z" fill="#333333"/>
<path d="M1777.21 1318C1789.27 1318 1798.71 1312.51 1798.71 1305.5V1295H1798.67C1798.23 1288.23 1788.98 1283 1777.21 1283C1765.45 1283 1756.19 1288.23 1755.75 1295H1755.71V1305.5C1755.71 1312.51 1765.16 1318 1777.21 1318ZM1777.21 1285C1787.78 1285 1796.71 1289.81 1796.71 1295.5C1796.71 1301.19 1787.78 1306 1777.21 1306C1766.64 1306 1757.71 1301.19 1757.71 1295.5C1757.71 1289.81 1766.64 1285 1777.21 1285ZM1777.21 1308C1785.97 1308 1793.33 1305.1 1796.71 1300.82V1305.5C1796.71 1311.19 1787.78 1316 1777.21 1316C1766.64 1316 1757.71 1311.19 1757.71 1305.5V1300.82C1761.09 1305.09 1768.45 1308 1777.21 1308Z" fill="#333333"/>
<path d="M1724.61 1467.42C1729.08 1476.21 1736.03 1481.78 1741.83 1481.78C1742.93 1481.79 1744.02 1481.56 1745.03 1481.13L1745.05 1481.16L1745.48 1480.93H1745.49H1745.5L1754.41 1476.41C1760.66 1473.23 1761.27 1462.33 1755.81 1451.58C1750.34 1440.83 1741.17 1434.9 1734.93 1438.08L1726.01 1442.6L1725.57 1442.83L1725.59 1442.87C1719.76 1446.32 1719.28 1456.93 1724.61 1467.42ZM1735.84 1439.85C1740.91 1437.27 1749.24 1443.05 1754.03 1452.48C1758.82 1461.9 1758.58 1472.04 1753.5 1474.62L1749.33 1476.74C1751.61 1471.79 1750.87 1463.91 1746.9 1456.1C1742.93 1448.29 1737.01 1443.05 1731.67 1441.97L1735.84 1439.85ZM1726.92 1444.38C1731.99 1441.81 1740.32 1447.58 1745.11 1457.01C1749.9 1466.43 1749.66 1476.56 1744.59 1479.15L1744.58 1479.15C1739.5 1481.72 1731.18 1475.94 1726.39 1466.52C1721.6 1457.1 1721.85 1446.96 1726.92 1444.38V1444.38Z" fill="#333333"/>
<path d="M1822.83 1435.78C1823.93 1435.79 1825.02 1435.56 1826.03 1435.13L1826.05 1435.16L1826.48 1434.93H1826.49H1826.5L1835.41 1430.41C1841.66 1427.23 1842.27 1416.33 1836.81 1405.58C1831.34 1394.83 1822.17 1388.9 1815.93 1392.08L1807.01 1396.6L1806.57 1396.83L1806.59 1396.87C1800.76 1400.32 1800.28 1410.94 1805.61 1421.43C1810.08 1430.21 1817.03 1435.78 1822.83 1435.78ZM1816.84 1393.85C1821.91 1391.27 1830.24 1397.05 1835.03 1406.48C1839.82 1415.9 1839.58 1426.04 1834.5 1428.62L1830.33 1430.74C1832.61 1425.79 1831.87 1417.91 1827.9 1410.1C1823.93 1402.29 1818.01 1397.05 1812.67 1395.97L1816.84 1393.85ZM1807.92 1398.38C1812.99 1395.8 1821.32 1401.58 1826.11 1411.01C1830.9 1420.43 1830.66 1430.56 1825.59 1433.15H1825.58C1820.5 1435.72 1812.18 1429.93 1807.39 1420.51C1802.6 1411.1 1802.85 1400.96 1807.92 1398.38V1398.38Z" fill="#333333"/>
<path d="M1880.45 1522.95L1889.31 1528.59L1889.33 1528.56C1890.56 1529.22 1891.93 1529.57 1893.33 1529.56C1895.67 1529.48 1897.96 1528.83 1899.98 1527.66C1904.49 1525.04 1908.27 1521.34 1910.98 1516.89C1917.29 1506.96 1917.85 1496.35 1912.38 1492.34L1912.4 1492.31L1911.98 1492.04L1903.54 1486.67C1897.63 1482.91 1887.93 1487.93 1881.45 1498.1C1878.57 1502.44 1876.82 1507.43 1876.36 1512.62C1876.08 1517.43 1877.54 1521.1 1880.45 1522.95ZM1909.29 1515.82C1906.77 1519.98 1903.24 1523.45 1899.04 1525.9C1895.46 1527.82 1892.24 1528.08 1889.96 1526.64C1885.16 1523.58 1885.9 1513.46 1891.57 1504.55C1896.11 1497.42 1902.67 1492.83 1907.57 1492.83C1908.74 1492.8 1909.9 1493.11 1910.9 1493.73V1493.73C1915.7 1496.78 1914.96 1506.9 1909.29 1515.82V1515.82ZM1878.35 1512.73C1878.79 1507.88 1880.43 1503.22 1883.13 1499.17C1888.81 1490.26 1897.66 1485.3 1902.46 1488.36L1906.41 1490.87C1900.99 1491.43 1894.59 1496.08 1889.88 1503.47C1885.18 1510.86 1883.68 1518.63 1885.47 1523.78L1881.53 1521.27C1879.25 1519.82 1878.12 1516.79 1878.35 1512.73V1512.73Z" fill="#333333"/>
<path d="M1961.45 1380.95L1970.31 1386.59L1970.33 1386.56C1971.56 1387.22 1972.93 1387.57 1974.33 1387.56C1976.67 1387.48 1978.96 1386.83 1980.98 1385.66C1985.49 1383.04 1989.27 1379.34 1991.98 1374.89C1998.29 1364.96 1998.85 1354.35 1993.38 1350.34L1993.4 1350.31L1992.98 1350.04L1984.54 1344.67C1978.63 1340.91 1968.93 1345.93 1962.45 1356.1C1959.57 1360.44 1957.82 1365.43 1957.36 1370.62C1957.08 1375.43 1958.54 1379.1 1961.45 1380.95ZM1990.29 1373.82C1987.77 1377.98 1984.24 1381.45 1980.04 1383.9C1976.46 1385.82 1973.24 1386.08 1970.96 1384.64C1966.16 1381.58 1966.9 1371.47 1972.57 1362.55C1977.11 1355.42 1983.67 1350.83 1988.57 1350.83C1989.74 1350.8 1990.9 1351.11 1991.9 1351.73V1351.73C1996.7 1354.78 1995.96 1364.9 1990.29 1373.82V1373.82ZM1959.35 1370.73C1959.79 1365.88 1961.43 1361.22 1964.13 1357.17C1969.81 1348.26 1978.66 1343.3 1983.46 1346.36L1987.41 1348.87C1981.99 1349.43 1975.59 1354.08 1970.88 1361.47C1966.18 1368.86 1964.68 1376.63 1966.47 1381.78L1962.53 1379.27C1960.25 1377.82 1959.12 1374.79 1959.35 1370.73V1370.73Z" fill="#333333"/>
<path d="M1858.21 1365C1870.27 1365 1879.71 1359.51 1879.71 1352.5V1342H1879.67C1879.23 1335.23 1869.98 1330 1858.21 1330C1846.45 1330 1837.19 1335.23 1836.75 1342H1836.71V1352.5C1836.71 1359.51 1846.16 1365 1858.21 1365ZM1858.21 1332C1868.78 1332 1877.71 1336.81 1877.71 1342.5C1877.71 1348.19 1868.78 1353 1858.21 1353C1847.64 1353 1838.71 1348.19 1838.71 1342.5C1838.71 1336.81 1847.64 1332 1858.21 1332ZM1838.71 1347.82C1842.09 1352.09 1849.45 1355 1858.21 1355C1866.97 1355 1874.33 1352.1 1877.71 1347.82V1352.5C1877.71 1358.19 1868.78 1363 1858.21 1363C1847.64 1363 1838.71 1358.19 1838.71 1352.5V1347.82Z" fill="#333333"/>
<path d="M1940.21 1318C1952.27 1318 1961.71 1312.51 1961.71 1305.5V1295H1961.67C1961.23 1288.23 1951.98 1283 1940.21 1283C1928.45 1283 1919.19 1288.23 1918.75 1295H1918.71V1305.5C1918.71 1312.51 1928.16 1318 1940.21 1318ZM1940.21 1285C1950.78 1285 1959.71 1289.81 1959.71 1295.5C1959.71 1301.19 1950.78 1306 1940.21 1306C1929.64 1306 1920.71 1301.19 1920.71 1295.5C1920.71 1289.81 1929.64 1285 1940.21 1285ZM1920.71 1300.82C1924.09 1305.09 1931.45 1308 1940.21 1308C1948.97 1308 1956.33 1305.1 1959.71 1300.82V1305.5C1959.71 1311.19 1950.78 1316 1940.21 1316C1929.64 1316 1920.71 1311.19 1920.71 1305.5V1300.82Z" fill="#333333"/>
<path d="M1858.21 1317C1870.27 1317 1879.71 1311.51 1879.71 1304.5C1879.71 1297.49 1870.27 1292 1858.21 1292C1846.16 1292 1836.71 1297.49 1836.71 1304.5C1836.71 1311.51 1846.16 1317 1858.21 1317ZM1858.21 1315C1850.6 1315 1843.85 1312.5 1840.67 1308.97C1843.95 1305.32 1850.7 1303 1858.21 1303C1865.65 1303 1872.47 1305.34 1875.75 1308.98C1872.57 1312.5 1865.82 1315 1858.21 1315ZM1858.21 1294C1868.78 1294 1877.71 1298.81 1877.71 1304.5C1877.7 1305.49 1877.43 1306.46 1876.95 1307.32C1873.16 1303.41 1866.1 1301 1858.21 1301C1850.37 1301 1843.24 1303.45 1839.48 1307.33C1838.99 1306.46 1838.73 1305.49 1838.71 1304.5C1838.71 1298.81 1847.64 1294 1858.21 1294Z" fill="#333333"/>
<path d="M1749.38 1384.47C1750.68 1384.48 1751.96 1384.17 1753.12 1383.58C1759.34 1380.35 1759.86 1369.44 1754.32 1358.74C1752.01 1354.07 1748.58 1350.05 1744.32 1347.05C1740.29 1344.4 1736.39 1343.82 1733.32 1345.41C1730.26 1347 1728.49 1350.52 1728.33 1355.34C1728.33 1360.55 1729.64 1365.68 1732.13 1370.25C1736.64 1378.97 1743.59 1384.47 1749.38 1384.47ZM1752.54 1359.67C1756.04 1366.43 1756.93 1373.57 1755.27 1378.02C1750.52 1376.78 1745.35 1371.86 1741.89 1365.19C1738.45 1358.57 1737.39 1351.42 1739.13 1346.83C1740.59 1347.24 1741.96 1347.88 1743.21 1348.73C1747.18 1351.54 1750.39 1355.3 1752.53 1359.66L1752.54 1359.67ZM1734.24 1347.19C1735.1 1346.75 1736.06 1346.53 1737.02 1346.54C1737.05 1346.54 1737.08 1346.54 1737.1 1346.54C1735.36 1351.7 1736.47 1359.09 1740.1 1366.11C1743.72 1373.07 1749.17 1378.27 1754.35 1379.82C1753.8 1380.66 1753.06 1381.34 1752.19 1381.81C1747.14 1384.42 1738.76 1378.71 1733.89 1369.33C1731.56 1365.06 1730.33 1360.27 1730.32 1355.41C1730.45 1351.34 1731.84 1348.43 1734.23 1347.19L1734.24 1347.19Z" fill="#333333"/>
<path d="M1825.3 1488.05C1821.28 1485.4 1817.38 1484.82 1814.31 1486.41C1811.25 1488 1809.48 1491.52 1809.32 1496.34C1809.32 1501.55 1810.63 1506.68 1813.12 1511.25C1817.64 1519.97 1824.59 1525.47 1830.38 1525.47C1831.68 1525.48 1832.96 1525.17 1834.11 1524.58C1840.34 1521.35 1840.86 1510.44 1835.31 1499.74C1833.01 1495.07 1829.57 1491.05 1825.3 1488.05V1488.05ZM1833.19 1522.81C1828.14 1525.42 1819.76 1519.71 1814.89 1510.33C1812.56 1506.06 1811.33 1501.27 1811.32 1496.4C1811.45 1492.34 1812.84 1489.43 1815.23 1488.19C1816.1 1487.75 1817.05 1487.52 1818.02 1487.53C1818.05 1487.53 1818.07 1487.53 1818.1 1487.53C1816.35 1492.7 1817.47 1500.09 1821.1 1507.1C1824.71 1514.07 1830.17 1519.27 1835.34 1520.82C1834.8 1521.65 1834.06 1522.33 1833.19 1522.81V1522.81ZM1836.26 1519.01C1831.51 1517.77 1826.34 1512.85 1822.88 1506.18C1819.45 1499.56 1818.39 1492.41 1820.13 1487.82C1821.58 1488.23 1822.96 1488.87 1824.21 1489.72C1828.18 1492.53 1831.39 1496.29 1833.53 1500.66C1837.04 1507.42 1837.92 1514.56 1836.26 1519.01V1519.01Z" fill="#333333"/>
<path d="M1880.8 1429.72C1882.13 1430.53 1883.66 1430.96 1885.22 1430.93C1890.86 1430.93 1897.82 1426.09 1902.8 1418.13C1905.66 1413.77 1907.38 1408.77 1907.8 1403.58C1908.03 1398.77 1906.55 1395.11 1903.63 1393.28C1900.7 1391.45 1896.77 1391.71 1892.54 1394.02C1888.05 1396.67 1884.29 1400.39 1881.62 1404.86C1878.76 1409.22 1877.05 1414.23 1876.63 1419.42C1876.39 1424.23 1877.88 1427.88 1880.8 1429.72ZM1905.8 1403.48C1905.39 1408.33 1903.78 1413 1901.11 1417.07C1895.5 1426.03 1886.68 1431.04 1881.86 1428.02C1881.02 1427.48 1880.33 1426.75 1879.85 1425.88C1885.18 1424.76 1890.98 1420.05 1895.18 1413.35C1899.34 1406.7 1901.05 1399.35 1899.76 1394.1C1900.75 1394.16 1901.71 1394.45 1902.56 1394.97C1904.85 1396.4 1906 1399.42 1905.8 1403.48H1905.8ZM1878.62 1419.51C1879.03 1414.66 1880.64 1409.99 1883.31 1405.92C1885.81 1401.74 1889.31 1398.25 1893.49 1395.77C1894.81 1395.03 1896.24 1394.5 1897.72 1394.22C1899.09 1398.94 1897.48 1405.91 1893.48 1412.29C1889.53 1418.6 1883.91 1423.15 1879.08 1423.99C1878.68 1422.53 1878.53 1421.02 1878.62 1419.51H1878.62Z" fill="#333333"/>
<path d="M1985.63 1439.28C1982.7 1437.45 1978.77 1437.71 1974.54 1440.02C1970.05 1442.66 1966.29 1446.39 1963.62 1450.86C1960.76 1455.22 1959.05 1460.22 1958.63 1465.42C1958.39 1470.23 1959.88 1473.89 1962.8 1475.72C1964.13 1476.53 1965.66 1476.95 1967.22 1476.93C1972.86 1476.93 1979.82 1472.09 1984.8 1464.13C1987.66 1459.77 1989.38 1454.77 1989.8 1449.58C1990.03 1444.77 1988.55 1441.11 1985.63 1439.28ZM1960.63 1465.51C1961.03 1460.66 1962.64 1455.99 1965.31 1451.92C1967.81 1447.74 1971.31 1444.25 1975.5 1441.77C1976.81 1441.03 1978.24 1440.5 1979.73 1440.22C1981.09 1444.94 1979.48 1451.91 1975.48 1458.29C1971.53 1464.61 1965.91 1469.15 1961.08 1469.99C1960.68 1468.53 1960.53 1467.02 1960.62 1465.51H1960.63ZM1987.8 1449.48C1987.4 1454.33 1985.78 1459 1983.11 1463.07C1977.5 1472.03 1968.68 1477.05 1963.86 1474.02C1963.03 1473.48 1962.34 1472.75 1961.85 1471.88C1967.19 1470.76 1972.99 1466.05 1977.18 1459.35C1981.35 1452.7 1983.06 1445.35 1981.76 1440.1C1982.75 1440.16 1983.71 1440.45 1984.56 1440.97C1986.85 1442.4 1988 1445.42 1987.8 1449.48H1987.8Z" fill="#333333"/>
<path d="M1710 1306.5L1860 1388.5M1860 1388.5V1564M1860 1388.5L2008 1306.5" stroke="#333333" stroke-width="2"/>
<g opacity="0.8">
<path d="M446.5 259L595.456 345V517L446.5 603L297.544 517V345L446.5 259Z" fill="#1F1D1D" stroke="#333333" stroke-width="2"/>
<path d="M445.213 309.999C457.268 309.999 466.713 304.508 466.713 297.499V286.999H466.671C466.23 280.233 456.977 274.999 445.213 274.999C433.449 274.999 424.195 280.233 423.755 286.999H423.713V297.499C423.713 304.505 433.157 309.999 445.213 309.999ZM445.213 276.999C455.783 276.999 464.713 281.808 464.713 287.499C464.713 293.19 455.783 297.999 445.213 297.999C434.643 297.999 425.713 293.191 425.713 287.499C425.713 281.807 434.642 276.999 445.213 276.999ZM425.713 292.821C429.094 297.094 436.454 299.999 445.213 299.999C453.972 299.999 461.331 297.099 464.713 292.821V297.499C464.713 303.191 455.783 307.999 445.213 307.999C434.643 307.999 425.713 303.191 425.713 297.499V292.821Z" fill="#333333"/>
<path d="M364.213 356.999C376.268 356.999 385.713 351.508 385.713 344.499V333.999H385.671C385.23 327.233 375.977 321.999 364.213 321.999C352.449 321.999 343.195 327.233 342.755 333.999H342.713V344.499C342.713 351.505 352.157 356.999 364.213 356.999ZM364.213 323.999C374.783 323.999 383.713 328.808 383.713 334.499C383.713 340.19 374.783 344.999 364.213 344.999C353.643 344.999 344.713 340.191 344.713 334.499C344.713 328.807 353.642 323.999 364.213 323.999ZM364.213 346.999C372.971 346.999 380.331 344.099 383.713 339.821V344.499C383.713 350.191 374.783 354.999 364.213 354.999C353.643 354.999 344.713 350.191 344.713 344.499V339.821C348.094 344.091 355.454 346.999 364.213 346.999Z" fill="#333333"/>
<path d="M311.61 506.423C316.077 515.214 323.027 520.783 328.829 520.783C329.931 520.786 331.022 520.563 332.034 520.128L332.048 520.155L332.485 519.933H332.494H332.5L341.409 515.406C347.657 512.232 348.274 501.325 342.809 490.576C337.344 479.827 328.173 473.896 321.926 477.076L313.013 481.604L312.569 481.829L312.588 481.866C306.757 485.315 306.283 495.934 311.61 506.423ZM322.838 478.847C327.907 476.268 336.238 482.052 341.031 491.476C345.824 500.9 345.577 511.038 340.503 513.616L336.332 515.735C338.61 510.785 337.866 502.907 333.899 495.099C329.932 487.291 324.009 482.045 318.668 480.965L322.838 478.847ZM313.919 483.378C318.988 480.805 327.319 486.584 332.111 496.007C336.903 505.43 336.657 515.562 331.588 518.145L331.577 518.15C326.505 520.721 318.177 514.939 313.388 505.519C308.599 496.099 308.847 485.958 313.919 483.378V483.378Z" fill="#333333"/>
<path d="M409.829 474.783C410.931 474.786 412.021 474.563 413.034 474.128L413.048 474.155L413.485 473.933H413.494H413.5L422.409 469.406C428.657 466.232 429.274 455.325 423.809 444.576C418.344 433.827 409.175 427.897 402.926 431.076L394.013 435.604L393.569 435.829L393.588 435.866C387.756 439.324 387.281 449.943 392.609 460.432C397.077 469.214 404.027 474.783 409.829 474.783ZM403.838 432.847C408.91 430.267 417.243 436.052 422.031 445.476C426.819 454.9 426.577 465.038 421.503 467.616L417.332 469.735C419.61 464.785 418.866 456.907 414.899 449.099C410.932 441.291 405.008 436.046 399.668 434.965L403.838 432.847ZM394.919 437.378C399.989 434.804 408.319 440.584 413.111 450.007C417.903 459.43 417.657 469.562 412.588 472.145H412.577C407.502 474.716 399.177 468.933 394.388 459.514C389.599 450.095 389.847 439.958 394.919 437.378V437.378Z" fill="#333333"/>
<path d="M467.452 561.951L476.31 567.588L476.33 567.557C477.557 568.224 478.933 568.568 480.33 568.557C482.67 568.479 484.955 567.826 486.984 566.657C491.491 564.043 495.27 560.342 497.978 555.891C504.294 545.964 504.845 535.349 499.378 531.345L499.4 531.31L498.979 531.042L490.543 525.675C484.628 521.915 474.929 526.932 468.455 537.104C465.57 541.442 463.818 546.433 463.36 551.623C463.083 556.431 464.542 560.099 467.452 561.951ZM496.29 554.817C493.767 558.981 490.243 562.447 486.037 564.899C482.458 566.821 479.237 567.083 476.963 565.636C472.163 562.581 472.897 552.465 478.572 543.548C483.106 536.422 489.672 531.828 494.572 531.828C495.744 531.802 496.899 532.115 497.898 532.728V532.728C502.701 535.785 501.963 545.899 496.29 554.817V554.817ZM465.35 551.732C465.789 546.884 467.434 542.224 470.135 538.175C475.809 529.259 484.657 524.303 489.462 527.36L493.41 529.872C487.988 530.431 481.586 535.081 476.884 542.472C472.182 549.863 470.684 557.63 472.473 562.777L468.526 560.266C466.253 558.817 465.125 555.788 465.35 551.732V551.732Z" fill="#333333"/>
<path d="M548.452 419.951L557.31 425.588L557.33 425.557C558.557 426.224 559.933 426.569 561.33 426.557C563.67 426.479 565.955 425.826 567.984 424.657C572.491 422.043 576.27 418.342 578.978 413.891C585.294 403.964 585.845 393.349 580.378 389.345L580.4 389.31L579.979 389.042L571.543 383.675C565.628 379.914 555.929 384.931 549.455 395.104C546.57 399.442 544.818 404.434 544.36 409.623C544.083 414.431 545.542 418.099 548.452 419.951ZM577.29 412.817C574.767 416.981 571.243 420.447 567.037 422.899C563.458 424.822 560.237 425.084 557.963 423.636C553.163 420.581 553.897 410.466 559.572 401.548C564.106 394.422 570.672 389.828 575.572 389.828C576.744 389.802 577.899 390.115 578.898 390.728V390.728C583.701 393.785 582.963 403.899 577.29 412.817V412.817ZM546.35 409.732C546.789 404.884 548.434 400.224 551.135 396.175C556.809 387.259 565.655 382.303 570.462 385.36L574.409 387.872C568.987 388.431 562.587 393.081 557.884 400.472C553.181 407.863 551.684 415.63 553.473 420.777L549.526 418.266C547.253 416.817 546.125 413.788 546.35 409.732V409.732Z" fill="#333333"/>
<path d="M445.213 403.999C457.268 403.999 466.713 398.508 466.713 391.499V380.999H466.671C466.23 374.233 456.977 368.999 445.213 368.999C433.449 368.999 424.195 374.233 423.755 380.999H423.713V391.499C423.713 398.505 433.157 403.999 445.213 403.999ZM445.213 370.999C455.783 370.999 464.713 375.808 464.713 381.499C464.713 387.19 455.783 391.999 445.213 391.999C434.643 391.999 425.713 387.191 425.713 381.499C425.713 375.807 434.642 370.999 445.213 370.999ZM425.713 386.821C429.094 391.094 436.454 393.999 445.213 393.999C453.972 393.999 461.331 391.099 464.713 386.821V391.499C464.713 397.191 455.783 401.999 445.213 401.999C434.643 401.999 425.713 397.191 425.713 391.499V386.821Z" fill="#333333"/>
<path d="M527.213 356.999C539.268 356.999 548.713 351.508 548.713 344.499V333.999H548.671C548.23 327.233 538.977 321.999 527.213 321.999C515.449 321.999 506.195 327.233 505.755 333.999H505.713V344.499C505.713 351.505 515.157 356.999 527.213 356.999ZM527.213 323.999C537.783 323.999 546.713 328.808 546.713 334.499C546.713 340.19 537.783 344.999 527.213 344.999C516.643 344.999 507.713 340.191 507.713 334.499C507.713 328.807 516.642 323.999 527.213 323.999ZM507.713 339.821C511.094 344.094 518.454 346.999 527.213 346.999C535.972 346.999 543.331 344.099 546.713 339.821V344.499C546.713 350.191 537.783 354.999 527.213 354.999C516.643 354.999 507.713 350.191 507.713 344.499V339.821Z" fill="#333333"/>
<path d="M445.213 355.999C457.268 355.999 466.713 350.508 466.713 343.499C466.713 336.49 457.268 330.999 445.213 330.999C433.158 330.999 423.713 336.49 423.713 343.499C423.713 350.508 433.157 355.999 445.213 355.999ZM445.213 353.999C437.597 353.999 430.853 351.499 427.666 347.973C430.949 344.322 437.697 341.999 445.213 341.999C452.647 341.999 459.466 344.339 462.754 347.978C459.566 351.499 452.824 353.999 445.213 353.999ZM445.213 332.999C455.783 332.999 464.713 337.808 464.713 343.499C464.697 344.489 464.434 345.459 463.947 346.321C460.164 342.405 453.1 339.999 445.213 339.999C437.371 339.999 430.238 342.448 426.48 346.325C425.992 345.462 425.728 344.49 425.713 343.499C425.713 337.805 434.642 332.999 445.213 332.999Z" fill="#333333"/>
<path d="M336.383 423.467C337.681 423.478 338.962 423.174 340.117 422.582C346.339 419.355 346.864 408.443 341.317 397.741C339.013 393.069 335.575 389.049 331.317 386.048C327.292 383.405 323.388 382.824 320.325 384.411C317.263 385.999 315.489 389.525 315.331 394.34C315.332 399.55 316.638 404.677 319.131 409.252C323.636 417.966 330.59 423.467 336.383 423.467ZM339.538 398.667C343.045 405.428 343.929 412.567 342.268 417.017C337.516 415.785 332.346 410.864 328.886 404.192C325.454 397.575 324.393 390.422 326.131 385.829C327.585 386.237 328.964 386.879 330.213 387.729C334.183 390.539 337.387 394.297 339.533 398.662L339.538 398.667ZM321.238 386.191C322.1 385.752 323.056 385.529 324.024 385.54C324.051 385.54 324.079 385.54 324.105 385.54C322.358 390.702 323.471 398.095 327.105 405.109C330.717 412.071 336.175 417.275 341.346 418.825C340.804 419.655 340.064 420.337 339.191 420.808C334.141 423.424 325.758 417.715 320.891 408.332C318.557 404.061 317.329 399.273 317.319 394.406C317.452 390.345 318.842 387.426 321.234 386.186L321.238 386.191Z" fill="#333333"/>
<path d="M412.305 527.048C408.28 524.405 404.376 523.823 401.313 525.411C398.251 526.999 396.477 530.525 396.319 535.34C396.319 540.55 397.626 545.677 400.119 550.252C404.639 558.966 411.593 564.467 417.381 564.467C418.679 564.478 419.96 564.174 421.115 563.582C427.337 560.355 427.862 549.443 422.315 538.741C420.008 534.068 416.567 530.048 412.305 527.048V527.048ZM420.191 561.807C415.141 564.424 406.757 558.714 401.891 549.331C399.557 545.06 398.329 540.272 398.319 535.405C398.452 531.345 399.842 528.426 402.234 527.186C403.096 526.747 404.052 526.524 405.02 526.535C405.047 526.535 405.075 526.535 405.101 526.535C403.354 531.697 404.467 539.09 408.101 546.104C411.713 553.066 417.171 558.27 422.342 559.82C421.802 560.651 421.063 561.334 420.191 561.807V561.807ZM423.263 558.007C418.511 556.775 413.341 551.854 409.881 545.182C406.449 538.565 405.388 531.412 407.126 526.819C408.58 527.227 409.959 527.869 411.208 528.719C415.181 531.531 418.386 535.292 420.533 539.661C424.04 546.423 424.924 553.561 423.263 558.012V558.007Z" fill="#333333"/>
<path d="M467.798 468.717C469.125 469.534 470.658 469.956 472.217 469.933C477.86 469.933 484.823 465.087 489.805 457.133C492.659 452.775 494.376 447.771 494.798 442.578C495.03 437.766 493.548 434.108 490.626 432.278C487.704 430.448 483.766 430.711 479.537 433.02C475.049 435.666 471.295 439.394 468.619 443.864C465.764 448.222 464.048 453.226 463.627 458.419C463.394 463.227 464.876 466.885 467.798 468.717ZM492.798 442.48C492.394 447.33 490.782 452.002 488.109 456.07C482.5 465.027 473.684 470.045 468.86 467.022C468.024 466.485 467.334 465.748 466.852 464.879C472.185 463.761 477.985 459.048 482.177 452.354C486.345 445.702 488.055 438.347 486.757 433.104C487.748 433.157 488.71 433.455 489.557 433.971C491.847 435.399 492.996 438.423 492.799 442.48H492.798ZM465.624 458.512C466.028 453.662 467.64 448.99 470.313 444.922C472.807 440.742 476.307 437.253 480.495 434.773C481.81 434.028 483.239 433.503 484.724 433.22C486.092 437.941 484.481 444.909 480.482 451.293C476.528 457.605 470.912 462.148 466.076 462.993C465.682 461.534 465.529 460.02 465.625 458.512H465.624Z" fill="#333333"/>
<path d="M572.626 478.275C569.703 476.446 565.766 476.709 561.537 479.017C557.049 481.663 553.295 485.391 550.619 489.861C547.764 494.219 546.048 499.223 545.627 504.416C545.394 509.227 546.876 512.885 549.798 514.716C551.125 515.533 552.658 515.955 554.217 515.932C559.86 515.932 566.823 511.085 571.805 503.132C574.659 498.774 576.376 493.77 576.798 488.577C577.03 483.765 575.548 480.107 572.626 478.275ZM547.626 504.512C548.03 499.662 549.642 494.99 552.315 490.922C554.809 486.742 558.309 483.253 562.497 480.773C563.812 480.028 565.241 479.503 566.726 479.22C568.094 483.941 566.483 490.909 562.484 497.293C558.53 503.605 552.914 508.148 548.078 508.993C547.683 507.534 547.53 506.02 547.625 504.512H547.626ZM574.8 488.48C574.396 493.33 572.784 498.003 570.111 502.07C564.501 511.027 555.684 516.045 550.862 513.022C550.026 512.485 549.336 511.748 548.854 510.879C554.187 509.761 559.987 505.048 564.179 498.354C568.347 491.702 570.057 484.347 568.759 479.104C569.75 479.157 570.712 479.455 571.559 479.971C573.847 481.399 574.996 484.423 574.799 488.48H574.8Z" fill="#333333"/>
<path d="M297 345.5L447 427.5M447 427.5V603M447 427.5L595 345.5" stroke="#333333" stroke-width="2"/>
</g>
<g opacity="0.8">
<path d="M150.5 259L299.456 345V517L150.5 603L1.54362 517V345L150.5 259Z" fill="#1F1D1D" stroke="#333333" stroke-width="2"/>
<path d="M149.213 309.999C161.268 309.999 170.713 304.508 170.713 297.499V286.999H170.671C170.23 280.233 160.977 274.999 149.213 274.999C137.449 274.999 128.195 280.233 127.755 286.999H127.713V297.499C127.713 304.505 137.157 309.999 149.213 309.999ZM149.213 276.999C159.783 276.999 168.713 281.808 168.713 287.499C168.713 293.19 159.783 297.999 149.213 297.999C138.643 297.999 129.713 293.191 129.713 287.499C129.713 281.807 138.642 276.999 149.213 276.999ZM129.713 292.821C133.094 297.094 140.454 299.999 149.213 299.999C157.972 299.999 165.331 297.099 168.713 292.821V297.499C168.713 303.191 159.783 307.999 149.213 307.999C138.643 307.999 129.713 303.191 129.713 297.499V292.821Z" fill="#333333"/>
<path d="M68.2129 356.999C80.2679 356.999 89.7129 351.508 89.7129 344.499V333.999H89.6709C89.2299 327.233 79.9769 321.999 68.2129 321.999C56.4489 321.999 47.1949 327.233 46.7549 333.999H46.7129V344.499C46.7129 351.505 56.1569 356.999 68.2129 356.999ZM68.2129 323.999C78.7829 323.999 87.7129 328.808 87.7129 334.499C87.7129 340.19 78.7829 344.999 68.2129 344.999C57.6429 344.999 48.7129 340.191 48.7129 334.499C48.7129 328.807 57.6419 323.999 68.2129 323.999ZM68.2129 346.999C76.9709 346.999 84.3309 344.099 87.7129 339.821V344.499C87.7129 350.191 78.7829 354.999 68.2129 354.999C57.6429 354.999 48.7129 350.191 48.7129 344.499V339.821C52.0939 344.091 59.4539 346.999 68.2129 346.999Z" fill="#333333"/>
<path d="M15.6099 506.423C20.0769 515.214 27.0269 520.783 32.8289 520.783C33.9307 520.786 35.0216 520.563 36.034 520.128L36.0479 520.155L36.4849 519.933H36.4939H36.4999L45.409 515.406C51.657 512.232 52.2739 501.325 46.8089 490.576C41.3439 479.827 32.1729 473.896 25.9259 477.076L17.013 481.604L16.5689 481.829L16.5879 481.866C10.7569 485.315 10.2829 495.934 15.6099 506.423ZM26.8379 478.847C31.9069 476.268 40.2379 482.052 45.0309 491.476C49.8239 500.9 49.577 511.038 44.503 513.616L40.332 515.735C42.61 510.785 41.866 502.907 37.899 495.099C33.932 487.291 28.0089 482.045 22.6679 480.965L26.8379 478.847ZM17.919 483.378C22.988 480.805 31.3189 486.584 36.1109 496.007C40.9029 505.43 40.6569 515.562 35.5879 518.145L35.577 518.15C30.505 520.721 22.177 514.939 17.388 505.519C12.599 496.099 12.847 485.958 17.919 483.378V483.378Z" fill="#333333"/>
<path d="M113.829 474.783C114.931 474.786 116.021 474.563 117.034 474.128L117.048 474.155L117.485 473.933H117.494H117.5L126.409 469.406C132.657 466.232 133.274 455.325 127.809 444.576C122.344 433.827 113.175 427.897 106.926 431.076L98.0128 435.604L97.5687 435.829L97.5878 435.866C91.7558 439.324 91.2808 449.943 96.6088 460.432C101.077 469.214 108.027 474.783 113.829 474.783ZM107.838 432.847C112.91 430.267 121.243 436.052 126.031 445.476C130.819 454.9 130.577 465.038 125.503 467.616L121.332 469.735C123.61 464.785 122.866 456.907 118.899 449.099C114.932 441.291 109.008 436.046 103.668 434.965L107.838 432.847ZM98.9188 437.378C103.989 434.804 112.319 440.584 117.111 450.007C121.903 459.43 121.657 469.562 116.588 472.145H116.577C111.502 474.716 103.177 468.933 98.3878 459.514C93.5988 450.095 93.8468 439.958 98.9188 437.378V437.378Z" fill="#333333"/>
<path d="M171.452 561.951L180.31 567.588L180.33 567.557C181.557 568.224 182.933 568.568 184.33 568.557C186.67 568.479 188.955 567.826 190.984 566.657C195.491 564.043 199.27 560.342 201.978 555.891C208.294 545.964 208.845 535.349 203.378 531.345L203.4 531.31L202.979 531.042L194.543 525.675C188.628 521.915 178.929 526.932 172.455 537.104C169.57 541.442 167.818 546.433 167.36 551.623C167.083 556.431 168.542 560.099 171.452 561.951ZM200.29 554.817C197.767 558.981 194.243 562.447 190.037 564.899C186.458 566.821 183.237 567.083 180.963 565.636C176.163 562.581 176.897 552.465 182.572 543.548C187.106 536.422 193.672 531.828 198.572 531.828C199.744 531.802 200.899 532.115 201.898 532.728V532.728C206.701 535.785 205.963 545.899 200.29 554.817V554.817ZM169.35 551.732C169.789 546.884 171.434 542.224 174.135 538.175C179.809 529.259 188.657 524.303 193.462 527.36L197.41 529.872C191.988 530.431 185.586 535.081 180.884 542.472C176.182 549.863 174.684 557.63 176.473 562.777L172.526 560.266C170.253 558.817 169.125 555.788 169.35 551.732V551.732Z" fill="#333333"/>
<path d="M252.452 419.951L261.31 425.588L261.33 425.557C262.557 426.224 263.933 426.569 265.33 426.557C267.67 426.479 269.955 425.826 271.984 424.657C276.491 422.043 280.27 418.342 282.978 413.891C289.294 403.964 289.845 393.349 284.378 389.345L284.4 389.31L283.979 389.042L275.543 383.675C269.628 379.914 259.929 384.931 253.455 395.104C250.57 399.442 248.818 404.434 248.36 409.623C248.083 414.431 249.542 418.099 252.452 419.951ZM281.29 412.817C278.767 416.981 275.243 420.447 271.037 422.899C267.458 424.822 264.237 425.084 261.963 423.636C257.163 420.581 257.897 410.466 263.572 401.548C268.106 394.422 274.672 389.828 279.572 389.828C280.744 389.802 281.899 390.115 282.898 390.728V390.728C287.701 393.785 286.963 403.899 281.29 412.817V412.817ZM250.35 409.732C250.789 404.884 252.434 400.224 255.135 396.175C260.809 387.259 269.655 382.303 274.462 385.36L278.409 387.872C272.987 388.431 266.587 393.081 261.884 400.472C257.181 407.863 255.684 415.63 257.473 420.777L253.526 418.266C251.253 416.817 250.125 413.788 250.35 409.732V409.732Z" fill="#333333"/>
<path d="M149.213 403.999C161.268 403.999 170.713 398.508 170.713 391.499V380.999H170.671C170.23 374.233 160.977 368.999 149.213 368.999C137.449 368.999 128.195 374.233 127.755 380.999H127.713V391.499C127.713 398.505 137.157 403.999 149.213 403.999ZM149.213 370.999C159.783 370.999 168.713 375.808 168.713 381.499C168.713 387.19 159.783 391.999 149.213 391.999C138.643 391.999 129.713 387.191 129.713 381.499C129.713 375.807 138.642 370.999 149.213 370.999ZM129.713 386.821C133.094 391.094 140.454 393.999 149.213 393.999C157.972 393.999 165.331 391.099 168.713 386.821V391.499C168.713 397.191 159.783 401.999 149.213 401.999C138.643 401.999 129.713 397.191 129.713 391.499V386.821Z" fill="#333333"/>
<path d="M231.213 356.999C243.268 356.999 252.713 351.508 252.713 344.499V333.999H252.671C252.23 327.233 242.977 321.999 231.213 321.999C219.449 321.999 210.195 327.233 209.755 333.999H209.713V344.499C209.713 351.505 219.157 356.999 231.213 356.999ZM231.213 323.999C241.783 323.999 250.713 328.808 250.713 334.499C250.713 340.19 241.783 344.999 231.213 344.999C220.643 344.999 211.713 340.191 211.713 334.499C211.713 328.807 220.642 323.999 231.213 323.999ZM211.713 339.821C215.094 344.094 222.454 346.999 231.213 346.999C239.972 346.999 247.331 344.099 250.713 339.821V344.499C250.713 350.191 241.783 354.999 231.213 354.999C220.643 354.999 211.713 350.191 211.713 344.499V339.821Z" fill="#333333"/>
<path d="M149.213 355.999C161.268 355.999 170.713 350.508 170.713 343.499C170.713 336.49 161.268 330.999 149.213 330.999C137.158 330.999 127.713 336.49 127.713 343.499C127.713 350.508 137.157 355.999 149.213 355.999ZM149.213 353.999C141.597 353.999 134.853 351.499 131.666 347.973C134.949 344.322 141.697 341.999 149.213 341.999C156.647 341.999 163.466 344.339 166.754 347.978C163.566 351.499 156.824 353.999 149.213 353.999ZM149.213 332.999C159.783 332.999 168.713 337.808 168.713 343.499C168.697 344.489 168.434 345.459 167.947 346.321C164.164 342.405 157.1 339.999 149.213 339.999C141.371 339.999 134.238 342.448 130.48 346.325C129.992 345.462 129.728 344.49 129.713 343.499C129.713 337.805 138.642 332.999 149.213 332.999Z" fill="#333333"/>
<path d="M40.3831 423.467C41.681 423.478 42.9622 423.174 44.1171 422.582C50.3391 419.355 50.864 408.443 45.317 397.741C43.0131 393.069 39.575 389.049 35.317 386.048C31.292 383.405 27.388 382.824 24.325 384.411C21.263 385.999 19.4891 389.525 19.3311 394.34C19.3316 399.55 20.638 404.677 23.131 409.252C27.636 417.966 34.5901 423.467 40.3831 423.467ZM43.538 398.667C47.045 405.428 47.9291 412.567 46.2681 417.017C41.5161 415.785 36.346 410.864 32.886 404.192C29.454 397.575 28.393 390.422 30.131 385.829C31.5855 386.237 32.9641 386.879 34.213 387.729C38.1829 390.539 41.3867 394.297 43.533 398.662L43.538 398.667ZM25.238 386.191C26.1004 385.752 27.0564 385.529 28.024 385.54C28.051 385.54 28.079 385.54 28.105 385.54C26.358 390.702 27.471 398.095 31.105 405.109C34.717 412.071 40.1749 417.275 45.3459 418.825C44.8044 419.655 44.0636 420.337 43.191 420.808C38.141 423.424 29.758 417.715 24.891 408.332C22.5569 404.061 21.3289 399.273 21.319 394.406C21.452 390.345 22.842 387.426 25.234 386.186L25.238 386.191Z" fill="#333333"/>
<path d="M116.305 527.048C112.28 524.405 108.376 523.823 105.313 525.411C102.251 526.999 100.477 530.525 100.319 535.34C100.319 540.55 101.626 545.677 104.119 550.252C108.639 558.966 115.593 564.467 121.381 564.467C122.679 564.478 123.96 564.174 125.115 563.582C131.337 560.355 131.862 549.443 126.315 538.741C124.008 534.068 120.567 530.048 116.305 527.048V527.048ZM124.191 561.807C119.141 564.424 110.757 558.714 105.891 549.331C103.557 545.06 102.329 540.272 102.319 535.405C102.452 531.345 103.842 528.426 106.234 527.186C107.096 526.747 108.052 526.524 109.02 526.535C109.047 526.535 109.075 526.535 109.101 526.535C107.354 531.697 108.467 539.09 112.101 546.104C115.713 553.066 121.171 558.27 126.342 559.82C125.802 560.651 125.063 561.334 124.191 561.807V561.807ZM127.263 558.007C122.511 556.775 117.341 551.854 113.881 545.182C110.449 538.565 109.388 531.412 111.126 526.819C112.58 527.227 113.959 527.869 115.208 528.719C119.181 531.531 122.386 535.292 124.533 539.661C128.04 546.423 128.924 553.561 127.263 558.012V558.007Z" fill="#333333"/>
<path d="M171.798 468.717C173.125 469.534 174.658 469.956 176.217 469.933C181.86 469.933 188.823 465.087 193.805 457.133C196.659 452.775 198.376 447.771 198.798 442.578C199.03 437.766 197.548 434.108 194.626 432.278C191.704 430.448 187.766 430.711 183.537 433.02C179.049 435.666 175.295 439.394 172.619 443.864C169.764 448.222 168.048 453.226 167.627 458.419C167.394 463.227 168.876 466.885 171.798 468.717ZM196.798 442.48C196.394 447.33 194.782 452.002 192.109 456.07C186.5 465.027 177.684 470.045 172.86 467.022C172.024 466.485 171.334 465.748 170.852 464.879C176.185 463.761 181.985 459.048 186.177 452.354C190.345 445.702 192.055 438.347 190.757 433.104C191.748 433.157 192.71 433.455 193.557 433.971C195.847 435.399 196.996 438.423 196.799 442.48H196.798ZM169.624 458.512C170.028 453.662 171.64 448.99 174.313 444.922C176.807 440.742 180.307 437.253 184.495 434.773C185.81 434.028 187.239 433.503 188.724 433.22C190.092 437.941 188.481 444.909 184.482 451.293C180.528 457.605 174.912 462.148 170.076 462.993C169.682 461.534 169.529 460.02 169.625 458.512H169.624Z" fill="#333333"/>
<path d="M276.626 478.275C273.703 476.446 269.766 476.709 265.537 479.017C261.049 481.663 257.295 485.391 254.619 489.861C251.764 494.219 250.048 499.223 249.627 504.416C249.394 509.227 250.876 512.885 253.798 514.716C255.125 515.533 256.658 515.955 258.217 515.932C263.86 515.932 270.823 511.085 275.805 503.132C278.659 498.774 280.376 493.77 280.798 488.577C281.03 483.765 279.548 480.107 276.626 478.275ZM251.626 504.512C252.03 499.662 253.642 494.99 256.315 490.922C258.809 486.742 262.309 483.253 266.497 480.773C267.812 480.028 269.241 479.503 270.726 479.22C272.094 483.941 270.483 490.909 266.484 497.293C262.53 503.605 256.914 508.148 252.078 508.993C251.683 507.534 251.53 506.02 251.625 504.512H251.626ZM278.8 488.48C278.396 493.33 276.784 498.003 274.111 502.07C268.501 511.027 259.684 516.045 254.862 513.022C254.026 512.485 253.336 511.748 252.854 510.879C258.187 509.761 263.987 505.048 268.179 498.354C272.347 491.702 274.057 484.347 272.759 479.104C273.75 479.157 274.712 479.455 275.559 479.971C277.847 481.399 278.996 484.423 278.799 488.48H278.8Z" fill="#333333"/>
<path d="M1 345.5L151 427.5M151 427.5V603M151 427.5L299 345.5" stroke="#333333" stroke-width="2"/>
</g>
<g opacity="0.8">
<path d="M298.5 2L447.456 88V260L298.5 346L149.544 260V88L298.5 2Z" fill="#1F1D1D" stroke="#38421E" stroke-width="2"/>
<path d="M297.213 52.999C309.268 52.999 318.713 47.508 318.713 40.499V29.999H318.671C318.23 23.233 308.977 17.999 297.213 17.999C285.449 17.999 276.195 23.233 275.755 29.999H275.713V40.499C275.713 47.505 285.157 52.999 297.213 52.999ZM297.213 19.999C307.783 19.999 316.713 24.808 316.713 30.499C316.713 36.19 307.783 40.999 297.213 40.999C286.643 40.999 277.713 36.191 277.713 30.499C277.713 24.807 286.642 19.999 297.213 19.999ZM277.713 35.821C281.094 40.094 288.454 42.999 297.213 42.999C305.972 42.999 313.331 40.099 316.713 35.821V40.499C316.713 46.191 307.783 50.999 297.213 50.999C286.643 50.999 277.713 46.191 277.713 40.499V35.821Z" fill="#38421E"/>
<path d="M216.213 99.999C228.268 99.999 237.713 94.508 237.713 87.499V76.999H237.671C237.23 70.233 227.977 64.999 216.213 64.999C204.449 64.999 195.195 70.233 194.755 76.999H194.713V87.499C194.713 94.505 204.157 99.999 216.213 99.999ZM216.213 66.999C226.783 66.999 235.713 71.808 235.713 77.499C235.713 83.19 226.783 87.999 216.213 87.999C205.643 87.999 196.713 83.191 196.713 77.499C196.713 71.807 205.642 66.999 216.213 66.999ZM216.213 89.999C224.971 89.999 232.331 87.099 235.713 82.821V87.499C235.713 93.191 226.783 97.999 216.213 97.999C205.643 97.999 196.713 93.191 196.713 87.499V82.821C200.094 87.091 207.454 89.999 216.213 89.999Z" fill="#38421E"/>
<path d="M163.61 249.423C168.077 258.214 175.027 263.783 180.829 263.783C181.931 263.786 183.022 263.563 184.034 263.128L184.048 263.155L184.485 262.933H184.494H184.5L193.409 258.406C199.657 255.232 200.274 244.325 194.809 233.576C189.344 222.827 180.173 216.896 173.926 220.076L165.013 224.604L164.569 224.829L164.588 224.866C158.757 228.315 158.283 238.934 163.61 249.423ZM174.838 221.847C179.907 219.268 188.238 225.052 193.031 234.476C197.824 243.9 197.577 254.038 192.503 256.616L188.332 258.735C190.61 253.785 189.866 245.907 185.899 238.099C181.932 230.291 176.009 225.045 170.668 223.965L174.838 221.847ZM165.919 226.378C170.988 223.805 179.319 229.584 184.111 239.007C188.903 248.43 188.657 258.562 183.588 261.145L183.577 261.15C178.505 263.721 170.177 257.939 165.388 248.519C160.599 239.099 160.847 228.958 165.919 226.378V226.378Z" fill="#38421E"/>
<path d="M261.829 217.783C262.931 217.786 264.021 217.563 265.034 217.128L265.048 217.155L265.485 216.933H265.494H265.5L274.409 212.406C280.657 209.232 281.274 198.325 275.809 187.576C270.344 176.827 261.175 170.897 254.926 174.076L246.013 178.604L245.569 178.829L245.588 178.866C239.756 182.324 239.281 192.943 244.609 203.432C249.077 212.214 256.027 217.783 261.829 217.783ZM255.838 175.847C260.91 173.267 269.243 179.052 274.031 188.476C278.819 197.9 278.577 208.038 273.503 210.616L269.332 212.735C271.61 207.785 270.866 199.907 266.899 192.099C262.932 184.291 257.008 179.046 251.668 177.965L255.838 175.847ZM246.919 180.378C251.989 177.804 260.319 183.584 265.111 193.007C269.903 202.43 269.657 212.562 264.588 215.145H264.577C259.502 217.716 251.177 211.933 246.388 202.514C241.599 193.095 241.847 182.958 246.919 180.378V180.378Z" fill="#38421E"/>
<path d="M319.452 304.951L328.31 310.588L328.33 310.557C329.557 311.224 330.933 311.568 332.33 311.557C334.67 311.479 336.955 310.826 338.984 309.657C343.491 307.043 347.27 303.342 349.978 298.891C356.294 288.964 356.845 278.349 351.378 274.345L351.4 274.31L350.979 274.042L342.543 268.675C336.628 264.915 326.929 269.932 320.455 280.104C317.57 284.442 315.818 289.433 315.36 294.623C315.083 299.431 316.542 303.099 319.452 304.951ZM348.29 297.817C345.767 301.981 342.243 305.447 338.037 307.899C334.458 309.821 331.237 310.083 328.963 308.636C324.163 305.581 324.897 295.465 330.572 286.548C335.106 279.422 341.672 274.828 346.572 274.828C347.744 274.802 348.899 275.115 349.898 275.728V275.728C354.701 278.785 353.963 288.899 348.29 297.817V297.817ZM317.35 294.732C317.789 289.884 319.434 285.224 322.135 281.175C327.809 272.259 336.657 267.303 341.462 270.36L345.41 272.872C339.988 273.431 333.586 278.081 328.884 285.472C324.182 292.863 322.684 300.63 324.473 305.777L320.526 303.266C318.253 301.817 317.125 298.788 317.35 294.732V294.732Z" fill="#38421E"/>
<path d="M400.452 162.951L409.31 168.588L409.33 168.557C410.557 169.224 411.933 169.569 413.33 169.557C415.67 169.479 417.955 168.826 419.984 167.657C424.491 165.043 428.27 161.342 430.978 156.891C437.294 146.964 437.845 136.349 432.378 132.345L432.4 132.31L431.979 132.042L423.543 126.675C417.628 122.914 407.929 127.931 401.455 138.104C398.57 142.442 396.818 147.434 396.36 152.623C396.083 157.431 397.542 161.099 400.452 162.951ZM429.29 155.817C426.767 159.981 423.243 163.447 419.037 165.899C415.458 167.822 412.237 168.084 409.963 166.636C405.163 163.581 405.897 153.466 411.572 144.548C416.106 137.422 422.672 132.828 427.572 132.828C428.744 132.802 429.899 133.115 430.898 133.728V133.728C435.701 136.785 434.963 146.899 429.29 155.817V155.817ZM398.35 152.732C398.789 147.884 400.434 143.224 403.135 139.175C408.809 130.259 417.655 125.303 422.462 128.36L426.409 130.872C420.987 131.431 414.587 136.081 409.884 143.472C405.181 150.863 403.684 158.63 405.473 163.777L401.526 161.266C399.253 159.817 398.125 156.788 398.35 152.732V152.732Z" fill="#38421E"/>
<path d="M297.213 146.999C309.268 146.999 318.713 141.508 318.713 134.499V123.999H318.671C318.23 117.233 308.977 111.999 297.213 111.999C285.449 111.999 276.195 117.233 275.755 123.999H275.713V134.499C275.713 141.505 285.157 146.999 297.213 146.999ZM297.213 113.999C307.783 113.999 316.713 118.808 316.713 124.499C316.713 130.19 307.783 134.999 297.213 134.999C286.643 134.999 277.713 130.191 277.713 124.499C277.713 118.807 286.642 113.999 297.213 113.999ZM277.713 129.821C281.094 134.094 288.454 136.999 297.213 136.999C305.972 136.999 313.331 134.099 316.713 129.821V134.499C316.713 140.191 307.783 144.999 297.213 144.999C286.643 144.999 277.713 140.191 277.713 134.499V129.821Z" fill="#38421E"/>
<path d="M379.213 99.999C391.268 99.999 400.713 94.508 400.713 87.499V76.999H400.671C400.23 70.233 390.977 64.999 379.213 64.999C367.449 64.999 358.195 70.233 357.755 76.999H357.713V87.499C357.713 94.505 367.157 99.999 379.213 99.999ZM379.213 66.999C389.783 66.999 398.713 71.808 398.713 77.499C398.713 83.19 389.783 87.999 379.213 87.999C368.643 87.999 359.713 83.191 359.713 77.499C359.713 71.807 368.642 66.999 379.213 66.999ZM359.713 82.821C363.094 87.094 370.454 89.999 379.213 89.999C387.972 89.999 395.331 87.099 398.713 82.821V87.499C398.713 93.191 389.783 97.999 379.213 97.999C368.643 97.999 359.713 93.191 359.713 87.499V82.821Z" fill="#38421E"/>
<path d="M297.213 98.999C309.268 98.999 318.713 93.508 318.713 86.499C318.713 79.49 309.268 73.999 297.213 73.999C285.158 73.999 275.713 79.49 275.713 86.499C275.713 93.508 285.157 98.999 297.213 98.999ZM297.213 96.999C289.597 96.999 282.853 94.499 279.666 90.973C282.949 87.322 289.697 84.999 297.213 84.999C304.647 84.999 311.466 87.339 314.754 90.978C311.566 94.499 304.824 96.999 297.213 96.999ZM297.213 75.999C307.783 75.999 316.713 80.808 316.713 86.499C316.697 87.4889 316.434 88.4591 315.947 89.321C312.164 85.405 305.1 82.999 297.213 82.999C289.371 82.999 282.238 85.448 278.48 89.325C277.992 88.462 277.728 87.4903 277.713 86.499C277.713 80.805 286.642 75.999 297.213 75.999Z" fill="#38421E"/>
<path d="M188.383 166.467C189.681 166.478 190.962 166.174 192.117 165.582C198.339 162.355 198.864 151.443 193.317 140.741C191.013 136.069 187.575 132.049 183.317 129.048C179.292 126.405 175.388 125.824 172.325 127.411C169.263 128.999 167.489 132.525 167.331 137.34C167.332 142.55 168.638 147.677 171.131 152.252C175.636 160.966 182.59 166.467 188.383 166.467ZM191.538 141.667C195.045 148.428 195.929 155.567 194.268 160.017C189.516 158.785 184.346 153.864 180.886 147.192C177.454 140.575 176.393 133.422 178.131 128.829C179.585 129.237 180.964 129.879 182.213 130.729C186.183 133.539 189.387 137.297 191.533 141.662L191.538 141.667ZM173.238 129.191C174.1 128.752 175.056 128.529 176.024 128.54C176.051 128.54 176.079 128.54 176.105 128.54C174.358 133.702 175.471 141.095 179.105 148.109C182.717 155.071 188.175 160.275 193.346 161.825C192.804 162.655 192.064 163.337 191.191 163.808C186.141 166.424 177.758 160.715 172.891 151.332C170.557 147.061 169.329 142.273 169.319 137.406C169.452 133.345 170.842 130.426 173.234 129.186L173.238 129.191Z" fill="#38421E"/>
<path d="M264.305 270.048C260.28 267.405 256.376 266.823 253.313 268.411C250.251 269.999 248.477 273.525 248.319 278.34C248.319 283.55 249.626 288.677 252.119 293.252C256.639 301.966 263.593 307.467 269.381 307.467C270.679 307.478 271.96 307.175 273.115 306.582C279.337 303.355 279.862 292.443 274.315 281.741C272.008 277.068 268.567 273.048 264.305 270.048V270.048ZM272.191 304.807C267.141 307.424 258.757 301.714 253.891 292.331C251.557 288.06 250.329 283.272 250.319 278.405C250.452 274.345 251.842 271.426 254.234 270.186C255.096 269.747 256.052 269.524 257.02 269.535C257.047 269.535 257.075 269.535 257.101 269.535C255.354 274.697 256.467 282.09 260.101 289.104C263.713 296.066 269.171 301.27 274.342 302.82C273.802 303.651 273.063 304.335 272.191 304.807V304.807ZM275.263 301.007C270.511 299.775 265.341 294.854 261.881 288.182C258.449 281.565 257.388 274.412 259.126 269.819C260.58 270.227 261.959 270.869 263.208 271.719C267.181 274.531 270.386 278.293 272.533 282.661C276.04 289.423 276.924 296.561 275.263 301.012V301.007Z" fill="#38421E"/>
<path d="M319.798 211.717C321.125 212.534 322.658 212.956 324.217 212.933C329.86 212.933 336.823 208.087 341.805 200.133C344.659 195.775 346.376 190.771 346.798 185.578C347.03 180.766 345.548 177.108 342.626 175.278C339.704 173.448 335.766 173.711 331.537 176.02C327.049 178.666 323.295 182.394 320.619 186.864C317.764 191.222 316.048 196.226 315.627 201.419C315.394 206.227 316.876 209.885 319.798 211.717ZM344.798 185.48C344.394 190.33 342.782 195.002 340.109 199.07C334.5 208.027 325.684 213.045 320.86 210.022C320.024 209.485 319.334 208.748 318.852 207.879C324.185 206.761 329.985 202.048 334.177 195.354C338.345 188.702 340.055 181.347 338.757 176.104C339.748 176.157 340.71 176.455 341.557 176.971C343.847 178.399 344.996 181.423 344.799 185.48H344.798ZM317.624 201.512C318.028 196.662 319.64 191.99 322.313 187.922C324.807 183.742 328.307 180.253 332.495 177.773C333.81 177.028 335.239 176.503 336.724 176.22C338.092 180.941 336.481 187.909 332.482 194.293C328.528 200.605 322.912 205.148 318.076 205.993C317.682 204.534 317.529 203.02 317.625 201.512H317.624Z" fill="#38421E"/>
<path d="M424.626 221.275C421.703 219.446 417.766 219.709 413.537 222.017C409.049 224.663 405.295 228.391 402.619 232.861C399.764 237.219 398.048 242.223 397.627 247.416C397.394 252.227 398.876 255.885 401.798 257.716C403.125 258.533 404.658 258.955 406.217 258.932C411.86 258.932 418.823 254.085 423.805 246.132C426.659 241.774 428.376 236.77 428.798 231.577C429.03 226.765 427.548 223.107 424.626 221.275ZM399.626 247.512C400.03 242.662 401.642 237.99 404.315 233.922C406.809 229.742 410.309 226.253 414.497 223.773C415.812 223.028 417.241 222.503 418.726 222.22C420.094 226.941 418.483 233.909 414.484 240.293C410.53 246.605 404.914 251.148 400.078 251.993C399.683 250.534 399.53 249.02 399.625 247.512H399.626ZM426.8 231.48C426.396 236.33 424.784 241.003 422.111 245.07C416.501 254.027 407.684 259.045 402.862 256.022C402.026 255.485 401.336 254.748 400.854 253.879C406.187 252.761 411.987 248.048 416.179 241.354C420.347 234.702 422.057 227.347 420.759 222.104C421.75 222.157 422.712 222.455 423.559 222.971C425.847 224.399 426.996 227.423 426.799 231.48H426.8Z" fill="#38421E"/>
<path d="M149 88.5L299 170.5M299 170.5V346M299 170.5L447 88.5" stroke="#38421E" stroke-width="2"/>
</g>
</svg>
